<?xml version="1.0" encoding="utf-8" standalone="no"?>
<!DOCTYPE svg PUBLIC "-//W3C//DTD SVG 1.1//EN"
  "http://www.w3.org/Graphics/SVG/1.1/DTD/svg11.dtd">
<svg xmlns:xlink="http://www.w3.org/1999/xlink" width="432pt" height="432pt" viewBox="0 0 432 432" xmlns="http://www.w3.org/2000/svg" version="1.1">
 <metadata>
  <rdf:RDF xmlns:dc="http://purl.org/dc/elements/1.1/" xmlns:cc="http://creativecommons.org/ns#" xmlns:rdf="http://www.w3.org/1999/02/22-rdf-syntax-ns#">
   <cc:Work>
    <dc:type rdf:resource="http://purl.org/dc/dcmitype/StillImage"/>
    <dc:date>2024-01-24T13:15:25.276107</dc:date>
    <dc:format>image/svg+xml</dc:format>
    <dc:creator>
     <cc:Agent>
      <dc:title>Matplotlib v3.6.3, https://matplotlib.org/</dc:title>
     </cc:Agent>
    </dc:creator>
   </cc:Work>
  </rdf:RDF>
 </metadata>
 <defs>
  <style type="text/css">*{stroke-linejoin: round; stroke-linecap: butt}</style>
 </defs>
 <g id="figure_1">
  <g id="patch_1">
   <path d="M 0 432 
L 432 432 
L 432 0 
L 0 0 
z
" style="fill: #ffffff"/>
  </g>
  <g id="axes_1">
   <g id="patch_2">
    <path d="M 55.08 384.48 
L 387.72 384.48 
L 387.72 51.84 
L 55.08 51.84 
z
" style="fill: #ffffff"/>
   </g>
   <g id="PolyCollection_1">
    <defs>
     <path id="md3f86ad516" d="M 70.2 -62.64 
L 70.2 -62.64 
L 73.254545 -256.094634 
L 76.309091 -305.62469 
L 79.363636 -327.900187 
L 82.418182 -336.766674 
L 85.472727 -343.336458 
L 88.527273 -346.094679 
L 91.581818 -348.431683 
L 94.636364 -350.527658 
L 97.690909 -351.790682 
L 100.745455 -352.68608 
L 103.8 -354.024537 
L 106.854545 -354.820097 
L 109.909091 -355.720702 
L 112.963636 -356.566191 
L 116.018182 -357.380332 
L 119.072727 -358.228686 
L 122.127273 -358.595201 
L 125.181818 -359.127933 
L 128.236364 -359.554223 
L 131.290909 -359.941625 
L 134.345455 -360.517935 
L 137.4 -360.841168 
L 140.454545 -360.950293 
L 143.509091 -361.306127 
L 146.563636 -361.621629 
L 149.618182 -361.676084 
L 152.672727 -361.90604 
L 155.727273 -362.04344 
L 158.781818 -362.126766 
L 161.836364 -362.350218 
L 164.890909 -362.693787 
L 167.945455 -362.708082 
L 171 -362.944222 
L 174.054545 -363.073504 
L 177.109091 -363.133888 
L 180.163636 -363.221045 
L 183.218182 -363.305704 
L 186.272727 -363.405777 
L 189.327273 -363.434781 
L 192.381818 -363.550045 
L 195.436364 -363.603941 
L 198.490909 -363.681496 
L 201.545455 -363.763952 
L 204.6 -363.889801 
L 207.654545 -363.945264 
L 210.709091 -364.081903 
L 213.763636 -364.184073 
L 216.818182 -364.264211 
L 219.872727 -364.398038 
L 222.927273 -364.494478 
L 225.981818 -364.524549 
L 229.036364 -364.609263 
L 232.090909 -364.624202 
L 235.145455 -364.641969 
L 238.2 -364.658805 
L 241.254545 -364.685529 
L 244.309091 -364.696187 
L 247.363636 -364.696187 
L 250.418182 -364.695683 
L 253.472727 -364.700406 
L 256.527273 -364.758852 
L 259.581818 -364.758852 
L 262.636364 -364.801465 
L 265.690909 -364.801465 
L 268.745455 -364.852568 
L 271.8 -364.852568 
L 274.854545 -364.89258 
L 277.909091 -364.913649 
L 280.963636 -364.913649 
L 284.018182 -364.976825 
L 287.072727 -364.980744 
L 290.127273 -365.04 
L 293.181818 -365.04 
L 296.236364 -365.04 
L 299.290909 -365.04 
L 302.345455 -365.04 
L 305.4 -365.04 
L 308.454545 -365.04 
L 311.509091 -365.04 
L 314.563636 -365.04 
L 317.618182 -365.04 
L 320.672727 -365.04 
L 323.727273 -365.04 
L 326.781818 -365.04 
L 329.836364 -365.04 
L 332.890909 -365.04 
L 335.945455 -365.04 
L 339 -365.04 
L 342.054545 -365.04 
L 345.109091 -365.04 
L 348.163636 -365.04 
L 351.218182 -365.04 
L 354.272727 -365.04 
L 357.327273 -365.04 
L 360.381818 -365.04 
L 363.436364 -365.04 
L 366.490909 -365.04 
L 369.545455 -365.04 
L 372.6 -365.04 
L 372.6 -365.04 
L 372.6 -365.04 
L 369.545455 -365.04 
L 366.490909 -365.04 
L 363.436364 -365.04 
L 360.381818 -365.04 
L 357.327273 -365.04 
L 354.272727 -365.04 
L 351.218182 -365.04 
L 348.163636 -365.04 
L 345.109091 -365.04 
L 342.054545 -365.04 
L 339 -365.04 
L 335.945455 -365.04 
L 332.890909 -365.04 
L 329.836364 -365.04 
L 326.781818 -365.04 
L 323.727273 -365.04 
L 320.672727 -365.04 
L 317.618182 -365.04 
L 314.563636 -365.04 
L 311.509091 -365.04 
L 308.454545 -365.04 
L 305.4 -365.04 
L 302.345455 -365.04 
L 299.290909 -365.04 
L 296.236364 -365.04 
L 293.181818 -365.04 
L 290.127273 -365.04 
L 287.072727 -365.04 
L 284.018182 -365.04 
L 280.963636 -365.04 
L 277.909091 -365.04 
L 274.854545 -365.04 
L 271.8 -365.04 
L 268.745455 -365.04 
L 265.690909 -365.04 
L 262.636364 -365.04 
L 259.581818 -365.04 
L 256.527273 -365.04 
L 253.472727 -365.04 
L 250.418182 -365.005206 
L 247.363636 -364.96257 
L 244.309091 -364.96257 
L 241.254545 -364.931111 
L 238.2 -364.873572 
L 235.145455 -364.84829 
L 232.090909 -364.781794 
L 229.036364 -364.71247 
L 225.981818 -364.712935 
L 222.927273 -364.700874 
L 219.872727 -364.628803 
L 216.818182 -364.509884 
L 213.763636 -364.463627 
L 210.709091 -364.397284 
L 207.654545 -364.384548 
L 204.6 -364.252378 
L 201.545455 -364.251831 
L 198.490909 -364.207907 
L 195.436364 -364.092267 
L 192.381818 -364.069986 
L 189.327273 -363.971807 
L 186.272727 -363.893842 
L 183.218182 -363.777756 
L 180.163636 -363.53098 
L 177.109091 -363.449624 
L 174.054545 -363.383628 
L 171 -363.344398 
L 167.945455 -363.117148 
L 164.890909 -362.955091 
L 161.836364 -362.742299 
L 158.781818 -362.561086 
L 155.727273 -362.457607 
L 152.672727 -362.360539 
L 149.618182 -362.244549 
L 146.563636 -362.013077 
L 143.509091 -361.823043 
L 140.454545 -361.546991 
L 137.4 -361.343453 
L 134.345455 -360.845827 
L 131.290909 -360.659998 
L 128.236364 -360.363381 
L 125.181818 -359.937474 
L 122.127273 -359.605401 
L 119.072727 -358.956759 
L 116.018182 -358.668077 
L 112.963636 -358.146905 
L 109.909091 -357.425266 
L 106.854545 -356.303326 
L 103.8 -355.264023 
L 100.745455 -354.443783 
L 97.690909 -353.434982 
L 94.636364 -352.102606 
L 91.581818 -350.55469 
L 88.527273 -347.822266 
L 85.472727 -345.179261 
L 82.418182 -341.269414 
L 79.363636 -335.330291 
L 76.309091 -321.720484 
L 73.254545 -285.350417 
L 70.2 -62.64 
z
" style="stroke: #808080; stroke-opacity: 0.2"/>
    </defs>
    <g clip-path="url(#p66d6a44d65)">
     <use xlink:href="#md3f86ad516" x="0" y="432" style="fill: #808080; fill-opacity: 0.2; stroke: #808080; stroke-opacity: 0.2"/>
    </g>
   </g>
   <g id="matplotlib.axis_1">
    <g id="xtick_1">
     <g id="line2d_1">
      <defs>
       <path id="maa77d27cc7" d="M 0 0 
L 0 3.5 
" style="stroke: #000000; stroke-width: 0.8"/>
      </defs>
      <g>
       <use xlink:href="#maa77d27cc7" x="70.2" y="384.48" style="stroke: #000000; stroke-width: 0.8"/>
      </g>
     </g>
     <g id="text_1">
      <!-- 0.0 -->
      <g transform="translate(62.248438 399.078438) scale(0.1 -0.1)">
       <defs>
        <path id="DejaVuSans-30" d="M 2034 4250 
Q 1547 4250 1301 3770 
Q 1056 3291 1056 2328 
Q 1056 1369 1301 889 
Q 1547 409 2034 409 
Q 2525 409 2770 889 
Q 3016 1369 3016 2328 
Q 3016 3291 2770 3770 
Q 2525 4250 2034 4250 
z
M 2034 4750 
Q 2819 4750 3233 4129 
Q 3647 3509 3647 2328 
Q 3647 1150 3233 529 
Q 2819 -91 2034 -91 
Q 1250 -91 836 529 
Q 422 1150 422 2328 
Q 422 3509 836 4129 
Q 1250 4750 2034 4750 
z
" transform="scale(0.015625)"/>
        <path id="DejaVuSans-2e" d="M 684 794 
L 1344 794 
L 1344 0 
L 684 0 
L 684 794 
z
" transform="scale(0.015625)"/>
       </defs>
       <use xlink:href="#DejaVuSans-30"/>
       <use xlink:href="#DejaVuSans-2e" x="63.623047"/>
       <use xlink:href="#DejaVuSans-30" x="95.410156"/>
      </g>
     </g>
    </g>
    <g id="xtick_2">
     <g id="line2d_2">
      <g>
       <use xlink:href="#maa77d27cc7" x="130.68" y="384.48" style="stroke: #000000; stroke-width: 0.8"/>
      </g>
     </g>
     <g id="text_2">
      <!-- 0.2 -->
      <g transform="translate(122.728438 399.078438) scale(0.1 -0.1)">
       <defs>
        <path id="DejaVuSans-32" d="M 1228 531 
L 3431 531 
L 3431 0 
L 469 0 
L 469 531 
Q 828 903 1448 1529 
Q 2069 2156 2228 2338 
Q 2531 2678 2651 2914 
Q 2772 3150 2772 3378 
Q 2772 3750 2511 3984 
Q 2250 4219 1831 4219 
Q 1534 4219 1204 4116 
Q 875 4013 500 3803 
L 500 4441 
Q 881 4594 1212 4672 
Q 1544 4750 1819 4750 
Q 2544 4750 2975 4387 
Q 3406 4025 3406 3419 
Q 3406 3131 3298 2873 
Q 3191 2616 2906 2266 
Q 2828 2175 2409 1742 
Q 1991 1309 1228 531 
z
" transform="scale(0.015625)"/>
       </defs>
       <use xlink:href="#DejaVuSans-30"/>
       <use xlink:href="#DejaVuSans-2e" x="63.623047"/>
       <use xlink:href="#DejaVuSans-32" x="95.410156"/>
      </g>
     </g>
    </g>
    <g id="xtick_3">
     <g id="line2d_3">
      <g>
       <use xlink:href="#maa77d27cc7" x="191.16" y="384.48" style="stroke: #000000; stroke-width: 0.8"/>
      </g>
     </g>
     <g id="text_3">
      <!-- 0.4 -->
      <g transform="translate(183.208438 399.078438) scale(0.1 -0.1)">
       <defs>
        <path id="DejaVuSans-34" d="M 2419 4116 
L 825 1625 
L 2419 1625 
L 2419 4116 
z
M 2253 4666 
L 3047 4666 
L 3047 1625 
L 3713 1625 
L 3713 1100 
L 3047 1100 
L 3047 0 
L 2419 0 
L 2419 1100 
L 313 1100 
L 313 1709 
L 2253 4666 
z
" transform="scale(0.015625)"/>
       </defs>
       <use xlink:href="#DejaVuSans-30"/>
       <use xlink:href="#DejaVuSans-2e" x="63.623047"/>
       <use xlink:href="#DejaVuSans-34" x="95.410156"/>
      </g>
     </g>
    </g>
    <g id="xtick_4">
     <g id="line2d_4">
      <g>
       <use xlink:href="#maa77d27cc7" x="251.64" y="384.48" style="stroke: #000000; stroke-width: 0.8"/>
      </g>
     </g>
     <g id="text_4">
      <!-- 0.6 -->
      <g transform="translate(243.688438 399.078438) scale(0.1 -0.1)">
       <defs>
        <path id="DejaVuSans-36" d="M 2113 2584 
Q 1688 2584 1439 2293 
Q 1191 2003 1191 1497 
Q 1191 994 1439 701 
Q 1688 409 2113 409 
Q 2538 409 2786 701 
Q 3034 994 3034 1497 
Q 3034 2003 2786 2293 
Q 2538 2584 2113 2584 
z
M 3366 4563 
L 3366 3988 
Q 3128 4100 2886 4159 
Q 2644 4219 2406 4219 
Q 1781 4219 1451 3797 
Q 1122 3375 1075 2522 
Q 1259 2794 1537 2939 
Q 1816 3084 2150 3084 
Q 2853 3084 3261 2657 
Q 3669 2231 3669 1497 
Q 3669 778 3244 343 
Q 2819 -91 2113 -91 
Q 1303 -91 875 529 
Q 447 1150 447 2328 
Q 447 3434 972 4092 
Q 1497 4750 2381 4750 
Q 2619 4750 2861 4703 
Q 3103 4656 3366 4563 
z
" transform="scale(0.015625)"/>
       </defs>
       <use xlink:href="#DejaVuSans-30"/>
       <use xlink:href="#DejaVuSans-2e" x="63.623047"/>
       <use xlink:href="#DejaVuSans-36" x="95.410156"/>
      </g>
     </g>
    </g>
    <g id="xtick_5">
     <g id="line2d_5">
      <g>
       <use xlink:href="#maa77d27cc7" x="312.12" y="384.48" style="stroke: #000000; stroke-width: 0.8"/>
      </g>
     </g>
     <g id="text_5">
      <!-- 0.8 -->
      <g transform="translate(304.168437 399.078438) scale(0.1 -0.1)">
       <defs>
        <path id="DejaVuSans-38" d="M 2034 2216 
Q 1584 2216 1326 1975 
Q 1069 1734 1069 1313 
Q 1069 891 1326 650 
Q 1584 409 2034 409 
Q 2484 409 2743 651 
Q 3003 894 3003 1313 
Q 3003 1734 2745 1975 
Q 2488 2216 2034 2216 
z
M 1403 2484 
Q 997 2584 770 2862 
Q 544 3141 544 3541 
Q 544 4100 942 4425 
Q 1341 4750 2034 4750 
Q 2731 4750 3128 4425 
Q 3525 4100 3525 3541 
Q 3525 3141 3298 2862 
Q 3072 2584 2669 2484 
Q 3125 2378 3379 2068 
Q 3634 1759 3634 1313 
Q 3634 634 3220 271 
Q 2806 -91 2034 -91 
Q 1263 -91 848 271 
Q 434 634 434 1313 
Q 434 1759 690 2068 
Q 947 2378 1403 2484 
z
M 1172 3481 
Q 1172 3119 1398 2916 
Q 1625 2713 2034 2713 
Q 2441 2713 2670 2916 
Q 2900 3119 2900 3481 
Q 2900 3844 2670 4047 
Q 2441 4250 2034 4250 
Q 1625 4250 1398 4047 
Q 1172 3844 1172 3481 
z
" transform="scale(0.015625)"/>
       </defs>
       <use xlink:href="#DejaVuSans-30"/>
       <use xlink:href="#DejaVuSans-2e" x="63.623047"/>
       <use xlink:href="#DejaVuSans-38" x="95.410156"/>
      </g>
     </g>
    </g>
    <g id="xtick_6">
     <g id="line2d_6">
      <g>
       <use xlink:href="#maa77d27cc7" x="372.6" y="384.48" style="stroke: #000000; stroke-width: 0.8"/>
      </g>
     </g>
     <g id="text_6">
      <!-- 1.0 -->
      <g transform="translate(364.648438 399.078438) scale(0.1 -0.1)">
       <defs>
        <path id="DejaVuSans-31" d="M 794 531 
L 1825 531 
L 1825 4091 
L 703 3866 
L 703 4441 
L 1819 4666 
L 2450 4666 
L 2450 531 
L 3481 531 
L 3481 0 
L 794 0 
L 794 531 
z
" transform="scale(0.015625)"/>
       </defs>
       <use xlink:href="#DejaVuSans-31"/>
       <use xlink:href="#DejaVuSans-2e" x="63.623047"/>
       <use xlink:href="#DejaVuSans-30" x="95.410156"/>
      </g>
     </g>
    </g>
    <g id="text_7">
     <!-- False Positive Rate -->
     <g transform="translate(174.933594 412.756563) scale(0.1 -0.1)">
      <defs>
       <path id="DejaVuSans-46" d="M 628 4666 
L 3309 4666 
L 3309 4134 
L 1259 4134 
L 1259 2759 
L 3109 2759 
L 3109 2228 
L 1259 2228 
L 1259 0 
L 628 0 
L 628 4666 
z
" transform="scale(0.015625)"/>
       <path id="DejaVuSans-61" d="M 2194 1759 
Q 1497 1759 1228 1600 
Q 959 1441 959 1056 
Q 959 750 1161 570 
Q 1363 391 1709 391 
Q 2188 391 2477 730 
Q 2766 1069 2766 1631 
L 2766 1759 
L 2194 1759 
z
M 3341 1997 
L 3341 0 
L 2766 0 
L 2766 531 
Q 2569 213 2275 61 
Q 1981 -91 1556 -91 
Q 1019 -91 701 211 
Q 384 513 384 1019 
Q 384 1609 779 1909 
Q 1175 2209 1959 2209 
L 2766 2209 
L 2766 2266 
Q 2766 2663 2505 2880 
Q 2244 3097 1772 3097 
Q 1472 3097 1187 3025 
Q 903 2953 641 2809 
L 641 3341 
Q 956 3463 1253 3523 
Q 1550 3584 1831 3584 
Q 2591 3584 2966 3190 
Q 3341 2797 3341 1997 
z
" transform="scale(0.015625)"/>
       <path id="DejaVuSans-6c" d="M 603 4863 
L 1178 4863 
L 1178 0 
L 603 0 
L 603 4863 
z
" transform="scale(0.015625)"/>
       <path id="DejaVuSans-73" d="M 2834 3397 
L 2834 2853 
Q 2591 2978 2328 3040 
Q 2066 3103 1784 3103 
Q 1356 3103 1142 2972 
Q 928 2841 928 2578 
Q 928 2378 1081 2264 
Q 1234 2150 1697 2047 
L 1894 2003 
Q 2506 1872 2764 1633 
Q 3022 1394 3022 966 
Q 3022 478 2636 193 
Q 2250 -91 1575 -91 
Q 1294 -91 989 -36 
Q 684 19 347 128 
L 347 722 
Q 666 556 975 473 
Q 1284 391 1588 391 
Q 1994 391 2212 530 
Q 2431 669 2431 922 
Q 2431 1156 2273 1281 
Q 2116 1406 1581 1522 
L 1381 1569 
Q 847 1681 609 1914 
Q 372 2147 372 2553 
Q 372 3047 722 3315 
Q 1072 3584 1716 3584 
Q 2034 3584 2315 3537 
Q 2597 3491 2834 3397 
z
" transform="scale(0.015625)"/>
       <path id="DejaVuSans-65" d="M 3597 1894 
L 3597 1613 
L 953 1613 
Q 991 1019 1311 708 
Q 1631 397 2203 397 
Q 2534 397 2845 478 
Q 3156 559 3463 722 
L 3463 178 
Q 3153 47 2828 -22 
Q 2503 -91 2169 -91 
Q 1331 -91 842 396 
Q 353 884 353 1716 
Q 353 2575 817 3079 
Q 1281 3584 2069 3584 
Q 2775 3584 3186 3129 
Q 3597 2675 3597 1894 
z
M 3022 2063 
Q 3016 2534 2758 2815 
Q 2500 3097 2075 3097 
Q 1594 3097 1305 2825 
Q 1016 2553 972 2059 
L 3022 2063 
z
" transform="scale(0.015625)"/>
       <path id="DejaVuSans-20" transform="scale(0.015625)"/>
       <path id="DejaVuSans-50" d="M 1259 4147 
L 1259 2394 
L 2053 2394 
Q 2494 2394 2734 2622 
Q 2975 2850 2975 3272 
Q 2975 3691 2734 3919 
Q 2494 4147 2053 4147 
L 1259 4147 
z
M 628 4666 
L 2053 4666 
Q 2838 4666 3239 4311 
Q 3641 3956 3641 3272 
Q 3641 2581 3239 2228 
Q 2838 1875 2053 1875 
L 1259 1875 
L 1259 0 
L 628 0 
L 628 4666 
z
" transform="scale(0.015625)"/>
       <path id="DejaVuSans-6f" d="M 1959 3097 
Q 1497 3097 1228 2736 
Q 959 2375 959 1747 
Q 959 1119 1226 758 
Q 1494 397 1959 397 
Q 2419 397 2687 759 
Q 2956 1122 2956 1747 
Q 2956 2369 2687 2733 
Q 2419 3097 1959 3097 
z
M 1959 3584 
Q 2709 3584 3137 3096 
Q 3566 2609 3566 1747 
Q 3566 888 3137 398 
Q 2709 -91 1959 -91 
Q 1206 -91 779 398 
Q 353 888 353 1747 
Q 353 2609 779 3096 
Q 1206 3584 1959 3584 
z
" transform="scale(0.015625)"/>
       <path id="DejaVuSans-69" d="M 603 3500 
L 1178 3500 
L 1178 0 
L 603 0 
L 603 3500 
z
M 603 4863 
L 1178 4863 
L 1178 4134 
L 603 4134 
L 603 4863 
z
" transform="scale(0.015625)"/>
       <path id="DejaVuSans-74" d="M 1172 4494 
L 1172 3500 
L 2356 3500 
L 2356 3053 
L 1172 3053 
L 1172 1153 
Q 1172 725 1289 603 
Q 1406 481 1766 481 
L 2356 481 
L 2356 0 
L 1766 0 
Q 1100 0 847 248 
Q 594 497 594 1153 
L 594 3053 
L 172 3053 
L 172 3500 
L 594 3500 
L 594 4494 
L 1172 4494 
z
" transform="scale(0.015625)"/>
       <path id="DejaVuSans-76" d="M 191 3500 
L 800 3500 
L 1894 563 
L 2988 3500 
L 3597 3500 
L 2284 0 
L 1503 0 
L 191 3500 
z
" transform="scale(0.015625)"/>
       <path id="DejaVuSans-52" d="M 2841 2188 
Q 3044 2119 3236 1894 
Q 3428 1669 3622 1275 
L 4263 0 
L 3584 0 
L 2988 1197 
Q 2756 1666 2539 1819 
Q 2322 1972 1947 1972 
L 1259 1972 
L 1259 0 
L 628 0 
L 628 4666 
L 2053 4666 
Q 2853 4666 3247 4331 
Q 3641 3997 3641 3322 
Q 3641 2881 3436 2590 
Q 3231 2300 2841 2188 
z
M 1259 4147 
L 1259 2491 
L 2053 2491 
Q 2509 2491 2742 2702 
Q 2975 2913 2975 3322 
Q 2975 3731 2742 3939 
Q 2509 4147 2053 4147 
L 1259 4147 
z
" transform="scale(0.015625)"/>
      </defs>
      <use xlink:href="#DejaVuSans-46"/>
      <use xlink:href="#DejaVuSans-61" x="48.394531"/>
      <use xlink:href="#DejaVuSans-6c" x="109.673828"/>
      <use xlink:href="#DejaVuSans-73" x="137.457031"/>
      <use xlink:href="#DejaVuSans-65" x="189.556641"/>
      <use xlink:href="#DejaVuSans-20" x="251.080078"/>
      <use xlink:href="#DejaVuSans-50" x="282.867188"/>
      <use xlink:href="#DejaVuSans-6f" x="339.544922"/>
      <use xlink:href="#DejaVuSans-73" x="400.726562"/>
      <use xlink:href="#DejaVuSans-69" x="452.826172"/>
      <use xlink:href="#DejaVuSans-74" x="480.609375"/>
      <use xlink:href="#DejaVuSans-69" x="519.818359"/>
      <use xlink:href="#DejaVuSans-76" x="547.601562"/>
      <use xlink:href="#DejaVuSans-65" x="606.78125"/>
      <use xlink:href="#DejaVuSans-20" x="668.304688"/>
      <use xlink:href="#DejaVuSans-52" x="700.091797"/>
      <use xlink:href="#DejaVuSans-61" x="767.324219"/>
      <use xlink:href="#DejaVuSans-74" x="828.603516"/>
      <use xlink:href="#DejaVuSans-65" x="867.8125"/>
     </g>
    </g>
   </g>
   <g id="matplotlib.axis_2">
    <g id="ytick_1">
     <g id="line2d_7">
      <defs>
       <path id="m7b4124b6dc" d="M 0 0 
L -3.5 0 
" style="stroke: #000000; stroke-width: 0.8"/>
      </defs>
      <g>
       <use xlink:href="#m7b4124b6dc" x="55.08" y="369.36" style="stroke: #000000; stroke-width: 0.8"/>
      </g>
     </g>
     <g id="text_8">
      <!-- 0.0 -->
      <g transform="translate(32.176875 373.159219) scale(0.1 -0.1)">
       <use xlink:href="#DejaVuSans-30"/>
       <use xlink:href="#DejaVuSans-2e" x="63.623047"/>
       <use xlink:href="#DejaVuSans-30" x="95.410156"/>
      </g>
     </g>
    </g>
    <g id="ytick_2">
     <g id="line2d_8">
      <g>
       <use xlink:href="#m7b4124b6dc" x="55.08" y="308.88" style="stroke: #000000; stroke-width: 0.8"/>
      </g>
     </g>
     <g id="text_9">
      <!-- 0.2 -->
      <g transform="translate(32.176875 312.679219) scale(0.1 -0.1)">
       <use xlink:href="#DejaVuSans-30"/>
       <use xlink:href="#DejaVuSans-2e" x="63.623047"/>
       <use xlink:href="#DejaVuSans-32" x="95.410156"/>
      </g>
     </g>
    </g>
    <g id="ytick_3">
     <g id="line2d_9">
      <g>
       <use xlink:href="#m7b4124b6dc" x="55.08" y="248.4" style="stroke: #000000; stroke-width: 0.8"/>
      </g>
     </g>
     <g id="text_10">
      <!-- 0.4 -->
      <g transform="translate(32.176875 252.199219) scale(0.1 -0.1)">
       <use xlink:href="#DejaVuSans-30"/>
       <use xlink:href="#DejaVuSans-2e" x="63.623047"/>
       <use xlink:href="#DejaVuSans-34" x="95.410156"/>
      </g>
     </g>
    </g>
    <g id="ytick_4">
     <g id="line2d_10">
      <g>
       <use xlink:href="#m7b4124b6dc" x="55.08" y="187.92" style="stroke: #000000; stroke-width: 0.8"/>
      </g>
     </g>
     <g id="text_11">
      <!-- 0.6 -->
      <g transform="translate(32.176875 191.719219) scale(0.1 -0.1)">
       <use xlink:href="#DejaVuSans-30"/>
       <use xlink:href="#DejaVuSans-2e" x="63.623047"/>
       <use xlink:href="#DejaVuSans-36" x="95.410156"/>
      </g>
     </g>
    </g>
    <g id="ytick_5">
     <g id="line2d_11">
      <g>
       <use xlink:href="#m7b4124b6dc" x="55.08" y="127.44" style="stroke: #000000; stroke-width: 0.8"/>
      </g>
     </g>
     <g id="text_12">
      <!-- 0.8 -->
      <g transform="translate(32.176875 131.239219) scale(0.1 -0.1)">
       <use xlink:href="#DejaVuSans-30"/>
       <use xlink:href="#DejaVuSans-2e" x="63.623047"/>
       <use xlink:href="#DejaVuSans-38" x="95.410156"/>
      </g>
     </g>
    </g>
    <g id="ytick_6">
     <g id="line2d_12">
      <g>
       <use xlink:href="#m7b4124b6dc" x="55.08" y="66.96" style="stroke: #000000; stroke-width: 0.8"/>
      </g>
     </g>
     <g id="text_13">
      <!-- 1.0 -->
      <g transform="translate(32.176875 70.759219) scale(0.1 -0.1)">
       <use xlink:href="#DejaVuSans-31"/>
       <use xlink:href="#DejaVuSans-2e" x="63.623047"/>
       <use xlink:href="#DejaVuSans-30" x="95.410156"/>
      </g>
     </g>
    </g>
    <g id="text_14">
     <!-- True Positive Rate -->
     <g transform="translate(26.097187 262.689687) rotate(-90) scale(0.1 -0.1)">
      <defs>
       <path id="DejaVuSans-54" d="M -19 4666 
L 3928 4666 
L 3928 4134 
L 2272 4134 
L 2272 0 
L 1638 0 
L 1638 4134 
L -19 4134 
L -19 4666 
z
" transform="scale(0.015625)"/>
       <path id="DejaVuSans-72" d="M 2631 2963 
Q 2534 3019 2420 3045 
Q 2306 3072 2169 3072 
Q 1681 3072 1420 2755 
Q 1159 2438 1159 1844 
L 1159 0 
L 581 0 
L 581 3500 
L 1159 3500 
L 1159 2956 
Q 1341 3275 1631 3429 
Q 1922 3584 2338 3584 
Q 2397 3584 2469 3576 
Q 2541 3569 2628 3553 
L 2631 2963 
z
" transform="scale(0.015625)"/>
       <path id="DejaVuSans-75" d="M 544 1381 
L 544 3500 
L 1119 3500 
L 1119 1403 
Q 1119 906 1312 657 
Q 1506 409 1894 409 
Q 2359 409 2629 706 
Q 2900 1003 2900 1516 
L 2900 3500 
L 3475 3500 
L 3475 0 
L 2900 0 
L 2900 538 
Q 2691 219 2414 64 
Q 2138 -91 1772 -91 
Q 1169 -91 856 284 
Q 544 659 544 1381 
z
M 1991 3584 
L 1991 3584 
z
" transform="scale(0.015625)"/>
      </defs>
      <use xlink:href="#DejaVuSans-54"/>
      <use xlink:href="#DejaVuSans-72" x="46.333984"/>
      <use xlink:href="#DejaVuSans-75" x="87.447266"/>
      <use xlink:href="#DejaVuSans-65" x="150.826172"/>
      <use xlink:href="#DejaVuSans-20" x="212.349609"/>
      <use xlink:href="#DejaVuSans-50" x="244.136719"/>
      <use xlink:href="#DejaVuSans-6f" x="300.814453"/>
      <use xlink:href="#DejaVuSans-73" x="361.996094"/>
      <use xlink:href="#DejaVuSans-69" x="414.095703"/>
      <use xlink:href="#DejaVuSans-74" x="441.878906"/>
      <use xlink:href="#DejaVuSans-69" x="481.087891"/>
      <use xlink:href="#DejaVuSans-76" x="508.871094"/>
      <use xlink:href="#DejaVuSans-65" x="568.050781"/>
      <use xlink:href="#DejaVuSans-20" x="629.574219"/>
      <use xlink:href="#DejaVuSans-52" x="661.361328"/>
      <use xlink:href="#DejaVuSans-61" x="728.59375"/>
      <use xlink:href="#DejaVuSans-74" x="789.873047"/>
      <use xlink:href="#DejaVuSans-65" x="829.082031"/>
     </g>
    </g>
   </g>
   <g id="line2d_13">
    <path d="M 70.2 369.36 
L 70.305219 355.035235 
L 70.410438 354.508589 
L 70.515658 326.175047 
L 70.620877 324.911097 
L 70.726096 306.583824 
L 70.831315 305.530533 
L 70.936534 297.20953 
L 71.041754 297.104201 
L 71.146973 256.868464 
L 71.252192 256.236489 
L 71.357411 252.760627 
L 71.46263 252.444639 
L 71.56785 204.835862 
L 71.673069 204.730533 
L 71.778288 192.933668 
L 71.883507 192.723009 
L 71.988727 184.086019 
L 72.093946 183.875361 
L 72.199165 178.608903 
L 72.409603 178.398245 
L 72.514823 169.866583 
L 72.620042 169.445266 
L 72.725261 161.54558 
L 72.83048 161.229592 
L 72.935699 160.176301 
L 73.040919 160.176301 
L 73.040919 160.070972 
L 73.146138 155.857806 
L 73.251357 155.752476 
L 73.356576 148.274107 
L 73.461795 147.85279 
L 73.567015 142.691661 
L 73.672234 142.691661 
L 73.777453 139.426458 
L 73.882672 139.426458 
L 73.987891 137.003887 
L 74.093111 136.055925 
L 74.19833 132.474734 
L 74.303549 132.474734 
L 74.408768 129.104201 
L 74.513987 129.104201 
L 74.619207 127.313605 
L 74.724426 127.313605 
L 74.724426 127.208276 
L 74.829645 127.102947 
L 74.934864 125.207022 
L 75.040084 125.207022 
L 75.145303 123.416426 
L 75.250522 123.416426 
L 75.355741 121.836489 
L 75.46096 121.73116 
L 75.56618 116.359373 
L 75.776618 115.727398 
L 75.881837 115.411411 
L 75.987056 115.411411 
L 76.092276 113.515486 
L 76.197495 113.515486 
L 76.302714 110.355611 
L 76.513152 110.250282 
L 76.618372 108.881003 
L 76.723591 108.670345 
L 76.82881 108.03837 
L 76.934029 105.615799 
L 77.039248 105.615799 
L 77.144468 104.24652 
L 77.249687 104.141191 
L 77.460125 104.141191 
L 77.565344 102.139937 
L 77.670564 102.139937 
L 77.775783 101.297304 
L 77.986221 100.770658 
L 78.19666 100.770658 
L 78.301879 99.612038 
L 78.407098 99.612038 
L 78.407098 99.506708 
L 78.512317 97.610784 
L 79.143633 96.87348 
L 79.248852 96.136176 
L 79.354071 96.136176 
L 79.354071 95.60953 
L 79.669729 95.60953 
L 79.774948 94.556238 
L 79.985386 94.450909 
L 79.985386 94.240251 
L 80.616701 94.134922 
L 80.721921 93.608276 
L 81.037578 93.608276 
L 81.037578 93.502947 
L 81.458455 92.976301 
L 81.458455 92.660313 
L 81.774113 92.660313 
L 81.774113 92.449655 
L 82.300209 92.344326 
L 82.510647 92.238997 
L 82.615866 90.869718 
L 82.721086 90.869718 
L 82.826305 90.027085 
L 82.931524 90.027085 
L 83.036743 89.605768 
L 83.562839 89.500439 
L 83.668058 88.868464 
L 84.088935 88.763135 
L 84.088935 88.552476 
L 84.194154 88.552476 
L 84.299374 88.447147 
L 84.404593 88.025831 
L 84.720251 87.920502 
L 84.82547 87.709843 
L 85.246347 87.604514 
L 85.246347 87.499185 
L 85.456785 87.499185 
L 85.562004 86.761881 
L 85.772443 86.656552 
L 86.193319 86.656552 
L 86.298539 86.340564 
L 86.929854 86.129906 
L 87.035073 85.813918 
L 87.45595 85.708589 
L 87.561169 85.076614 
L 87.666388 84.971285 
L 87.666388 84.549969 
L 88.087265 84.444639 
L 88.192484 83.917994 
L 88.402923 83.812665 
L 88.613361 83.496677 
L 88.613361 83.18069 
L 88.929019 83.18069 
L 88.929019 83.075361 
L 89.139457 82.864702 
L 89.665553 82.548715 
L 89.665553 82.443386 
L 90.717745 82.022069 
L 91.559499 81.91674 
L 91.559499 81.706082 
L 91.980376 81.600752 
L 92.085595 81.495423 
L 92.71691 81.284765 
L 92.71691 81.074107 
L 93.558664 80.968777 
L 93.663883 80.65279 
L 93.874322 80.65279 
L 94.295198 80.336803 
L 94.400418 80.336803 
L 94.610856 80.126144 
L 95.873486 80.020815 
L 95.873486 79.915486 
L 95.978706 79.915486 
L 96.399582 79.810157 
L 97.346555 79.704828 
L 97.451775 79.599498 
L 98.293528 79.494169 
L 98.714405 79.072853 
L 99.135282 78.967524 
L 99.240501 78.756865 
L 100.608351 78.651536 
L 100.71357 78.546207 
L 100.924008 78.546207 
L 100.924008 78.335549 
L 101.239666 78.230219 
L 101.660543 77.914232 
L 102.08142 77.282257 
L 102.502296 77.176928 
L 102.607516 77.071599 
L 104.817119 76.96627 
L 104.817119 76.755611 
L 105.027557 76.650282 
L 106.711065 76.544953 
L 106.816284 76.439624 
L 107.552818 76.334295 
L 107.552818 76.123636 
L 109.131106 76.018307 
L 109.131106 75.912978 
L 109.867641 75.596991 
L 110.393737 74.965016 
L 111.025052 74.859687 
L 111.445929 74.859687 
L 111.972025 74.43837 
L 115.549478 74.333041 
L 115.654697 74.227712 
L 116.180793 74.227712 
L 116.180793 74.017053 
L 117.96952 73.911724 
L 118.390397 73.490408 
L 118.600835 73.490408 
L 119.126931 73.279749 
L 120.494781 73.17442 
L 120.494781 73.069091 
L 121.231315 72.963762 
L 121.336534 72.858433 
L 124.59833 72.753103 
L 124.59833 72.647774 
L 125.440084 72.542445 
L 125.545303 72.331787 
L 129.543633 72.226458 
L 129.648852 72.121129 
L 132.910647 72.015799 
L 135.751566 71.067837 
L 138.382046 70.962508 
L 138.592484 70.857179 
L 141.959499 70.75185 
L 142.169937 70.64652 
L 142.906472 70.64652 
L 143.432568 70.435862 
L 143.643006 70.435862 
L 143.643006 70.225204 
L 147.11524 70.119875 
L 147.325678 70.014545 
L 152.165762 69.909216 
L 152.48142 69.803887 
L 156.584969 69.698558 
L 156.690188 69.4879 
L 162.161587 69.382571 
L 162.266806 69.277241 
L 169.73737 69.171912 
L 169.947808 69.066583 
L 173.420042 68.961254 
L 173.420042 68.855925 
L 173.525261 68.855925 
L 178.99666 68.750596 
L 179.101879 68.645266 
L 186.993319 68.539937 
L 188.045511 68.434608 
L 191.517745 68.329279 
L 191.622965 68.22395 
L 196.778706 68.118621 
L 196.778706 68.013292 
L 203.828392 67.907962 
L 203.933612 67.802633 
L 211.298956 67.697304 
L 212.035491 67.591975 
L 219.926931 67.486646 
L 219.926931 67.381317 
L 220.03215 67.381317 
L 231.816701 67.275987 
L 231.816701 67.170658 
L 254.333612 67.065329 
L 254.54405 66.96 
L 372.6 66.96 
L 372.6 66.96 
" clip-path="url(#p66d6a44d65)" style="fill: none; stroke: #1f77b4; stroke-opacity: 0.3; stroke-linecap: square"/>
   </g>
   <g id="line2d_14">
    <path d="M 70.2 369.36 
L 70.305219 330.914859 
L 70.410438 328.492288 
L 70.515658 314.58884 
L 70.620877 313.535549 
L 70.726096 264.76815 
L 70.831315 264.030846 
L 70.936534 249.706082 
L 71.146973 247.810157 
L 71.252192 237.698558 
L 71.357411 236.645266 
L 71.46263 210.312978 
L 71.56785 210.10232 
L 71.673069 196.304201 
L 71.778288 196.198871 
L 71.883507 189.457806 
L 71.988727 188.720502 
L 72.093946 180.18884 
L 72.199165 180.18884 
L 72.304384 165.021442 
L 72.409603 164.600125 
L 72.514823 161.650909 
L 72.620042 161.650909 
L 72.725261 158.175047 
L 72.83048 157.964389 
L 72.935699 154.488527 
L 73.040919 154.06721 
L 73.146138 147.010157 
L 73.251357 146.58884 
L 73.356576 141.849028 
L 73.461795 141.849028 
L 73.567015 140.479749 
L 73.672234 140.479749 
L 73.777453 140.269091 
L 73.777453 139.215799 
L 73.882672 139.215799 
L 73.987891 139.005141 
L 74.093111 135.318621 
L 74.19833 135.318621 
L 74.303549 133.844013 
L 74.408768 133.422696 
L 74.513987 129.946834 
L 74.619207 129.841505 
L 74.724426 128.577555 
L 74.829645 128.366897 
L 74.934864 125.733668 
L 75.040084 125.523009 
L 75.040084 124.15373 
L 75.145303 124.15373 
L 75.250522 124.048401 
L 75.355741 122.152476 
L 75.46096 122.047147 
L 75.56618 119.624577 
L 75.881837 118.571285 
L 75.881837 116.886019 
L 75.987056 116.886019 
L 76.197495 116.570031 
L 76.302714 115.622069 
L 76.407933 115.51674 
L 76.513152 114.25279 
L 76.618372 114.147461 
L 76.723591 114.042132 
L 76.82881 112.567524 
L 76.934029 112.567524 
L 76.934029 112.251536 
L 77.144468 112.040878 
L 77.249687 111.408903 
L 77.354906 110.987586 
L 77.460125 109.828966 
L 77.565344 109.828966 
L 77.565344 109.723636 
L 77.670564 108.881003 
L 77.881002 108.565016 
L 77.881002 107.827712 
L 78.19666 107.722382 
L 78.301879 104.35185 
L 78.407098 104.24652 
L 78.512317 102.245266 
L 78.722756 101.929279 
L 78.827975 99.717367 
L 78.933194 99.717367 
L 78.933194 99.612038 
L 79.038413 98.242759 
L 79.143633 98.242759 
L 79.143633 98.137429 
L 79.143633 97.400125 
L 79.354071 97.400125 
L 79.354071 97.294796 
L 79.45929 97.189467 
L 79.985386 97.084138 
L 80.090605 96.136176 
L 80.511482 96.030846 
L 80.616701 95.820188 
L 80.721921 94.134922 
L 80.82714 94.029592 
L 80.932359 93.608276 
L 81.037578 93.397618 
L 81.142797 92.976301 
L 81.248017 92.976301 
L 81.248017 92.765643 
L 81.458455 92.449655 
L 81.563674 92.028339 
L 81.668894 92.028339 
L 81.774113 90.975047 
L 81.879332 90.975047 
L 81.879332 90.764389 
L 81.984551 90.764389 
L 82.19499 90.65906 
L 82.19499 90.237743 
L 82.300209 90.237743 
L 82.510647 90.237743 
L 82.510647 89.921755 
L 82.826305 89.816426 
L 82.826305 89.605768 
L 83.036743 89.39511 
L 83.352401 89.079122 
L 83.983716 89.079122 
L 84.088935 88.763135 
L 84.299374 88.763135 
L 84.299374 88.236489 
L 84.404593 88.236489 
L 84.509812 88.025831 
L 84.615031 87.499185 
L 85.141127 87.288527 
L 85.246347 86.86721 
L 85.456785 86.761881 
L 85.877662 86.445893 
L 85.877662 86.235235 
L 85.982881 86.235235 
L 86.824635 86.129906 
L 86.929854 86.024577 
L 87.245511 85.919248 
L 87.245511 85.813918 
L 87.350731 85.813918 
L 87.666388 85.813918 
L 87.876827 85.60326 
L 87.876827 85.392602 
L 88.192484 85.392602 
L 88.192484 85.181944 
L 88.297704 85.181944 
L 89.560334 85.181944 
L 89.665553 84.233981 
L 89.875992 83.812665 
L 89.981211 83.812665 
L 90.191649 83.602006 
L 90.402088 83.602006 
L 90.507307 83.286019 
L 90.612526 83.286019 
L 90.612526 82.970031 
L 90.717745 82.970031 
L 91.243841 82.654044 
L 91.243841 82.443386 
L 91.45428 82.443386 
L 91.45428 82.338056 
L 92.085595 81.706082 
L 92.822129 81.706082 
L 93.032568 81.179436 
L 93.243006 81.179436 
L 93.243006 80.968777 
L 93.348225 80.968777 
L 93.663883 80.968777 
L 94.08476 80.231473 
L 94.400418 80.126144 
L 94.400418 80.020815 
L 94.505637 80.020815 
L 95.34739 79.915486 
L 95.45261 79.704828 
L 95.768267 79.599498 
L 95.873486 79.178182 
L 96.083925 79.178182 
L 96.083925 79.072853 
L 96.189144 78.862194 
L 96.71524 78.862194 
L 96.71524 78.651536 
L 97.767432 78.546207 
L 97.872651 78.230219 
L 98.293528 78.230219 
L 98.503967 78.019561 
L 98.714405 78.019561 
L 98.714405 77.914232 
L 98.819624 77.808903 
L 100.292693 77.703574 
L 100.292693 77.492915 
L 100.818789 77.387586 
L 100.818789 77.176928 
L 101.9762 77.071599 
L 102.502296 76.86094 
L 103.764927 76.755611 
L 103.764927 76.650282 
L 104.396242 76.544953 
L 104.817119 76.018307 
L 105.132777 75.912978 
L 105.237996 75.70232 
L 105.869311 75.596991 
L 105.869311 75.491661 
L 106.184969 75.175674 
L 108.184134 75.070345 
L 108.289353 74.965016 
L 108.71023 74.859687 
L 108.71023 74.649028 
L 109.236326 74.543699 
L 109.236326 74.333041 
L 109.341545 74.333041 
L 109.657203 74.227712 
L 109.762422 73.911724 
L 110.393737 73.806395 
L 110.814614 73.701066 
L 112.077244 73.595737 
L 112.287683 73.385078 
L 113.445094 73.279749 
L 113.760752 73.069091 
L 114.497286 72.963762 
L 115.023382 72.753103 
L 119.758246 72.647774 
L 119.968685 72.437116 
L 120.179123 72.331787 
L 121.020877 72.226458 
L 121.757411 72.015799 
L 123.546138 71.91047 
L 123.756576 71.805141 
L 129.438413 71.699812 
L 129.438413 71.489154 
L 132.48977 71.383824 
L 132.59499 71.278495 
L 134.699374 71.173166 
L 135.330689 71.067837 
L 137.119415 70.962508 
L 137.435073 70.857179 
L 139.749896 70.75185 
L 140.170772 70.64652 
L 144.274322 70.541191 
L 144.379541 70.435862 
L 145.221294 70.330533 
L 145.326514 70.225204 
L 151.744885 70.119875 
L 151.744885 70.014545 
L 154.059708 69.909216 
L 154.059708 69.803887 
L 160.898956 69.698558 
L 163.424217 69.277241 
L 168.895616 69.171912 
L 168.895616 69.066583 
L 174.682672 68.961254 
L 174.787891 68.855925 
L 185.099374 68.750596 
L 185.520251 68.645266 
L 198.88309 68.539937 
L 198.88309 68.434608 
L 203.197077 68.329279 
L 203.828392 68.22395 
L 208.563257 68.118621 
L 208.984134 68.013292 
L 211.193737 67.907962 
L 211.404175 67.802633 
L 215.192067 67.697304 
L 215.402505 67.486646 
L 233.815866 67.381317 
L 234.236743 67.275987 
L 240.549896 67.170658 
L 241.181211 67.065329 
L 372.6 66.96 
L 372.6 66.96 
" clip-path="url(#p66d6a44d65)" style="fill: none; stroke: #ff7f0e; stroke-opacity: 0.3; stroke-linecap: square"/>
   </g>
   <g id="line2d_15">
    <path d="M 70.2 369.36 
L 70.305219 362.408276 
L 70.410438 361.460313 
L 70.515658 356.825831 
L 70.620877 355.456552 
L 70.726096 335.233354 
L 70.831315 334.285392 
L 70.936534 324.489781 
L 71.146973 323.541818 
L 71.252192 309.322382 
L 71.357411 309.006395 
L 71.46263 271.403887 
L 71.56785 271.298558 
L 71.673069 257.184451 
L 71.883507 256.13116 
L 71.988727 248.442132 
L 72.093946 248.231473 
L 72.199165 235.907962 
L 72.304384 234.854671 
L 72.409603 229.272226 
L 72.514823 229.061567 
L 72.620042 228.429592 
L 72.725261 203.361254 
L 72.83048 203.045266 
L 72.935699 197.357492 
L 73.040919 196.725517 
L 73.146138 192.196364 
L 73.251357 191.985705 
L 73.356576 186.719248 
L 73.461795 186.40326 
L 73.567015 175.659687 
L 73.672234 174.606395 
L 73.777453 162.598871 
L 73.882672 162.598871 
L 73.987891 161.54558 
L 74.19833 161.229592 
L 74.303549 158.701693 
L 74.408768 158.491034 
L 74.513987 156.911097 
L 74.724426 156.805768 
L 74.829645 152.908589 
L 74.934864 152.276614 
L 75.040084 149.011411 
L 75.145303 148.484765 
L 75.250522 143.955611 
L 75.355741 143.850282 
L 75.46096 139.531787 
L 75.881837 139.426458 
L 75.987056 137.95185 
L 76.092276 137.95185 
L 76.092276 137.84652 
L 76.197495 134.265329 
L 76.407933 133.528025 
L 76.407933 133.001379 
L 76.618372 132.685392 
L 76.723591 126.997618 
L 76.82881 126.997618 
L 76.82881 126.892288 
L 76.934029 122.257806 
L 77.039248 122.047147 
L 77.144468 120.783197 
L 77.460125 120.045893 
L 77.565344 115.938056 
L 77.670564 115.938056 
L 77.670564 115.095423 
L 77.775783 115.095423 
L 77.881002 114.990094 
L 77.986221 114.042132 
L 78.19666 113.831473 
L 78.301879 111.092915 
L 78.407098 111.092915 
L 78.512317 110.039624 
L 78.722756 109.934295 
L 78.827975 108.03837 
L 78.933194 108.03837 
L 78.933194 107.933041 
L 79.038413 106.985078 
L 79.143633 106.985078 
L 79.248852 106.247774 
L 79.45929 106.247774 
L 79.45929 106.142445 
L 79.564509 104.35185 
L 79.669729 104.141191 
L 79.774948 102.034608 
L 79.880167 101.929279 
L 79.985386 100.56 
L 80.090605 100.454671 
L 80.195825 100.138683 
L 80.301044 100.033354 
L 80.406263 99.29605 
L 80.721921 99.085392 
L 80.721921 98.664075 
L 80.82714 98.664075 
L 80.932359 98.558746 
L 81.037578 98.242759 
L 81.142797 98.242759 
L 81.142797 97.926771 
L 81.248017 97.926771 
L 81.563674 97.610784 
L 81.668894 97.294796 
L 82.300209 96.76815 
L 82.510647 96.76815 
L 82.510647 96.662821 
L 82.615866 96.557492 
L 82.721086 96.136176 
L 82.826305 96.136176 
L 82.826305 95.925517 
L 83.141962 95.820188 
L 83.247182 95.188213 
L 83.352401 95.082884 
L 83.45762 93.924263 
L 83.668058 93.818934 
L 83.668058 93.608276 
L 83.773278 93.608276 
L 84.088935 93.186959 
L 84.194154 92.765643 
L 84.299374 92.449655 
L 84.404593 91.501693 
L 84.720251 91.396364 
L 84.82547 91.080376 
L 85.035908 90.975047 
L 85.141127 90.132414 
L 85.246347 90.132414 
L 85.246347 89.289781 
L 85.562004 89.289781 
L 85.667223 88.552476 
L 85.982881 88.552476 
L 85.982881 88.447147 
L 85.982881 88.13116 
L 86.193319 88.13116 
L 86.193319 87.920502 
L 86.403758 87.920502 
L 86.508977 87.499185 
L 86.929854 87.499185 
L 86.929854 87.288527 
L 87.140292 87.183197 
L 87.45595 87.183197 
L 87.876827 86.445893 
L 88.087265 86.445893 
L 88.192484 86.129906 
L 88.8238 86.024577 
L 88.8238 85.813918 
L 89.665553 85.708589 
L 89.770772 85.392602 
L 90.296868 85.287273 
L 90.402088 85.181944 
L 90.717745 85.076614 
L 90.717745 84.971285 
L 91.138622 84.865956 
L 91.349061 84.865956 
L 91.45428 84.444639 
L 92.085595 84.233981 
L 92.085595 83.812665 
L 92.611691 83.707335 
L 92.71691 83.496677 
L 92.927349 83.286019 
L 93.558664 83.18069 
L 94.08476 82.759373 
L 94.189979 82.759373 
L 94.295198 82.232727 
L 94.821294 82.127398 
L 94.821294 82.022069 
L 94.926514 82.022069 
L 95.34739 81.91674 
L 95.45261 81.91674 
L 95.557829 81.706082 
L 96.294363 81.706082 
L 96.294363 81.495423 
L 96.504802 81.495423 
L 96.504802 81.390094 
L 96.925678 81.074107 
L 97.030898 80.863448 
L 98.714405 80.758119 
L 98.714405 80.65279 
L 99.34572 80.547461 
L 99.34572 80.442132 
L 99.766597 80.336803 
L 100.187474 80.231473 
L 100.187474 80.126144 
L 100.292693 80.126144 
L 100.397912 80.020815 
L 101.239666 79.915486 
L 101.9762 79.178182 
L 102.923173 79.178182 
L 102.923173 79.072853 
L 103.028392 78.967524 
L 103.554489 78.862194 
L 103.659708 78.546207 
L 104.080585 78.440878 
L 105.132777 78.335549 
L 105.237996 78.230219 
L 105.764092 78.230219 
L 105.764092 78.019561 
L 105.97453 78.019561 
L 105.97453 77.703574 
L 106.184969 77.703574 
L 106.184969 77.598245 
L 106.290188 77.492915 
L 107.552818 77.387586 
L 107.868476 77.176928 
L 107.868476 76.96627 
L 108.71023 76.96627 
L 108.71023 76.86094 
L 109.551983 76.544953 
L 111.34071 76.439624 
L 111.445929 76.334295 
L 111.761587 76.334295 
L 112.182463 76.018307 
L 112.813779 76.018307 
L 112.813779 75.912978 
L 112.918998 75.70232 
L 113.129436 75.596991 
L 113.129436 75.175674 
L 113.234656 75.175674 
L 113.550313 74.965016 
L 114.392067 74.859687 
L 115.549478 74.43837 
L 115.549478 74.333041 
L 115.759916 74.333041 
L 116.075574 73.911724 
L 116.706889 73.911724 
L 117.022547 73.701066 
L 119.442589 73.595737 
L 119.653027 73.490408 
L 122.599165 73.385078 
L 122.704384 73.279749 
L 124.387891 73.17442 
L 124.493111 73.069091 
L 124.913987 72.963762 
L 125.545303 72.858433 
L 127.754906 72.753103 
L 129.648852 72.542445 
L 130.069729 72.437116 
L 130.174948 72.331787 
L 131.016701 72.226458 
L 131.121921 72.121129 
L 132.48977 72.015799 
L 132.805428 71.805141 
L 133.331524 71.594483 
L 133.541962 71.383824 
L 141.538622 71.278495 
L 141.643841 71.173166 
L 142.590814 71.067837 
L 142.801253 70.962508 
L 144.379541 70.857179 
L 145.221294 70.64652 
L 149.850939 70.541191 
L 149.956159 70.435862 
L 151.218789 70.330533 
L 151.850104 70.225204 
L 156.795407 70.119875 
L 156.795407 70.014545 
L 161.004175 69.909216 
L 161.530271 69.803887 
L 162.372025 69.698558 
L 162.792902 69.593229 
L 164.160752 69.4879 
L 164.265971 69.277241 
L 168.790397 69.277241 
L 168.790397 69.066583 
L 170.158246 69.066583 
L 170.368685 68.855925 
L 180.890605 68.750596 
L 181.521921 68.645266 
L 183.205428 68.539937 
L 183.415866 68.434608 
L 193.622129 68.329279 
L 193.727349 68.22395 
L 200.777035 68.118621 
L 200.882255 68.013292 
L 215.297286 67.907962 
L 215.507724 67.802633 
L 218.348643 67.697304 
L 218.348643 67.591975 
L 218.453862 67.591975 
L 223.925261 67.486646 
L 224.03048 67.381317 
L 267.380793 67.275987 
L 267.906889 67.170658 
L 275.587891 67.065329 
L 275.79833 66.96 
L 372.6 66.96 
L 372.6 66.96 
" clip-path="url(#p66d6a44d65)" style="fill: none; stroke: #2ca02c; stroke-opacity: 0.3; stroke-linecap: square"/>
   </g>
   <g id="line2d_16">
    <path d="M 70.2 369.36 
L 70.305256 320.820167 
L 70.410512 320.08312 
L 70.515767 305.868635 
L 70.726279 305.131588 
L 70.726279 297.445237 
L 70.936791 296.918774 
L 71.042047 274.807354 
L 71.147302 273.859721 
L 71.252558 253.643565 
L 71.357814 253.327688 
L 71.46307 245.32546 
L 71.568326 244.90429 
L 71.673582 239.429081 
L 71.778837 239.323788 
L 71.884093 212.368914 
L 71.989349 212.158329 
L 72.094605 195.943287 
L 72.199861 195.627409 
L 72.305117 194.679777 
L 72.410372 194.3639 
L 72.515628 190.152201 
L 72.620884 189.625738 
L 72.72614 188.678106 
L 72.831396 188.362228 
L 72.936652 182.676435 
L 73.041907 182.571142 
L 73.147163 164.250251 
L 73.252419 163.829081 
L 73.357675 148.245794 
L 73.462931 148.245794 
L 73.568187 145.718774 
L 73.673442 145.613482 
L 73.778698 140.348858 
L 73.98921 139.822396 
L 74.094466 137.505961 
L 74.199722 137.505961 
L 74.304977 131.293705 
L 74.515489 130.977827 
L 74.620745 129.924903 
L 74.726001 129.81961 
L 74.831257 128.029638 
L 74.936512 127.819053 
L 75.041768 125.713203 
L 75.147024 125.713203 
L 75.25228 120.027409 
L 75.462792 119.18507 
L 75.568047 117.289805 
L 75.883815 116.868635 
L 75.989071 116.65805 
L 76.094326 115.39454 
L 76.199582 115.183955 
L 76.199582 114.446908 
L 76.304838 114.446908 
L 76.410094 114.341616 
L 76.51535 112.446351 
L 76.620606 112.341058 
L 76.725861 109.287577 
L 76.936373 109.076992 
L 77.146885 109.076992 
L 77.252141 108.024067 
L 77.357396 107.918774 
L 77.357396 107.076435 
L 77.462652 107.076435 
L 77.673164 106.86585 
L 77.883676 106.86585 
L 77.883676 106.339387 
L 78.094187 106.339387 
L 78.199443 105.918217 
L 78.304699 105.918217 
L 78.409955 105.18117 
L 78.515211 105.075877 
L 78.620466 104.128245 
L 78.725722 104.128245 
L 78.830978 103.285905 
L 78.936234 103.180613 
L 79.04149 102.65415 
L 79.146746 102.548858 
L 79.252001 101.917103 
L 79.357257 101.917103 
L 79.357257 101.706518 
L 79.462513 101.706518 
L 79.567769 101.601226 
L 79.673025 99.390084 
L 79.778281 99.390084 
L 79.778281 98.758329 
L 79.988792 98.547744 
L 79.988792 98.021281 
L 80.409816 97.915989 
L 80.620327 97.810696 
L 80.725583 97.073649 
L 80.830839 97.073649 
L 80.936095 96.652479 
L 81.146606 96.126017 
L 81.462374 95.915432 
L 81.56763 94.336045 
L 81.883397 93.70429 
L 82.093909 93.598997 
L 82.30442 92.967242 
L 82.409676 91.59844 
L 82.935955 91.493148 
L 83.251723 90.966685 
L 83.462235 90.966685 
L 83.56749 90.545515 
L 83.883258 90.440223 
L 83.883258 89.808468 
L 84.09377 89.808468 
L 84.09377 89.597883 
L 84.199025 89.597883 
L 84.409537 89.387298 
L 84.514793 88.860836 
L 85.567351 87.702618 
L 85.567351 87.386741 
L 85.883119 87.281448 
L 85.883119 86.965571 
L 86.514654 86.860279 
L 86.514654 86.228524 
L 86.830421 86.123231 
L 86.935677 85.807354 
L 87.040933 85.596769 
L 87.251444 85.491476 
L 87.567212 85.280891 
L 87.777724 85.070306 
L 88.093491 84.965014 
L 88.409259 84.754429 
L 88.514514 84.543844 
L 88.830282 84.543844 
L 89.040794 84.333259 
L 89.146049 84.017382 
L 89.356561 83.701504 
L 89.672329 83.701504 
L 89.88284 83.490919 
L 90.198608 83.490919 
L 90.198608 82.964457 
L 90.514375 82.859164 
L 90.514375 82.753872 
L 90.724887 82.753872 
L 90.830143 82.227409 
L 90.935399 82.227409 
L 91.040654 81.595655 
L 91.461678 81.490362 
L 91.461678 81.38507 
L 91.566934 81.38507 
L 91.672189 81.279777 
L 92.724748 81.174485 
L 92.724748 80.858607 
L 92.830003 80.858607 
L 92.935259 80.753315 
L 93.882562 80.753315 
L 94.198329 80.332145 
L 94.724608 80.226852 
L 94.724608 80.12156 
L 94.829864 80.12156 
L 95.040376 79.910975 
L 95.356143 79.910975 
L 95.356143 79.805682 
L 95.461399 79.70039 
L 95.987678 79.595097 
L 95.987678 79.489805 
L 96.19819 79.489805 
L 96.19819 79.384513 
L 96.303446 79.27922 
L 97.356004 79.173928 
L 97.46126 78.752758 
L 98.934842 78.647465 
L 99.145353 78.43688 
L 99.882144 78.331588 
L 100.829447 78.226295 
L 101.25047 78.121003 
L 102.197772 78.01571 
L 102.829307 77.699833 
L 103.250331 77.59454 
L 103.460842 77.383955 
L 105.144936 77.278663 
L 105.144936 76.962786 
L 106.092238 76.857493 
L 106.092238 76.752201 
L 107.039541 76.646908 
L 107.144796 76.436323 
L 107.355308 76.436323 
L 107.355308 76.225738 
L 108.197355 76.120446 
L 108.302611 76.015153 
L 109.56568 75.909861 
L 109.56568 75.804568 
L 109.776192 75.699276 
L 111.460285 75.593983 
L 111.565541 75.488691 
L 112.512844 75.488691 
L 112.828611 75.172813 
L 112.828611 74.962228 
L 114.302193 74.856936 
L 114.302193 74.751643 
L 114.407449 74.751643 
L 116.196798 74.225181 
L 117.249356 74.119889 
L 117.354612 73.909304 
L 118.301914 73.804011 
L 118.828194 73.593426 
L 119.354473 73.488134 
L 120.091263 73.172256 
L 121.880613 73.066964 
L 121.880613 72.961671 
L 123.248938 72.856379 
L 123.45945 72.751086 
L 124.512008 72.645794 
L 124.617264 72.540501 
L 126.196102 72.435209 
L 126.406613 72.329916 
L 126.617125 71.908747 
L 127.669683 71.803454 
L 128.090707 71.592869 
L 130.406335 71.487577 
L 131.143126 71.276992 
L 134.511312 71.171699 
L 135.353359 70.961114 
L 135.774382 70.855822 
L 135.774382 70.750529 
L 136.721685 70.750529 
L 137.142708 70.539944 
L 140.931918 70.434652 
L 140.931918 70.329359 
L 145.66843 70.224067 
L 145.66843 70.118774 
L 146.615733 70.013482 
L 146.826244 69.908189 
L 148.405082 69.802897 
L 148.720849 69.697604 
L 157.878107 69.592312 
L 157.878107 69.487019 
L 161.456805 69.381727 
L 161.562061 69.276435 
L 163.140898 69.171142 
L 163.140898 69.06585 
L 163.246154 69.06585 
L 165.246015 68.960557 
L 165.456526 68.855265 
L 168.40369 68.749972 
L 168.508945 68.64468 
L 175.666342 68.539387 
L 175.666342 68.434095 
L 182.086947 68.328802 
L 182.192203 68.22351 
L 184.192064 68.118217 
L 184.402576 68.012925 
L 189.139088 67.907632 
L 190.086391 67.80234 
L 205.24323 67.697047 
L 205.980021 67.486462 
L 219.452767 67.38117 
L 219.558023 67.275877 
L 243.977376 67.170585 
L 244.608911 67.065292 
L 372.6 66.96 
L 372.6 66.96 
" clip-path="url(#p66d6a44d65)" style="fill: none; stroke: #d62728; stroke-opacity: 0.3; stroke-linecap: square"/>
   </g>
   <g id="line2d_17">
    <path d="M 70.2 369.36 
L 70.305256 361.041894 
L 70.515767 358.409582 
L 70.621023 351.565571 
L 70.726279 349.670306 
L 70.831535 345.14273 
L 70.936791 344.405682 
L 71.042047 319.135487 
L 71.147302 317.240223 
L 71.252558 261.961671 
L 71.357814 261.540501 
L 71.46307 255.749415 
L 71.673582 255.222953 
L 71.778837 243.114318 
L 71.884093 242.693148 
L 71.989349 228.057493 
L 72.094605 227.952201 
L 72.199861 211.421281 
L 72.305117 211.315989 
L 72.410372 191.099833 
L 72.620884 190.99454 
L 72.72614 182.676435 
L 72.831396 182.571142 
L 72.936652 175.516546 
L 73.041907 175.411253 
L 73.147163 175.305961 
L 73.252419 163.723788 
L 73.357675 163.407911 
L 73.462931 154.563343 
L 73.568187 154.45805 
L 73.673442 143.612925 
L 73.883954 143.507632 
L 73.98921 142.98117 
L 73.98921 140.138273 
L 74.199722 139.927688 
L 74.304977 134.031309 
L 74.410233 134.031309 
L 74.515489 130.767242 
L 74.620745 130.66195 
L 74.726001 128.029638 
L 75.041768 127.819053 
L 75.147024 127.187298 
L 75.357536 127.082006 
L 75.462792 126.976713 
L 75.568047 123.817939 
L 75.673303 123.817939 
L 75.778559 123.502061 
L 75.883815 123.396769 
L 75.989071 120.132702 
L 76.094326 119.816825 
L 76.199582 117.605682 
L 76.410094 117.50039 
L 76.51535 115.81571 
L 76.620606 115.605125 
L 76.725861 114.025738 
L 76.936373 113.920446 
L 77.041629 113.499276 
L 77.252141 113.499276 
L 77.357396 113.183398 
L 77.462652 112.551643 
L 77.567908 112.551643 
L 77.673164 110.656379 
L 77.77842 110.445794 
L 77.883676 108.971699 
L 78.094187 108.655822 
L 78.199443 105.707632 
L 78.304699 105.707632 
L 78.409955 104.549415 
L 78.515211 104.549415 
L 78.515211 104.128245 
L 78.725722 104.128245 
L 78.830978 101.917103 
L 78.936234 101.811811 
L 78.936234 101.601226 
L 79.04149 101.601226 
L 79.252001 101.601226 
L 79.357257 101.074763 
L 79.462513 101.074763 
L 79.567769 100.653593 
L 79.778281 100.337716 
L 79.883536 98.547744 
L 79.988792 98.337159 
L 80.409816 98.231866 
L 80.409816 98.126574 
L 80.620327 98.126574 
L 80.830839 97.915989 
L 80.936095 97.494819 
L 81.357118 97.389526 
L 81.357118 97.178942 
L 81.778141 96.968357 
L 81.883397 95.283677 
L 82.199165 95.283677 
L 82.30442 94.757214 
L 82.409676 94.757214 
L 82.409676 94.020167 
L 82.514932 94.020167 
L 82.620188 93.914875 
L 82.725444 93.388412 
L 82.935955 93.28312 
L 83.041211 93.072535 
L 83.041211 92.86195 
L 83.356979 92.86195 
L 83.356979 92.756657 
L 83.462235 92.230195 
L 83.56749 92.124903 
L 83.672746 91.071978 
L 83.883258 90.966685 
L 83.883258 90.861393 
L 84.09377 90.861393 
L 84.304281 90.650808 
L 84.514793 90.650808 
L 84.620049 89.808468 
L 84.725305 89.703175 
L 84.725305 89.492591 
L 84.83056 89.492591 
L 84.935816 89.387298 
L 85.041072 88.334373 
L 85.35684 88.018496 
L 85.567351 88.018496 
L 85.567351 87.913203 
L 85.777863 87.702618 
L 85.777863 87.492033 
L 85.988375 87.386741 
L 86.09363 86.965571 
L 86.409398 86.965571 
L 86.514654 86.649694 
L 86.935677 86.544401 
L 87.040933 86.439109 
L 87.567212 86.333816 
L 87.882979 86.228524 
L 87.882979 86.017939 
L 88.093491 86.017939 
L 88.093491 85.807354 
L 88.198747 85.807354 
L 88.304003 85.702061 
L 89.040794 85.596769 
L 89.146049 85.175599 
L 89.567073 84.859721 
L 89.672329 84.649136 
L 90.303864 84.543844 
L 90.409119 84.333259 
L 90.935399 84.227967 
L 90.935399 84.017382 
L 91.040654 84.017382 
L 91.14591 83.912089 
L 91.672189 82.753872 
L 92.303724 82.753872 
L 92.514236 82.543287 
L 92.619492 82.332702 
L 92.830003 82.122117 
L 93.145771 82.016825 
L 93.145771 81.80624 
L 93.461538 81.80624 
L 93.566794 81.595655 
L 93.987818 81.38507 
L 93.987818 81.174485 
L 94.303585 81.069192 
L 94.514097 80.9639 
L 94.93512 80.753315 
L 95.040376 80.648022 
L 95.987678 80.648022 
L 96.19819 80.437437 
L 96.408702 80.437437 
L 96.408702 80.016267 
L 97.145493 79.910975 
L 97.566516 79.27922 
L 97.777027 79.173928 
L 98.72433 79.068635 
L 98.72433 78.963343 
L 99.040097 78.85805 
L 99.145353 78.752758 
L 99.671632 78.647465 
L 99.671632 78.43688 
L 99.776888 78.43688 
L 99.9874 78.226295 
L 100.724191 78.121003 
L 100.724191 78.01571 
L 100.934702 77.805125 
L 102.197772 77.699833 
L 102.303028 77.59454 
L 102.618796 77.59454 
L 102.618796 77.383955 
L 102.724052 77.383955 
L 103.77661 77.278663 
L 103.77661 77.17337 
L 103.881866 77.17337 
L 104.829168 77.068078 
L 105.250191 76.752201 
L 105.881726 76.646908 
L 106.197494 76.541616 
L 107.144796 76.436323 
L 107.881587 76.120446 
L 108.723634 76.015153 
L 108.82889 75.909861 
L 109.249913 75.804568 
L 109.249913 75.699276 
L 109.56568 75.699276 
L 109.56568 75.593983 
L 110.618239 75.172813 
L 111.776053 75.067521 
L 111.881309 74.962228 
L 113.144379 74.856936 
L 113.35489 74.751643 
L 116.196798 74.646351 
L 116.302054 74.541058 
L 116.512565 74.541058 
L 116.512565 74.435766 
L 117.249356 74.119889 
L 118.512426 74.014596 
L 118.828194 73.804011 
L 121.249078 73.698719 
L 122.512148 73.382841 
L 123.775218 73.277549 
L 123.880473 73.066964 
L 125.564567 72.435209 
L 125.669822 72.224624 
L 125.880334 72.224624 
L 125.880334 72.014039 
L 125.98559 72.014039 
L 129.248521 71.908747 
L 129.459032 71.803454 
L 130.406335 71.803454 
L 130.616847 71.592869 
L 133.774521 71.487577 
L 133.774521 71.382284 
L 134.090289 71.382284 
L 134.721824 71.171699 
L 135.563871 71.066407 
L 135.563871 70.961114 
L 137.037452 70.855822 
L 138.511034 70.645237 
L 140.826662 70.539944 
L 141.458197 70.224067 
L 146.194709 70.118774 
L 146.405221 70.013482 
L 150.931222 69.908189 
L 150.931222 69.802897 
L 154.615176 69.697604 
L 155.246711 69.592312 
L 160.930526 69.487019 
L 161.035781 69.381727 
L 164.403968 69.276435 
L 165.561782 68.960557 
L 170.824574 68.855265 
L 170.824574 68.749972 
L 181.455412 68.64468 
L 181.665924 68.434095 
L 182.507971 68.328802 
L 182.823738 68.22351 
L 189.665367 68.118217 
L 189.981135 68.012925 
L 205.769509 67.907632 
L 205.769509 67.80234 
L 205.874765 67.80234 
L 218.189697 67.697047 
L 218.505465 67.591755 
L 227.662722 67.486462 
L 227.662722 67.38117 
L 227.767978 67.38117 
L 260.713053 67.275877 
L 261.765611 67.170585 
L 287.02701 67.065292 
L 288.184824 66.96 
L 372.6 66.96 
L 372.6 66.96 
" clip-path="url(#p66d6a44d65)" style="fill: none; stroke: #9467bd; stroke-opacity: 0.3; stroke-linecap: square"/>
   </g>
   <g id="line2d_18">
    <path d="M 70.2 369.36 
L 73.254545 161.277474 
L 76.309091 118.327413 
L 79.363636 100.384761 
L 82.418182 92.981956 
L 85.472727 87.742141 
L 88.527273 85.041528 
L 91.581818 82.506813 
L 94.636364 80.684868 
L 97.690909 79.387168 
L 100.745455 78.435069 
L 103.8 77.35572 
L 106.854545 76.438289 
L 109.909091 75.427016 
L 112.963636 74.643452 
L 116.018182 73.975795 
L 119.072727 73.407277 
L 122.127273 72.899699 
L 125.181818 72.467297 
L 128.236364 72.041198 
L 131.290909 71.699188 
L 134.345455 71.318119 
L 137.4 70.907689 
L 140.454545 70.751358 
L 143.509091 70.435415 
L 146.563636 70.182647 
L 149.618182 70.039684 
L 152.672727 69.866711 
L 155.727273 69.749477 
L 158.781818 69.656074 
L 161.836364 69.453741 
L 164.890909 69.175561 
L 167.945455 69.087385 
L 171 68.85569 
L 174.054545 68.771434 
L 177.109091 68.708244 
L 180.163636 68.623988 
L 183.218182 68.45827 
L 186.272727 68.350191 
L 189.327273 68.296706 
L 192.381818 68.189985 
L 195.436364 68.151896 
L 198.490909 68.055299 
L 201.545455 67.992108 
L 204.6 67.928911 
L 207.654545 67.835094 
L 210.709091 67.760406 
L 213.763636 67.67615 
L 216.818182 67.612953 
L 219.872727 67.48658 
L 222.927273 67.402324 
L 225.981818 67.381258 
L 229.036364 67.339134 
L 232.090909 67.297002 
L 235.145455 67.25487 
L 238.2 67.233812 
L 241.254545 67.19168 
L 244.309091 67.170622 
L 247.363636 67.170622 
L 250.418182 67.149556 
L 253.472727 67.128497 
L 256.527273 67.086373 
L 259.581818 67.086373 
L 262.636364 67.065314 
L 265.690909 67.065314 
L 268.745455 67.044249 
L 271.8 67.044249 
L 274.854545 67.023183 
L 277.909091 67.002117 
L 280.963636 67.002117 
L 284.018182 66.981058 
L 287.072727 66.979752 
L 290.127273 66.96 
L 293.181818 66.96 
L 296.236364 66.96 
L 299.290909 66.96 
L 302.345455 66.96 
L 305.4 66.96 
L 308.454545 66.96 
L 311.509091 66.96 
L 314.563636 66.96 
L 317.618182 66.96 
L 320.672727 66.96 
L 323.727273 66.96 
L 326.781818 66.96 
L 329.836364 66.96 
L 332.890909 66.96 
L 335.945455 66.96 
L 339 66.96 
L 342.054545 66.96 
L 345.109091 66.96 
L 348.163636 66.96 
L 351.218182 66.96 
L 354.272727 66.96 
L 357.327273 66.96 
L 360.381818 66.96 
L 363.436364 66.96 
L 366.490909 66.96 
L 369.545455 66.96 
L 372.6 66.96 
" clip-path="url(#p66d6a44d65)" style="fill: none; stroke: #0000ff; stroke-opacity: 0.8; stroke-width: 2; stroke-linecap: square"/>
   </g>
   <g id="patch_3">
    <path d="M 55.08 384.48 
L 55.08 51.84 
" style="fill: none; stroke: #000000; stroke-width: 0.8; stroke-linejoin: miter; stroke-linecap: square"/>
   </g>
   <g id="patch_4">
    <path d="M 387.72 384.48 
L 387.72 51.84 
" style="fill: none; stroke: #000000; stroke-width: 0.8; stroke-linejoin: miter; stroke-linecap: square"/>
   </g>
   <g id="patch_5">
    <path d="M 55.08 384.48 
L 387.72 384.48 
" style="fill: none; stroke: #000000; stroke-width: 0.8; stroke-linejoin: miter; stroke-linecap: square"/>
   </g>
   <g id="patch_6">
    <path d="M 55.08 51.84 
L 387.72 51.84 
" style="fill: none; stroke: #000000; stroke-width: 0.8; stroke-linejoin: miter; stroke-linecap: square"/>
   </g>
   <g id="text_15">
    <!-- Mean ROC curve with variability -->
    <g transform="translate(125.05125 45.84) scale(0.12 -0.12)">
     <defs>
      <path id="DejaVuSans-4d" d="M 628 4666 
L 1569 4666 
L 2759 1491 
L 3956 4666 
L 4897 4666 
L 4897 0 
L 4281 0 
L 4281 4097 
L 3078 897 
L 2444 897 
L 1241 4097 
L 1241 0 
L 628 0 
L 628 4666 
z
" transform="scale(0.015625)"/>
      <path id="DejaVuSans-6e" d="M 3513 2113 
L 3513 0 
L 2938 0 
L 2938 2094 
Q 2938 2591 2744 2837 
Q 2550 3084 2163 3084 
Q 1697 3084 1428 2787 
Q 1159 2491 1159 1978 
L 1159 0 
L 581 0 
L 581 3500 
L 1159 3500 
L 1159 2956 
Q 1366 3272 1645 3428 
Q 1925 3584 2291 3584 
Q 2894 3584 3203 3211 
Q 3513 2838 3513 2113 
z
" transform="scale(0.015625)"/>
      <path id="DejaVuSans-4f" d="M 2522 4238 
Q 1834 4238 1429 3725 
Q 1025 3213 1025 2328 
Q 1025 1447 1429 934 
Q 1834 422 2522 422 
Q 3209 422 3611 934 
Q 4013 1447 4013 2328 
Q 4013 3213 3611 3725 
Q 3209 4238 2522 4238 
z
M 2522 4750 
Q 3503 4750 4090 4092 
Q 4678 3434 4678 2328 
Q 4678 1225 4090 567 
Q 3503 -91 2522 -91 
Q 1538 -91 948 565 
Q 359 1222 359 2328 
Q 359 3434 948 4092 
Q 1538 4750 2522 4750 
z
" transform="scale(0.015625)"/>
      <path id="DejaVuSans-43" d="M 4122 4306 
L 4122 3641 
Q 3803 3938 3442 4084 
Q 3081 4231 2675 4231 
Q 1875 4231 1450 3742 
Q 1025 3253 1025 2328 
Q 1025 1406 1450 917 
Q 1875 428 2675 428 
Q 3081 428 3442 575 
Q 3803 722 4122 1019 
L 4122 359 
Q 3791 134 3420 21 
Q 3050 -91 2638 -91 
Q 1578 -91 968 557 
Q 359 1206 359 2328 
Q 359 3453 968 4101 
Q 1578 4750 2638 4750 
Q 3056 4750 3426 4639 
Q 3797 4528 4122 4306 
z
" transform="scale(0.015625)"/>
      <path id="DejaVuSans-63" d="M 3122 3366 
L 3122 2828 
Q 2878 2963 2633 3030 
Q 2388 3097 2138 3097 
Q 1578 3097 1268 2742 
Q 959 2388 959 1747 
Q 959 1106 1268 751 
Q 1578 397 2138 397 
Q 2388 397 2633 464 
Q 2878 531 3122 666 
L 3122 134 
Q 2881 22 2623 -34 
Q 2366 -91 2075 -91 
Q 1284 -91 818 406 
Q 353 903 353 1747 
Q 353 2603 823 3093 
Q 1294 3584 2113 3584 
Q 2378 3584 2631 3529 
Q 2884 3475 3122 3366 
z
" transform="scale(0.015625)"/>
      <path id="DejaVuSans-77" d="M 269 3500 
L 844 3500 
L 1563 769 
L 2278 3500 
L 2956 3500 
L 3675 769 
L 4391 3500 
L 4966 3500 
L 4050 0 
L 3372 0 
L 2619 2869 
L 1863 0 
L 1184 0 
L 269 3500 
z
" transform="scale(0.015625)"/>
      <path id="DejaVuSans-68" d="M 3513 2113 
L 3513 0 
L 2938 0 
L 2938 2094 
Q 2938 2591 2744 2837 
Q 2550 3084 2163 3084 
Q 1697 3084 1428 2787 
Q 1159 2491 1159 1978 
L 1159 0 
L 581 0 
L 581 4863 
L 1159 4863 
L 1159 2956 
Q 1366 3272 1645 3428 
Q 1925 3584 2291 3584 
Q 2894 3584 3203 3211 
Q 3513 2838 3513 2113 
z
" transform="scale(0.015625)"/>
      <path id="DejaVuSans-62" d="M 3116 1747 
Q 3116 2381 2855 2742 
Q 2594 3103 2138 3103 
Q 1681 3103 1420 2742 
Q 1159 2381 1159 1747 
Q 1159 1113 1420 752 
Q 1681 391 2138 391 
Q 2594 391 2855 752 
Q 3116 1113 3116 1747 
z
M 1159 2969 
Q 1341 3281 1617 3432 
Q 1894 3584 2278 3584 
Q 2916 3584 3314 3078 
Q 3713 2572 3713 1747 
Q 3713 922 3314 415 
Q 2916 -91 2278 -91 
Q 1894 -91 1617 61 
Q 1341 213 1159 525 
L 1159 0 
L 581 0 
L 581 4863 
L 1159 4863 
L 1159 2969 
z
" transform="scale(0.015625)"/>
      <path id="DejaVuSans-79" d="M 2059 -325 
Q 1816 -950 1584 -1140 
Q 1353 -1331 966 -1331 
L 506 -1331 
L 506 -850 
L 844 -850 
Q 1081 -850 1212 -737 
Q 1344 -625 1503 -206 
L 1606 56 
L 191 3500 
L 800 3500 
L 1894 763 
L 2988 3500 
L 3597 3500 
L 2059 -325 
z
" transform="scale(0.015625)"/>
     </defs>
     <use xlink:href="#DejaVuSans-4d"/>
     <use xlink:href="#DejaVuSans-65" x="86.279297"/>
     <use xlink:href="#DejaVuSans-61" x="147.802734"/>
     <use xlink:href="#DejaVuSans-6e" x="209.082031"/>
     <use xlink:href="#DejaVuSans-20" x="272.460938"/>
     <use xlink:href="#DejaVuSans-52" x="304.248047"/>
     <use xlink:href="#DejaVuSans-4f" x="373.730469"/>
     <use xlink:href="#DejaVuSans-43" x="452.441406"/>
     <use xlink:href="#DejaVuSans-20" x="522.265625"/>
     <use xlink:href="#DejaVuSans-63" x="554.052734"/>
     <use xlink:href="#DejaVuSans-75" x="609.033203"/>
     <use xlink:href="#DejaVuSans-72" x="672.412109"/>
     <use xlink:href="#DejaVuSans-76" x="713.525391"/>
     <use xlink:href="#DejaVuSans-65" x="772.705078"/>
     <use xlink:href="#DejaVuSans-20" x="834.228516"/>
     <use xlink:href="#DejaVuSans-77" x="866.015625"/>
     <use xlink:href="#DejaVuSans-69" x="947.802734"/>
     <use xlink:href="#DejaVuSans-74" x="975.585938"/>
     <use xlink:href="#DejaVuSans-68" x="1014.794922"/>
     <use xlink:href="#DejaVuSans-20" x="1078.173828"/>
     <use xlink:href="#DejaVuSans-76" x="1109.960938"/>
     <use xlink:href="#DejaVuSans-61" x="1169.140625"/>
     <use xlink:href="#DejaVuSans-72" x="1230.419922"/>
     <use xlink:href="#DejaVuSans-69" x="1271.533203"/>
     <use xlink:href="#DejaVuSans-61" x="1299.316406"/>
     <use xlink:href="#DejaVuSans-62" x="1360.595703"/>
     <use xlink:href="#DejaVuSans-69" x="1424.072266"/>
     <use xlink:href="#DejaVuSans-6c" x="1451.855469"/>
     <use xlink:href="#DejaVuSans-69" x="1479.638672"/>
     <use xlink:href="#DejaVuSans-74" x="1507.421875"/>
     <use xlink:href="#DejaVuSans-79" x="1546.630859"/>
    </g>
   </g>
   <g id="legend_1">
    <g id="patch_7">
     <path d="M 190.32 379.48 
L 380.72 379.48 
Q 382.72 379.48 382.72 377.48 
L 382.72 275.733125 
Q 382.72 273.733125 380.72 273.733125 
L 190.32 273.733125 
Q 188.32 273.733125 188.32 275.733125 
L 188.32 377.48 
Q 188.32 379.48 190.32 379.48 
z
" style="fill: #ffffff; opacity: 0.8; stroke: #cccccc; stroke-linejoin: miter"/>
    </g>
    <g id="line2d_19">
     <path d="M 192.32 281.831563 
L 202.32 281.831563 
L 212.32 281.831563 
" style="fill: none; stroke: #1f77b4; stroke-opacity: 0.3; stroke-linecap: square"/>
    </g>
    <g id="text_16">
     <!-- ROC fold 0 (AUC = 0.98) -->
     <g transform="translate(220.32 285.331563) scale(0.1 -0.1)">
      <defs>
       <path id="DejaVuSans-66" d="M 2375 4863 
L 2375 4384 
L 1825 4384 
Q 1516 4384 1395 4259 
Q 1275 4134 1275 3809 
L 1275 3500 
L 2222 3500 
L 2222 3053 
L 1275 3053 
L 1275 0 
L 697 0 
L 697 3053 
L 147 3053 
L 147 3500 
L 697 3500 
L 697 3744 
Q 697 4328 969 4595 
Q 1241 4863 1831 4863 
L 2375 4863 
z
" transform="scale(0.015625)"/>
       <path id="DejaVuSans-64" d="M 2906 2969 
L 2906 4863 
L 3481 4863 
L 3481 0 
L 2906 0 
L 2906 525 
Q 2725 213 2448 61 
Q 2172 -91 1784 -91 
Q 1150 -91 751 415 
Q 353 922 353 1747 
Q 353 2572 751 3078 
Q 1150 3584 1784 3584 
Q 2172 3584 2448 3432 
Q 2725 3281 2906 2969 
z
M 947 1747 
Q 947 1113 1208 752 
Q 1469 391 1925 391 
Q 2381 391 2643 752 
Q 2906 1113 2906 1747 
Q 2906 2381 2643 2742 
Q 2381 3103 1925 3103 
Q 1469 3103 1208 2742 
Q 947 2381 947 1747 
z
" transform="scale(0.015625)"/>
       <path id="DejaVuSans-28" d="M 1984 4856 
Q 1566 4138 1362 3434 
Q 1159 2731 1159 2009 
Q 1159 1288 1364 580 
Q 1569 -128 1984 -844 
L 1484 -844 
Q 1016 -109 783 600 
Q 550 1309 550 2009 
Q 550 2706 781 3412 
Q 1013 4119 1484 4856 
L 1984 4856 
z
" transform="scale(0.015625)"/>
       <path id="DejaVuSans-41" d="M 2188 4044 
L 1331 1722 
L 3047 1722 
L 2188 4044 
z
M 1831 4666 
L 2547 4666 
L 4325 0 
L 3669 0 
L 3244 1197 
L 1141 1197 
L 716 0 
L 50 0 
L 1831 4666 
z
" transform="scale(0.015625)"/>
       <path id="DejaVuSans-55" d="M 556 4666 
L 1191 4666 
L 1191 1831 
Q 1191 1081 1462 751 
Q 1734 422 2344 422 
Q 2950 422 3222 751 
Q 3494 1081 3494 1831 
L 3494 4666 
L 4128 4666 
L 4128 1753 
Q 4128 841 3676 375 
Q 3225 -91 2344 -91 
Q 1459 -91 1007 375 
Q 556 841 556 1753 
L 556 4666 
z
" transform="scale(0.015625)"/>
       <path id="DejaVuSans-3d" d="M 678 2906 
L 4684 2906 
L 4684 2381 
L 678 2381 
L 678 2906 
z
M 678 1631 
L 4684 1631 
L 4684 1100 
L 678 1100 
L 678 1631 
z
" transform="scale(0.015625)"/>
       <path id="DejaVuSans-39" d="M 703 97 
L 703 672 
Q 941 559 1184 500 
Q 1428 441 1663 441 
Q 2288 441 2617 861 
Q 2947 1281 2994 2138 
Q 2813 1869 2534 1725 
Q 2256 1581 1919 1581 
Q 1219 1581 811 2004 
Q 403 2428 403 3163 
Q 403 3881 828 4315 
Q 1253 4750 1959 4750 
Q 2769 4750 3195 4129 
Q 3622 3509 3622 2328 
Q 3622 1225 3098 567 
Q 2575 -91 1691 -91 
Q 1453 -91 1209 -44 
Q 966 3 703 97 
z
M 1959 2075 
Q 2384 2075 2632 2365 
Q 2881 2656 2881 3163 
Q 2881 3666 2632 3958 
Q 2384 4250 1959 4250 
Q 1534 4250 1286 3958 
Q 1038 3666 1038 3163 
Q 1038 2656 1286 2365 
Q 1534 2075 1959 2075 
z
" transform="scale(0.015625)"/>
       <path id="DejaVuSans-29" d="M 513 4856 
L 1013 4856 
Q 1481 4119 1714 3412 
Q 1947 2706 1947 2009 
Q 1947 1309 1714 600 
Q 1481 -109 1013 -844 
L 513 -844 
Q 928 -128 1133 580 
Q 1338 1288 1338 2009 
Q 1338 2731 1133 3434 
Q 928 4138 513 4856 
z
" transform="scale(0.015625)"/>
      </defs>
      <use xlink:href="#DejaVuSans-52"/>
      <use xlink:href="#DejaVuSans-4f" x="69.482422"/>
      <use xlink:href="#DejaVuSans-43" x="148.193359"/>
      <use xlink:href="#DejaVuSans-20" x="218.017578"/>
      <use xlink:href="#DejaVuSans-66" x="249.804688"/>
      <use xlink:href="#DejaVuSans-6f" x="285.009766"/>
      <use xlink:href="#DejaVuSans-6c" x="346.191406"/>
      <use xlink:href="#DejaVuSans-64" x="373.974609"/>
      <use xlink:href="#DejaVuSans-20" x="437.451172"/>
      <use xlink:href="#DejaVuSans-30" x="469.238281"/>
      <use xlink:href="#DejaVuSans-20" x="532.861328"/>
      <use xlink:href="#DejaVuSans-28" x="564.648438"/>
      <use xlink:href="#DejaVuSans-41" x="603.662109"/>
      <use xlink:href="#DejaVuSans-55" x="672.070312"/>
      <use xlink:href="#DejaVuSans-43" x="745.263672"/>
      <use xlink:href="#DejaVuSans-20" x="815.087891"/>
      <use xlink:href="#DejaVuSans-3d" x="846.875"/>
      <use xlink:href="#DejaVuSans-20" x="930.664062"/>
      <use xlink:href="#DejaVuSans-30" x="962.451172"/>
      <use xlink:href="#DejaVuSans-2e" x="1026.074219"/>
      <use xlink:href="#DejaVuSans-39" x="1057.861328"/>
      <use xlink:href="#DejaVuSans-38" x="1121.484375"/>
      <use xlink:href="#DejaVuSans-29" x="1185.107422"/>
     </g>
    </g>
    <g id="line2d_20">
     <path d="M 192.32 296.509688 
L 202.32 296.509688 
L 212.32 296.509688 
" style="fill: none; stroke: #ff7f0e; stroke-opacity: 0.3; stroke-linecap: square"/>
    </g>
    <g id="text_17">
     <!-- ROC fold 1 (AUC = 0.98) -->
     <g transform="translate(220.32 300.009688) scale(0.1 -0.1)">
      <use xlink:href="#DejaVuSans-52"/>
      <use xlink:href="#DejaVuSans-4f" x="69.482422"/>
      <use xlink:href="#DejaVuSans-43" x="148.193359"/>
      <use xlink:href="#DejaVuSans-20" x="218.017578"/>
      <use xlink:href="#DejaVuSans-66" x="249.804688"/>
      <use xlink:href="#DejaVuSans-6f" x="285.009766"/>
      <use xlink:href="#DejaVuSans-6c" x="346.191406"/>
      <use xlink:href="#DejaVuSans-64" x="373.974609"/>
      <use xlink:href="#DejaVuSans-20" x="437.451172"/>
      <use xlink:href="#DejaVuSans-31" x="469.238281"/>
      <use xlink:href="#DejaVuSans-20" x="532.861328"/>
      <use xlink:href="#DejaVuSans-28" x="564.648438"/>
      <use xlink:href="#DejaVuSans-41" x="603.662109"/>
      <use xlink:href="#DejaVuSans-55" x="672.070312"/>
      <use xlink:href="#DejaVuSans-43" x="745.263672"/>
      <use xlink:href="#DejaVuSans-20" x="815.087891"/>
      <use xlink:href="#DejaVuSans-3d" x="846.875"/>
      <use xlink:href="#DejaVuSans-20" x="930.664062"/>
      <use xlink:href="#DejaVuSans-30" x="962.451172"/>
      <use xlink:href="#DejaVuSans-2e" x="1026.074219"/>
      <use xlink:href="#DejaVuSans-39" x="1057.861328"/>
      <use xlink:href="#DejaVuSans-38" x="1121.484375"/>
      <use xlink:href="#DejaVuSans-29" x="1185.107422"/>
     </g>
    </g>
    <g id="line2d_21">
     <path d="M 192.32 311.187813 
L 202.32 311.187813 
L 212.32 311.187813 
" style="fill: none; stroke: #2ca02c; stroke-opacity: 0.3; stroke-linecap: square"/>
    </g>
    <g id="text_18">
     <!-- ROC fold 2 (AUC = 0.98) -->
     <g transform="translate(220.32 314.687813) scale(0.1 -0.1)">
      <use xlink:href="#DejaVuSans-52"/>
      <use xlink:href="#DejaVuSans-4f" x="69.482422"/>
      <use xlink:href="#DejaVuSans-43" x="148.193359"/>
      <use xlink:href="#DejaVuSans-20" x="218.017578"/>
      <use xlink:href="#DejaVuSans-66" x="249.804688"/>
      <use xlink:href="#DejaVuSans-6f" x="285.009766"/>
      <use xlink:href="#DejaVuSans-6c" x="346.191406"/>
      <use xlink:href="#DejaVuSans-64" x="373.974609"/>
      <use xlink:href="#DejaVuSans-20" x="437.451172"/>
      <use xlink:href="#DejaVuSans-32" x="469.238281"/>
      <use xlink:href="#DejaVuSans-20" x="532.861328"/>
      <use xlink:href="#DejaVuSans-28" x="564.648438"/>
      <use xlink:href="#DejaVuSans-41" x="603.662109"/>
      <use xlink:href="#DejaVuSans-55" x="672.070312"/>
      <use xlink:href="#DejaVuSans-43" x="745.263672"/>
      <use xlink:href="#DejaVuSans-20" x="815.087891"/>
      <use xlink:href="#DejaVuSans-3d" x="846.875"/>
      <use xlink:href="#DejaVuSans-20" x="930.664062"/>
      <use xlink:href="#DejaVuSans-30" x="962.451172"/>
      <use xlink:href="#DejaVuSans-2e" x="1026.074219"/>
      <use xlink:href="#DejaVuSans-39" x="1057.861328"/>
      <use xlink:href="#DejaVuSans-38" x="1121.484375"/>
      <use xlink:href="#DejaVuSans-29" x="1185.107422"/>
     </g>
    </g>
    <g id="line2d_22">
     <path d="M 192.32 325.865938 
L 202.32 325.865938 
L 212.32 325.865938 
" style="fill: none; stroke: #d62728; stroke-opacity: 0.3; stroke-linecap: square"/>
    </g>
    <g id="text_19">
     <!-- ROC fold 3 (AUC = 0.98) -->
     <g transform="translate(220.32 329.365938) scale(0.1 -0.1)">
      <defs>
       <path id="DejaVuSans-33" d="M 2597 2516 
Q 3050 2419 3304 2112 
Q 3559 1806 3559 1356 
Q 3559 666 3084 287 
Q 2609 -91 1734 -91 
Q 1441 -91 1130 -33 
Q 819 25 488 141 
L 488 750 
Q 750 597 1062 519 
Q 1375 441 1716 441 
Q 2309 441 2620 675 
Q 2931 909 2931 1356 
Q 2931 1769 2642 2001 
Q 2353 2234 1838 2234 
L 1294 2234 
L 1294 2753 
L 1863 2753 
Q 2328 2753 2575 2939 
Q 2822 3125 2822 3475 
Q 2822 3834 2567 4026 
Q 2313 4219 1838 4219 
Q 1578 4219 1281 4162 
Q 984 4106 628 3988 
L 628 4550 
Q 988 4650 1302 4700 
Q 1616 4750 1894 4750 
Q 2613 4750 3031 4423 
Q 3450 4097 3450 3541 
Q 3450 3153 3228 2886 
Q 3006 2619 2597 2516 
z
" transform="scale(0.015625)"/>
      </defs>
      <use xlink:href="#DejaVuSans-52"/>
      <use xlink:href="#DejaVuSans-4f" x="69.482422"/>
      <use xlink:href="#DejaVuSans-43" x="148.193359"/>
      <use xlink:href="#DejaVuSans-20" x="218.017578"/>
      <use xlink:href="#DejaVuSans-66" x="249.804688"/>
      <use xlink:href="#DejaVuSans-6f" x="285.009766"/>
      <use xlink:href="#DejaVuSans-6c" x="346.191406"/>
      <use xlink:href="#DejaVuSans-64" x="373.974609"/>
      <use xlink:href="#DejaVuSans-20" x="437.451172"/>
      <use xlink:href="#DejaVuSans-33" x="469.238281"/>
      <use xlink:href="#DejaVuSans-20" x="532.861328"/>
      <use xlink:href="#DejaVuSans-28" x="564.648438"/>
      <use xlink:href="#DejaVuSans-41" x="603.662109"/>
      <use xlink:href="#DejaVuSans-55" x="672.070312"/>
      <use xlink:href="#DejaVuSans-43" x="745.263672"/>
      <use xlink:href="#DejaVuSans-20" x="815.087891"/>
      <use xlink:href="#DejaVuSans-3d" x="846.875"/>
      <use xlink:href="#DejaVuSans-20" x="930.664062"/>
      <use xlink:href="#DejaVuSans-30" x="962.451172"/>
      <use xlink:href="#DejaVuSans-2e" x="1026.074219"/>
      <use xlink:href="#DejaVuSans-39" x="1057.861328"/>
      <use xlink:href="#DejaVuSans-38" x="1121.484375"/>
      <use xlink:href="#DejaVuSans-29" x="1185.107422"/>
     </g>
    </g>
    <g id="line2d_23">
     <path d="M 192.32 340.544062 
L 202.32 340.544062 
L 212.32 340.544062 
" style="fill: none; stroke: #9467bd; stroke-opacity: 0.3; stroke-linecap: square"/>
    </g>
    <g id="text_20">
     <!-- ROC fold 4 (AUC = 0.98) -->
     <g transform="translate(220.32 344.044062) scale(0.1 -0.1)">
      <use xlink:href="#DejaVuSans-52"/>
      <use xlink:href="#DejaVuSans-4f" x="69.482422"/>
      <use xlink:href="#DejaVuSans-43" x="148.193359"/>
      <use xlink:href="#DejaVuSans-20" x="218.017578"/>
      <use xlink:href="#DejaVuSans-66" x="249.804688"/>
      <use xlink:href="#DejaVuSans-6f" x="285.009766"/>
      <use xlink:href="#DejaVuSans-6c" x="346.191406"/>
      <use xlink:href="#DejaVuSans-64" x="373.974609"/>
      <use xlink:href="#DejaVuSans-20" x="437.451172"/>
      <use xlink:href="#DejaVuSans-34" x="469.238281"/>
      <use xlink:href="#DejaVuSans-20" x="532.861328"/>
      <use xlink:href="#DejaVuSans-28" x="564.648438"/>
      <use xlink:href="#DejaVuSans-41" x="603.662109"/>
      <use xlink:href="#DejaVuSans-55" x="672.070312"/>
      <use xlink:href="#DejaVuSans-43" x="745.263672"/>
      <use xlink:href="#DejaVuSans-20" x="815.087891"/>
      <use xlink:href="#DejaVuSans-3d" x="846.875"/>
      <use xlink:href="#DejaVuSans-20" x="930.664062"/>
      <use xlink:href="#DejaVuSans-30" x="962.451172"/>
      <use xlink:href="#DejaVuSans-2e" x="1026.074219"/>
      <use xlink:href="#DejaVuSans-39" x="1057.861328"/>
      <use xlink:href="#DejaVuSans-38" x="1121.484375"/>
      <use xlink:href="#DejaVuSans-29" x="1185.107422"/>
     </g>
    </g>
    <g id="line2d_24">
     <path d="M 192.32 355.222188 
L 202.32 355.222188 
L 212.32 355.222188 
" style="fill: none; stroke: #0000ff; stroke-opacity: 0.8; stroke-width: 2; stroke-linecap: square"/>
    </g>
    <g id="text_21">
     <!-- Mean ROC (AUC = 0.98 $\pm$ 0.00) -->
     <g transform="translate(220.32 358.722188) scale(0.1 -0.1)">
      <defs>
       <path id="DejaVuSans-b1" d="M 2944 4013 
L 2944 2803 
L 4684 2803 
L 4684 2272 
L 2944 2272 
L 2944 1063 
L 2419 1063 
L 2419 2272 
L 678 2272 
L 678 2803 
L 2419 2803 
L 2419 4013 
L 2944 4013 
z
M 678 531 
L 4684 531 
L 4684 0 
L 678 0 
L 678 531 
z
" transform="scale(0.015625)"/>
      </defs>
      <use xlink:href="#DejaVuSans-4d" transform="translate(0 0.125)"/>
      <use xlink:href="#DejaVuSans-65" transform="translate(86.279297 0.125)"/>
      <use xlink:href="#DejaVuSans-61" transform="translate(147.802734 0.125)"/>
      <use xlink:href="#DejaVuSans-6e" transform="translate(209.082031 0.125)"/>
      <use xlink:href="#DejaVuSans-20" transform="translate(272.460938 0.125)"/>
      <use xlink:href="#DejaVuSans-52" transform="translate(304.248047 0.125)"/>
      <use xlink:href="#DejaVuSans-4f" transform="translate(373.730469 0.125)"/>
      <use xlink:href="#DejaVuSans-43" transform="translate(452.441406 0.125)"/>
      <use xlink:href="#DejaVuSans-20" transform="translate(522.265625 0.125)"/>
      <use xlink:href="#DejaVuSans-28" transform="translate(554.052734 0.125)"/>
      <use xlink:href="#DejaVuSans-41" transform="translate(593.066406 0.125)"/>
      <use xlink:href="#DejaVuSans-55" transform="translate(661.474609 0.125)"/>
      <use xlink:href="#DejaVuSans-43" transform="translate(734.667969 0.125)"/>
      <use xlink:href="#DejaVuSans-20" transform="translate(804.492188 0.125)"/>
      <use xlink:href="#DejaVuSans-3d" transform="translate(836.279297 0.125)"/>
      <use xlink:href="#DejaVuSans-20" transform="translate(920.068359 0.125)"/>
      <use xlink:href="#DejaVuSans-30" transform="translate(951.855469 0.125)"/>
      <use xlink:href="#DejaVuSans-2e" transform="translate(1015.478516 0.125)"/>
      <use xlink:href="#DejaVuSans-39" transform="translate(1047.265625 0.125)"/>
      <use xlink:href="#DejaVuSans-38" transform="translate(1110.888672 0.125)"/>
      <use xlink:href="#DejaVuSans-20" transform="translate(1174.511719 0.125)"/>
      <use xlink:href="#DejaVuSans-b1" transform="translate(1206.298828 0.125)"/>
      <use xlink:href="#DejaVuSans-20" transform="translate(1290.087891 0.125)"/>
      <use xlink:href="#DejaVuSans-30" transform="translate(1321.875 0.125)"/>
      <use xlink:href="#DejaVuSans-2e" transform="translate(1385.498047 0.125)"/>
      <use xlink:href="#DejaVuSans-30" transform="translate(1417.285156 0.125)"/>
      <use xlink:href="#DejaVuSans-30" transform="translate(1480.908203 0.125)"/>
      <use xlink:href="#DejaVuSans-29" transform="translate(1544.53125 0.125)"/>
     </g>
    </g>
    <g id="patch_8">
     <path d="M 192.32 373.400313 
L 212.32 373.400313 
L 212.32 366.400313 
L 192.32 366.400313 
z
" style="fill: #808080; fill-opacity: 0.2; stroke: #808080; stroke-opacity: 0.2; stroke-linejoin: miter"/>
    </g>
    <g id="text_22">
     <!-- $\pm$ 1 std. dev. -->
     <g transform="translate(220.32 373.400313) scale(0.1 -0.1)">
      <use xlink:href="#DejaVuSans-b1" transform="translate(0 0.015625)"/>
      <use xlink:href="#DejaVuSans-20" transform="translate(83.789062 0.015625)"/>
      <use xlink:href="#DejaVuSans-31" transform="translate(115.576172 0.015625)"/>
      <use xlink:href="#DejaVuSans-20" transform="translate(179.199219 0.015625)"/>
      <use xlink:href="#DejaVuSans-73" transform="translate(210.986328 0.015625)"/>
      <use xlink:href="#DejaVuSans-74" transform="translate(263.085938 0.015625)"/>
      <use xlink:href="#DejaVuSans-64" transform="translate(302.294922 0.015625)"/>
      <use xlink:href="#DejaVuSans-2e" transform="translate(365.771484 0.015625)"/>
      <use xlink:href="#DejaVuSans-20" transform="translate(397.558594 0.015625)"/>
      <use xlink:href="#DejaVuSans-64" transform="translate(429.345703 0.015625)"/>
      <use xlink:href="#DejaVuSans-65" transform="translate(492.822266 0.015625)"/>
      <use xlink:href="#DejaVuSans-76" transform="translate(554.345703 0.015625)"/>
      <use xlink:href="#DejaVuSans-2e" transform="translate(613.525391 0.015625)"/>
     </g>
    </g>
   </g>
  </g>
 </g>
 <defs>
  <clipPath id="p66d6a44d65">
   <rect x="55.08" y="51.84" width="332.64" height="332.64"/>
  </clipPath>
 </defs>
</svg>
