<?xml version="1.0" encoding="utf-8" standalone="no"?>
<!DOCTYPE svg PUBLIC "-//W3C//DTD SVG 1.1//EN"
  "http://www.w3.org/Graphics/SVG/1.1/DTD/svg11.dtd">
<svg xmlns:xlink="http://www.w3.org/1999/xlink" width="432pt" height="432pt" viewBox="0 0 432 432" xmlns="http://www.w3.org/2000/svg" version="1.1">
 <metadata>
  <rdf:RDF xmlns:dc="http://purl.org/dc/elements/1.1/" xmlns:cc="http://creativecommons.org/ns#" xmlns:rdf="http://www.w3.org/1999/02/22-rdf-syntax-ns#">
   <cc:Work>
    <dc:type rdf:resource="http://purl.org/dc/dcmitype/StillImage"/>
    <dc:date>2024-01-24T11:33:20.687188</dc:date>
    <dc:format>image/svg+xml</dc:format>
    <dc:creator>
     <cc:Agent>
      <dc:title>Matplotlib v3.6.3, https://matplotlib.org/</dc:title>
     </cc:Agent>
    </dc:creator>
   </cc:Work>
  </rdf:RDF>
 </metadata>
 <defs>
  <style type="text/css">*{stroke-linejoin: round; stroke-linecap: butt}</style>
 </defs>
 <g id="figure_1">
  <g id="patch_1">
   <path d="M 0 432 
L 432 432 
L 432 0 
L 0 0 
z
" style="fill: #ffffff"/>
  </g>
  <g id="axes_1">
   <g id="patch_2">
    <path d="M 55.08 384.48 
L 387.72 384.48 
L 387.72 51.84 
L 55.08 51.84 
z
" style="fill: #ffffff"/>
   </g>
   <g id="PolyCollection_1">
    <defs>
     <path id="mdd54b495ee" d="M 70.2 -62.64 
L 70.2 -62.64 
L 73.254545 -257.674824 
L 76.309091 -307.806122 
L 79.363636 -330.791226 
L 82.418182 -339.810144 
L 85.472727 -345.358619 
L 88.527273 -347.595924 
L 91.581818 -349.651703 
L 94.636364 -351.103178 
L 97.690909 -352.835917 
L 100.745455 -353.689347 
L 103.8 -354.397266 
L 106.854545 -355.380238 
L 109.909091 -356.097367 
L 112.963636 -357.040198 
L 116.018182 -357.71915 
L 119.072727 -358.281175 
L 122.127273 -358.815212 
L 125.181818 -359.237216 
L 128.236364 -359.893574 
L 131.290909 -360.284137 
L 134.345455 -360.520105 
L 137.4 -360.80213 
L 140.454545 -361.160331 
L 143.509091 -361.352654 
L 146.563636 -361.436876 
L 149.618182 -361.628844 
L 152.672727 -361.730182 
L 155.727273 -361.913955 
L 158.781818 -361.977645 
L 161.836364 -362.251133 
L 164.890909 -362.433732 
L 167.945455 -362.684691 
L 171 -362.858597 
L 174.054545 -363.035223 
L 177.109091 -363.085699 
L 180.163636 -363.171686 
L 183.218182 -363.309713 
L 186.272727 -363.408429 
L 189.327273 -363.581704 
L 192.381818 -363.624583 
L 195.436364 -363.673162 
L 198.490909 -363.729913 
L 201.545455 -363.818184 
L 204.6 -363.844948 
L 207.654545 -363.871077 
L 210.709091 -363.871077 
L 213.763636 -363.92274 
L 216.818182 -364.193911 
L 219.872727 -364.231802 
L 222.927273 -364.279027 
L 225.981818 -364.369465 
L 229.036364 -364.379647 
L 232.090909 -364.412645 
L 235.145455 -364.471285 
L 238.2 -364.46552 
L 241.254545 -364.46552 
L 244.309091 -364.639754 
L 247.363636 -364.705085 
L 250.418182 -364.710692 
L 253.472727 -364.808305 
L 256.527273 -364.83482 
L 259.581818 -364.840493 
L 262.636364 -364.852568 
L 265.690909 -364.852568 
L 268.745455 -364.852568 
L 271.8 -364.89258 
L 274.854545 -364.946284 
L 277.909091 -364.967229 
L 280.963636 -364.976825 
L 284.018182 -364.976825 
L 287.072727 -364.976825 
L 290.127273 -365.04 
L 293.181818 -365.04 
L 296.236364 -365.04 
L 299.290909 -365.04 
L 302.345455 -365.04 
L 305.4 -365.04 
L 308.454545 -365.04 
L 311.509091 -365.04 
L 314.563636 -365.04 
L 317.618182 -365.04 
L 320.672727 -365.04 
L 323.727273 -365.04 
L 326.781818 -365.04 
L 329.836364 -365.04 
L 332.890909 -365.04 
L 335.945455 -365.04 
L 339 -365.04 
L 342.054545 -365.04 
L 345.109091 -365.04 
L 348.163636 -365.04 
L 351.218182 -365.04 
L 354.272727 -365.04 
L 357.327273 -365.04 
L 360.381818 -365.04 
L 363.436364 -365.04 
L 366.490909 -365.04 
L 369.545455 -365.04 
L 372.6 -365.04 
L 372.6 -365.04 
L 372.6 -365.04 
L 369.545455 -365.04 
L 366.490909 -365.04 
L 363.436364 -365.04 
L 360.381818 -365.04 
L 357.327273 -365.04 
L 354.272727 -365.04 
L 351.218182 -365.04 
L 348.163636 -365.04 
L 345.109091 -365.04 
L 342.054545 -365.04 
L 339 -365.04 
L 335.945455 -365.04 
L 332.890909 -365.04 
L 329.836364 -365.04 
L 326.781818 -365.04 
L 323.727273 -365.04 
L 320.672727 -365.04 
L 317.618182 -365.04 
L 314.563636 -365.04 
L 311.509091 -365.04 
L 308.454545 -365.04 
L 305.4 -365.04 
L 302.345455 -365.04 
L 299.290909 -365.04 
L 296.236364 -365.04 
L 293.181818 -365.04 
L 290.127273 -365.04 
L 287.072727 -365.04 
L 284.018182 -365.04 
L 280.963636 -365.04 
L 277.909091 -365.04 
L 274.854545 -365.04 
L 271.8 -365.04 
L 268.745455 -365.04 
L 265.690909 -365.04 
L 262.636364 -365.04 
L 259.581818 -365.028878 
L 256.527273 -364.992434 
L 253.472727 -364.976817 
L 250.418182 -364.990167 
L 247.363636 -364.911511 
L 244.309091 -364.892578 
L 241.254545 -364.856198 
L 238.2 -364.856198 
L 235.145455 -364.808316 
L 232.090909 -364.69843 
L 229.036364 -364.689296 
L 225.981818 -364.615229 
L 222.927273 -364.621404 
L 219.872727 -364.58438 
L 216.818182 -364.58014 
L 213.763636 -364.472154 
L 210.709091 -364.397438 
L 207.654545 -364.397438 
L 204.6 -364.329955 
L 201.545455 -364.323951 
L 198.490909 -364.285841 
L 195.436364 -364.216212 
L 192.381818 -364.180542 
L 189.327273 -364.054924 
L 186.272727 -363.977768 
L 183.218182 -363.779277 
L 180.163636 -363.587967 
L 177.109091 -363.539915 
L 174.054545 -363.421894 
L 171 -363.317672 
L 167.945455 -363.224773 
L 164.890909 -363.180825 
L 161.836364 -363.068546 
L 158.781818 -363.004996 
L 155.727273 -362.773838 
L 152.672727 -362.547854 
L 149.618182 -362.300741 
L 146.563636 -362.197845 
L 143.509091 -361.855078 
L 140.454545 -361.716152 
L 137.4 -361.624979 
L 134.345455 -361.429614 
L 131.290909 -361.286456 
L 128.236364 -360.983403 
L 125.181818 -360.606228 
L 122.127273 -360.242312 
L 119.072727 -360.04572 
L 116.018182 -359.451537 
L 112.963636 -358.822159 
L 109.909091 -358.117809 
L 106.854545 -357.527756 
L 103.8 -356.712065 
L 100.745455 -355.664663 
L 97.690909 -354.270132 
L 94.636364 -353.251394 
L 91.581818 -352.128554 
L 88.527273 -350.510546 
L 85.472727 -347.739244 
L 82.418182 -344.29081 
L 79.363636 -337.450982 
L 76.309091 -323.790387 
L 73.254545 -286.1727 
L 70.2 -62.64 
z
" style="stroke: #808080; stroke-opacity: 0.2"/>
    </defs>
    <g clip-path="url(#p06585e32c9)">
     <use xlink:href="#mdd54b495ee" x="0" y="432" style="fill: #808080; fill-opacity: 0.2; stroke: #808080; stroke-opacity: 0.2"/>
    </g>
   </g>
   <g id="matplotlib.axis_1">
    <g id="xtick_1">
     <g id="line2d_1">
      <defs>
       <path id="m12e8923b8d" d="M 0 0 
L 0 3.5 
" style="stroke: #000000; stroke-width: 0.8"/>
      </defs>
      <g>
       <use xlink:href="#m12e8923b8d" x="70.2" y="384.48" style="stroke: #000000; stroke-width: 0.8"/>
      </g>
     </g>
     <g id="text_1">
      <!-- 0.0 -->
      <g transform="translate(62.248438 399.078438) scale(0.1 -0.1)">
       <defs>
        <path id="DejaVuSans-30" d="M 2034 4250 
Q 1547 4250 1301 3770 
Q 1056 3291 1056 2328 
Q 1056 1369 1301 889 
Q 1547 409 2034 409 
Q 2525 409 2770 889 
Q 3016 1369 3016 2328 
Q 3016 3291 2770 3770 
Q 2525 4250 2034 4250 
z
M 2034 4750 
Q 2819 4750 3233 4129 
Q 3647 3509 3647 2328 
Q 3647 1150 3233 529 
Q 2819 -91 2034 -91 
Q 1250 -91 836 529 
Q 422 1150 422 2328 
Q 422 3509 836 4129 
Q 1250 4750 2034 4750 
z
" transform="scale(0.015625)"/>
        <path id="DejaVuSans-2e" d="M 684 794 
L 1344 794 
L 1344 0 
L 684 0 
L 684 794 
z
" transform="scale(0.015625)"/>
       </defs>
       <use xlink:href="#DejaVuSans-30"/>
       <use xlink:href="#DejaVuSans-2e" x="63.623047"/>
       <use xlink:href="#DejaVuSans-30" x="95.410156"/>
      </g>
     </g>
    </g>
    <g id="xtick_2">
     <g id="line2d_2">
      <g>
       <use xlink:href="#m12e8923b8d" x="130.68" y="384.48" style="stroke: #000000; stroke-width: 0.8"/>
      </g>
     </g>
     <g id="text_2">
      <!-- 0.2 -->
      <g transform="translate(122.728438 399.078438) scale(0.1 -0.1)">
       <defs>
        <path id="DejaVuSans-32" d="M 1228 531 
L 3431 531 
L 3431 0 
L 469 0 
L 469 531 
Q 828 903 1448 1529 
Q 2069 2156 2228 2338 
Q 2531 2678 2651 2914 
Q 2772 3150 2772 3378 
Q 2772 3750 2511 3984 
Q 2250 4219 1831 4219 
Q 1534 4219 1204 4116 
Q 875 4013 500 3803 
L 500 4441 
Q 881 4594 1212 4672 
Q 1544 4750 1819 4750 
Q 2544 4750 2975 4387 
Q 3406 4025 3406 3419 
Q 3406 3131 3298 2873 
Q 3191 2616 2906 2266 
Q 2828 2175 2409 1742 
Q 1991 1309 1228 531 
z
" transform="scale(0.015625)"/>
       </defs>
       <use xlink:href="#DejaVuSans-30"/>
       <use xlink:href="#DejaVuSans-2e" x="63.623047"/>
       <use xlink:href="#DejaVuSans-32" x="95.410156"/>
      </g>
     </g>
    </g>
    <g id="xtick_3">
     <g id="line2d_3">
      <g>
       <use xlink:href="#m12e8923b8d" x="191.16" y="384.48" style="stroke: #000000; stroke-width: 0.8"/>
      </g>
     </g>
     <g id="text_3">
      <!-- 0.4 -->
      <g transform="translate(183.208438 399.078438) scale(0.1 -0.1)">
       <defs>
        <path id="DejaVuSans-34" d="M 2419 4116 
L 825 1625 
L 2419 1625 
L 2419 4116 
z
M 2253 4666 
L 3047 4666 
L 3047 1625 
L 3713 1625 
L 3713 1100 
L 3047 1100 
L 3047 0 
L 2419 0 
L 2419 1100 
L 313 1100 
L 313 1709 
L 2253 4666 
z
" transform="scale(0.015625)"/>
       </defs>
       <use xlink:href="#DejaVuSans-30"/>
       <use xlink:href="#DejaVuSans-2e" x="63.623047"/>
       <use xlink:href="#DejaVuSans-34" x="95.410156"/>
      </g>
     </g>
    </g>
    <g id="xtick_4">
     <g id="line2d_4">
      <g>
       <use xlink:href="#m12e8923b8d" x="251.64" y="384.48" style="stroke: #000000; stroke-width: 0.8"/>
      </g>
     </g>
     <g id="text_4">
      <!-- 0.6 -->
      <g transform="translate(243.688438 399.078438) scale(0.1 -0.1)">
       <defs>
        <path id="DejaVuSans-36" d="M 2113 2584 
Q 1688 2584 1439 2293 
Q 1191 2003 1191 1497 
Q 1191 994 1439 701 
Q 1688 409 2113 409 
Q 2538 409 2786 701 
Q 3034 994 3034 1497 
Q 3034 2003 2786 2293 
Q 2538 2584 2113 2584 
z
M 3366 4563 
L 3366 3988 
Q 3128 4100 2886 4159 
Q 2644 4219 2406 4219 
Q 1781 4219 1451 3797 
Q 1122 3375 1075 2522 
Q 1259 2794 1537 2939 
Q 1816 3084 2150 3084 
Q 2853 3084 3261 2657 
Q 3669 2231 3669 1497 
Q 3669 778 3244 343 
Q 2819 -91 2113 -91 
Q 1303 -91 875 529 
Q 447 1150 447 2328 
Q 447 3434 972 4092 
Q 1497 4750 2381 4750 
Q 2619 4750 2861 4703 
Q 3103 4656 3366 4563 
z
" transform="scale(0.015625)"/>
       </defs>
       <use xlink:href="#DejaVuSans-30"/>
       <use xlink:href="#DejaVuSans-2e" x="63.623047"/>
       <use xlink:href="#DejaVuSans-36" x="95.410156"/>
      </g>
     </g>
    </g>
    <g id="xtick_5">
     <g id="line2d_5">
      <g>
       <use xlink:href="#m12e8923b8d" x="312.12" y="384.48" style="stroke: #000000; stroke-width: 0.8"/>
      </g>
     </g>
     <g id="text_5">
      <!-- 0.8 -->
      <g transform="translate(304.168437 399.078438) scale(0.1 -0.1)">
       <defs>
        <path id="DejaVuSans-38" d="M 2034 2216 
Q 1584 2216 1326 1975 
Q 1069 1734 1069 1313 
Q 1069 891 1326 650 
Q 1584 409 2034 409 
Q 2484 409 2743 651 
Q 3003 894 3003 1313 
Q 3003 1734 2745 1975 
Q 2488 2216 2034 2216 
z
M 1403 2484 
Q 997 2584 770 2862 
Q 544 3141 544 3541 
Q 544 4100 942 4425 
Q 1341 4750 2034 4750 
Q 2731 4750 3128 4425 
Q 3525 4100 3525 3541 
Q 3525 3141 3298 2862 
Q 3072 2584 2669 2484 
Q 3125 2378 3379 2068 
Q 3634 1759 3634 1313 
Q 3634 634 3220 271 
Q 2806 -91 2034 -91 
Q 1263 -91 848 271 
Q 434 634 434 1313 
Q 434 1759 690 2068 
Q 947 2378 1403 2484 
z
M 1172 3481 
Q 1172 3119 1398 2916 
Q 1625 2713 2034 2713 
Q 2441 2713 2670 2916 
Q 2900 3119 2900 3481 
Q 2900 3844 2670 4047 
Q 2441 4250 2034 4250 
Q 1625 4250 1398 4047 
Q 1172 3844 1172 3481 
z
" transform="scale(0.015625)"/>
       </defs>
       <use xlink:href="#DejaVuSans-30"/>
       <use xlink:href="#DejaVuSans-2e" x="63.623047"/>
       <use xlink:href="#DejaVuSans-38" x="95.410156"/>
      </g>
     </g>
    </g>
    <g id="xtick_6">
     <g id="line2d_6">
      <g>
       <use xlink:href="#m12e8923b8d" x="372.6" y="384.48" style="stroke: #000000; stroke-width: 0.8"/>
      </g>
     </g>
     <g id="text_6">
      <!-- 1.0 -->
      <g transform="translate(364.648438 399.078438) scale(0.1 -0.1)">
       <defs>
        <path id="DejaVuSans-31" d="M 794 531 
L 1825 531 
L 1825 4091 
L 703 3866 
L 703 4441 
L 1819 4666 
L 2450 4666 
L 2450 531 
L 3481 531 
L 3481 0 
L 794 0 
L 794 531 
z
" transform="scale(0.015625)"/>
       </defs>
       <use xlink:href="#DejaVuSans-31"/>
       <use xlink:href="#DejaVuSans-2e" x="63.623047"/>
       <use xlink:href="#DejaVuSans-30" x="95.410156"/>
      </g>
     </g>
    </g>
    <g id="text_7">
     <!-- False Positive Rate -->
     <g transform="translate(174.933594 412.756563) scale(0.1 -0.1)">
      <defs>
       <path id="DejaVuSans-46" d="M 628 4666 
L 3309 4666 
L 3309 4134 
L 1259 4134 
L 1259 2759 
L 3109 2759 
L 3109 2228 
L 1259 2228 
L 1259 0 
L 628 0 
L 628 4666 
z
" transform="scale(0.015625)"/>
       <path id="DejaVuSans-61" d="M 2194 1759 
Q 1497 1759 1228 1600 
Q 959 1441 959 1056 
Q 959 750 1161 570 
Q 1363 391 1709 391 
Q 2188 391 2477 730 
Q 2766 1069 2766 1631 
L 2766 1759 
L 2194 1759 
z
M 3341 1997 
L 3341 0 
L 2766 0 
L 2766 531 
Q 2569 213 2275 61 
Q 1981 -91 1556 -91 
Q 1019 -91 701 211 
Q 384 513 384 1019 
Q 384 1609 779 1909 
Q 1175 2209 1959 2209 
L 2766 2209 
L 2766 2266 
Q 2766 2663 2505 2880 
Q 2244 3097 1772 3097 
Q 1472 3097 1187 3025 
Q 903 2953 641 2809 
L 641 3341 
Q 956 3463 1253 3523 
Q 1550 3584 1831 3584 
Q 2591 3584 2966 3190 
Q 3341 2797 3341 1997 
z
" transform="scale(0.015625)"/>
       <path id="DejaVuSans-6c" d="M 603 4863 
L 1178 4863 
L 1178 0 
L 603 0 
L 603 4863 
z
" transform="scale(0.015625)"/>
       <path id="DejaVuSans-73" d="M 2834 3397 
L 2834 2853 
Q 2591 2978 2328 3040 
Q 2066 3103 1784 3103 
Q 1356 3103 1142 2972 
Q 928 2841 928 2578 
Q 928 2378 1081 2264 
Q 1234 2150 1697 2047 
L 1894 2003 
Q 2506 1872 2764 1633 
Q 3022 1394 3022 966 
Q 3022 478 2636 193 
Q 2250 -91 1575 -91 
Q 1294 -91 989 -36 
Q 684 19 347 128 
L 347 722 
Q 666 556 975 473 
Q 1284 391 1588 391 
Q 1994 391 2212 530 
Q 2431 669 2431 922 
Q 2431 1156 2273 1281 
Q 2116 1406 1581 1522 
L 1381 1569 
Q 847 1681 609 1914 
Q 372 2147 372 2553 
Q 372 3047 722 3315 
Q 1072 3584 1716 3584 
Q 2034 3584 2315 3537 
Q 2597 3491 2834 3397 
z
" transform="scale(0.015625)"/>
       <path id="DejaVuSans-65" d="M 3597 1894 
L 3597 1613 
L 953 1613 
Q 991 1019 1311 708 
Q 1631 397 2203 397 
Q 2534 397 2845 478 
Q 3156 559 3463 722 
L 3463 178 
Q 3153 47 2828 -22 
Q 2503 -91 2169 -91 
Q 1331 -91 842 396 
Q 353 884 353 1716 
Q 353 2575 817 3079 
Q 1281 3584 2069 3584 
Q 2775 3584 3186 3129 
Q 3597 2675 3597 1894 
z
M 3022 2063 
Q 3016 2534 2758 2815 
Q 2500 3097 2075 3097 
Q 1594 3097 1305 2825 
Q 1016 2553 972 2059 
L 3022 2063 
z
" transform="scale(0.015625)"/>
       <path id="DejaVuSans-20" transform="scale(0.015625)"/>
       <path id="DejaVuSans-50" d="M 1259 4147 
L 1259 2394 
L 2053 2394 
Q 2494 2394 2734 2622 
Q 2975 2850 2975 3272 
Q 2975 3691 2734 3919 
Q 2494 4147 2053 4147 
L 1259 4147 
z
M 628 4666 
L 2053 4666 
Q 2838 4666 3239 4311 
Q 3641 3956 3641 3272 
Q 3641 2581 3239 2228 
Q 2838 1875 2053 1875 
L 1259 1875 
L 1259 0 
L 628 0 
L 628 4666 
z
" transform="scale(0.015625)"/>
       <path id="DejaVuSans-6f" d="M 1959 3097 
Q 1497 3097 1228 2736 
Q 959 2375 959 1747 
Q 959 1119 1226 758 
Q 1494 397 1959 397 
Q 2419 397 2687 759 
Q 2956 1122 2956 1747 
Q 2956 2369 2687 2733 
Q 2419 3097 1959 3097 
z
M 1959 3584 
Q 2709 3584 3137 3096 
Q 3566 2609 3566 1747 
Q 3566 888 3137 398 
Q 2709 -91 1959 -91 
Q 1206 -91 779 398 
Q 353 888 353 1747 
Q 353 2609 779 3096 
Q 1206 3584 1959 3584 
z
" transform="scale(0.015625)"/>
       <path id="DejaVuSans-69" d="M 603 3500 
L 1178 3500 
L 1178 0 
L 603 0 
L 603 3500 
z
M 603 4863 
L 1178 4863 
L 1178 4134 
L 603 4134 
L 603 4863 
z
" transform="scale(0.015625)"/>
       <path id="DejaVuSans-74" d="M 1172 4494 
L 1172 3500 
L 2356 3500 
L 2356 3053 
L 1172 3053 
L 1172 1153 
Q 1172 725 1289 603 
Q 1406 481 1766 481 
L 2356 481 
L 2356 0 
L 1766 0 
Q 1100 0 847 248 
Q 594 497 594 1153 
L 594 3053 
L 172 3053 
L 172 3500 
L 594 3500 
L 594 4494 
L 1172 4494 
z
" transform="scale(0.015625)"/>
       <path id="DejaVuSans-76" d="M 191 3500 
L 800 3500 
L 1894 563 
L 2988 3500 
L 3597 3500 
L 2284 0 
L 1503 0 
L 191 3500 
z
" transform="scale(0.015625)"/>
       <path id="DejaVuSans-52" d="M 2841 2188 
Q 3044 2119 3236 1894 
Q 3428 1669 3622 1275 
L 4263 0 
L 3584 0 
L 2988 1197 
Q 2756 1666 2539 1819 
Q 2322 1972 1947 1972 
L 1259 1972 
L 1259 0 
L 628 0 
L 628 4666 
L 2053 4666 
Q 2853 4666 3247 4331 
Q 3641 3997 3641 3322 
Q 3641 2881 3436 2590 
Q 3231 2300 2841 2188 
z
M 1259 4147 
L 1259 2491 
L 2053 2491 
Q 2509 2491 2742 2702 
Q 2975 2913 2975 3322 
Q 2975 3731 2742 3939 
Q 2509 4147 2053 4147 
L 1259 4147 
z
" transform="scale(0.015625)"/>
      </defs>
      <use xlink:href="#DejaVuSans-46"/>
      <use xlink:href="#DejaVuSans-61" x="48.394531"/>
      <use xlink:href="#DejaVuSans-6c" x="109.673828"/>
      <use xlink:href="#DejaVuSans-73" x="137.457031"/>
      <use xlink:href="#DejaVuSans-65" x="189.556641"/>
      <use xlink:href="#DejaVuSans-20" x="251.080078"/>
      <use xlink:href="#DejaVuSans-50" x="282.867188"/>
      <use xlink:href="#DejaVuSans-6f" x="339.544922"/>
      <use xlink:href="#DejaVuSans-73" x="400.726562"/>
      <use xlink:href="#DejaVuSans-69" x="452.826172"/>
      <use xlink:href="#DejaVuSans-74" x="480.609375"/>
      <use xlink:href="#DejaVuSans-69" x="519.818359"/>
      <use xlink:href="#DejaVuSans-76" x="547.601562"/>
      <use xlink:href="#DejaVuSans-65" x="606.78125"/>
      <use xlink:href="#DejaVuSans-20" x="668.304688"/>
      <use xlink:href="#DejaVuSans-52" x="700.091797"/>
      <use xlink:href="#DejaVuSans-61" x="767.324219"/>
      <use xlink:href="#DejaVuSans-74" x="828.603516"/>
      <use xlink:href="#DejaVuSans-65" x="867.8125"/>
     </g>
    </g>
   </g>
   <g id="matplotlib.axis_2">
    <g id="ytick_1">
     <g id="line2d_7">
      <defs>
       <path id="m581cabe1d5" d="M 0 0 
L -3.5 0 
" style="stroke: #000000; stroke-width: 0.8"/>
      </defs>
      <g>
       <use xlink:href="#m581cabe1d5" x="55.08" y="369.36" style="stroke: #000000; stroke-width: 0.8"/>
      </g>
     </g>
     <g id="text_8">
      <!-- 0.0 -->
      <g transform="translate(32.176875 373.159219) scale(0.1 -0.1)">
       <use xlink:href="#DejaVuSans-30"/>
       <use xlink:href="#DejaVuSans-2e" x="63.623047"/>
       <use xlink:href="#DejaVuSans-30" x="95.410156"/>
      </g>
     </g>
    </g>
    <g id="ytick_2">
     <g id="line2d_8">
      <g>
       <use xlink:href="#m581cabe1d5" x="55.08" y="308.88" style="stroke: #000000; stroke-width: 0.8"/>
      </g>
     </g>
     <g id="text_9">
      <!-- 0.2 -->
      <g transform="translate(32.176875 312.679219) scale(0.1 -0.1)">
       <use xlink:href="#DejaVuSans-30"/>
       <use xlink:href="#DejaVuSans-2e" x="63.623047"/>
       <use xlink:href="#DejaVuSans-32" x="95.410156"/>
      </g>
     </g>
    </g>
    <g id="ytick_3">
     <g id="line2d_9">
      <g>
       <use xlink:href="#m581cabe1d5" x="55.08" y="248.4" style="stroke: #000000; stroke-width: 0.8"/>
      </g>
     </g>
     <g id="text_10">
      <!-- 0.4 -->
      <g transform="translate(32.176875 252.199219) scale(0.1 -0.1)">
       <use xlink:href="#DejaVuSans-30"/>
       <use xlink:href="#DejaVuSans-2e" x="63.623047"/>
       <use xlink:href="#DejaVuSans-34" x="95.410156"/>
      </g>
     </g>
    </g>
    <g id="ytick_4">
     <g id="line2d_10">
      <g>
       <use xlink:href="#m581cabe1d5" x="55.08" y="187.92" style="stroke: #000000; stroke-width: 0.8"/>
      </g>
     </g>
     <g id="text_11">
      <!-- 0.6 -->
      <g transform="translate(32.176875 191.719219) scale(0.1 -0.1)">
       <use xlink:href="#DejaVuSans-30"/>
       <use xlink:href="#DejaVuSans-2e" x="63.623047"/>
       <use xlink:href="#DejaVuSans-36" x="95.410156"/>
      </g>
     </g>
    </g>
    <g id="ytick_5">
     <g id="line2d_11">
      <g>
       <use xlink:href="#m581cabe1d5" x="55.08" y="127.44" style="stroke: #000000; stroke-width: 0.8"/>
      </g>
     </g>
     <g id="text_12">
      <!-- 0.8 -->
      <g transform="translate(32.176875 131.239219) scale(0.1 -0.1)">
       <use xlink:href="#DejaVuSans-30"/>
       <use xlink:href="#DejaVuSans-2e" x="63.623047"/>
       <use xlink:href="#DejaVuSans-38" x="95.410156"/>
      </g>
     </g>
    </g>
    <g id="ytick_6">
     <g id="line2d_12">
      <g>
       <use xlink:href="#m581cabe1d5" x="55.08" y="66.96" style="stroke: #000000; stroke-width: 0.8"/>
      </g>
     </g>
     <g id="text_13">
      <!-- 1.0 -->
      <g transform="translate(32.176875 70.759219) scale(0.1 -0.1)">
       <use xlink:href="#DejaVuSans-31"/>
       <use xlink:href="#DejaVuSans-2e" x="63.623047"/>
       <use xlink:href="#DejaVuSans-30" x="95.410156"/>
      </g>
     </g>
    </g>
    <g id="text_14">
     <!-- True Positive Rate -->
     <g transform="translate(26.097187 262.689687) rotate(-90) scale(0.1 -0.1)">
      <defs>
       <path id="DejaVuSans-54" d="M -19 4666 
L 3928 4666 
L 3928 4134 
L 2272 4134 
L 2272 0 
L 1638 0 
L 1638 4134 
L -19 4134 
L -19 4666 
z
" transform="scale(0.015625)"/>
       <path id="DejaVuSans-72" d="M 2631 2963 
Q 2534 3019 2420 3045 
Q 2306 3072 2169 3072 
Q 1681 3072 1420 2755 
Q 1159 2438 1159 1844 
L 1159 0 
L 581 0 
L 581 3500 
L 1159 3500 
L 1159 2956 
Q 1341 3275 1631 3429 
Q 1922 3584 2338 3584 
Q 2397 3584 2469 3576 
Q 2541 3569 2628 3553 
L 2631 2963 
z
" transform="scale(0.015625)"/>
       <path id="DejaVuSans-75" d="M 544 1381 
L 544 3500 
L 1119 3500 
L 1119 1403 
Q 1119 906 1312 657 
Q 1506 409 1894 409 
Q 2359 409 2629 706 
Q 2900 1003 2900 1516 
L 2900 3500 
L 3475 3500 
L 3475 0 
L 2900 0 
L 2900 538 
Q 2691 219 2414 64 
Q 2138 -91 1772 -91 
Q 1169 -91 856 284 
Q 544 659 544 1381 
z
M 1991 3584 
L 1991 3584 
z
" transform="scale(0.015625)"/>
      </defs>
      <use xlink:href="#DejaVuSans-54"/>
      <use xlink:href="#DejaVuSans-72" x="46.333984"/>
      <use xlink:href="#DejaVuSans-75" x="87.447266"/>
      <use xlink:href="#DejaVuSans-65" x="150.826172"/>
      <use xlink:href="#DejaVuSans-20" x="212.349609"/>
      <use xlink:href="#DejaVuSans-50" x="244.136719"/>
      <use xlink:href="#DejaVuSans-6f" x="300.814453"/>
      <use xlink:href="#DejaVuSans-73" x="361.996094"/>
      <use xlink:href="#DejaVuSans-69" x="414.095703"/>
      <use xlink:href="#DejaVuSans-74" x="441.878906"/>
      <use xlink:href="#DejaVuSans-69" x="481.087891"/>
      <use xlink:href="#DejaVuSans-76" x="508.871094"/>
      <use xlink:href="#DejaVuSans-65" x="568.050781"/>
      <use xlink:href="#DejaVuSans-20" x="629.574219"/>
      <use xlink:href="#DejaVuSans-52" x="661.361328"/>
      <use xlink:href="#DejaVuSans-61" x="728.59375"/>
      <use xlink:href="#DejaVuSans-74" x="789.873047"/>
      <use xlink:href="#DejaVuSans-65" x="829.082031"/>
     </g>
    </g>
   </g>
   <g id="line2d_13">
    <path d="M 70.2 369.36 
L 70.305219 350.822069 
L 70.515658 349.663448 
L 70.620877 309.533041 
L 70.831315 308.690408 
L 70.936534 292.15373 
L 71.041754 291.100439 
L 71.146973 278.56627 
L 71.252192 278.56627 
L 71.252192 278.46094 
L 71.357411 245.492915 
L 71.46263 245.387586 
L 71.56785 214.842132 
L 71.673069 214.420815 
L 71.778288 207.995737 
L 71.883507 207.469091 
L 71.988727 191.669718 
L 72.093946 191.35373 
L 72.199165 181.45279 
L 72.304384 181.45279 
L 72.409603 171.657179 
L 72.620042 171.44652 
L 72.725261 163.441505 
L 72.83048 163.441505 
L 72.935699 157.227085 
L 73.040919 157.227085 
L 73.040919 157.121755 
L 73.040919 155.647147 
L 73.251357 155.647147 
L 73.356576 154.593856 
L 73.461795 154.172539 
L 73.567015 145.219561 
L 73.672234 145.219561 
L 73.777453 139.637116 
L 73.882672 139.637116 
L 73.987891 137.741191 
L 74.093111 137.530533 
L 74.19833 135.002633 
L 74.303549 135.002633 
L 74.408768 132.053417 
L 74.513987 131.737429 
L 74.619207 124.785705 
L 74.724426 124.364389 
L 74.829645 122.99511 
L 75.040084 122.784451 
L 75.145303 121.309843 
L 75.355741 121.204514 
L 75.46096 119.519248 
L 75.671399 119.413918 
L 75.776618 114.990094 
L 75.881837 114.884765 
L 75.881837 114.463448 
L 76.092276 114.463448 
L 76.092276 114.358119 
L 76.197495 112.146207 
L 76.302714 112.146207 
L 76.302714 112.040878 
L 76.407933 107.722382 
L 76.618372 107.195737 
L 76.723591 107.195737 
L 76.723591 107.090408 
L 76.82881 106.142445 
L 76.934029 106.142445 
L 76.934029 106.037116 
L 77.039248 104.562508 
L 77.144468 104.562508 
L 77.144468 104.24652 
L 77.249687 104.24652 
L 77.460125 104.141191 
L 77.565344 101.718621 
L 77.670564 101.718621 
L 77.775783 101.402633 
L 77.986221 101.191975 
L 78.091441 100.244013 
L 78.301879 99.717367 
L 78.301879 99.506708 
L 78.512317 99.506708 
L 78.617537 98.558746 
L 78.827975 98.558746 
L 78.827975 97.821442 
L 79.038413 97.821442 
L 79.038413 97.716113 
L 79.143633 96.76815 
L 79.248852 96.76815 
L 79.354071 95.820188 
L 79.45929 95.820188 
L 79.45929 95.714859 
L 79.564509 93.713605 
L 79.669729 93.713605 
L 79.774948 92.554984 
L 79.880167 92.449655 
L 80.090605 92.238997 
L 80.195825 90.975047 
L 80.301044 90.869718 
L 80.616701 90.869718 
L 80.721921 90.448401 
L 80.932359 90.448401 
L 80.932359 90.027085 
L 81.037578 90.027085 
L 81.774113 89.289781 
L 81.984551 89.289781 
L 81.984551 88.868464 
L 82.405428 88.763135 
L 82.405428 88.447147 
L 82.510647 88.447147 
L 83.036743 87.604514 
L 83.141962 87.604514 
L 83.352401 87.393856 
L 83.45762 87.288527 
L 84.088935 87.288527 
L 84.194154 86.86721 
L 84.82547 86.761881 
L 84.930689 85.813918 
L 85.351566 85.708589 
L 85.351566 85.497931 
L 86.0881 85.392602 
L 86.0881 85.287273 
L 86.298539 85.287273 
L 86.298539 85.076614 
L 86.824635 84.971285 
L 86.824635 84.865956 
L 87.035073 84.865956 
L 87.035073 84.549969 
L 87.350731 84.444639 
L 87.45595 84.233981 
L 88.402923 84.128652 
L 88.613361 83.707335 
L 89.139457 83.602006 
L 89.139457 83.286019 
L 89.665553 83.18069 
L 89.875992 82.970031 
L 90.717745 82.864702 
L 90.717745 82.654044 
L 90.822965 82.654044 
L 91.243841 82.548715 
L 91.769937 82.548715 
L 91.769937 82.338056 
L 92.085595 82.338056 
L 92.401253 82.022069 
L 93.032568 82.022069 
L 93.137787 81.706082 
L 93.243006 81.706082 
L 93.243006 81.600752 
L 93.663883 81.179436 
L 93.874322 81.179436 
L 94.295198 80.863448 
L 94.821294 80.758119 
L 94.926514 80.231473 
L 95.45261 80.126144 
L 95.557829 79.915486 
L 95.768267 79.915486 
L 95.873486 79.599498 
L 96.189144 79.599498 
L 96.294363 79.178182 
L 96.399582 79.072853 
L 97.136117 78.967524 
L 97.241336 78.651536 
L 97.346555 78.651536 
L 97.767432 78.335549 
L 98.503967 78.230219 
L 98.609186 78.12489 
L 99.450939 78.019561 
L 99.450939 77.914232 
L 99.556159 77.914232 
L 99.661378 77.808903 
L 100.397912 77.703574 
L 100.608351 77.387586 
L 102.186639 77.282257 
L 102.291858 77.071599 
L 102.502296 76.86094 
L 102.817954 76.86094 
L 103.238831 76.544953 
L 104.291023 76.439624 
L 104.291023 76.334295 
L 104.7119 76.123636 
L 104.922338 75.912978 
L 105.448434 75.807649 
L 105.553653 75.70232 
L 106.605846 75.596991 
L 106.605846 75.491661 
L 107.973695 75.386332 
L 107.973695 75.281003 
L 108.289353 75.281003 
L 108.289353 75.070345 
L 110.919833 74.965016 
L 110.919833 74.859687 
L 111.025052 74.859687 
L 111.34071 74.649028 
L 112.182463 74.543699 
L 112.708559 74.227712 
L 113.129436 74.122382 
L 113.129436 74.017053 
L 113.234656 74.017053 
L 114.181628 73.911724 
L 114.181628 73.806395 
L 114.286848 73.806395 
L 115.654697 73.701066 
L 116.496451 73.279749 
L 116.917328 73.279749 
L 116.917328 73.17442 
L 117.022547 73.069091 
L 117.864301 72.963762 
L 118.285177 72.858433 
L 120.073904 72.753103 
L 120.179123 72.647774 
L 120.810438 72.542445 
L 120.810438 72.437116 
L 123.125261 72.331787 
L 123.23048 72.226458 
L 123.440919 72.226458 
L 123.546138 71.91047 
L 127.018372 71.805141 
L 127.018372 71.699812 
L 128.175783 71.594483 
L 128.386221 71.383824 
L 130.385386 71.278495 
L 130.385386 71.173166 
L 132.700209 71.067837 
L 132.700209 70.962508 
L 136.172443 70.857179 
L 136.4881 70.75185 
L 138.066388 70.64652 
L 138.171608 70.541191 
L 139.960334 70.435862 
L 140.381211 70.330533 
L 147.641336 70.225204 
L 147.851775 70.119875 
L 158.478914 70.014545 
L 158.478914 69.909216 
L 162.372025 69.803887 
L 162.372025 69.698558 
L 166.370355 69.593229 
L 166.580793 69.382571 
L 168.36952 69.382571 
L 168.579958 69.171912 
L 171.210438 69.066583 
L 171.210438 68.961254 
L 175.840084 68.855925 
L 175.945303 68.750596 
L 183.415866 68.645266 
L 183.731524 68.434608 
L 189.413361 68.329279 
L 189.413361 68.22395 
L 204.354489 68.118621 
L 204.670146 68.013292 
L 214.245094 67.907962 
L 214.560752 67.697304 
L 243.496033 67.591975 
L 243.601253 67.486646 
L 246.442171 67.381317 
L 246.757829 67.170658 
L 249.177871 67.065329 
L 249.598747 66.96 
L 372.6 66.96 
L 372.6 66.96 
" clip-path="url(#p06585e32c9)" style="fill: none; stroke: #1f77b4; stroke-opacity: 0.3; stroke-linecap: square"/>
   </g>
   <g id="line2d_14">
    <path d="M 70.2 369.36 
L 70.305219 348.610157 
L 70.410438 348.294169 
L 70.515658 299.000125 
L 70.620877 298.36815 
L 70.726096 276.881003 
L 70.831315 276.670345 
L 70.936534 255.393856 
L 71.041754 255.288527 
L 71.146973 239.067837 
L 71.252192 238.962508 
L 71.357411 232.010784 
L 71.46263 231.589467 
L 71.56785 230.957492 
L 71.673069 222.215172 
L 71.778288 222.215172 
L 71.883507 209.996991 
L 71.988727 209.786332 
L 72.093946 201.991975 
L 72.199165 201.991975 
L 72.304384 194.618934 
L 72.409603 194.618934 
L 72.514823 182.506082 
L 72.620042 182.400752 
L 72.725261 167.865329 
L 72.83048 167.76 
L 72.935699 159.965643 
L 73.040919 159.965643 
L 73.146138 147.010157 
L 73.251357 146.904828 
L 73.356576 140.690408 
L 73.672234 140.479749 
L 73.672234 135.529279 
L 73.882672 135.529279 
L 73.987891 133.844013 
L 74.093111 133.422696 
L 74.19833 131.000125 
L 74.303549 130.894796 
L 74.408768 125.207022 
L 74.513987 124.891034 
L 74.619207 121.415172 
L 74.829645 120.783197 
L 74.829645 120.46721 
L 75.040084 120.46721 
L 75.145303 117.307335 
L 75.250522 117.307335 
L 75.250522 117.202006 
L 75.355741 116.359373 
L 75.56618 116.043386 
L 75.671399 112.146207 
L 75.776618 112.146207 
L 75.881837 109.618307 
L 75.987056 109.512978 
L 76.092276 108.670345 
L 76.197495 108.670345 
L 76.302714 107.617053 
L 76.407933 107.617053 
L 76.407933 107.511724 
L 76.407933 106.879749 
L 76.723591 106.77442 
L 76.723591 104.035862 
L 76.934029 104.035862 
L 76.934029 103.509216 
L 77.144468 103.509216 
L 77.144468 101.718621 
L 77.354906 101.718621 
L 77.354906 101.402633 
L 77.460125 101.402633 
L 77.565344 101.297304 
L 77.670564 100.138683 
L 77.881002 100.033354 
L 78.091441 99.506708 
L 78.19666 98.558746 
L 78.407098 98.453417 
L 78.512317 98.0321 
L 78.617537 98.0321 
L 78.722756 97.610784 
L 78.827975 97.505455 
L 78.933194 95.398871 
L 79.143633 95.398871 
L 79.143633 95.293542 
L 79.248852 94.872226 
L 79.354071 93.08163 
L 79.564509 93.08163 
L 79.669729 92.449655 
L 79.774948 92.344326 
L 79.774948 92.133668 
L 79.985386 91.923009 
L 79.985386 91.396364 
L 80.090605 91.396364 
L 80.195825 91.291034 
L 80.195825 91.080376 
L 80.301044 91.080376 
L 80.406263 90.869718 
L 80.406263 90.55373 
L 80.721921 90.448401 
L 81.037578 90.027085 
L 81.037578 89.711097 
L 81.353236 89.711097 
L 81.458455 88.447147 
L 81.774113 88.447147 
L 81.774113 88.341818 
L 81.879332 87.709843 
L 82.19499 87.709843 
L 82.19499 87.499185 
L 82.300209 87.499185 
L 82.721086 87.183197 
L 82.721086 86.340564 
L 82.931524 86.340564 
L 83.036743 85.181944 
L 83.247182 85.181944 
L 83.247182 84.971285 
L 83.352401 84.971285 
L 83.45762 84.865956 
L 84.194154 84.760627 
L 84.194154 84.655298 
L 84.82547 84.549969 
L 84.82547 84.023323 
L 85.035908 84.023323 
L 85.035908 83.917994 
L 85.351566 83.707335 
L 85.877662 83.602006 
L 85.982881 82.970031 
L 86.193319 82.864702 
L 86.193319 82.759373 
L 86.614196 82.654044 
L 87.035073 82.548715 
L 87.140292 82.338056 
L 87.245511 82.232727 
L 87.245511 82.022069 
L 87.666388 81.91674 
L 87.771608 81.706082 
L 88.402923 80.65279 
L 88.508142 80.547461 
L 88.8238 80.547461 
L 88.929019 80.126144 
L 89.665553 80.126144 
L 89.665553 79.915486 
L 89.875992 79.915486 
L 90.08643 79.704828 
L 90.612526 79.704828 
L 90.612526 79.494169 
L 90.717745 79.494169 
L 91.980376 79.38884 
L 91.980376 79.283511 
L 92.401253 79.178182 
L 92.71691 78.967524 
L 93.769102 78.862194 
L 93.769102 78.756865 
L 93.874322 78.756865 
L 94.926514 78.651536 
L 95.031733 78.440878 
L 95.34739 78.440878 
L 95.34739 78.335549 
L 95.557829 78.230219 
L 96.083925 78.12489 
L 96.399582 77.914232 
L 97.662213 77.808903 
L 97.662213 77.703574 
L 97.767432 77.703574 
L 97.872651 77.598245 
L 98.293528 77.492915 
L 98.398747 77.176928 
L 98.819624 77.071599 
L 98.819624 76.96627 
L 99.240501 76.86094 
L 99.240501 76.755611 
L 100.187474 76.650282 
L 100.187474 76.439624 
L 100.397912 76.439624 
L 100.397912 76.334295 
L 100.503132 76.228966 
L 101.870981 76.123636 
L 102.291858 75.70232 
L 102.291858 75.491661 
L 102.607516 75.491661 
L 102.607516 75.281003 
L 102.817954 75.281003 
L 102.817954 75.070345 
L 103.34405 74.965016 
L 103.34405 74.754357 
L 104.291023 74.649028 
L 104.606681 74.43837 
L 106.079749 74.333041 
L 106.184969 74.227712 
L 107.34238 74.122382 
L 107.34238 74.017053 
L 107.868476 74.017053 
L 108.184134 73.701066 
L 109.762422 73.595737 
L 109.762422 73.490408 
L 110.288518 73.490408 
L 110.288518 73.279749 
L 111.551148 73.17442 
L 111.656367 72.963762 
L 112.708559 72.858433 
L 112.813779 72.753103 
L 113.550313 72.753103 
L 114.076409 72.331787 
L 115.128601 72.226458 
L 115.759916 72.015799 
L 117.022547 71.91047 
L 117.443424 71.489154 
L 123.756576 71.383824 
L 123.756576 71.278495 
L 125.019207 71.173166 
L 125.124426 71.067837 
L 127.334029 70.962508 
L 127.334029 70.857179 
L 130.069729 70.75185 
L 130.490605 70.64652 
L 130.911482 70.541191 
L 130.911482 70.435862 
L 142.801253 70.330533 
L 142.906472 70.225204 
L 144.695198 70.225204 
L 145.536952 69.909216 
L 146.378706 69.803887 
L 146.378706 69.698558 
L 153.323173 69.593229 
L 153.533612 69.4879 
L 161.319833 69.382571 
L 161.319833 69.277241 
L 167.00167 69.171912 
L 167.106889 69.066583 
L 176.471399 68.961254 
L 176.576618 68.855925 
L 183.100209 68.750596 
L 183.205428 68.645266 
L 188.150731 68.539937 
L 188.25595 68.434608 
L 195.726514 68.329279 
L 195.831733 68.22395 
L 206.353653 68.118621 
L 206.353653 68.013292 
L 206.458873 68.013292 
L 215.297286 67.907962 
L 215.507724 67.802633 
L 220.768685 67.697304 
L 220.768685 67.591975 
L 234.026305 67.486646 
L 234.341962 67.381317 
L 252.124008 67.381317 
L 252.334447 67.170658 
L 259.80501 67.065329 
L 259.80501 66.96 
L 259.91023 66.96 
L 372.6 66.96 
L 372.6 66.96 
" clip-path="url(#p06585e32c9)" style="fill: none; stroke: #ff7f0e; stroke-opacity: 0.3; stroke-linecap: square"/>
   </g>
   <g id="line2d_15">
    <path d="M 70.2 369.36 
L 70.2 362.618934 
L 70.410438 361.670972 
L 70.515658 350.822069 
L 70.726096 348.926144 
L 70.831315 340.078495 
L 70.936534 339.55185 
L 71.041754 324.805768 
L 71.146973 324.59511 
L 71.252192 301.317367 
L 71.357411 300.790721 
L 71.46263 295.734922 
L 71.673069 295.208276 
L 71.778288 257.500439 
L 71.883507 257.39511 
L 71.988727 246.440878 
L 72.093946 246.230219 
L 72.199165 234.749342 
L 72.304384 234.538683 
L 72.409603 222.53116 
L 72.514823 221.899185 
L 72.620042 215.368777 
L 72.725261 215.05279 
L 72.83048 204.730533 
L 72.935699 204.414545 
L 73.040919 190.300439 
L 73.146138 190.19511 
L 73.251357 182.295423 
L 73.356576 182.190094 
L 73.461795 176.50232 
L 73.567015 176.50232 
L 73.672234 170.709216 
L 73.882672 169.866583 
L 73.987891 167.338683 
L 74.093111 167.128025 
L 74.19833 163.020188 
L 74.303549 163.020188 
L 74.408768 154.172539 
L 74.513987 153.961881 
L 74.513987 151.328652 
L 74.724426 151.117994 
L 74.829645 146.272853 
L 75.040084 146.167524 
L 75.145303 144.903574 
L 75.250522 144.798245 
L 75.355741 144.376928 
L 75.46096 144.271599 
L 75.56618 140.585078 
L 75.671399 140.585078 
L 75.776618 138.057179 
L 75.881837 137.84652 
L 75.987056 132.685392 
L 76.092276 132.580063 
L 76.197495 128.788213 
L 76.723591 127.629592 
L 76.82881 125.733668 
L 77.039248 124.785705 
L 77.144468 123.627085 
L 77.249687 123.416426 
L 77.354906 122.047147 
L 77.460125 121.836489 
L 77.565344 118.360627 
L 77.670564 118.360627 
L 77.775783 114.358119 
L 77.881002 114.358119 
L 77.986221 112.567524 
L 78.091441 112.462194 
L 78.19666 111.619561 
L 78.301879 111.619561 
L 78.301879 110.355611 
L 78.407098 110.355611 
L 78.512317 110.250282 
L 78.617537 108.986332 
L 78.722756 108.881003 
L 78.933194 108.565016 
L 79.038413 106.77442 
L 79.143633 106.77442 
L 79.248852 103.509216 
L 79.354071 103.509216 
L 79.45929 102.034608 
L 79.564509 102.034608 
L 79.669729 101.297304 
L 79.774948 101.297304 
L 79.774948 101.191975 
L 79.774948 100.56 
L 80.090605 100.56 
L 80.195825 100.138683 
L 80.301044 100.138683 
L 80.406263 99.822696 
L 80.511482 99.822696 
L 80.616701 98.242759 
L 80.721921 98.242759 
L 80.721921 98.0321 
L 80.932359 98.0321 
L 80.932359 97.926771 
L 81.037578 97.294796 
L 81.142797 97.294796 
L 81.142797 96.452163 
L 81.353236 96.136176 
L 81.353236 95.504201 
L 81.668894 95.504201 
L 81.774113 94.661567 
L 81.879332 94.661567 
L 81.879332 93.186959 
L 82.08977 93.186959 
L 82.08977 92.765643 
L 82.300209 92.765643 
L 82.510647 92.554984 
L 82.615866 91.501693 
L 82.826305 90.975047 
L 83.141962 90.869718 
L 83.247182 89.711097 
L 83.45762 89.500439 
L 83.562839 88.763135 
L 83.668058 88.657806 
L 83.668058 88.236489 
L 83.878497 88.236489 
L 83.878497 87.920502 
L 84.088935 87.709843 
L 84.404593 87.709843 
L 84.404593 87.393856 
L 84.509812 87.393856 
L 85.246347 87.288527 
L 85.246347 86.972539 
L 85.562004 86.86721 
L 85.562004 86.656552 
L 86.193319 86.656552 
L 86.403758 86.235235 
L 86.508977 86.024577 
L 87.140292 85.919248 
L 87.561169 85.708589 
L 87.666388 85.181944 
L 88.087265 84.865956 
L 88.8238 84.760627 
L 88.929019 84.549969 
L 88.929019 84.233981 
L 89.139457 84.233981 
L 89.139457 84.128652 
L 89.349896 83.812665 
L 89.349896 83.707335 
L 89.875992 83.602006 
L 89.875992 83.496677 
L 90.08643 83.496677 
L 90.191649 83.286019 
L 90.612526 83.18069 
L 90.612526 83.075361 
L 90.928184 83.075361 
L 91.033403 82.759373 
L 91.243841 82.443386 
L 91.980376 82.338056 
L 92.296033 82.127398 
L 92.506472 82.022069 
L 93.137787 81.91674 
L 93.137787 81.811411 
L 94.295198 81.706082 
L 94.295198 81.600752 
L 94.400418 81.600752 
L 94.610856 81.390094 
L 94.821294 81.390094 
L 94.926514 80.758119 
L 95.34739 80.758119 
L 95.557829 80.442132 
L 96.820459 80.336803 
L 96.925678 80.126144 
L 97.662213 80.020815 
L 97.662213 79.810157 
L 97.872651 79.810157 
L 97.872651 79.599498 
L 98.398747 79.494169 
L 98.819624 79.38884 
L 99.240501 79.283511 
L 99.240501 79.178182 
L 100.924008 79.072853 
L 101.029228 78.862194 
L 101.450104 78.756865 
L 101.450104 78.651536 
L 101.555324 78.651536 
L 102.923173 78.546207 
L 103.238831 78.440878 
L 103.764927 78.335549 
L 103.764927 78.230219 
L 104.080585 78.230219 
L 104.080585 78.019561 
L 104.501461 77.914232 
L 104.922338 77.598245 
L 105.343215 77.492915 
L 105.869311 77.387586 
L 105.97453 77.176928 
L 106.816284 77.071599 
L 106.816284 76.96627 
L 106.921503 76.96627 
L 107.34238 76.544953 
L 108.499791 76.439624 
L 108.71023 76.334295 
L 109.867641 76.228966 
L 109.867641 76.123636 
L 110.078079 76.123636 
L 110.183299 75.807649 
L 110.393737 75.596991 
L 112.182463 75.491661 
L 112.287683 75.386332 
L 112.287683 75.175674 
L 113.234656 75.070345 
L 113.234656 74.965016 
L 115.444259 74.859687 
L 115.444259 74.754357 
L 116.286013 74.649028 
L 116.286013 74.543699 
L 118.390397 74.43837 
L 118.706054 74.227712 
L 119.23215 74.122382 
L 119.23215 74.017053 
L 119.33737 74.017053 
L 121.020877 73.911724 
L 121.020877 73.806395 
L 121.546973 73.701066 
L 121.757411 73.595737 
L 123.335699 73.490408 
L 123.335699 73.385078 
L 123.440919 73.385078 
L 124.072234 73.279749 
L 124.177453 73.17442 
L 126.387056 73.069091 
L 126.387056 72.963762 
L 126.492276 72.963762 
L 126.807933 72.753103 
L 127.649687 72.647774 
L 127.754906 72.542445 
L 128.281002 72.542445 
L 128.281002 72.331787 
L 130.280167 72.226458 
L 130.280167 72.121129 
L 133.121086 72.015799 
L 133.647182 71.805141 
L 136.382881 71.805141 
L 136.382881 71.594483 
L 137.540292 71.489154 
L 137.540292 71.383824 
L 139.11858 71.278495 
L 139.11858 71.173166 
L 140.802088 71.067837 
L 141.117745 70.962508 
L 146.904802 70.857179 
L 147.325678 70.64652 
L 154.375365 70.541191 
L 154.375365 70.435862 
L 154.796242 70.330533 
L 155.427557 70.225204 
L 159.846764 70.119875 
L 159.951983 69.909216 
L 161.109395 69.803887 
L 161.109395 69.698558 
L 161.214614 69.698558 
L 163.213779 69.593229 
L 163.424217 69.4879 
L 167.212109 69.382571 
L 167.317328 69.277241 
L 171.631315 69.171912 
L 172.473069 69.066583 
L 177.839248 68.961254 
L 178.049687 68.855925 
L 182.258455 68.750596 
L 182.363674 68.645266 
L 188.25595 68.539937 
L 188.25595 68.434608 
L 193.306472 68.329279 
L 193.51691 68.22395 
L 211.088518 68.118621 
L 211.193737 68.013292 
L 216.244259 67.907962 
L 216.349478 67.802633 
L 225.608768 67.697304 
L 225.608768 67.591975 
L 232.448017 67.486646 
L 232.448017 67.381317 
L 235.078497 67.275987 
L 235.078497 67.170658 
L 235.183716 67.170658 
L 277.797495 67.065329 
L 278.007933 66.96 
L 372.6 66.96 
L 372.6 66.96 
" clip-path="url(#p06585e32c9)" style="fill: none; stroke: #2ca02c; stroke-opacity: 0.3; stroke-linecap: square"/>
   </g>
   <g id="line2d_16">
    <path d="M 70.2 369.36 
L 70.305256 336.298162 
L 70.410512 335.139944 
L 70.515767 312.080891 
L 70.621023 310.712089 
L 70.726279 300.182841 
L 70.831535 300.077549 
L 70.936791 283.12546 
L 71.042047 282.598997 
L 71.147302 258.697604 
L 71.252558 258.276435 
L 71.357814 245.220167 
L 71.46307 245.114875 
L 71.568326 236.165014 
L 71.673582 235.743844 
L 71.778837 232.479777 
L 71.884093 232.269192 
L 71.989349 201.839666 
L 72.094605 201.839666 
L 72.199861 192.889805 
L 72.305117 192.67922 
L 72.410372 191.626295 
L 72.515628 191.310418 
L 72.620884 182.887019 
L 72.72614 182.781727 
L 72.831396 181.307632 
L 72.936652 181.307632 
L 73.041907 179.412368 
L 73.147163 179.201783 
L 73.252419 169.830752 
L 73.357675 169.72546 
L 73.462931 164.355543 
L 73.568187 164.250251 
L 73.673442 155.405682 
L 73.778698 155.405682 
L 73.778698 154.247465 
L 73.98921 154.247465 
L 74.094466 142.244123 
L 74.304977 141.928245 
L 74.410233 134.136602 
L 74.515489 134.136602 
L 74.620745 132.873092 
L 74.726001 132.873092 
L 74.831257 131.398997 
L 75.041768 131.188412 
L 75.041768 130.872535 
L 75.25228 130.872535 
L 75.357536 127.292591 
L 75.462792 127.292591 
L 75.568047 126.134373 
L 75.673303 126.029081 
L 75.673303 124.765571 
L 75.883815 124.765571 
L 75.883815 123.712646 
L 76.199582 123.712646 
L 76.304838 121.185627 
L 76.410094 120.975042 
L 76.51535 120.237994 
L 76.620606 119.816825 
L 76.725861 118.026852 
L 76.831117 117.92156 
L 76.936373 114.552201 
L 77.041629 114.552201 
L 77.146885 113.815153 
L 77.252141 113.815153 
L 77.357396 112.235766 
L 77.462652 112.025181 
L 77.567908 108.445237 
L 77.673164 108.339944 
L 77.673164 107.076435 
L 77.883676 107.076435 
L 77.988931 104.865292 
L 78.094187 104.865292 
L 78.199443 102.864735 
L 78.409955 102.864735 
L 78.515211 101.390641 
L 78.830978 100.969471 
L 78.936234 98.653036 
L 79.04149 98.653036 
L 79.146746 97.705404 
L 79.357257 97.705404 
L 79.462513 97.178942 
L 79.567769 97.178942 
L 79.673025 96.020724 
L 79.778281 96.020724 
L 79.883536 95.388969 
L 79.988792 95.283677 
L 79.988792 95.073092 
L 80.199304 94.967799 
L 80.30456 94.020167 
L 80.409816 94.020167 
L 80.515071 92.756657 
L 81.146606 92.124903 
L 81.146606 91.493148 
L 81.56763 91.387855 
L 81.672885 90.650808 
L 81.988653 90.33493 
L 82.093909 89.492591 
L 82.199165 89.492591 
L 82.199165 89.387298 
L 82.30442 88.755543 
L 82.409676 88.650251 
L 82.620188 88.544958 
L 82.8307 88.334373 
L 82.8307 88.123788 
L 82.935955 88.123788 
L 83.041211 88.018496 
L 83.146467 87.386741 
L 83.462235 87.070864 
L 83.462235 86.439109 
L 83.778002 86.333816 
L 83.883258 86.017939 
L 84.199025 86.017939 
L 84.304281 85.280891 
L 84.409537 85.175599 
L 84.514793 85.070306 
L 85.041072 85.070306 
L 85.041072 84.859721 
L 85.777863 84.754429 
L 85.988375 84.649136 
L 86.09363 84.122674 
L 86.198886 84.017382 
L 86.409398 84.017382 
L 86.514654 83.490919 
L 87.040933 83.385627 
L 87.146189 83.280334 
L 87.146189 83.069749 
L 87.251444 83.069749 
L 87.461956 82.753872 
L 88.198747 82.648579 
L 88.198747 82.227409 
L 89.040794 82.122117 
L 89.251305 81.911532 
L 89.567073 81.80624 
L 89.672329 81.595655 
L 90.093352 81.490362 
L 90.303864 81.38507 
L 90.619631 81.279777 
L 90.619631 81.069192 
L 90.830143 81.069192 
L 90.830143 80.54273 
L 91.040654 80.332145 
L 91.461678 80.332145 
L 91.566934 79.910975 
L 91.882701 79.805682 
L 92.514236 79.70039 
L 93.356283 79.489805 
L 93.566794 79.489805 
L 93.566794 79.384513 
L 93.777306 79.173928 
L 94.198329 79.173928 
L 94.198329 79.068635 
L 94.408841 78.85805 
L 95.777167 78.752758 
L 95.777167 78.647465 
L 96.303446 78.542173 
L 97.145493 78.121003 
L 97.987539 78.01571 
L 98.619074 77.489248 
L 98.619074 77.17337 
L 98.934842 77.068078 
L 98.934842 76.962786 
L 100.303167 76.962786 
L 100.724191 76.541616 
L 101.145214 76.436323 
L 101.145214 76.331031 
L 101.566237 76.331031 
L 101.776749 76.120446 
L 103.566098 76.015153 
L 103.881866 75.804568 
L 105.03968 75.699276 
L 105.03968 75.383398 
L 105.144936 75.383398 
L 106.829029 74.541058 
L 108.092099 74.435766 
L 108.618378 74.119889 
L 108.618378 74.014596 
L 110.723495 73.909304 
L 110.934006 73.804011 
L 112.6181 73.698719 
L 112.828611 73.382841 
L 115.354751 73.277549 
L 115.354751 73.172256 
L 117.038844 73.066964 
L 117.1441 72.961671 
L 117.775635 72.856379 
L 117.986147 72.751086 
L 118.617682 72.645794 
L 118.617682 72.540501 
L 120.722798 72.435209 
L 121.249078 72.329916 
L 123.038427 72.224624 
L 123.038427 72.119331 
L 124.406753 72.014039 
L 124.72252 71.908747 
L 126.406613 71.803454 
L 126.617125 71.592869 
L 128.090707 71.592869 
L 128.406474 71.382284 
L 131.879916 71.276992 
L 131.985172 71.171699 
L 135.879638 71.066407 
L 135.879638 70.961114 
L 136.405917 70.961114 
L 136.616429 70.645237 
L 139.037313 70.539944 
L 139.037313 70.434652 
L 142.616011 70.329359 
L 142.616011 70.224067 
L 148.089314 70.118774 
L 148.089314 69.908189 
L 148.19457 69.908189 
L 150.194431 69.802897 
L 150.299687 69.697604 
L 151.246989 69.697604 
L 151.246989 69.592312 
L 151.668013 69.487019 
L 152.825827 69.381727 
L 153.457362 69.276435 
L 155.77299 69.171142 
L 155.983502 69.06585 
L 156.930804 68.960557 
L 157.03606 68.855265 
L 160.404246 68.749972 
L 160.404246 68.64468 
L 175.350574 68.539387 
L 175.561086 68.434095 
L 183.139506 68.328802 
L 183.139506 68.22351 
L 183.244762 68.22351 
L 183.350017 68.118217 
L 186.191925 68.012925 
L 186.402436 67.80234 
L 192.086251 67.697047 
L 192.191507 67.591755 
L 206.295788 67.486462 
L 206.401044 67.38117 
L 227.136443 67.275877 
L 227.241699 67.170585 
L 259.028959 67.065292 
L 259.134215 66.96 
L 372.6 66.96 
L 372.6 66.96 
" clip-path="url(#p06585e32c9)" style="fill: none; stroke: #d62728; stroke-opacity: 0.3; stroke-linecap: square"/>
   </g>
   <g id="line2d_17">
    <path d="M 70.2 369.36 
L 70.305256 363.253036 
L 70.410512 362.726574 
L 70.410512 357.777827 
L 70.621023 356.409025 
L 70.726279 351.460279 
L 70.936791 349.986184 
L 71.042047 330.085905 
L 71.147302 329.559443 
L 71.252558 289.653593 
L 71.357814 289.337716 
L 71.46307 247.536602 
L 71.568326 247.115432 
L 71.673582 233.322117 
L 71.778837 233.111532 
L 71.884093 222.266407 
L 71.989349 222.161114 
L 71.989349 220.371142 
L 72.199861 219.949972 
L 72.305117 191.310418 
L 72.410372 191.099833 
L 72.515628 170.883677 
L 72.72614 170.567799 
L 72.831396 161.196769 
L 72.936652 160.986184 
L 73.041907 156.98507 
L 73.147163 156.774485 
L 73.252419 151.193983 
L 73.357675 151.088691 
L 73.462931 146.666407 
L 73.568187 146.561114 
L 73.568187 144.139387 
L 73.673442 144.139387 
L 73.883954 144.034095 
L 73.98921 142.13883 
L 74.094466 142.13883 
L 74.199722 141.085905 
L 74.410233 140.87532 
L 74.515489 135.294819 
L 74.620745 135.294819 
L 74.726001 133.926017 
L 74.936512 133.820724 
L 75.041768 133.504847 
L 75.147024 133.294262 
L 75.25228 130.556657 
L 75.357536 130.451365 
L 75.462792 125.292033 
L 75.568047 125.186741 
L 75.673303 122.554429 
L 75.778559 122.449136 
L 75.883815 122.027967 
L 75.989071 121.817382 
L 76.094326 120.553872 
L 76.199582 120.553872 
L 76.304838 115.921003 
L 76.51535 115.710418 
L 76.620606 114.657493 
L 76.725861 114.657493 
L 76.831117 112.656936 
L 76.936373 112.656936 
L 77.041629 110.761671 
L 77.146885 110.656379 
L 77.252141 109.287577 
L 77.357396 109.287577 
L 77.357396 108.655822 
L 77.673164 108.234652 
L 77.77842 107.392312 
L 77.883676 107.287019 
L 77.988931 107.181727 
L 78.094187 106.02351 
L 78.199443 106.02351 
L 78.304699 104.444123 
L 78.409955 104.233538 
L 78.515211 103.391198 
L 78.620466 103.285905 
L 78.725722 103.180613 
L 78.830978 102.338273 
L 78.936234 101.917103 
L 79.04149 101.390641 
L 79.146746 101.285348 
L 79.146746 100.548301 
L 79.462513 100.443008 
L 79.567769 99.495376 
L 79.778281 99.074206 
L 79.883536 98.968914 
L 79.988792 98.231866 
L 80.094048 98.021281 
L 80.199304 96.336602 
L 80.620327 96.020724 
L 80.725583 96.020724 
L 80.830839 95.704847 
L 80.936095 95.599554 
L 80.936095 94.967799 
L 81.146606 94.967799 
L 81.251862 94.230752 
L 81.357118 94.230752 
L 81.357118 94.12546 
L 81.462374 93.914875 
L 81.778141 93.914875 
L 81.778141 93.598997 
L 82.199165 93.388412 
L 82.620188 91.914318 
L 83.356979 91.809025 
L 83.356979 91.59844 
L 83.56749 91.59844 
L 83.672746 90.7561 
L 83.778002 90.7561 
L 83.883258 90.124345 
L 83.988514 90.019053 
L 83.988514 89.808468 
L 84.199025 89.808468 
L 84.409537 89.282006 
L 84.409537 88.650251 
L 84.620049 88.650251 
L 84.725305 88.334373 
L 84.83056 88.334373 
L 84.935816 87.492033 
L 85.146328 87.492033 
L 85.251584 86.649694 
L 85.462095 86.544401 
L 85.883119 86.017939 
L 85.883119 85.912646 
L 86.09363 85.912646 
L 86.198886 85.596769 
L 86.61991 85.596769 
L 86.61991 85.280891 
L 87.461956 85.280891 
L 87.567212 84.754429 
L 87.777724 84.754429 
L 87.988235 84.543844 
L 88.198747 84.438552 
L 88.304003 83.806797 
L 88.514514 83.806797 
L 88.514514 83.280334 
L 88.61977 83.280334 
L 89.356561 83.280334 
L 89.461817 82.859164 
L 89.567073 82.543287 
L 90.514375 82.437994 
L 90.514375 82.227409 
L 90.935399 82.122117 
L 91.251166 82.016825 
L 91.251166 81.38507 
L 91.356422 81.38507 
L 91.566934 81.279777 
L 91.777445 81.174485 
L 92.514236 81.069192 
L 93.251027 80.753315 
L 93.356283 80.332145 
L 93.67205 80.226852 
L 93.987818 79.805682 
L 94.303585 79.805682 
L 94.408841 79.489805 
L 94.619353 79.489805 
L 94.724608 79.173928 
L 95.040376 79.068635 
L 95.671911 78.647465 
L 95.671911 78.542173 
L 96.303446 78.43688 
L 96.303446 78.331588 
L 98.513818 78.226295 
L 98.513818 78.121003 
L 99.250609 78.01571 
L 99.250609 77.910418 
L 100.408423 77.805125 
L 101.145214 77.17337 
L 103.671354 77.068078 
L 103.77661 76.857493 
L 105.881726 76.752201 
L 105.881726 76.646908 
L 107.039541 76.541616 
L 107.039541 76.436323 
L 108.407866 76.331031 
L 108.82889 76.225738 
L 109.039401 76.120446 
L 109.144657 76.015153 
L 109.144657 75.804568 
L 110.09196 75.804568 
L 110.09196 75.593983 
L 110.934006 75.488691 
L 111.039262 75.383398 
L 111.670797 75.278106 
L 112.09182 75.172813 
L 113.249635 74.751643 
L 114.512704 74.646351 
L 114.512704 74.541058 
L 114.61796 74.541058 
L 115.354751 74.541058 
L 115.354751 74.435766 
L 115.670519 74.119889 
L 115.88103 74.014596 
L 115.88103 73.804011 
L 116.723077 73.698719 
L 116.828333 73.593426 
L 117.038844 73.488134 
L 117.1441 73.382841 
L 117.670379 73.382841 
L 117.670379 73.277549 
L 117.775635 73.172256 
L 119.249217 73.066964 
L 119.249217 72.961671 
L 120.617543 72.856379 
L 120.617543 72.751086 
L 123.248938 72.645794 
L 123.669962 72.540501 
L 124.301497 72.540501 
L 124.301497 72.435209 
L 124.512008 72.329916 
L 126.090846 72.224624 
L 126.196102 72.119331 
L 126.932892 72.014039 
L 127.038148 71.698162 
L 127.143404 71.698162 
L 127.669683 71.487577 
L 129.143265 71.382284 
L 129.353777 71.276992 
L 132.195684 71.171699 
L 132.827219 71.066407 
L 133.879777 70.961114 
L 133.879777 70.855822 
L 134.932336 70.855822 
L 134.932336 70.750529 
L 135.774382 70.645237 
L 141.037174 70.539944 
L 141.247685 70.434652 
L 144.931639 70.329359 
L 145.352663 70.224067 
L 146.194709 70.118774 
L 146.194709 70.013482 
L 150.510198 69.908189 
L 150.931222 69.697604 
L 150.931222 69.592312 
L 155.246711 69.487019 
L 155.457222 69.381727 
L 162.298851 69.276435 
L 162.404107 69.171142 
L 163.877689 69.06585 
L 163.877689 68.960557 
L 168.508945 68.855265 
L 168.508945 68.749972 
L 168.614201 68.749972 
L 172.192899 68.64468 
L 172.298155 68.539387 
L 180.087087 68.434095 
L 181.77118 68.118217 
L 192.928298 68.012925 
L 193.349321 67.907632 
L 213.768952 67.80234 
L 213.768952 67.697047 
L 220.084302 67.591755 
L 220.294814 67.486462 
L 242.082771 67.38117 
L 242.188026 67.275877 
L 274.291055 67.170585 
L 274.39631 67.065292 
L 372.6 66.96 
L 372.6 66.96 
" clip-path="url(#p06585e32c9)" style="fill: none; stroke: #9467bd; stroke-opacity: 0.3; stroke-linecap: square"/>
   </g>
   <g id="line2d_18">
    <path d="M 70.2 369.36 
L 73.254545 160.076238 
L 76.309091 116.201746 
L 79.363636 97.878896 
L 82.418182 89.949523 
L 85.472727 85.451068 
L 88.527273 82.946765 
L 91.581818 81.109872 
L 94.636364 79.822714 
L 97.690909 78.446976 
L 100.745455 77.322995 
L 103.8 76.445334 
L 106.854545 75.546003 
L 109.909091 74.892412 
L 112.963636 74.068821 
L 116.018182 73.414657 
L 119.072727 72.836553 
L 122.127273 72.471238 
L 125.181818 72.078278 
L 128.236364 71.561511 
L 131.290909 71.214704 
L 134.345455 71.025141 
L 137.4 70.786446 
L 140.454545 70.561758 
L 143.509091 70.396134 
L 146.563636 70.182639 
L 149.618182 70.035208 
L 152.672727 69.860982 
L 155.727273 69.656104 
L 158.781818 69.508679 
L 161.836364 69.34016 
L 164.890909 69.192721 
L 167.945455 69.045268 
L 171 68.911866 
L 174.054545 68.771441 
L 177.109091 68.687193 
L 180.163636 68.620174 
L 183.218182 68.455505 
L 186.272727 68.306902 
L 189.327273 68.181686 
L 192.381818 68.097438 
L 195.436364 68.055313 
L 198.490909 67.992123 
L 201.545455 67.928933 
L 204.6 67.912548 
L 207.654545 67.865743 
L 210.709091 67.865743 
L 213.763636 67.802553 
L 216.818182 67.612975 
L 219.872727 67.591909 
L 222.927273 67.549785 
L 225.981818 67.507653 
L 229.036364 67.465529 
L 232.090909 67.444463 
L 235.145455 67.360199 
L 238.2 67.339141 
L 241.254545 67.339141 
L 244.309091 67.233834 
L 247.363636 67.191702 
L 250.418182 67.14957 
L 253.472727 67.107439 
L 256.527273 67.086373 
L 259.581818 67.065314 
L 262.636364 67.044249 
L 265.690909 67.044249 
L 268.745455 67.044249 
L 271.8 67.023183 
L 274.854545 67.002124 
L 277.909091 66.990953 
L 280.963636 66.981058 
L 284.018182 66.981058 
L 287.072727 66.981058 
L 290.127273 66.96 
L 293.181818 66.96 
L 296.236364 66.96 
L 299.290909 66.96 
L 302.345455 66.96 
L 305.4 66.96 
L 308.454545 66.96 
L 311.509091 66.96 
L 314.563636 66.96 
L 317.618182 66.96 
L 320.672727 66.96 
L 323.727273 66.96 
L 326.781818 66.96 
L 329.836364 66.96 
L 332.890909 66.96 
L 335.945455 66.96 
L 339 66.96 
L 342.054545 66.96 
L 345.109091 66.96 
L 348.163636 66.96 
L 351.218182 66.96 
L 354.272727 66.96 
L 357.327273 66.96 
L 360.381818 66.96 
L 363.436364 66.96 
L 366.490909 66.96 
L 369.545455 66.96 
L 372.6 66.96 
" clip-path="url(#p06585e32c9)" style="fill: none; stroke: #0000ff; stroke-opacity: 0.8; stroke-width: 2; stroke-linecap: square"/>
   </g>
   <g id="patch_3">
    <path d="M 55.08 384.48 
L 55.08 51.84 
" style="fill: none; stroke: #000000; stroke-width: 0.8; stroke-linejoin: miter; stroke-linecap: square"/>
   </g>
   <g id="patch_4">
    <path d="M 387.72 384.48 
L 387.72 51.84 
" style="fill: none; stroke: #000000; stroke-width: 0.8; stroke-linejoin: miter; stroke-linecap: square"/>
   </g>
   <g id="patch_5">
    <path d="M 55.08 384.48 
L 387.72 384.48 
" style="fill: none; stroke: #000000; stroke-width: 0.8; stroke-linejoin: miter; stroke-linecap: square"/>
   </g>
   <g id="patch_6">
    <path d="M 55.08 51.84 
L 387.72 51.84 
" style="fill: none; stroke: #000000; stroke-width: 0.8; stroke-linejoin: miter; stroke-linecap: square"/>
   </g>
   <g id="text_15">
    <!-- Mean ROC curve with variability -->
    <g transform="translate(125.05125 45.84) scale(0.12 -0.12)">
     <defs>
      <path id="DejaVuSans-4d" d="M 628 4666 
L 1569 4666 
L 2759 1491 
L 3956 4666 
L 4897 4666 
L 4897 0 
L 4281 0 
L 4281 4097 
L 3078 897 
L 2444 897 
L 1241 4097 
L 1241 0 
L 628 0 
L 628 4666 
z
" transform="scale(0.015625)"/>
      <path id="DejaVuSans-6e" d="M 3513 2113 
L 3513 0 
L 2938 0 
L 2938 2094 
Q 2938 2591 2744 2837 
Q 2550 3084 2163 3084 
Q 1697 3084 1428 2787 
Q 1159 2491 1159 1978 
L 1159 0 
L 581 0 
L 581 3500 
L 1159 3500 
L 1159 2956 
Q 1366 3272 1645 3428 
Q 1925 3584 2291 3584 
Q 2894 3584 3203 3211 
Q 3513 2838 3513 2113 
z
" transform="scale(0.015625)"/>
      <path id="DejaVuSans-4f" d="M 2522 4238 
Q 1834 4238 1429 3725 
Q 1025 3213 1025 2328 
Q 1025 1447 1429 934 
Q 1834 422 2522 422 
Q 3209 422 3611 934 
Q 4013 1447 4013 2328 
Q 4013 3213 3611 3725 
Q 3209 4238 2522 4238 
z
M 2522 4750 
Q 3503 4750 4090 4092 
Q 4678 3434 4678 2328 
Q 4678 1225 4090 567 
Q 3503 -91 2522 -91 
Q 1538 -91 948 565 
Q 359 1222 359 2328 
Q 359 3434 948 4092 
Q 1538 4750 2522 4750 
z
" transform="scale(0.015625)"/>
      <path id="DejaVuSans-43" d="M 4122 4306 
L 4122 3641 
Q 3803 3938 3442 4084 
Q 3081 4231 2675 4231 
Q 1875 4231 1450 3742 
Q 1025 3253 1025 2328 
Q 1025 1406 1450 917 
Q 1875 428 2675 428 
Q 3081 428 3442 575 
Q 3803 722 4122 1019 
L 4122 359 
Q 3791 134 3420 21 
Q 3050 -91 2638 -91 
Q 1578 -91 968 557 
Q 359 1206 359 2328 
Q 359 3453 968 4101 
Q 1578 4750 2638 4750 
Q 3056 4750 3426 4639 
Q 3797 4528 4122 4306 
z
" transform="scale(0.015625)"/>
      <path id="DejaVuSans-63" d="M 3122 3366 
L 3122 2828 
Q 2878 2963 2633 3030 
Q 2388 3097 2138 3097 
Q 1578 3097 1268 2742 
Q 959 2388 959 1747 
Q 959 1106 1268 751 
Q 1578 397 2138 397 
Q 2388 397 2633 464 
Q 2878 531 3122 666 
L 3122 134 
Q 2881 22 2623 -34 
Q 2366 -91 2075 -91 
Q 1284 -91 818 406 
Q 353 903 353 1747 
Q 353 2603 823 3093 
Q 1294 3584 2113 3584 
Q 2378 3584 2631 3529 
Q 2884 3475 3122 3366 
z
" transform="scale(0.015625)"/>
      <path id="DejaVuSans-77" d="M 269 3500 
L 844 3500 
L 1563 769 
L 2278 3500 
L 2956 3500 
L 3675 769 
L 4391 3500 
L 4966 3500 
L 4050 0 
L 3372 0 
L 2619 2869 
L 1863 0 
L 1184 0 
L 269 3500 
z
" transform="scale(0.015625)"/>
      <path id="DejaVuSans-68" d="M 3513 2113 
L 3513 0 
L 2938 0 
L 2938 2094 
Q 2938 2591 2744 2837 
Q 2550 3084 2163 3084 
Q 1697 3084 1428 2787 
Q 1159 2491 1159 1978 
L 1159 0 
L 581 0 
L 581 4863 
L 1159 4863 
L 1159 2956 
Q 1366 3272 1645 3428 
Q 1925 3584 2291 3584 
Q 2894 3584 3203 3211 
Q 3513 2838 3513 2113 
z
" transform="scale(0.015625)"/>
      <path id="DejaVuSans-62" d="M 3116 1747 
Q 3116 2381 2855 2742 
Q 2594 3103 2138 3103 
Q 1681 3103 1420 2742 
Q 1159 2381 1159 1747 
Q 1159 1113 1420 752 
Q 1681 391 2138 391 
Q 2594 391 2855 752 
Q 3116 1113 3116 1747 
z
M 1159 2969 
Q 1341 3281 1617 3432 
Q 1894 3584 2278 3584 
Q 2916 3584 3314 3078 
Q 3713 2572 3713 1747 
Q 3713 922 3314 415 
Q 2916 -91 2278 -91 
Q 1894 -91 1617 61 
Q 1341 213 1159 525 
L 1159 0 
L 581 0 
L 581 4863 
L 1159 4863 
L 1159 2969 
z
" transform="scale(0.015625)"/>
      <path id="DejaVuSans-79" d="M 2059 -325 
Q 1816 -950 1584 -1140 
Q 1353 -1331 966 -1331 
L 506 -1331 
L 506 -850 
L 844 -850 
Q 1081 -850 1212 -737 
Q 1344 -625 1503 -206 
L 1606 56 
L 191 3500 
L 800 3500 
L 1894 763 
L 2988 3500 
L 3597 3500 
L 2059 -325 
z
" transform="scale(0.015625)"/>
     </defs>
     <use xlink:href="#DejaVuSans-4d"/>
     <use xlink:href="#DejaVuSans-65" x="86.279297"/>
     <use xlink:href="#DejaVuSans-61" x="147.802734"/>
     <use xlink:href="#DejaVuSans-6e" x="209.082031"/>
     <use xlink:href="#DejaVuSans-20" x="272.460938"/>
     <use xlink:href="#DejaVuSans-52" x="304.248047"/>
     <use xlink:href="#DejaVuSans-4f" x="373.730469"/>
     <use xlink:href="#DejaVuSans-43" x="452.441406"/>
     <use xlink:href="#DejaVuSans-20" x="522.265625"/>
     <use xlink:href="#DejaVuSans-63" x="554.052734"/>
     <use xlink:href="#DejaVuSans-75" x="609.033203"/>
     <use xlink:href="#DejaVuSans-72" x="672.412109"/>
     <use xlink:href="#DejaVuSans-76" x="713.525391"/>
     <use xlink:href="#DejaVuSans-65" x="772.705078"/>
     <use xlink:href="#DejaVuSans-20" x="834.228516"/>
     <use xlink:href="#DejaVuSans-77" x="866.015625"/>
     <use xlink:href="#DejaVuSans-69" x="947.802734"/>
     <use xlink:href="#DejaVuSans-74" x="975.585938"/>
     <use xlink:href="#DejaVuSans-68" x="1014.794922"/>
     <use xlink:href="#DejaVuSans-20" x="1078.173828"/>
     <use xlink:href="#DejaVuSans-76" x="1109.960938"/>
     <use xlink:href="#DejaVuSans-61" x="1169.140625"/>
     <use xlink:href="#DejaVuSans-72" x="1230.419922"/>
     <use xlink:href="#DejaVuSans-69" x="1271.533203"/>
     <use xlink:href="#DejaVuSans-61" x="1299.316406"/>
     <use xlink:href="#DejaVuSans-62" x="1360.595703"/>
     <use xlink:href="#DejaVuSans-69" x="1424.072266"/>
     <use xlink:href="#DejaVuSans-6c" x="1451.855469"/>
     <use xlink:href="#DejaVuSans-69" x="1479.638672"/>
     <use xlink:href="#DejaVuSans-74" x="1507.421875"/>
     <use xlink:href="#DejaVuSans-79" x="1546.630859"/>
    </g>
   </g>
   <g id="legend_1">
    <g id="patch_7">
     <path d="M 190.32 379.48 
L 380.72 379.48 
Q 382.72 379.48 382.72 377.48 
L 382.72 275.733125 
Q 382.72 273.733125 380.72 273.733125 
L 190.32 273.733125 
Q 188.32 273.733125 188.32 275.733125 
L 188.32 377.48 
Q 188.32 379.48 190.32 379.48 
z
" style="fill: #ffffff; opacity: 0.8; stroke: #cccccc; stroke-linejoin: miter"/>
    </g>
    <g id="line2d_19">
     <path d="M 192.32 281.831563 
L 202.32 281.831563 
L 212.32 281.831563 
" style="fill: none; stroke: #1f77b4; stroke-opacity: 0.3; stroke-linecap: square"/>
    </g>
    <g id="text_16">
     <!-- ROC fold 0 (AUC = 0.98) -->
     <g transform="translate(220.32 285.331563) scale(0.1 -0.1)">
      <defs>
       <path id="DejaVuSans-66" d="M 2375 4863 
L 2375 4384 
L 1825 4384 
Q 1516 4384 1395 4259 
Q 1275 4134 1275 3809 
L 1275 3500 
L 2222 3500 
L 2222 3053 
L 1275 3053 
L 1275 0 
L 697 0 
L 697 3053 
L 147 3053 
L 147 3500 
L 697 3500 
L 697 3744 
Q 697 4328 969 4595 
Q 1241 4863 1831 4863 
L 2375 4863 
z
" transform="scale(0.015625)"/>
       <path id="DejaVuSans-64" d="M 2906 2969 
L 2906 4863 
L 3481 4863 
L 3481 0 
L 2906 0 
L 2906 525 
Q 2725 213 2448 61 
Q 2172 -91 1784 -91 
Q 1150 -91 751 415 
Q 353 922 353 1747 
Q 353 2572 751 3078 
Q 1150 3584 1784 3584 
Q 2172 3584 2448 3432 
Q 2725 3281 2906 2969 
z
M 947 1747 
Q 947 1113 1208 752 
Q 1469 391 1925 391 
Q 2381 391 2643 752 
Q 2906 1113 2906 1747 
Q 2906 2381 2643 2742 
Q 2381 3103 1925 3103 
Q 1469 3103 1208 2742 
Q 947 2381 947 1747 
z
" transform="scale(0.015625)"/>
       <path id="DejaVuSans-28" d="M 1984 4856 
Q 1566 4138 1362 3434 
Q 1159 2731 1159 2009 
Q 1159 1288 1364 580 
Q 1569 -128 1984 -844 
L 1484 -844 
Q 1016 -109 783 600 
Q 550 1309 550 2009 
Q 550 2706 781 3412 
Q 1013 4119 1484 4856 
L 1984 4856 
z
" transform="scale(0.015625)"/>
       <path id="DejaVuSans-41" d="M 2188 4044 
L 1331 1722 
L 3047 1722 
L 2188 4044 
z
M 1831 4666 
L 2547 4666 
L 4325 0 
L 3669 0 
L 3244 1197 
L 1141 1197 
L 716 0 
L 50 0 
L 1831 4666 
z
" transform="scale(0.015625)"/>
       <path id="DejaVuSans-55" d="M 556 4666 
L 1191 4666 
L 1191 1831 
Q 1191 1081 1462 751 
Q 1734 422 2344 422 
Q 2950 422 3222 751 
Q 3494 1081 3494 1831 
L 3494 4666 
L 4128 4666 
L 4128 1753 
Q 4128 841 3676 375 
Q 3225 -91 2344 -91 
Q 1459 -91 1007 375 
Q 556 841 556 1753 
L 556 4666 
z
" transform="scale(0.015625)"/>
       <path id="DejaVuSans-3d" d="M 678 2906 
L 4684 2906 
L 4684 2381 
L 678 2381 
L 678 2906 
z
M 678 1631 
L 4684 1631 
L 4684 1100 
L 678 1100 
L 678 1631 
z
" transform="scale(0.015625)"/>
       <path id="DejaVuSans-39" d="M 703 97 
L 703 672 
Q 941 559 1184 500 
Q 1428 441 1663 441 
Q 2288 441 2617 861 
Q 2947 1281 2994 2138 
Q 2813 1869 2534 1725 
Q 2256 1581 1919 1581 
Q 1219 1581 811 2004 
Q 403 2428 403 3163 
Q 403 3881 828 4315 
Q 1253 4750 1959 4750 
Q 2769 4750 3195 4129 
Q 3622 3509 3622 2328 
Q 3622 1225 3098 567 
Q 2575 -91 1691 -91 
Q 1453 -91 1209 -44 
Q 966 3 703 97 
z
M 1959 2075 
Q 2384 2075 2632 2365 
Q 2881 2656 2881 3163 
Q 2881 3666 2632 3958 
Q 2384 4250 1959 4250 
Q 1534 4250 1286 3958 
Q 1038 3666 1038 3163 
Q 1038 2656 1286 2365 
Q 1534 2075 1959 2075 
z
" transform="scale(0.015625)"/>
       <path id="DejaVuSans-29" d="M 513 4856 
L 1013 4856 
Q 1481 4119 1714 3412 
Q 1947 2706 1947 2009 
Q 1947 1309 1714 600 
Q 1481 -109 1013 -844 
L 513 -844 
Q 928 -128 1133 580 
Q 1338 1288 1338 2009 
Q 1338 2731 1133 3434 
Q 928 4138 513 4856 
z
" transform="scale(0.015625)"/>
      </defs>
      <use xlink:href="#DejaVuSans-52"/>
      <use xlink:href="#DejaVuSans-4f" x="69.482422"/>
      <use xlink:href="#DejaVuSans-43" x="148.193359"/>
      <use xlink:href="#DejaVuSans-20" x="218.017578"/>
      <use xlink:href="#DejaVuSans-66" x="249.804688"/>
      <use xlink:href="#DejaVuSans-6f" x="285.009766"/>
      <use xlink:href="#DejaVuSans-6c" x="346.191406"/>
      <use xlink:href="#DejaVuSans-64" x="373.974609"/>
      <use xlink:href="#DejaVuSans-20" x="437.451172"/>
      <use xlink:href="#DejaVuSans-30" x="469.238281"/>
      <use xlink:href="#DejaVuSans-20" x="532.861328"/>
      <use xlink:href="#DejaVuSans-28" x="564.648438"/>
      <use xlink:href="#DejaVuSans-41" x="603.662109"/>
      <use xlink:href="#DejaVuSans-55" x="672.070312"/>
      <use xlink:href="#DejaVuSans-43" x="745.263672"/>
      <use xlink:href="#DejaVuSans-20" x="815.087891"/>
      <use xlink:href="#DejaVuSans-3d" x="846.875"/>
      <use xlink:href="#DejaVuSans-20" x="930.664062"/>
      <use xlink:href="#DejaVuSans-30" x="962.451172"/>
      <use xlink:href="#DejaVuSans-2e" x="1026.074219"/>
      <use xlink:href="#DejaVuSans-39" x="1057.861328"/>
      <use xlink:href="#DejaVuSans-38" x="1121.484375"/>
      <use xlink:href="#DejaVuSans-29" x="1185.107422"/>
     </g>
    </g>
    <g id="line2d_20">
     <path d="M 192.32 296.509688 
L 202.32 296.509688 
L 212.32 296.509688 
" style="fill: none; stroke: #ff7f0e; stroke-opacity: 0.3; stroke-linecap: square"/>
    </g>
    <g id="text_17">
     <!-- ROC fold 1 (AUC = 0.98) -->
     <g transform="translate(220.32 300.009688) scale(0.1 -0.1)">
      <use xlink:href="#DejaVuSans-52"/>
      <use xlink:href="#DejaVuSans-4f" x="69.482422"/>
      <use xlink:href="#DejaVuSans-43" x="148.193359"/>
      <use xlink:href="#DejaVuSans-20" x="218.017578"/>
      <use xlink:href="#DejaVuSans-66" x="249.804688"/>
      <use xlink:href="#DejaVuSans-6f" x="285.009766"/>
      <use xlink:href="#DejaVuSans-6c" x="346.191406"/>
      <use xlink:href="#DejaVuSans-64" x="373.974609"/>
      <use xlink:href="#DejaVuSans-20" x="437.451172"/>
      <use xlink:href="#DejaVuSans-31" x="469.238281"/>
      <use xlink:href="#DejaVuSans-20" x="532.861328"/>
      <use xlink:href="#DejaVuSans-28" x="564.648438"/>
      <use xlink:href="#DejaVuSans-41" x="603.662109"/>
      <use xlink:href="#DejaVuSans-55" x="672.070312"/>
      <use xlink:href="#DejaVuSans-43" x="745.263672"/>
      <use xlink:href="#DejaVuSans-20" x="815.087891"/>
      <use xlink:href="#DejaVuSans-3d" x="846.875"/>
      <use xlink:href="#DejaVuSans-20" x="930.664062"/>
      <use xlink:href="#DejaVuSans-30" x="962.451172"/>
      <use xlink:href="#DejaVuSans-2e" x="1026.074219"/>
      <use xlink:href="#DejaVuSans-39" x="1057.861328"/>
      <use xlink:href="#DejaVuSans-38" x="1121.484375"/>
      <use xlink:href="#DejaVuSans-29" x="1185.107422"/>
     </g>
    </g>
    <g id="line2d_21">
     <path d="M 192.32 311.187813 
L 202.32 311.187813 
L 212.32 311.187813 
" style="fill: none; stroke: #2ca02c; stroke-opacity: 0.3; stroke-linecap: square"/>
    </g>
    <g id="text_18">
     <!-- ROC fold 2 (AUC = 0.98) -->
     <g transform="translate(220.32 314.687813) scale(0.1 -0.1)">
      <use xlink:href="#DejaVuSans-52"/>
      <use xlink:href="#DejaVuSans-4f" x="69.482422"/>
      <use xlink:href="#DejaVuSans-43" x="148.193359"/>
      <use xlink:href="#DejaVuSans-20" x="218.017578"/>
      <use xlink:href="#DejaVuSans-66" x="249.804688"/>
      <use xlink:href="#DejaVuSans-6f" x="285.009766"/>
      <use xlink:href="#DejaVuSans-6c" x="346.191406"/>
      <use xlink:href="#DejaVuSans-64" x="373.974609"/>
      <use xlink:href="#DejaVuSans-20" x="437.451172"/>
      <use xlink:href="#DejaVuSans-32" x="469.238281"/>
      <use xlink:href="#DejaVuSans-20" x="532.861328"/>
      <use xlink:href="#DejaVuSans-28" x="564.648438"/>
      <use xlink:href="#DejaVuSans-41" x="603.662109"/>
      <use xlink:href="#DejaVuSans-55" x="672.070312"/>
      <use xlink:href="#DejaVuSans-43" x="745.263672"/>
      <use xlink:href="#DejaVuSans-20" x="815.087891"/>
      <use xlink:href="#DejaVuSans-3d" x="846.875"/>
      <use xlink:href="#DejaVuSans-20" x="930.664062"/>
      <use xlink:href="#DejaVuSans-30" x="962.451172"/>
      <use xlink:href="#DejaVuSans-2e" x="1026.074219"/>
      <use xlink:href="#DejaVuSans-39" x="1057.861328"/>
      <use xlink:href="#DejaVuSans-38" x="1121.484375"/>
      <use xlink:href="#DejaVuSans-29" x="1185.107422"/>
     </g>
    </g>
    <g id="line2d_22">
     <path d="M 192.32 325.865938 
L 202.32 325.865938 
L 212.32 325.865938 
" style="fill: none; stroke: #d62728; stroke-opacity: 0.3; stroke-linecap: square"/>
    </g>
    <g id="text_19">
     <!-- ROC fold 3 (AUC = 0.98) -->
     <g transform="translate(220.32 329.365938) scale(0.1 -0.1)">
      <defs>
       <path id="DejaVuSans-33" d="M 2597 2516 
Q 3050 2419 3304 2112 
Q 3559 1806 3559 1356 
Q 3559 666 3084 287 
Q 2609 -91 1734 -91 
Q 1441 -91 1130 -33 
Q 819 25 488 141 
L 488 750 
Q 750 597 1062 519 
Q 1375 441 1716 441 
Q 2309 441 2620 675 
Q 2931 909 2931 1356 
Q 2931 1769 2642 2001 
Q 2353 2234 1838 2234 
L 1294 2234 
L 1294 2753 
L 1863 2753 
Q 2328 2753 2575 2939 
Q 2822 3125 2822 3475 
Q 2822 3834 2567 4026 
Q 2313 4219 1838 4219 
Q 1578 4219 1281 4162 
Q 984 4106 628 3988 
L 628 4550 
Q 988 4650 1302 4700 
Q 1616 4750 1894 4750 
Q 2613 4750 3031 4423 
Q 3450 4097 3450 3541 
Q 3450 3153 3228 2886 
Q 3006 2619 2597 2516 
z
" transform="scale(0.015625)"/>
      </defs>
      <use xlink:href="#DejaVuSans-52"/>
      <use xlink:href="#DejaVuSans-4f" x="69.482422"/>
      <use xlink:href="#DejaVuSans-43" x="148.193359"/>
      <use xlink:href="#DejaVuSans-20" x="218.017578"/>
      <use xlink:href="#DejaVuSans-66" x="249.804688"/>
      <use xlink:href="#DejaVuSans-6f" x="285.009766"/>
      <use xlink:href="#DejaVuSans-6c" x="346.191406"/>
      <use xlink:href="#DejaVuSans-64" x="373.974609"/>
      <use xlink:href="#DejaVuSans-20" x="437.451172"/>
      <use xlink:href="#DejaVuSans-33" x="469.238281"/>
      <use xlink:href="#DejaVuSans-20" x="532.861328"/>
      <use xlink:href="#DejaVuSans-28" x="564.648438"/>
      <use xlink:href="#DejaVuSans-41" x="603.662109"/>
      <use xlink:href="#DejaVuSans-55" x="672.070312"/>
      <use xlink:href="#DejaVuSans-43" x="745.263672"/>
      <use xlink:href="#DejaVuSans-20" x="815.087891"/>
      <use xlink:href="#DejaVuSans-3d" x="846.875"/>
      <use xlink:href="#DejaVuSans-20" x="930.664062"/>
      <use xlink:href="#DejaVuSans-30" x="962.451172"/>
      <use xlink:href="#DejaVuSans-2e" x="1026.074219"/>
      <use xlink:href="#DejaVuSans-39" x="1057.861328"/>
      <use xlink:href="#DejaVuSans-38" x="1121.484375"/>
      <use xlink:href="#DejaVuSans-29" x="1185.107422"/>
     </g>
    </g>
    <g id="line2d_23">
     <path d="M 192.32 340.544062 
L 202.32 340.544062 
L 212.32 340.544062 
" style="fill: none; stroke: #9467bd; stroke-opacity: 0.3; stroke-linecap: square"/>
    </g>
    <g id="text_20">
     <!-- ROC fold 4 (AUC = 0.98) -->
     <g transform="translate(220.32 344.044062) scale(0.1 -0.1)">
      <use xlink:href="#DejaVuSans-52"/>
      <use xlink:href="#DejaVuSans-4f" x="69.482422"/>
      <use xlink:href="#DejaVuSans-43" x="148.193359"/>
      <use xlink:href="#DejaVuSans-20" x="218.017578"/>
      <use xlink:href="#DejaVuSans-66" x="249.804688"/>
      <use xlink:href="#DejaVuSans-6f" x="285.009766"/>
      <use xlink:href="#DejaVuSans-6c" x="346.191406"/>
      <use xlink:href="#DejaVuSans-64" x="373.974609"/>
      <use xlink:href="#DejaVuSans-20" x="437.451172"/>
      <use xlink:href="#DejaVuSans-34" x="469.238281"/>
      <use xlink:href="#DejaVuSans-20" x="532.861328"/>
      <use xlink:href="#DejaVuSans-28" x="564.648438"/>
      <use xlink:href="#DejaVuSans-41" x="603.662109"/>
      <use xlink:href="#DejaVuSans-55" x="672.070312"/>
      <use xlink:href="#DejaVuSans-43" x="745.263672"/>
      <use xlink:href="#DejaVuSans-20" x="815.087891"/>
      <use xlink:href="#DejaVuSans-3d" x="846.875"/>
      <use xlink:href="#DejaVuSans-20" x="930.664062"/>
      <use xlink:href="#DejaVuSans-30" x="962.451172"/>
      <use xlink:href="#DejaVuSans-2e" x="1026.074219"/>
      <use xlink:href="#DejaVuSans-39" x="1057.861328"/>
      <use xlink:href="#DejaVuSans-38" x="1121.484375"/>
      <use xlink:href="#DejaVuSans-29" x="1185.107422"/>
     </g>
    </g>
    <g id="line2d_24">
     <path d="M 192.32 355.222188 
L 202.32 355.222188 
L 212.32 355.222188 
" style="fill: none; stroke: #0000ff; stroke-opacity: 0.8; stroke-width: 2; stroke-linecap: square"/>
    </g>
    <g id="text_21">
     <!-- Mean ROC (AUC = 0.98 $\pm$ 0.00) -->
     <g transform="translate(220.32 358.722188) scale(0.1 -0.1)">
      <defs>
       <path id="DejaVuSans-b1" d="M 2944 4013 
L 2944 2803 
L 4684 2803 
L 4684 2272 
L 2944 2272 
L 2944 1063 
L 2419 1063 
L 2419 2272 
L 678 2272 
L 678 2803 
L 2419 2803 
L 2419 4013 
L 2944 4013 
z
M 678 531 
L 4684 531 
L 4684 0 
L 678 0 
L 678 531 
z
" transform="scale(0.015625)"/>
      </defs>
      <use xlink:href="#DejaVuSans-4d" transform="translate(0 0.125)"/>
      <use xlink:href="#DejaVuSans-65" transform="translate(86.279297 0.125)"/>
      <use xlink:href="#DejaVuSans-61" transform="translate(147.802734 0.125)"/>
      <use xlink:href="#DejaVuSans-6e" transform="translate(209.082031 0.125)"/>
      <use xlink:href="#DejaVuSans-20" transform="translate(272.460938 0.125)"/>
      <use xlink:href="#DejaVuSans-52" transform="translate(304.248047 0.125)"/>
      <use xlink:href="#DejaVuSans-4f" transform="translate(373.730469 0.125)"/>
      <use xlink:href="#DejaVuSans-43" transform="translate(452.441406 0.125)"/>
      <use xlink:href="#DejaVuSans-20" transform="translate(522.265625 0.125)"/>
      <use xlink:href="#DejaVuSans-28" transform="translate(554.052734 0.125)"/>
      <use xlink:href="#DejaVuSans-41" transform="translate(593.066406 0.125)"/>
      <use xlink:href="#DejaVuSans-55" transform="translate(661.474609 0.125)"/>
      <use xlink:href="#DejaVuSans-43" transform="translate(734.667969 0.125)"/>
      <use xlink:href="#DejaVuSans-20" transform="translate(804.492188 0.125)"/>
      <use xlink:href="#DejaVuSans-3d" transform="translate(836.279297 0.125)"/>
      <use xlink:href="#DejaVuSans-20" transform="translate(920.068359 0.125)"/>
      <use xlink:href="#DejaVuSans-30" transform="translate(951.855469 0.125)"/>
      <use xlink:href="#DejaVuSans-2e" transform="translate(1015.478516 0.125)"/>
      <use xlink:href="#DejaVuSans-39" transform="translate(1047.265625 0.125)"/>
      <use xlink:href="#DejaVuSans-38" transform="translate(1110.888672 0.125)"/>
      <use xlink:href="#DejaVuSans-20" transform="translate(1174.511719 0.125)"/>
      <use xlink:href="#DejaVuSans-b1" transform="translate(1206.298828 0.125)"/>
      <use xlink:href="#DejaVuSans-20" transform="translate(1290.087891 0.125)"/>
      <use xlink:href="#DejaVuSans-30" transform="translate(1321.875 0.125)"/>
      <use xlink:href="#DejaVuSans-2e" transform="translate(1385.498047 0.125)"/>
      <use xlink:href="#DejaVuSans-30" transform="translate(1417.285156 0.125)"/>
      <use xlink:href="#DejaVuSans-30" transform="translate(1480.908203 0.125)"/>
      <use xlink:href="#DejaVuSans-29" transform="translate(1544.53125 0.125)"/>
     </g>
    </g>
    <g id="patch_8">
     <path d="M 192.32 373.400313 
L 212.32 373.400313 
L 212.32 366.400313 
L 192.32 366.400313 
z
" style="fill: #808080; fill-opacity: 0.2; stroke: #808080; stroke-opacity: 0.2; stroke-linejoin: miter"/>
    </g>
    <g id="text_22">
     <!-- $\pm$ 1 std. dev. -->
     <g transform="translate(220.32 373.400313) scale(0.1 -0.1)">
      <use xlink:href="#DejaVuSans-b1" transform="translate(0 0.015625)"/>
      <use xlink:href="#DejaVuSans-20" transform="translate(83.789062 0.015625)"/>
      <use xlink:href="#DejaVuSans-31" transform="translate(115.576172 0.015625)"/>
      <use xlink:href="#DejaVuSans-20" transform="translate(179.199219 0.015625)"/>
      <use xlink:href="#DejaVuSans-73" transform="translate(210.986328 0.015625)"/>
      <use xlink:href="#DejaVuSans-74" transform="translate(263.085938 0.015625)"/>
      <use xlink:href="#DejaVuSans-64" transform="translate(302.294922 0.015625)"/>
      <use xlink:href="#DejaVuSans-2e" transform="translate(365.771484 0.015625)"/>
      <use xlink:href="#DejaVuSans-20" transform="translate(397.558594 0.015625)"/>
      <use xlink:href="#DejaVuSans-64" transform="translate(429.345703 0.015625)"/>
      <use xlink:href="#DejaVuSans-65" transform="translate(492.822266 0.015625)"/>
      <use xlink:href="#DejaVuSans-76" transform="translate(554.345703 0.015625)"/>
      <use xlink:href="#DejaVuSans-2e" transform="translate(613.525391 0.015625)"/>
     </g>
    </g>
   </g>
  </g>
 </g>
 <defs>
  <clipPath id="p06585e32c9">
   <rect x="55.08" y="51.84" width="332.64" height="332.64"/>
  </clipPath>
 </defs>
</svg>
