<?xml version="1.0" encoding="utf-8" standalone="no"?>
<!DOCTYPE svg PUBLIC "-//W3C//DTD SVG 1.1//EN"
  "http://www.w3.org/Graphics/SVG/1.1/DTD/svg11.dtd">
<svg xmlns:xlink="http://www.w3.org/1999/xlink" width="432pt" height="432pt" viewBox="0 0 432 432" xmlns="http://www.w3.org/2000/svg" version="1.1">
 <metadata>
  <rdf:RDF xmlns:dc="http://purl.org/dc/elements/1.1/" xmlns:cc="http://creativecommons.org/ns#" xmlns:rdf="http://www.w3.org/1999/02/22-rdf-syntax-ns#">
   <cc:Work>
    <dc:type rdf:resource="http://purl.org/dc/dcmitype/StillImage"/>
    <dc:date>2024-01-24T12:13:38.891254</dc:date>
    <dc:format>image/svg+xml</dc:format>
    <dc:creator>
     <cc:Agent>
      <dc:title>Matplotlib v3.6.3, https://matplotlib.org/</dc:title>
     </cc:Agent>
    </dc:creator>
   </cc:Work>
  </rdf:RDF>
 </metadata>
 <defs>
  <style type="text/css">*{stroke-linejoin: round; stroke-linecap: butt}</style>
 </defs>
 <g id="figure_1">
  <g id="patch_1">
   <path d="M 0 432 
L 432 432 
L 432 0 
L 0 0 
z
" style="fill: #ffffff"/>
  </g>
  <g id="axes_1">
   <g id="patch_2">
    <path d="M 55.08 384.48 
L 387.72 384.48 
L 387.72 51.84 
L 55.08 51.84 
z
" style="fill: #ffffff"/>
   </g>
   <g id="PolyCollection_1">
    <defs>
     <path id="m41d5d51b49" d="M 70.2 -62.64 
L 70.2 -62.64 
L 73.254545 -248.756174 
L 76.309091 -304.534677 
L 79.363636 -327.853653 
L 82.418182 -337.776932 
L 85.472727 -343.344791 
L 88.527273 -346.835865 
L 91.581818 -349.527757 
L 94.636364 -351.69099 
L 97.690909 -353.177397 
L 100.745455 -354.696383 
L 103.8 -355.877373 
L 106.854545 -356.3876 
L 109.909091 -356.996719 
L 112.963636 -357.775325 
L 116.018182 -358.181734 
L 119.072727 -358.847828 
L 122.127273 -359.126756 
L 125.181818 -359.531241 
L 128.236364 -359.926354 
L 131.290909 -360.107846 
L 134.345455 -360.509813 
L 137.4 -360.682239 
L 140.454545 -360.873757 
L 143.509091 -361.022088 
L 146.563636 -361.420223 
L 149.618182 -361.875324 
L 152.672727 -362.04377 
L 155.727273 -362.168994 
L 158.781818 -362.404283 
L 161.836364 -362.483843 
L 164.890909 -362.875334 
L 167.945455 -363.047478 
L 171 -363.155209 
L 174.054545 -363.23953 
L 177.109091 -363.260519 
L 180.163636 -363.463877 
L 183.218182 -363.555657 
L 186.272727 -363.674436 
L 189.327273 -363.675487 
L 192.381818 -363.748178 
L 195.436364 -363.74771 
L 198.490909 -363.74771 
L 201.545455 -363.810474 
L 204.6 -363.869278 
L 207.654545 -363.8711 
L 210.709091 -363.906572 
L 213.763636 -363.974604 
L 216.818182 -364.022639 
L 219.872727 -364.10045 
L 222.927273 -364.10045 
L 225.981818 -364.232171 
L 229.036364 -364.274808 
L 232.090909 -364.313609 
L 235.145455 -364.350226 
L 238.2 -364.350226 
L 241.254545 -364.353245 
L 244.309091 -364.353245 
L 247.363636 -364.37017 
L 250.418182 -364.37017 
L 253.472727 -364.500043 
L 256.527273 -364.500043 
L 259.581818 -364.517975 
L 262.636364 -364.517975 
L 265.690909 -364.574507 
L 268.745455 -364.574507 
L 271.8 -364.574507 
L 274.854545 -364.580162 
L 277.909091 -364.580162 
L 280.963636 -364.629864 
L 284.018182 -364.666333 
L 287.072727 -364.666333 
L 290.127273 -364.666333 
L 293.181818 -364.80832 
L 296.236364 -364.819926 
L 299.290909 -364.819926 
L 302.345455 -364.840973 
L 305.4 -364.840973 
L 308.454545 -364.834814 
L 311.509091 -364.834814 
L 314.563636 -364.868062 
L 317.618182 -364.876925 
L 320.672727 -364.876925 
L 323.727273 -364.876925 
L 326.781818 -364.876925 
L 329.836364 -364.892539 
L 332.890909 -364.892539 
L 335.945455 -364.892539 
L 339 -364.892539 
L 342.054545 -364.976803 
L 345.109091 -364.976803 
L 348.163636 -364.976803 
L 351.218182 -364.976803 
L 354.272727 -365.04 
L 357.327273 -365.04 
L 360.381818 -365.04 
L 363.436364 -365.04 
L 366.490909 -365.04 
L 369.545455 -365.04 
L 372.6 -365.04 
L 372.6 -365.04 
L 372.6 -365.04 
L 369.545455 -365.04 
L 366.490909 -365.04 
L 363.436364 -365.04 
L 360.381818 -365.04 
L 357.327273 -365.04 
L 354.272727 -365.04 
L 351.218182 -365.04 
L 348.163636 -365.04 
L 345.109091 -365.04 
L 342.054545 -365.04 
L 339 -365.04 
L 335.945455 -365.04 
L 332.890909 -365.04 
L 329.836364 -365.04 
L 326.781818 -365.034563 
L 323.727273 -365.034563 
L 320.672727 -365.034563 
L 317.618182 -365.034563 
L 314.563636 -365.001294 
L 311.509091 -364.992425 
L 308.454545 -364.992425 
L 305.4 -364.94415 
L 302.345455 -364.94415 
L 299.290909 -364.923079 
L 296.236364 -364.923079 
L 293.181818 -364.892554 
L 290.127273 -364.823912 
L 287.072727 -364.823912 
L 284.018182 -364.823912 
L 280.963636 -364.818249 
L 277.909091 -364.82582 
L 274.854545 -364.82582 
L 271.8 -364.789343 
L 268.745455 -364.789343 
L 265.690909 -364.789343 
L 262.636364 -364.803743 
L 259.581818 -364.803743 
L 256.527273 -364.779544 
L 253.472727 -364.779544 
L 250.418182 -364.783022 
L 247.363636 -364.783022 
L 244.309091 -364.715713 
L 241.254545 -364.715713 
L 238.2 -364.676614 
L 235.145455 -364.676614 
L 232.090909 -364.628968 
L 229.036364 -364.541388 
L 225.981818 -364.541894 
L 222.927273 -364.462986 
L 219.872727 -364.462986 
L 216.818182 -364.456534 
L 213.763636 -364.462437 
L 210.709091 -364.446221 
L 207.654545 -364.397444 
L 204.6 -364.357134 
L 201.545455 -364.163192 
L 198.490909 -364.057473 
L 195.436364 -364.057473 
L 192.381818 -364.014874 
L 189.327273 -363.961214 
L 186.272727 -363.920134 
L 183.218182 -363.786181 
L 180.163636 -363.709449 
L 177.109091 -363.660061 
L 174.054545 -363.55467 
L 171 -363.554743 
L 167.945455 -363.409713 
L 164.890909 -363.329082 
L 161.836364 -363.088671 
L 158.781818 -362.873382 
L 155.727273 -362.81375 
L 152.672727 -362.728374 
L 149.618182 -362.559825 
L 146.563636 -362.214587 
L 143.509091 -362.065142 
L 140.454545 -361.91858 
L 137.4 -361.899485 
L 134.345455 -361.566389 
L 131.290909 -361.210119 
L 128.236364 -361.012469 
L 125.181818 -360.817813 
L 122.127273 -360.716791 
L 119.072727 -360.363802 
L 116.018182 -359.892474 
L 112.963636 -359.498484 
L 109.909091 -358.844848 
L 106.854545 -358.063784 
L 103.8 -357.478749 
L 100.745455 -356.890472 
L 97.690909 -356.218906 
L 94.636364 -355.13559 
L 91.581818 -353.507545 
L 88.527273 -351.354897 
L 85.472727 -347.937568 
L 82.418182 -342.805656 
L 79.363636 -335.963072 
L 76.309091 -317.788171 
L 73.254545 -272.970819 
L 70.2 -62.64 
z
" style="stroke: #808080; stroke-opacity: 0.2"/>
    </defs>
    <g clip-path="url(#p4768369363)">
     <use xlink:href="#m41d5d51b49" x="0" y="432" style="fill: #808080; fill-opacity: 0.2; stroke: #808080; stroke-opacity: 0.2"/>
    </g>
   </g>
   <g id="matplotlib.axis_1">
    <g id="xtick_1">
     <g id="line2d_1">
      <defs>
       <path id="m9b45d50eb5" d="M 0 0 
L 0 3.5 
" style="stroke: #000000; stroke-width: 0.8"/>
      </defs>
      <g>
       <use xlink:href="#m9b45d50eb5" x="70.2" y="384.48" style="stroke: #000000; stroke-width: 0.8"/>
      </g>
     </g>
     <g id="text_1">
      <!-- 0.0 -->
      <g transform="translate(62.248438 399.078438) scale(0.1 -0.1)">
       <defs>
        <path id="DejaVuSans-30" d="M 2034 4250 
Q 1547 4250 1301 3770 
Q 1056 3291 1056 2328 
Q 1056 1369 1301 889 
Q 1547 409 2034 409 
Q 2525 409 2770 889 
Q 3016 1369 3016 2328 
Q 3016 3291 2770 3770 
Q 2525 4250 2034 4250 
z
M 2034 4750 
Q 2819 4750 3233 4129 
Q 3647 3509 3647 2328 
Q 3647 1150 3233 529 
Q 2819 -91 2034 -91 
Q 1250 -91 836 529 
Q 422 1150 422 2328 
Q 422 3509 836 4129 
Q 1250 4750 2034 4750 
z
" transform="scale(0.015625)"/>
        <path id="DejaVuSans-2e" d="M 684 794 
L 1344 794 
L 1344 0 
L 684 0 
L 684 794 
z
" transform="scale(0.015625)"/>
       </defs>
       <use xlink:href="#DejaVuSans-30"/>
       <use xlink:href="#DejaVuSans-2e" x="63.623047"/>
       <use xlink:href="#DejaVuSans-30" x="95.410156"/>
      </g>
     </g>
    </g>
    <g id="xtick_2">
     <g id="line2d_2">
      <g>
       <use xlink:href="#m9b45d50eb5" x="130.68" y="384.48" style="stroke: #000000; stroke-width: 0.8"/>
      </g>
     </g>
     <g id="text_2">
      <!-- 0.2 -->
      <g transform="translate(122.728438 399.078438) scale(0.1 -0.1)">
       <defs>
        <path id="DejaVuSans-32" d="M 1228 531 
L 3431 531 
L 3431 0 
L 469 0 
L 469 531 
Q 828 903 1448 1529 
Q 2069 2156 2228 2338 
Q 2531 2678 2651 2914 
Q 2772 3150 2772 3378 
Q 2772 3750 2511 3984 
Q 2250 4219 1831 4219 
Q 1534 4219 1204 4116 
Q 875 4013 500 3803 
L 500 4441 
Q 881 4594 1212 4672 
Q 1544 4750 1819 4750 
Q 2544 4750 2975 4387 
Q 3406 4025 3406 3419 
Q 3406 3131 3298 2873 
Q 3191 2616 2906 2266 
Q 2828 2175 2409 1742 
Q 1991 1309 1228 531 
z
" transform="scale(0.015625)"/>
       </defs>
       <use xlink:href="#DejaVuSans-30"/>
       <use xlink:href="#DejaVuSans-2e" x="63.623047"/>
       <use xlink:href="#DejaVuSans-32" x="95.410156"/>
      </g>
     </g>
    </g>
    <g id="xtick_3">
     <g id="line2d_3">
      <g>
       <use xlink:href="#m9b45d50eb5" x="191.16" y="384.48" style="stroke: #000000; stroke-width: 0.8"/>
      </g>
     </g>
     <g id="text_3">
      <!-- 0.4 -->
      <g transform="translate(183.208438 399.078438) scale(0.1 -0.1)">
       <defs>
        <path id="DejaVuSans-34" d="M 2419 4116 
L 825 1625 
L 2419 1625 
L 2419 4116 
z
M 2253 4666 
L 3047 4666 
L 3047 1625 
L 3713 1625 
L 3713 1100 
L 3047 1100 
L 3047 0 
L 2419 0 
L 2419 1100 
L 313 1100 
L 313 1709 
L 2253 4666 
z
" transform="scale(0.015625)"/>
       </defs>
       <use xlink:href="#DejaVuSans-30"/>
       <use xlink:href="#DejaVuSans-2e" x="63.623047"/>
       <use xlink:href="#DejaVuSans-34" x="95.410156"/>
      </g>
     </g>
    </g>
    <g id="xtick_4">
     <g id="line2d_4">
      <g>
       <use xlink:href="#m9b45d50eb5" x="251.64" y="384.48" style="stroke: #000000; stroke-width: 0.8"/>
      </g>
     </g>
     <g id="text_4">
      <!-- 0.6 -->
      <g transform="translate(243.688438 399.078438) scale(0.1 -0.1)">
       <defs>
        <path id="DejaVuSans-36" d="M 2113 2584 
Q 1688 2584 1439 2293 
Q 1191 2003 1191 1497 
Q 1191 994 1439 701 
Q 1688 409 2113 409 
Q 2538 409 2786 701 
Q 3034 994 3034 1497 
Q 3034 2003 2786 2293 
Q 2538 2584 2113 2584 
z
M 3366 4563 
L 3366 3988 
Q 3128 4100 2886 4159 
Q 2644 4219 2406 4219 
Q 1781 4219 1451 3797 
Q 1122 3375 1075 2522 
Q 1259 2794 1537 2939 
Q 1816 3084 2150 3084 
Q 2853 3084 3261 2657 
Q 3669 2231 3669 1497 
Q 3669 778 3244 343 
Q 2819 -91 2113 -91 
Q 1303 -91 875 529 
Q 447 1150 447 2328 
Q 447 3434 972 4092 
Q 1497 4750 2381 4750 
Q 2619 4750 2861 4703 
Q 3103 4656 3366 4563 
z
" transform="scale(0.015625)"/>
       </defs>
       <use xlink:href="#DejaVuSans-30"/>
       <use xlink:href="#DejaVuSans-2e" x="63.623047"/>
       <use xlink:href="#DejaVuSans-36" x="95.410156"/>
      </g>
     </g>
    </g>
    <g id="xtick_5">
     <g id="line2d_5">
      <g>
       <use xlink:href="#m9b45d50eb5" x="312.12" y="384.48" style="stroke: #000000; stroke-width: 0.8"/>
      </g>
     </g>
     <g id="text_5">
      <!-- 0.8 -->
      <g transform="translate(304.168437 399.078438) scale(0.1 -0.1)">
       <defs>
        <path id="DejaVuSans-38" d="M 2034 2216 
Q 1584 2216 1326 1975 
Q 1069 1734 1069 1313 
Q 1069 891 1326 650 
Q 1584 409 2034 409 
Q 2484 409 2743 651 
Q 3003 894 3003 1313 
Q 3003 1734 2745 1975 
Q 2488 2216 2034 2216 
z
M 1403 2484 
Q 997 2584 770 2862 
Q 544 3141 544 3541 
Q 544 4100 942 4425 
Q 1341 4750 2034 4750 
Q 2731 4750 3128 4425 
Q 3525 4100 3525 3541 
Q 3525 3141 3298 2862 
Q 3072 2584 2669 2484 
Q 3125 2378 3379 2068 
Q 3634 1759 3634 1313 
Q 3634 634 3220 271 
Q 2806 -91 2034 -91 
Q 1263 -91 848 271 
Q 434 634 434 1313 
Q 434 1759 690 2068 
Q 947 2378 1403 2484 
z
M 1172 3481 
Q 1172 3119 1398 2916 
Q 1625 2713 2034 2713 
Q 2441 2713 2670 2916 
Q 2900 3119 2900 3481 
Q 2900 3844 2670 4047 
Q 2441 4250 2034 4250 
Q 1625 4250 1398 4047 
Q 1172 3844 1172 3481 
z
" transform="scale(0.015625)"/>
       </defs>
       <use xlink:href="#DejaVuSans-30"/>
       <use xlink:href="#DejaVuSans-2e" x="63.623047"/>
       <use xlink:href="#DejaVuSans-38" x="95.410156"/>
      </g>
     </g>
    </g>
    <g id="xtick_6">
     <g id="line2d_6">
      <g>
       <use xlink:href="#m9b45d50eb5" x="372.6" y="384.48" style="stroke: #000000; stroke-width: 0.8"/>
      </g>
     </g>
     <g id="text_6">
      <!-- 1.0 -->
      <g transform="translate(364.648438 399.078438) scale(0.1 -0.1)">
       <defs>
        <path id="DejaVuSans-31" d="M 794 531 
L 1825 531 
L 1825 4091 
L 703 3866 
L 703 4441 
L 1819 4666 
L 2450 4666 
L 2450 531 
L 3481 531 
L 3481 0 
L 794 0 
L 794 531 
z
" transform="scale(0.015625)"/>
       </defs>
       <use xlink:href="#DejaVuSans-31"/>
       <use xlink:href="#DejaVuSans-2e" x="63.623047"/>
       <use xlink:href="#DejaVuSans-30" x="95.410156"/>
      </g>
     </g>
    </g>
    <g id="text_7">
     <!-- False Positive Rate -->
     <g transform="translate(174.933594 412.756563) scale(0.1 -0.1)">
      <defs>
       <path id="DejaVuSans-46" d="M 628 4666 
L 3309 4666 
L 3309 4134 
L 1259 4134 
L 1259 2759 
L 3109 2759 
L 3109 2228 
L 1259 2228 
L 1259 0 
L 628 0 
L 628 4666 
z
" transform="scale(0.015625)"/>
       <path id="DejaVuSans-61" d="M 2194 1759 
Q 1497 1759 1228 1600 
Q 959 1441 959 1056 
Q 959 750 1161 570 
Q 1363 391 1709 391 
Q 2188 391 2477 730 
Q 2766 1069 2766 1631 
L 2766 1759 
L 2194 1759 
z
M 3341 1997 
L 3341 0 
L 2766 0 
L 2766 531 
Q 2569 213 2275 61 
Q 1981 -91 1556 -91 
Q 1019 -91 701 211 
Q 384 513 384 1019 
Q 384 1609 779 1909 
Q 1175 2209 1959 2209 
L 2766 2209 
L 2766 2266 
Q 2766 2663 2505 2880 
Q 2244 3097 1772 3097 
Q 1472 3097 1187 3025 
Q 903 2953 641 2809 
L 641 3341 
Q 956 3463 1253 3523 
Q 1550 3584 1831 3584 
Q 2591 3584 2966 3190 
Q 3341 2797 3341 1997 
z
" transform="scale(0.015625)"/>
       <path id="DejaVuSans-6c" d="M 603 4863 
L 1178 4863 
L 1178 0 
L 603 0 
L 603 4863 
z
" transform="scale(0.015625)"/>
       <path id="DejaVuSans-73" d="M 2834 3397 
L 2834 2853 
Q 2591 2978 2328 3040 
Q 2066 3103 1784 3103 
Q 1356 3103 1142 2972 
Q 928 2841 928 2578 
Q 928 2378 1081 2264 
Q 1234 2150 1697 2047 
L 1894 2003 
Q 2506 1872 2764 1633 
Q 3022 1394 3022 966 
Q 3022 478 2636 193 
Q 2250 -91 1575 -91 
Q 1294 -91 989 -36 
Q 684 19 347 128 
L 347 722 
Q 666 556 975 473 
Q 1284 391 1588 391 
Q 1994 391 2212 530 
Q 2431 669 2431 922 
Q 2431 1156 2273 1281 
Q 2116 1406 1581 1522 
L 1381 1569 
Q 847 1681 609 1914 
Q 372 2147 372 2553 
Q 372 3047 722 3315 
Q 1072 3584 1716 3584 
Q 2034 3584 2315 3537 
Q 2597 3491 2834 3397 
z
" transform="scale(0.015625)"/>
       <path id="DejaVuSans-65" d="M 3597 1894 
L 3597 1613 
L 953 1613 
Q 991 1019 1311 708 
Q 1631 397 2203 397 
Q 2534 397 2845 478 
Q 3156 559 3463 722 
L 3463 178 
Q 3153 47 2828 -22 
Q 2503 -91 2169 -91 
Q 1331 -91 842 396 
Q 353 884 353 1716 
Q 353 2575 817 3079 
Q 1281 3584 2069 3584 
Q 2775 3584 3186 3129 
Q 3597 2675 3597 1894 
z
M 3022 2063 
Q 3016 2534 2758 2815 
Q 2500 3097 2075 3097 
Q 1594 3097 1305 2825 
Q 1016 2553 972 2059 
L 3022 2063 
z
" transform="scale(0.015625)"/>
       <path id="DejaVuSans-20" transform="scale(0.015625)"/>
       <path id="DejaVuSans-50" d="M 1259 4147 
L 1259 2394 
L 2053 2394 
Q 2494 2394 2734 2622 
Q 2975 2850 2975 3272 
Q 2975 3691 2734 3919 
Q 2494 4147 2053 4147 
L 1259 4147 
z
M 628 4666 
L 2053 4666 
Q 2838 4666 3239 4311 
Q 3641 3956 3641 3272 
Q 3641 2581 3239 2228 
Q 2838 1875 2053 1875 
L 1259 1875 
L 1259 0 
L 628 0 
L 628 4666 
z
" transform="scale(0.015625)"/>
       <path id="DejaVuSans-6f" d="M 1959 3097 
Q 1497 3097 1228 2736 
Q 959 2375 959 1747 
Q 959 1119 1226 758 
Q 1494 397 1959 397 
Q 2419 397 2687 759 
Q 2956 1122 2956 1747 
Q 2956 2369 2687 2733 
Q 2419 3097 1959 3097 
z
M 1959 3584 
Q 2709 3584 3137 3096 
Q 3566 2609 3566 1747 
Q 3566 888 3137 398 
Q 2709 -91 1959 -91 
Q 1206 -91 779 398 
Q 353 888 353 1747 
Q 353 2609 779 3096 
Q 1206 3584 1959 3584 
z
" transform="scale(0.015625)"/>
       <path id="DejaVuSans-69" d="M 603 3500 
L 1178 3500 
L 1178 0 
L 603 0 
L 603 3500 
z
M 603 4863 
L 1178 4863 
L 1178 4134 
L 603 4134 
L 603 4863 
z
" transform="scale(0.015625)"/>
       <path id="DejaVuSans-74" d="M 1172 4494 
L 1172 3500 
L 2356 3500 
L 2356 3053 
L 1172 3053 
L 1172 1153 
Q 1172 725 1289 603 
Q 1406 481 1766 481 
L 2356 481 
L 2356 0 
L 1766 0 
Q 1100 0 847 248 
Q 594 497 594 1153 
L 594 3053 
L 172 3053 
L 172 3500 
L 594 3500 
L 594 4494 
L 1172 4494 
z
" transform="scale(0.015625)"/>
       <path id="DejaVuSans-76" d="M 191 3500 
L 800 3500 
L 1894 563 
L 2988 3500 
L 3597 3500 
L 2284 0 
L 1503 0 
L 191 3500 
z
" transform="scale(0.015625)"/>
       <path id="DejaVuSans-52" d="M 2841 2188 
Q 3044 2119 3236 1894 
Q 3428 1669 3622 1275 
L 4263 0 
L 3584 0 
L 2988 1197 
Q 2756 1666 2539 1819 
Q 2322 1972 1947 1972 
L 1259 1972 
L 1259 0 
L 628 0 
L 628 4666 
L 2053 4666 
Q 2853 4666 3247 4331 
Q 3641 3997 3641 3322 
Q 3641 2881 3436 2590 
Q 3231 2300 2841 2188 
z
M 1259 4147 
L 1259 2491 
L 2053 2491 
Q 2509 2491 2742 2702 
Q 2975 2913 2975 3322 
Q 2975 3731 2742 3939 
Q 2509 4147 2053 4147 
L 1259 4147 
z
" transform="scale(0.015625)"/>
      </defs>
      <use xlink:href="#DejaVuSans-46"/>
      <use xlink:href="#DejaVuSans-61" x="48.394531"/>
      <use xlink:href="#DejaVuSans-6c" x="109.673828"/>
      <use xlink:href="#DejaVuSans-73" x="137.457031"/>
      <use xlink:href="#DejaVuSans-65" x="189.556641"/>
      <use xlink:href="#DejaVuSans-20" x="251.080078"/>
      <use xlink:href="#DejaVuSans-50" x="282.867188"/>
      <use xlink:href="#DejaVuSans-6f" x="339.544922"/>
      <use xlink:href="#DejaVuSans-73" x="400.726562"/>
      <use xlink:href="#DejaVuSans-69" x="452.826172"/>
      <use xlink:href="#DejaVuSans-74" x="480.609375"/>
      <use xlink:href="#DejaVuSans-69" x="519.818359"/>
      <use xlink:href="#DejaVuSans-76" x="547.601562"/>
      <use xlink:href="#DejaVuSans-65" x="606.78125"/>
      <use xlink:href="#DejaVuSans-20" x="668.304688"/>
      <use xlink:href="#DejaVuSans-52" x="700.091797"/>
      <use xlink:href="#DejaVuSans-61" x="767.324219"/>
      <use xlink:href="#DejaVuSans-74" x="828.603516"/>
      <use xlink:href="#DejaVuSans-65" x="867.8125"/>
     </g>
    </g>
   </g>
   <g id="matplotlib.axis_2">
    <g id="ytick_1">
     <g id="line2d_7">
      <defs>
       <path id="mc3d1b5954e" d="M 0 0 
L -3.5 0 
" style="stroke: #000000; stroke-width: 0.8"/>
      </defs>
      <g>
       <use xlink:href="#mc3d1b5954e" x="55.08" y="369.36" style="stroke: #000000; stroke-width: 0.8"/>
      </g>
     </g>
     <g id="text_8">
      <!-- 0.0 -->
      <g transform="translate(32.176875 373.159219) scale(0.1 -0.1)">
       <use xlink:href="#DejaVuSans-30"/>
       <use xlink:href="#DejaVuSans-2e" x="63.623047"/>
       <use xlink:href="#DejaVuSans-30" x="95.410156"/>
      </g>
     </g>
    </g>
    <g id="ytick_2">
     <g id="line2d_8">
      <g>
       <use xlink:href="#mc3d1b5954e" x="55.08" y="308.88" style="stroke: #000000; stroke-width: 0.8"/>
      </g>
     </g>
     <g id="text_9">
      <!-- 0.2 -->
      <g transform="translate(32.176875 312.679219) scale(0.1 -0.1)">
       <use xlink:href="#DejaVuSans-30"/>
       <use xlink:href="#DejaVuSans-2e" x="63.623047"/>
       <use xlink:href="#DejaVuSans-32" x="95.410156"/>
      </g>
     </g>
    </g>
    <g id="ytick_3">
     <g id="line2d_9">
      <g>
       <use xlink:href="#mc3d1b5954e" x="55.08" y="248.4" style="stroke: #000000; stroke-width: 0.8"/>
      </g>
     </g>
     <g id="text_10">
      <!-- 0.4 -->
      <g transform="translate(32.176875 252.199219) scale(0.1 -0.1)">
       <use xlink:href="#DejaVuSans-30"/>
       <use xlink:href="#DejaVuSans-2e" x="63.623047"/>
       <use xlink:href="#DejaVuSans-34" x="95.410156"/>
      </g>
     </g>
    </g>
    <g id="ytick_4">
     <g id="line2d_10">
      <g>
       <use xlink:href="#mc3d1b5954e" x="55.08" y="187.92" style="stroke: #000000; stroke-width: 0.8"/>
      </g>
     </g>
     <g id="text_11">
      <!-- 0.6 -->
      <g transform="translate(32.176875 191.719219) scale(0.1 -0.1)">
       <use xlink:href="#DejaVuSans-30"/>
       <use xlink:href="#DejaVuSans-2e" x="63.623047"/>
       <use xlink:href="#DejaVuSans-36" x="95.410156"/>
      </g>
     </g>
    </g>
    <g id="ytick_5">
     <g id="line2d_11">
      <g>
       <use xlink:href="#mc3d1b5954e" x="55.08" y="127.44" style="stroke: #000000; stroke-width: 0.8"/>
      </g>
     </g>
     <g id="text_12">
      <!-- 0.8 -->
      <g transform="translate(32.176875 131.239219) scale(0.1 -0.1)">
       <use xlink:href="#DejaVuSans-30"/>
       <use xlink:href="#DejaVuSans-2e" x="63.623047"/>
       <use xlink:href="#DejaVuSans-38" x="95.410156"/>
      </g>
     </g>
    </g>
    <g id="ytick_6">
     <g id="line2d_12">
      <g>
       <use xlink:href="#mc3d1b5954e" x="55.08" y="66.96" style="stroke: #000000; stroke-width: 0.8"/>
      </g>
     </g>
     <g id="text_13">
      <!-- 1.0 -->
      <g transform="translate(32.176875 70.759219) scale(0.1 -0.1)">
       <use xlink:href="#DejaVuSans-31"/>
       <use xlink:href="#DejaVuSans-2e" x="63.623047"/>
       <use xlink:href="#DejaVuSans-30" x="95.410156"/>
      </g>
     </g>
    </g>
    <g id="text_14">
     <!-- True Positive Rate -->
     <g transform="translate(26.097187 262.689687) rotate(-90) scale(0.1 -0.1)">
      <defs>
       <path id="DejaVuSans-54" d="M -19 4666 
L 3928 4666 
L 3928 4134 
L 2272 4134 
L 2272 0 
L 1638 0 
L 1638 4134 
L -19 4134 
L -19 4666 
z
" transform="scale(0.015625)"/>
       <path id="DejaVuSans-72" d="M 2631 2963 
Q 2534 3019 2420 3045 
Q 2306 3072 2169 3072 
Q 1681 3072 1420 2755 
Q 1159 2438 1159 1844 
L 1159 0 
L 581 0 
L 581 3500 
L 1159 3500 
L 1159 2956 
Q 1341 3275 1631 3429 
Q 1922 3584 2338 3584 
Q 2397 3584 2469 3576 
Q 2541 3569 2628 3553 
L 2631 2963 
z
" transform="scale(0.015625)"/>
       <path id="DejaVuSans-75" d="M 544 1381 
L 544 3500 
L 1119 3500 
L 1119 1403 
Q 1119 906 1312 657 
Q 1506 409 1894 409 
Q 2359 409 2629 706 
Q 2900 1003 2900 1516 
L 2900 3500 
L 3475 3500 
L 3475 0 
L 2900 0 
L 2900 538 
Q 2691 219 2414 64 
Q 2138 -91 1772 -91 
Q 1169 -91 856 284 
Q 544 659 544 1381 
z
M 1991 3584 
L 1991 3584 
z
" transform="scale(0.015625)"/>
      </defs>
      <use xlink:href="#DejaVuSans-54"/>
      <use xlink:href="#DejaVuSans-72" x="46.333984"/>
      <use xlink:href="#DejaVuSans-75" x="87.447266"/>
      <use xlink:href="#DejaVuSans-65" x="150.826172"/>
      <use xlink:href="#DejaVuSans-20" x="212.349609"/>
      <use xlink:href="#DejaVuSans-50" x="244.136719"/>
      <use xlink:href="#DejaVuSans-6f" x="300.814453"/>
      <use xlink:href="#DejaVuSans-73" x="361.996094"/>
      <use xlink:href="#DejaVuSans-69" x="414.095703"/>
      <use xlink:href="#DejaVuSans-74" x="441.878906"/>
      <use xlink:href="#DejaVuSans-69" x="481.087891"/>
      <use xlink:href="#DejaVuSans-76" x="508.871094"/>
      <use xlink:href="#DejaVuSans-65" x="568.050781"/>
      <use xlink:href="#DejaVuSans-20" x="629.574219"/>
      <use xlink:href="#DejaVuSans-52" x="661.361328"/>
      <use xlink:href="#DejaVuSans-61" x="728.59375"/>
      <use xlink:href="#DejaVuSans-74" x="789.873047"/>
      <use xlink:href="#DejaVuSans-65" x="829.082031"/>
     </g>
    </g>
   </g>
   <g id="line2d_13">
    <path d="M 70.2 369.36 
L 70.305219 316.063448 
L 70.410438 316.063448 
L 70.515658 281.199498 
L 70.620877 281.199498 
L 70.726096 267.085392 
L 70.831315 267.085392 
L 70.936534 259.396364 
L 71.041754 259.396364 
L 71.146973 255.920502 
L 71.252192 255.920502 
L 71.357411 242.965016 
L 71.46263 242.965016 
L 71.56785 236.22395 
L 71.673069 236.22395 
L 71.778288 216.738056 
L 71.883507 216.738056 
L 71.883507 215.474107 
L 72.199165 215.474107 
L 72.304384 199.569404 
L 72.409603 199.569404 
L 72.514823 183.454044 
L 72.620042 183.454044 
L 72.725261 179.346207 
L 72.83048 179.346207 
L 72.935699 172.183824 
L 73.040919 172.183824 
L 73.146138 166.706708 
L 73.251357 166.706708 
L 73.356576 164.178809 
L 73.461795 164.178809 
L 73.567015 155.015172 
L 73.672234 155.015172 
L 73.777453 145.746207 
L 73.882672 145.746207 
L 73.987891 133.738683 
L 74.093111 133.738683 
L 74.19833 131.842759 
L 74.303549 131.842759 
L 74.408768 130.789467 
L 74.513987 130.789467 
L 74.619207 129.104201 
L 74.724426 129.104201 
L 74.829645 127.629592 
L 74.934864 127.629592 
L 75.040084 120.045893 
L 75.46096 119.940564 
L 75.56618 117.833981 
L 75.776618 117.728652 
L 75.776618 116.886019 
L 75.987056 116.886019 
L 76.092276 112.98884 
L 76.197495 112.98884 
L 76.302714 110.987586 
L 76.407933 110.987586 
L 76.513152 109.618307 
L 76.618372 109.618307 
L 76.723591 107.617053 
L 76.82881 107.617053 
L 76.934029 106.985078 
L 77.039248 106.985078 
L 77.144468 104.141191 
L 77.249687 104.141191 
L 77.249687 103.825204 
L 77.460125 103.825204 
L 77.565344 103.509216 
L 77.775783 103.509216 
L 77.881002 101.613292 
L 77.986221 101.613292 
L 77.986221 101.297304 
L 78.19666 101.297304 
L 78.301879 100.875987 
L 78.512317 100.875987 
L 78.617537 100.138683 
L 78.722756 100.138683 
L 78.827975 99.612038 
L 78.933194 99.612038 
L 79.038413 98.980063 
L 79.354071 98.874734 
L 79.354071 98.664075 
L 79.669729 98.664075 
L 79.669729 97.294796 
L 79.985386 97.294796 
L 80.090605 96.87348 
L 80.195825 96.87348 
L 80.301044 95.504201 
L 80.616701 95.398871 
L 80.721921 94.766897 
L 80.82714 94.766897 
L 80.932359 93.397618 
L 81.248017 93.292288 
L 81.353236 92.765643 
L 81.458455 92.765643 
L 81.458455 92.554984 
L 81.879332 92.449655 
L 81.984551 92.238997 
L 82.300209 92.238997 
L 82.405428 91.396364 
L 82.721086 91.291034 
L 82.826305 90.132414 
L 83.036743 90.027085 
L 83.141962 88.552476 
L 83.45762 88.552476 
L 83.45762 88.236489 
L 83.773278 88.236489 
L 83.878497 87.499185 
L 84.194154 87.499185 
L 84.299374 86.761881 
L 84.720251 86.656552 
L 84.82547 86.340564 
L 84.930689 86.340564 
L 85.035908 85.708589 
L 85.351566 85.60326 
L 85.456785 85.392602 
L 85.667223 85.392602 
L 85.772443 84.865956 
L 86.193319 84.865956 
L 86.298539 84.128652 
L 86.403758 84.128652 
L 86.403758 83.917994 
L 86.824635 83.812665 
L 86.824635 83.707335 
L 87.140292 83.602006 
L 87.245511 83.075361 
L 87.350731 83.075361 
L 87.350731 82.864702 
L 87.876827 82.759373 
L 87.876827 82.654044 
L 88.297704 82.548715 
L 88.297704 82.338056 
L 89.244676 82.232727 
L 89.244676 82.127398 
L 89.875992 82.022069 
L 89.981211 81.390094 
L 90.402088 81.284765 
L 90.402088 81.179436 
L 90.717745 81.179436 
L 90.822965 80.863448 
L 91.45428 80.758119 
L 91.559499 80.442132 
L 92.296033 80.442132 
L 92.296033 80.126144 
L 92.71691 80.020815 
L 92.71691 79.915486 
L 93.348225 79.810157 
L 93.348225 79.704828 
L 93.558664 79.704828 
L 93.558664 79.494169 
L 94.189979 79.38884 
L 94.189979 79.283511 
L 94.821294 79.178182 
L 94.926514 78.862194 
L 95.031733 78.862194 
L 95.031733 78.651536 
L 95.45261 78.546207 
L 95.45261 78.440878 
L 95.663048 78.440878 
L 95.663048 78.230219 
L 96.083925 78.12489 
L 96.189144 77.703574 
L 96.71524 77.598245 
L 96.820459 77.282257 
L 97.977871 77.176928 
L 97.977871 77.071599 
L 98.924843 76.96627 
L 98.924843 76.86094 
L 99.871816 76.755611 
L 99.871816 76.334295 
L 101.765762 76.228966 
L 101.870981 76.018307 
L 102.607516 75.912978 
L 102.607516 75.807649 
L 103.659708 75.70232 
L 103.659708 75.491661 
L 104.817119 75.491661 
L 104.817119 75.281003 
L 105.448434 75.175674 
L 105.448434 75.070345 
L 107.237161 74.965016 
L 107.237161 74.859687 
L 108.184134 74.754357 
L 108.184134 74.649028 
L 109.025887 74.649028 
L 109.025887 74.43837 
L 109.551983 74.43837 
L 109.551983 74.227712 
L 109.867641 74.122382 
L 109.97286 73.911724 
L 110.288518 73.911724 
L 110.288518 73.701066 
L 110.814614 73.595737 
L 110.814614 73.490408 
L 112.918998 73.385078 
L 112.918998 73.279749 
L 115.128601 73.17442 
L 115.128601 73.069091 
L 117.127766 72.963762 
L 117.127766 72.858433 
L 121.020877 72.753103 
L 121.020877 72.542445 
L 122.073069 72.542445 
L 122.073069 72.331787 
L 122.388727 72.331787 
L 122.388727 72.121129 
L 122.809603 72.015799 
L 122.809603 71.91047 
L 128.070564 71.805141 
L 128.070564 71.699812 
L 128.912317 71.594483 
L 128.912317 71.489154 
L 133.541962 71.383824 
L 133.541962 71.278495 
L 137.329854 71.173166 
L 137.329854 71.067837 
L 141.117745 70.962508 
L 141.117745 70.857179 
L 145.431733 70.75185 
L 145.431733 70.64652 
L 147.956994 70.541191 
L 147.956994 70.435862 
L 150.482255 70.330533 
L 150.482255 70.225204 
L 157.111065 70.119875 
L 157.111065 70.014545 
L 157.637161 69.909216 
L 157.637161 69.803887 
L 161.530271 69.698558 
L 161.530271 69.593229 
L 162.898121 69.4879 
L 162.898121 69.382571 
L 163.213779 69.382571 
L 163.213779 69.066583 
L 167.106889 68.961254 
L 167.106889 68.855925 
L 168.895616 68.750596 
L 168.895616 68.645266 
L 178.99666 68.539937 
L 178.99666 68.434608 
L 184.468058 68.329279 
L 184.468058 68.22395 
L 187.519415 68.118621 
L 187.519415 68.013292 
L 201.829228 67.907962 
L 201.829228 67.802633 
L 206.984969 67.697304 
L 206.984969 67.591975 
L 229.501879 67.486646 
L 229.501879 67.381317 
L 290.4238 67.275987 
L 290.4238 67.170658 
L 314.834656 67.065329 
L 314.834656 66.96 
L 372.6 66.96 
L 372.6 66.96 
" clip-path="url(#p4768369363)" style="fill: none; stroke: #1f77b4; stroke-opacity: 0.3; stroke-linecap: square"/>
   </g>
   <g id="line2d_14">
    <path d="M 70.2 369.36 
L 70.305219 350.506082 
L 70.410438 350.506082 
L 70.515658 287.835235 
L 70.620877 287.835235 
L 70.726096 266.769404 
L 70.831315 266.769404 
L 70.936534 259.712351 
L 71.041754 259.712351 
L 71.146973 247.38884 
L 71.252192 247.38884 
L 71.357411 221.688527 
L 71.46263 221.688527 
L 71.56785 186.929906 
L 71.673069 186.929906 
L 71.778288 179.978182 
L 71.883507 179.978182 
L 71.988727 176.396991 
L 72.093946 176.396991 
L 72.199165 172.289154 
L 72.304384 172.289154 
L 72.409603 167.022696 
L 72.514823 167.022696 
L 72.620042 163.757492 
L 72.725261 163.757492 
L 72.83048 162.072226 
L 72.935699 162.072226 
L 73.040919 161.334922 
L 73.146138 161.334922 
L 73.251357 159.333668 
L 73.461795 159.228339 
L 73.567015 157.437743 
L 73.672234 157.437743 
L 73.777453 147.536803 
L 73.882672 147.536803 
L 73.987891 144.692915 
L 74.093111 144.692915 
L 74.19833 140.901066 
L 74.303549 140.901066 
L 74.408768 138.794483 
L 74.513987 138.794483 
L 74.619207 135.42395 
L 74.724426 135.42395 
L 74.829645 135.002633 
L 74.934864 135.002633 
L 75.040084 127.734922 
L 75.145303 127.734922 
L 75.250522 124.680376 
L 75.355741 124.680376 
L 75.46096 122.573793 
L 75.56618 122.573793 
L 75.671399 120.045893 
L 75.881837 120.045893 
L 75.987056 117.517994 
L 76.197495 117.517994 
L 76.302714 116.570031 
L 76.407933 116.570031 
L 76.407933 115.832727 
L 76.618372 115.832727 
L 76.723591 111.303574 
L 76.82881 111.303574 
L 76.934029 106.879749 
L 77.144468 106.77442 
L 77.249687 103.298558 
L 77.354906 103.298558 
L 77.460125 100.981317 
L 77.565344 100.981317 
L 77.670564 98.242759 
L 77.881002 98.242759 
L 77.986221 97.610784 
L 78.091441 97.610784 
L 78.19666 97.084138 
L 78.301879 97.084138 
L 78.407098 95.714859 
L 78.512317 95.714859 
L 78.617537 94.977555 
L 78.722756 94.977555 
L 78.827975 94.240251 
L 79.038413 94.240251 
L 79.038413 94.029592 
L 79.354071 93.924263 
L 79.45929 92.765643 
L 79.564509 92.765643 
L 79.669729 91.923009 
L 79.880167 91.81768 
L 79.985386 91.185705 
L 80.090605 91.185705 
L 80.195825 90.448401 
L 80.301044 90.448401 
L 80.406263 89.605768 
L 80.511482 89.605768 
L 80.616701 88.657806 
L 80.82714 88.552476 
L 80.932359 88.236489 
L 81.037578 88.236489 
L 81.037578 87.815172 
L 81.668894 87.709843 
L 81.774113 87.393856 
L 81.879332 87.393856 
L 81.879332 87.183197 
L 82.510647 87.077868 
L 82.615866 86.235235 
L 83.036743 86.129906 
L 83.141962 85.497931 
L 83.45762 85.392602 
L 83.562839 85.181944 
L 83.983716 85.076614 
L 84.088935 84.655298 
L 84.194154 84.655298 
L 84.299374 83.707335 
L 84.615031 83.707335 
L 84.720251 83.391348 
L 85.141127 83.286019 
L 85.141127 83.075361 
L 85.351566 83.075361 
L 85.351566 82.864702 
L 85.667223 82.864702 
L 85.667223 82.654044 
L 86.508977 82.548715 
L 86.508977 82.232727 
L 86.929854 82.232727 
L 87.035073 81.390094 
L 87.245511 81.390094 
L 87.245511 81.179436 
L 87.666388 81.074107 
L 87.771608 80.65279 
L 88.087265 80.547461 
L 88.087265 80.231473 
L 88.613361 80.126144 
L 88.613361 80.020815 
L 88.8238 80.020815 
L 88.929019 79.494169 
L 89.244676 79.38884 
L 89.244676 79.178182 
L 89.560334 79.178182 
L 89.665553 78.651536 
L 89.875992 78.651536 
L 89.981211 78.335549 
L 90.191649 78.335549 
L 90.191649 78.12489 
L 90.507307 78.12489 
L 90.507307 77.808903 
L 91.349061 77.703574 
L 91.349061 77.598245 
L 91.875157 77.492915 
L 91.875157 77.282257 
L 92.506472 77.176928 
L 92.611691 76.650282 
L 92.822129 76.544953 
L 92.822129 76.439624 
L 93.348225 76.439624 
L 93.348225 76.228966 
L 94.610856 76.123636 
L 94.610856 75.912978 
L 94.926514 75.912978 
L 94.926514 75.70232 
L 95.978706 75.70232 
L 95.978706 75.491661 
L 96.504802 75.491661 
L 96.504802 75.281003 
L 97.241336 75.175674 
L 97.241336 75.070345 
L 98.609186 75.070345 
L 98.609186 74.859687 
L 99.34572 74.754357 
L 99.34572 74.649028 
L 100.71357 74.543699 
L 100.71357 74.333041 
L 101.134447 74.333041 
L 101.134447 74.122382 
L 103.238831 74.017053 
L 103.238831 73.911724 
L 104.7119 73.806395 
L 104.7119 73.701066 
L 105.553653 73.701066 
L 105.553653 73.490408 
L 107.34238 73.385078 
L 107.34238 73.279749 
L 108.394572 73.17442 
L 108.394572 72.963762 
L 108.815449 72.858433 
L 108.815449 72.753103 
L 109.97286 72.647774 
L 109.97286 72.542445 
L 111.34071 72.437116 
L 111.34071 72.331787 
L 113.129436 72.226458 
L 113.129436 72.121129 
L 114.812944 72.015799 
L 114.812944 71.91047 
L 115.33904 71.805141 
L 115.33904 71.699812 
L 117.127766 71.594483 
L 117.232985 71.383824 
L 118.706054 71.278495 
L 118.706054 71.173166 
L 119.126931 71.067837 
L 119.23215 70.857179 
L 127.860125 70.75185 
L 127.860125 70.64652 
L 132.279332 70.541191 
L 132.384551 70.330533 
L 133.436743 70.225204 
L 133.436743 70.119875 
L 139.539457 70.014545 
L 139.539457 69.909216 
L 145.116075 69.803887 
L 145.116075 69.698558 
L 148.272651 69.593229 
L 148.272651 69.4879 
L 148.798747 69.382571 
L 148.798747 69.277241 
L 156.058873 69.171912 
L 156.058873 69.066583 
L 159.425887 68.961254 
L 159.425887 68.855925 
L 167.00167 68.750596 
L 167.00167 68.645266 
L 168.474739 68.539937 
L 168.474739 68.434608 
L 175.313987 68.329279 
L 175.313987 68.22395 
L 209.194572 68.118621 
L 209.194572 68.013292 
L 218.138205 67.907962 
L 218.138205 67.802633 
L 229.501879 67.697304 
L 229.501879 67.591975 
L 234.552401 67.486646 
L 234.552401 67.381317 
L 274.009603 67.275987 
L 274.009603 67.170658 
L 354.186639 67.065329 
L 354.186639 66.96 
L 372.6 66.96 
L 372.6 66.96 
" clip-path="url(#p4768369363)" style="fill: none; stroke: #ff7f0e; stroke-opacity: 0.3; stroke-linecap: square"/>
   </g>
   <g id="line2d_15">
    <path d="M 70.2 369.36 
L 70.305219 369.36 
L 70.410438 347.978182 
L 70.515658 347.978182 
L 70.620877 339.130533 
L 70.726096 339.130533 
L 70.831315 296.682884 
L 70.936534 296.682884 
L 71.041754 276.775674 
L 71.146973 276.775674 
L 71.252192 260.660313 
L 71.357411 260.660313 
L 71.46263 238.435862 
L 71.56785 238.435862 
L 71.673069 227.586959 
L 71.778288 227.586959 
L 71.883507 217.896677 
L 71.988727 217.896677 
L 72.093946 212.314232 
L 72.199165 212.314232 
L 72.304384 208.101066 
L 72.409603 208.101066 
L 72.514823 201.36 
L 72.620042 201.36 
L 72.725261 197.884138 
L 72.83048 197.884138 
L 72.935699 187.245893 
L 73.040919 187.245893 
L 73.146138 179.556865 
L 73.356576 179.451536 
L 73.461795 177.028966 
L 73.567015 177.028966 
L 73.672234 169.339937 
L 73.777453 169.339937 
L 73.882672 164.389467 
L 73.987891 164.389467 
L 74.093111 163.546834 
L 74.19833 163.546834 
L 74.303549 162.282884 
L 74.408768 162.282884 
L 74.513987 160.28163 
L 74.619207 160.28163 
L 74.619207 157.016426 
L 74.829645 157.016426 
L 74.934864 149.643386 
L 75.040084 149.643386 
L 75.145303 142.90232 
L 75.250522 142.90232 
L 75.355741 141.217053 
L 75.46096 141.217053 
L 75.56618 139.637116 
L 75.671399 139.637116 
L 75.776618 138.373166 
L 75.881837 138.373166 
L 75.987056 137.530533 
L 76.092276 137.530533 
L 76.197495 130.684138 
L 76.302714 130.684138 
L 76.407933 130.262821 
L 76.513152 130.262821 
L 76.618372 123.943072 
L 76.723591 123.943072 
L 76.82881 122.152476 
L 77.144468 122.047147 
L 77.249687 120.888527 
L 77.354906 120.888527 
L 77.460125 118.360627 
L 77.565344 118.360627 
L 77.565344 117.833981 
L 77.775783 117.833981 
L 77.881002 116.359373 
L 77.986221 116.359373 
L 78.091441 112.356865 
L 78.19666 112.356865 
L 78.301879 111.514232 
L 78.617537 111.408903 
L 78.722756 109.091661 
L 78.827975 109.091661 
L 78.933194 106.458433 
L 79.038413 106.458433 
L 79.143633 105.405141 
L 79.248852 105.405141 
L 79.354071 104.35185 
L 79.669729 104.35185 
L 79.774948 103.0879 
L 79.985386 102.982571 
L 79.985386 102.666583 
L 80.301044 102.666583 
L 80.406263 101.929279 
L 80.511482 101.929279 
L 80.616701 100.349342 
L 80.721921 100.349342 
L 80.721921 100.138683 
L 80.932359 100.138683 
L 81.037578 99.190721 
L 81.142797 99.190721 
L 81.248017 97.400125 
L 81.458455 97.294796 
L 81.458455 96.136176 
L 81.668894 96.136176 
L 81.774113 95.714859 
L 81.984551 95.714859 
L 81.984551 95.398871 
L 82.19499 95.398871 
L 82.300209 94.029592 
L 82.405428 94.029592 
L 82.510647 93.713605 
L 82.615866 93.713605 
L 82.721086 92.976301 
L 83.141962 92.976301 
L 83.141962 92.449655 
L 83.45762 92.344326 
L 83.562839 91.712351 
L 83.773278 91.712351 
L 83.878497 91.291034 
L 83.983716 91.291034 
L 84.088935 90.65906 
L 84.194154 90.65906 
L 84.194154 90.343072 
L 84.615031 90.237743 
L 84.720251 90.027085 
L 85.035908 89.921755 
L 85.035908 89.711097 
L 85.456785 89.711097 
L 85.456785 89.289781 
L 85.982881 89.184451 
L 86.0881 88.552476 
L 86.403758 88.447147 
L 86.403758 88.341818 
L 86.824635 88.236489 
L 86.929854 87.920502 
L 87.035073 87.920502 
L 87.035073 87.709843 
L 87.245511 87.709843 
L 87.245511 87.393856 
L 87.666388 87.288527 
L 87.666388 87.077868 
L 87.876827 87.077868 
L 87.876827 86.551223 
L 88.402923 86.445893 
L 88.402923 86.340564 
L 88.613361 86.340564 
L 88.613361 86.024577 
L 88.929019 85.919248 
L 89.034238 85.392602 
L 89.455115 85.392602 
L 89.455115 85.181944 
L 89.665553 85.181944 
L 89.665553 84.549969 
L 90.507307 84.444639 
L 90.507307 84.33931 
L 90.928184 84.233981 
L 90.928184 84.023323 
L 91.138622 84.023323 
L 91.243841 83.18069 
L 91.664718 83.075361 
L 91.769937 82.864702 
L 91.875157 82.864702 
L 91.980376 82.443386 
L 92.085595 82.443386 
L 92.085595 82.022069 
L 92.611691 81.91674 
L 92.611691 81.706082 
L 92.822129 81.706082 
L 92.822129 81.495423 
L 93.032568 81.495423 
L 93.032568 81.179436 
L 93.874322 81.074107 
L 93.874322 80.758119 
L 94.08476 80.758119 
L 94.08476 80.547461 
L 94.716075 80.442132 
L 94.821294 80.126144 
L 94.926514 80.126144 
L 94.926514 79.915486 
L 95.768267 79.810157 
L 95.873486 79.283511 
L 97.767432 79.178182 
L 97.767432 79.072853 
L 97.977871 79.072853 
L 97.977871 78.862194 
L 98.503967 78.756865 
L 98.609186 78.440878 
L 98.924843 78.440878 
L 98.924843 78.12489 
L 99.450939 78.019561 
L 99.450939 77.914232 
L 99.977035 77.914232 
L 99.977035 77.703574 
L 100.187474 77.703574 
L 100.187474 77.492915 
L 100.818789 77.387586 
L 100.818789 77.176928 
L 102.186639 77.071599 
L 102.291858 76.86094 
L 102.817954 76.755611 
L 102.817954 76.544953 
L 103.34405 76.544953 
L 103.34405 76.334295 
L 103.554489 76.334295 
L 103.554489 76.123636 
L 103.870146 76.123636 
L 103.870146 75.912978 
L 105.237996 75.807649 
L 105.237996 75.70232 
L 106.921503 75.596991 
L 106.921503 75.491661 
L 108.60501 75.386332 
L 108.60501 75.281003 
L 109.551983 75.175674 
L 109.551983 74.965016 
L 111.866806 74.859687 
L 111.866806 74.649028 
L 112.392902 74.543699 
L 112.498121 74.333041 
L 113.760752 74.227712 
L 113.760752 74.122382 
L 115.23382 74.017053 
L 115.23382 73.911724 
L 115.759916 73.911724 
L 115.759916 73.701066 
L 116.075574 73.701066 
L 116.180793 73.385078 
L 116.917328 73.279749 
L 117.022547 73.069091 
L 117.96952 72.963762 
L 117.96952 72.858433 
L 119.23215 72.753103 
L 119.23215 72.542445 
L 121.231315 72.437116 
L 121.231315 72.331787 
L 122.809603 72.331787 
L 122.809603 72.121129 
L 125.650522 72.015799 
L 125.650522 71.91047 
L 126.176618 71.805141 
L 126.281837 71.594483 
L 128.175783 71.489154 
L 128.175783 71.383824 
L 129.333194 71.278495 
L 129.333194 71.173166 
L 131.437578 71.067837 
L 131.437578 70.962508 
L 134.173278 70.857179 
L 134.173278 70.75185 
L 135.751566 70.64652 
L 135.856785 70.435862 
L 136.698539 70.330533 
L 136.698539 70.225204 
L 141.538622 70.119875 
L 141.538622 70.014545 
L 146.694363 69.909216 
L 146.694363 69.803887 
L 149.74572 69.698558 
L 149.74572 69.593229 
L 155.848434 69.4879 
L 155.848434 69.382571 
L 163.108559 69.277241 
L 163.108559 69.171912 
L 163.634656 69.066583 
L 163.634656 68.961254 
L 173.735699 68.855925 
L 173.735699 68.750596 
L 179.733194 68.645266 
L 179.733194 68.539937 
L 182.99499 68.539937 
L 182.99499 68.329279 
L 212.666806 68.22395 
L 212.666806 68.118621 
L 223.188727 68.013292 
L 223.188727 67.907962 
L 252.650104 67.802633 
L 252.650104 67.697304 
L 265.17119 67.591975 
L 265.17119 67.486646 
L 283.163674 67.381317 
L 283.163674 67.275987 
L 296.105637 67.170658 
L 296.105637 67.065329 
L 372.6 66.96 
L 372.6 66.96 
" clip-path="url(#p4768369363)" style="fill: none; stroke: #2ca02c; stroke-opacity: 0.3; stroke-linecap: square"/>
   </g>
   <g id="line2d_16">
    <path d="M 70.2 369.36 
L 70.305256 267.331588 
L 70.410512 267.331588 
L 70.515767 259.645237 
L 70.621023 259.645237 
L 70.726279 234.375042 
L 70.831535 234.375042 
L 70.936791 209.315432 
L 71.042047 209.315432 
L 71.147302 200.260279 
L 71.252558 200.260279 
L 71.357814 185.835209 
L 71.46307 185.835209 
L 71.568326 183.308189 
L 71.673582 183.308189 
L 71.778837 180.36 
L 71.884093 180.36 
L 71.989349 176.780056 
L 72.094605 176.780056 
L 72.199861 172.568357 
L 72.305117 172.568357 
L 72.410372 168.04078 
L 72.515628 168.04078 
L 72.620884 165.197883 
L 72.72614 165.197883 
L 72.831396 164.776713 
L 72.936652 164.776713 
L 73.041907 162.249694 
L 73.147163 162.249694 
L 73.252419 160.038552 
L 73.357675 160.038552 
L 73.462931 148.877549 
L 73.778698 148.772256 
L 73.883954 145.402897 
L 73.98921 145.402897 
L 74.094466 144.455265 
L 74.199722 144.455265 
L 74.304977 140.348858 
L 74.410233 140.348858 
L 74.515489 135.505404 
L 74.726001 135.505404 
L 74.831257 134.136602 
L 74.936512 134.136602 
L 75.041768 132.34663 
L 75.147024 132.34663 
L 75.25228 131.08312 
L 75.462792 130.977827 
L 75.462792 129.187855 
L 75.673303 129.187855 
L 75.778559 127.292591 
L 75.883815 127.292591 
L 75.989071 125.081448 
L 76.094326 125.081448 
L 76.199582 122.343844 
L 76.410094 122.238552 
L 76.51535 120.448579 
L 76.620606 120.448579 
L 76.725861 119.500947 
L 76.831117 119.500947 
L 76.936373 117.395097 
L 77.041629 117.395097 
L 77.146885 115.499833 
L 77.252141 115.499833 
L 77.357396 111.814596 
L 77.462652 111.814596 
L 77.462652 111.393426 
L 77.673164 111.393426 
L 77.77842 110.656379 
L 77.883676 110.656379 
L 77.988931 109.287577 
L 78.094187 109.287577 
L 78.199443 108.445237 
L 78.304699 108.445237 
L 78.409955 106.86585 
L 78.515211 106.86585 
L 78.620466 105.918217 
L 78.725722 105.918217 
L 78.830978 104.865292 
L 78.936234 104.865292 
L 79.04149 104.549415 
L 79.146746 104.549415 
L 79.252001 103.812368 
L 79.357257 103.812368 
L 79.462513 102.970028 
L 79.673025 102.970028 
L 79.778281 102.232981 
L 79.883536 102.232981 
L 79.988792 101.074763 
L 80.094048 101.074763 
L 80.199304 100.443008 
L 80.30456 100.443008 
L 80.30456 99.074206 
L 80.620327 99.074206 
L 80.725583 96.863064 
L 80.936095 96.863064 
L 81.041351 96.547187 
L 81.146606 96.547187 
L 81.146606 95.494262 
L 81.56763 95.388969 
L 81.672885 94.12546 
L 81.778141 94.12546 
L 81.883397 93.493705 
L 81.988653 93.493705 
L 82.093909 92.967242 
L 82.199165 92.967242 
L 82.30442 92.335487 
L 82.514932 92.230195 
L 82.620188 91.282563 
L 82.725444 91.282563 
L 82.725444 90.650808 
L 82.935955 90.650808 
L 83.041211 89.91376 
L 83.146467 89.91376 
L 83.251723 89.597883 
L 83.462235 89.492591 
L 83.462235 89.387298 
L 83.883258 89.282006 
L 83.988514 87.913203 
L 84.199025 87.807911 
L 84.304281 87.176156 
L 84.514793 87.070864 
L 84.514793 86.860279 
L 84.83056 86.754986 
L 84.935816 86.333816 
L 85.251584 86.228524 
L 85.35684 86.017939 
L 85.462095 86.017939 
L 85.462095 85.807354 
L 85.672607 85.807354 
L 85.777863 85.175599 
L 85.988375 85.175599 
L 86.09363 84.859721 
L 86.409398 84.859721 
L 86.409398 84.333259 
L 86.61991 84.333259 
L 86.61991 83.806797 
L 86.935677 83.701504 
L 86.935677 83.596212 
L 87.251444 83.490919 
L 87.251444 83.280334 
L 87.461956 83.280334 
L 87.567212 82.648579 
L 87.777724 82.648579 
L 87.777724 82.332702 
L 88.093491 82.227409 
L 88.198747 81.911532 
L 88.304003 81.911532 
L 88.304003 81.595655 
L 88.514514 81.595655 
L 88.514514 81.174485 
L 88.830282 81.069192 
L 88.935538 80.54273 
L 89.461817 80.437437 
L 89.567073 80.226852 
L 90.198608 80.12156 
L 90.198608 80.016267 
L 90.619631 80.016267 
L 90.724887 79.595097 
L 91.040654 79.489805 
L 91.040654 79.384513 
L 91.672189 79.27922 
L 91.777445 78.752758 
L 92.198468 78.752758 
L 92.303724 78.226295 
L 92.724748 78.121003 
L 92.724748 78.01571 
L 93.040515 78.01571 
L 93.040515 77.805125 
L 93.777306 77.699833 
L 93.777306 77.59454 
L 93.987818 77.59454 
L 93.987818 77.383955 
L 95.040376 77.278663 
L 95.145632 77.068078 
L 95.777167 76.962786 
L 95.777167 76.857493 
L 97.145493 76.857493 
L 97.145493 76.646908 
L 97.566516 76.541616 
L 97.566516 76.331031 
L 99.145353 76.225738 
L 99.145353 76.120446 
L 100.303167 76.015153 
L 100.303167 75.909861 
L 101.460982 75.804568 
L 101.460982 75.593983 
L 101.671493 75.593983 
L 101.671493 75.383398 
L 102.303028 75.278106 
L 102.303028 75.172813 
L 104.302889 75.067521 
L 104.302889 74.962228 
L 105.460703 74.856936 
L 105.460703 74.751643 
L 106.618517 74.646351 
L 106.618517 74.541058 
L 106.829029 74.541058 
L 106.829029 74.330474 
L 107.460564 74.225181 
L 107.460564 74.119889 
L 108.407866 74.014596 
L 108.407866 73.909304 
L 108.82889 73.804011 
L 108.82889 73.698719 
L 110.197215 73.593426 
L 110.197215 73.382841 
L 110.934006 73.277549 
L 111.039262 73.066964 
L 112.09182 72.961671 
L 112.09182 72.856379 
L 112.933867 72.751086 
L 112.933867 72.645794 
L 114.407449 72.540501 
L 114.407449 72.435209 
L 116.512565 72.329916 
L 116.617821 72.119331 
L 121.775357 72.014039 
L 121.775357 71.908747 
L 125.143543 71.803454 
L 125.143543 71.698162 
L 129.143265 71.592869 
L 129.143265 71.487577 
L 133.037731 71.382284 
L 133.142986 71.171699 
L 133.669266 71.066407 
L 133.669266 70.961114 
L 134.82708 70.855822 
L 134.82708 70.750529 
L 137.35322 70.645237 
L 137.35322 70.539944 
L 144.194849 70.434652 
L 144.194849 70.329359 
L 145.036895 70.224067 
L 145.036895 70.118774 
L 146.9315 70.013482 
L 146.9315 69.908189 
L 149.352384 69.802897 
L 149.352384 69.697604 
L 155.246711 69.592312 
L 155.351967 69.381727 
L 158.825409 69.381727 
L 158.825409 69.171142 
L 161.035781 69.06585 
L 161.035781 68.960557 
L 161.983084 68.855265 
L 162.08834 68.64468 
L 176.087365 68.539387 
L 176.087365 68.434095 
L 180.297598 68.328802 
L 180.297598 68.22351 
L 185.770901 68.118217 
L 185.770901 68.012925 
L 201.45402 67.907632 
L 201.45402 67.80234 
L 204.190672 67.697047 
L 204.190672 67.591755 
L 245.977236 67.486462 
L 245.977236 67.38117 
L 292.07929 67.275877 
L 292.07929 67.170585 
L 327.445249 67.065292 
L 327.445249 66.96 
L 372.6 66.96 
L 372.6 66.96 
" clip-path="url(#p4768369363)" style="fill: none; stroke: #d62728; stroke-opacity: 0.3; stroke-linecap: square"/>
   </g>
   <g id="line2d_17">
    <path d="M 70.2 369.36 
L 70.305256 354.197883 
L 70.410512 354.197883 
L 70.515767 325.768914 
L 70.621023 325.768914 
L 70.726279 299.551086 
L 70.831535 299.551086 
L 70.936791 283.651922 
L 71.042047 283.651922 
L 71.147302 279.861393 
L 71.252558 279.861393 
L 71.357814 263.330474 
L 71.46307 263.330474 
L 71.568326 244.798997 
L 71.673582 244.798997 
L 71.778837 240.376713 
L 71.989349 240.376713 
L 72.094605 239.113203 
L 72.199861 239.113203 
L 72.305117 235.638552 
L 72.410372 235.638552 
L 72.515628 229.531588 
L 72.620884 229.531588 
L 72.72614 205.84078 
L 72.831396 205.84078 
L 72.936652 198.996769 
L 73.041907 198.996769 
L 73.147163 191.731588 
L 73.252419 191.731588 
L 73.357675 186.466964 
L 73.462931 186.466964 
L 73.568187 171.410139 
L 73.673442 171.410139 
L 73.778698 169.30429 
L 73.883954 169.30429 
L 73.98921 160.775599 
L 74.094466 160.775599 
L 74.199722 154.668635 
L 74.304977 154.668635 
L 74.410233 150.035766 
L 74.515489 150.035766 
L 74.620745 147.087577 
L 74.726001 147.087577 
L 74.831257 139.822396 
L 74.936512 139.822396 
L 75.041768 138.874763 
L 75.147024 138.874763 
L 75.25228 137.295376 
L 75.357536 137.295376 
L 75.462792 133.820724 
L 75.568047 133.820724 
L 75.673303 132.136045 
L 75.778559 132.136045 
L 75.883815 129.503733 
L 75.989071 129.503733 
L 76.094326 128.766685 
L 76.199582 128.766685 
L 76.304838 123.923231 
L 76.410094 123.923231 
L 76.51535 119.079777 
L 76.620606 119.079777 
L 76.725861 114.025738 
L 76.831117 114.025738 
L 76.831117 112.130474 
L 77.041629 112.130474 
L 77.041629 110.024624 
L 77.357396 110.024624 
L 77.462652 108.761114 
L 77.567908 108.761114 
L 77.673164 106.971142 
L 77.883676 106.86585 
L 77.988931 105.497047 
L 78.094187 105.497047 
L 78.199443 104.865292 
L 78.515211 104.865292 
L 78.620466 104.444123 
L 78.725722 104.444123 
L 78.830978 103.07532 
L 79.04149 102.970028 
L 79.146746 102.443565 
L 79.252001 102.443565 
L 79.357257 101.180056 
L 79.462513 101.180056 
L 79.567769 99.811253 
L 79.778281 99.811253 
L 79.883536 99.284791 
L 79.988792 99.284791 
L 80.094048 98.968914 
L 80.199304 98.968914 
L 80.199304 98.653036 
L 80.409816 98.653036 
L 80.409816 98.021281 
L 80.620327 98.021281 
L 80.725583 97.073649 
L 81.041351 97.073649 
L 81.146606 96.336602 
L 81.251862 96.336602 
L 81.357118 95.704847 
L 81.462374 95.704847 
L 81.56763 95.283677 
L 81.672885 95.283677 
L 81.778141 94.757214 
L 82.199165 94.757214 
L 82.30442 94.020167 
L 82.514932 94.020167 
L 82.620188 92.967242 
L 82.725444 92.967242 
L 82.8307 92.335487 
L 82.935955 92.335487 
L 82.935955 91.493148 
L 83.356979 91.387855 
L 83.356979 91.071978 
L 84.09377 90.966685 
L 84.09377 90.650808 
L 84.409537 90.650808 
L 84.514793 90.229638 
L 84.620049 90.229638 
L 84.725305 89.492591 
L 84.935816 89.492591 
L 85.041072 88.650251 
L 85.462095 88.650251 
L 85.462095 88.439666 
L 85.883119 88.334373 
L 85.988375 88.018496 
L 86.304142 87.913203 
L 86.304142 87.702618 
L 86.61991 87.597326 
L 86.725165 87.386741 
L 86.830421 87.386741 
L 86.935677 86.860279 
L 87.040933 86.860279 
L 87.040933 86.544401 
L 87.251444 86.544401 
L 87.251444 86.228524 
L 87.461956 86.228524 
L 87.567212 85.491476 
L 87.988235 85.491476 
L 88.093491 84.859721 
L 88.198747 84.859721 
L 88.198747 84.649136 
L 88.725026 84.543844 
L 88.725026 84.333259 
L 89.040794 84.227967 
L 89.040794 83.912089 
L 89.777584 83.806797 
L 89.88284 83.385627 
L 90.093352 83.280334 
L 90.093352 83.175042 
L 90.303864 83.175042 
L 90.303864 82.964457 
L 90.619631 82.964457 
L 90.724887 82.648579 
L 90.935399 82.648579 
L 91.040654 82.332702 
L 91.461678 82.227409 
L 91.461678 82.122117 
L 92.093213 82.016825 
L 92.093213 81.279777 
L 92.303724 81.279777 
L 92.303724 80.858607 
L 93.145771 80.753315 
L 93.251027 80.332145 
L 93.356283 80.332145 
L 93.461538 80.016267 
L 94.724608 80.016267 
L 94.724608 79.805682 
L 95.356143 79.805682 
L 95.356143 79.489805 
L 95.987678 79.384513 
L 95.987678 79.27922 
L 96.19819 79.27922 
L 96.19819 79.068635 
L 96.829725 78.963343 
L 96.829725 78.85805 
L 98.198051 78.752758 
L 98.303307 78.331588 
L 98.408562 78.331588 
L 98.408562 78.121003 
L 98.829586 78.121003 
L 98.934842 77.699833 
L 99.882144 77.59454 
L 99.882144 77.489248 
L 100.303167 77.489248 
L 100.408423 77.17337 
L 101.671493 77.068078 
L 101.671493 76.857493 
L 102.092517 76.752201 
L 102.092517 76.646908 
L 102.829307 76.541616 
L 102.829307 76.436323 
L 103.145075 76.436323 
L 103.250331 76.120446 
L 104.092377 76.015153 
L 104.092377 75.909861 
L 105.460703 75.804568 
L 105.460703 75.699276 
L 107.039541 75.593983 
L 107.039541 75.488691 
L 108.618378 75.383398 
L 108.618378 75.278106 
L 109.986704 75.172813 
L 109.986704 75.067521 
L 110.618239 74.962228 
L 110.618239 74.856936 
L 111.35503 74.751643 
L 111.35503 74.646351 
L 112.933867 74.541058 
L 113.039123 74.330474 
L 115.565263 74.225181 
L 115.670519 74.014596 
L 116.828333 73.909304 
L 116.828333 73.804011 
L 117.565124 73.804011 
L 117.565124 73.593426 
L 117.986147 73.593426 
L 117.986147 73.382841 
L 119.986008 73.277549 
L 119.986008 73.172256 
L 123.669962 73.066964 
L 123.669962 72.961671 
L 125.038288 72.856379 
L 125.038288 72.751086 
L 125.880334 72.751086 
L 125.98559 72.329916 
L 131.985172 72.224624 
L 132.090428 72.014039 
L 132.511451 71.908747 
L 132.511451 71.803454 
L 139.668848 71.698162 
L 139.668848 71.487577 
L 141.773964 71.382284 
L 141.773964 71.276992 
L 144.826384 71.171699 
L 144.931639 70.855822 
L 146.826244 70.750529 
L 146.826244 70.645237 
L 147.036756 70.645237 
L 147.036756 70.329359 
L 148.089314 70.224067 
L 148.19457 70.013482 
L 150.72071 69.908189 
L 150.72071 69.802897 
L 151.773268 69.697604 
L 151.773268 69.592312 
L 153.457362 69.592312 
L 153.457362 69.381727 
L 163.35141 69.276435 
L 163.35141 69.171142 
L 169.877271 69.06585 
L 169.877271 68.855265 
L 178.508249 68.749972 
L 178.508249 68.64468 
L 185.139367 68.539387 
L 185.139367 68.434095 
L 190.507414 68.328802 
L 190.507414 68.22351 
L 192.296763 68.118217 
L 192.296763 68.012925 
L 204.401183 67.907632 
L 204.401183 67.80234 
L 225.031326 67.697047 
L 225.031326 67.591755 
L 231.978211 67.486462 
L 231.978211 67.38117 
L 245.13519 67.275877 
L 245.13519 67.170585 
L 306.078315 67.065292 
L 306.078315 66.96 
L 372.6 66.96 
L 372.6 66.96 
" clip-path="url(#p4768369363)" style="fill: none; stroke: #9467bd; stroke-opacity: 0.3; stroke-linecap: square"/>
   </g>
   <g id="line2d_18">
    <path d="M 70.2 369.36 
L 73.254545 171.136504 
L 76.309091 120.838576 
L 79.363636 100.091637 
L 82.418182 91.708706 
L 85.472727 86.358821 
L 88.527273 82.904619 
L 91.581818 80.482349 
L 94.636364 78.58671 
L 97.690909 77.301849 
L 100.745455 76.206572 
L 103.8 75.321939 
L 106.854545 74.774308 
L 109.909091 74.079217 
L 112.963636 73.363096 
L 116.018182 72.962896 
L 119.072727 72.394185 
L 122.127273 72.078227 
L 125.181818 71.825473 
L 128.236364 71.530588 
L 131.290909 71.341018 
L 134.345455 70.961899 
L 137.4 70.709138 
L 140.454545 70.603831 
L 143.509091 70.456385 
L 146.563636 70.182595 
L 149.618182 69.782425 
L 152.672727 69.613928 
L 155.727273 69.508628 
L 158.781818 69.361167 
L 161.836364 69.213743 
L 164.890909 68.897792 
L 167.945455 68.771405 
L 171 68.645024 
L 174.054545 68.6029 
L 177.109091 68.53971 
L 180.163636 68.413337 
L 183.218182 68.329081 
L 186.272727 68.202715 
L 189.327273 68.181649 
L 192.381818 68.118474 
L 195.436364 68.097408 
L 198.490909 68.097408 
L 201.545455 68.013167 
L 204.6 67.886794 
L 207.654545 67.865728 
L 210.709091 67.823604 
L 213.763636 67.781479 
L 216.818182 67.760414 
L 219.872727 67.718282 
L 222.927273 67.718282 
L 225.981818 67.612967 
L 229.036364 67.591902 
L 232.090909 67.528711 
L 235.145455 67.48658 
L 238.2 67.48658 
L 241.254545 67.465521 
L 244.309091 67.465521 
L 247.363636 67.423404 
L 250.418182 67.423404 
L 253.472727 67.360207 
L 256.527273 67.360207 
L 259.581818 67.339141 
L 262.636364 67.339141 
L 265.690909 67.318075 
L 268.745455 67.318075 
L 271.8 67.318075 
L 274.854545 67.297009 
L 277.909091 67.297009 
L 280.963636 67.275943 
L 284.018182 67.254878 
L 287.072727 67.254878 
L 290.127273 67.254878 
L 293.181818 67.149563 
L 296.236364 67.128497 
L 299.290909 67.128497 
L 302.345455 67.107439 
L 305.4 67.107439 
L 308.454545 67.08638 
L 311.509091 67.08638 
L 314.563636 67.065322 
L 317.618182 67.044256 
L 320.672727 67.044256 
L 323.727273 67.044256 
L 326.781818 67.044256 
L 329.836364 67.023197 
L 332.890909 67.023197 
L 335.945455 67.023197 
L 339 67.023197 
L 342.054545 66.981066 
L 345.109091 66.981066 
L 348.163636 66.981066 
L 351.218182 66.981066 
L 354.272727 66.96 
L 357.327273 66.96 
L 360.381818 66.96 
L 363.436364 66.96 
L 366.490909 66.96 
L 369.545455 66.96 
L 372.6 66.96 
" clip-path="url(#p4768369363)" style="fill: none; stroke: #0000ff; stroke-opacity: 0.8; stroke-width: 2; stroke-linecap: square"/>
   </g>
   <g id="patch_3">
    <path d="M 55.08 384.48 
L 55.08 51.84 
" style="fill: none; stroke: #000000; stroke-width: 0.8; stroke-linejoin: miter; stroke-linecap: square"/>
   </g>
   <g id="patch_4">
    <path d="M 387.72 384.48 
L 387.72 51.84 
" style="fill: none; stroke: #000000; stroke-width: 0.8; stroke-linejoin: miter; stroke-linecap: square"/>
   </g>
   <g id="patch_5">
    <path d="M 55.08 384.48 
L 387.72 384.48 
" style="fill: none; stroke: #000000; stroke-width: 0.8; stroke-linejoin: miter; stroke-linecap: square"/>
   </g>
   <g id="patch_6">
    <path d="M 55.08 51.84 
L 387.72 51.84 
" style="fill: none; stroke: #000000; stroke-width: 0.8; stroke-linejoin: miter; stroke-linecap: square"/>
   </g>
   <g id="text_15">
    <!-- Mean ROC curve with variability -->
    <g transform="translate(125.05125 45.84) scale(0.12 -0.12)">
     <defs>
      <path id="DejaVuSans-4d" d="M 628 4666 
L 1569 4666 
L 2759 1491 
L 3956 4666 
L 4897 4666 
L 4897 0 
L 4281 0 
L 4281 4097 
L 3078 897 
L 2444 897 
L 1241 4097 
L 1241 0 
L 628 0 
L 628 4666 
z
" transform="scale(0.015625)"/>
      <path id="DejaVuSans-6e" d="M 3513 2113 
L 3513 0 
L 2938 0 
L 2938 2094 
Q 2938 2591 2744 2837 
Q 2550 3084 2163 3084 
Q 1697 3084 1428 2787 
Q 1159 2491 1159 1978 
L 1159 0 
L 581 0 
L 581 3500 
L 1159 3500 
L 1159 2956 
Q 1366 3272 1645 3428 
Q 1925 3584 2291 3584 
Q 2894 3584 3203 3211 
Q 3513 2838 3513 2113 
z
" transform="scale(0.015625)"/>
      <path id="DejaVuSans-4f" d="M 2522 4238 
Q 1834 4238 1429 3725 
Q 1025 3213 1025 2328 
Q 1025 1447 1429 934 
Q 1834 422 2522 422 
Q 3209 422 3611 934 
Q 4013 1447 4013 2328 
Q 4013 3213 3611 3725 
Q 3209 4238 2522 4238 
z
M 2522 4750 
Q 3503 4750 4090 4092 
Q 4678 3434 4678 2328 
Q 4678 1225 4090 567 
Q 3503 -91 2522 -91 
Q 1538 -91 948 565 
Q 359 1222 359 2328 
Q 359 3434 948 4092 
Q 1538 4750 2522 4750 
z
" transform="scale(0.015625)"/>
      <path id="DejaVuSans-43" d="M 4122 4306 
L 4122 3641 
Q 3803 3938 3442 4084 
Q 3081 4231 2675 4231 
Q 1875 4231 1450 3742 
Q 1025 3253 1025 2328 
Q 1025 1406 1450 917 
Q 1875 428 2675 428 
Q 3081 428 3442 575 
Q 3803 722 4122 1019 
L 4122 359 
Q 3791 134 3420 21 
Q 3050 -91 2638 -91 
Q 1578 -91 968 557 
Q 359 1206 359 2328 
Q 359 3453 968 4101 
Q 1578 4750 2638 4750 
Q 3056 4750 3426 4639 
Q 3797 4528 4122 4306 
z
" transform="scale(0.015625)"/>
      <path id="DejaVuSans-63" d="M 3122 3366 
L 3122 2828 
Q 2878 2963 2633 3030 
Q 2388 3097 2138 3097 
Q 1578 3097 1268 2742 
Q 959 2388 959 1747 
Q 959 1106 1268 751 
Q 1578 397 2138 397 
Q 2388 397 2633 464 
Q 2878 531 3122 666 
L 3122 134 
Q 2881 22 2623 -34 
Q 2366 -91 2075 -91 
Q 1284 -91 818 406 
Q 353 903 353 1747 
Q 353 2603 823 3093 
Q 1294 3584 2113 3584 
Q 2378 3584 2631 3529 
Q 2884 3475 3122 3366 
z
" transform="scale(0.015625)"/>
      <path id="DejaVuSans-77" d="M 269 3500 
L 844 3500 
L 1563 769 
L 2278 3500 
L 2956 3500 
L 3675 769 
L 4391 3500 
L 4966 3500 
L 4050 0 
L 3372 0 
L 2619 2869 
L 1863 0 
L 1184 0 
L 269 3500 
z
" transform="scale(0.015625)"/>
      <path id="DejaVuSans-68" d="M 3513 2113 
L 3513 0 
L 2938 0 
L 2938 2094 
Q 2938 2591 2744 2837 
Q 2550 3084 2163 3084 
Q 1697 3084 1428 2787 
Q 1159 2491 1159 1978 
L 1159 0 
L 581 0 
L 581 4863 
L 1159 4863 
L 1159 2956 
Q 1366 3272 1645 3428 
Q 1925 3584 2291 3584 
Q 2894 3584 3203 3211 
Q 3513 2838 3513 2113 
z
" transform="scale(0.015625)"/>
      <path id="DejaVuSans-62" d="M 3116 1747 
Q 3116 2381 2855 2742 
Q 2594 3103 2138 3103 
Q 1681 3103 1420 2742 
Q 1159 2381 1159 1747 
Q 1159 1113 1420 752 
Q 1681 391 2138 391 
Q 2594 391 2855 752 
Q 3116 1113 3116 1747 
z
M 1159 2969 
Q 1341 3281 1617 3432 
Q 1894 3584 2278 3584 
Q 2916 3584 3314 3078 
Q 3713 2572 3713 1747 
Q 3713 922 3314 415 
Q 2916 -91 2278 -91 
Q 1894 -91 1617 61 
Q 1341 213 1159 525 
L 1159 0 
L 581 0 
L 581 4863 
L 1159 4863 
L 1159 2969 
z
" transform="scale(0.015625)"/>
      <path id="DejaVuSans-79" d="M 2059 -325 
Q 1816 -950 1584 -1140 
Q 1353 -1331 966 -1331 
L 506 -1331 
L 506 -850 
L 844 -850 
Q 1081 -850 1212 -737 
Q 1344 -625 1503 -206 
L 1606 56 
L 191 3500 
L 800 3500 
L 1894 763 
L 2988 3500 
L 3597 3500 
L 2059 -325 
z
" transform="scale(0.015625)"/>
     </defs>
     <use xlink:href="#DejaVuSans-4d"/>
     <use xlink:href="#DejaVuSans-65" x="86.279297"/>
     <use xlink:href="#DejaVuSans-61" x="147.802734"/>
     <use xlink:href="#DejaVuSans-6e" x="209.082031"/>
     <use xlink:href="#DejaVuSans-20" x="272.460938"/>
     <use xlink:href="#DejaVuSans-52" x="304.248047"/>
     <use xlink:href="#DejaVuSans-4f" x="373.730469"/>
     <use xlink:href="#DejaVuSans-43" x="452.441406"/>
     <use xlink:href="#DejaVuSans-20" x="522.265625"/>
     <use xlink:href="#DejaVuSans-63" x="554.052734"/>
     <use xlink:href="#DejaVuSans-75" x="609.033203"/>
     <use xlink:href="#DejaVuSans-72" x="672.412109"/>
     <use xlink:href="#DejaVuSans-76" x="713.525391"/>
     <use xlink:href="#DejaVuSans-65" x="772.705078"/>
     <use xlink:href="#DejaVuSans-20" x="834.228516"/>
     <use xlink:href="#DejaVuSans-77" x="866.015625"/>
     <use xlink:href="#DejaVuSans-69" x="947.802734"/>
     <use xlink:href="#DejaVuSans-74" x="975.585938"/>
     <use xlink:href="#DejaVuSans-68" x="1014.794922"/>
     <use xlink:href="#DejaVuSans-20" x="1078.173828"/>
     <use xlink:href="#DejaVuSans-76" x="1109.960938"/>
     <use xlink:href="#DejaVuSans-61" x="1169.140625"/>
     <use xlink:href="#DejaVuSans-72" x="1230.419922"/>
     <use xlink:href="#DejaVuSans-69" x="1271.533203"/>
     <use xlink:href="#DejaVuSans-61" x="1299.316406"/>
     <use xlink:href="#DejaVuSans-62" x="1360.595703"/>
     <use xlink:href="#DejaVuSans-69" x="1424.072266"/>
     <use xlink:href="#DejaVuSans-6c" x="1451.855469"/>
     <use xlink:href="#DejaVuSans-69" x="1479.638672"/>
     <use xlink:href="#DejaVuSans-74" x="1507.421875"/>
     <use xlink:href="#DejaVuSans-79" x="1546.630859"/>
    </g>
   </g>
   <g id="legend_1">
    <g id="patch_7">
     <path d="M 190.32 379.48 
L 380.72 379.48 
Q 382.72 379.48 382.72 377.48 
L 382.72 275.733125 
Q 382.72 273.733125 380.72 273.733125 
L 190.32 273.733125 
Q 188.32 273.733125 188.32 275.733125 
L 188.32 377.48 
Q 188.32 379.48 190.32 379.48 
z
" style="fill: #ffffff; opacity: 0.8; stroke: #cccccc; stroke-linejoin: miter"/>
    </g>
    <g id="line2d_19">
     <path d="M 192.32 281.831563 
L 202.32 281.831563 
L 212.32 281.831563 
" style="fill: none; stroke: #1f77b4; stroke-opacity: 0.3; stroke-linecap: square"/>
    </g>
    <g id="text_16">
     <!-- ROC fold 0 (AUC = 0.98) -->
     <g transform="translate(220.32 285.331563) scale(0.1 -0.1)">
      <defs>
       <path id="DejaVuSans-66" d="M 2375 4863 
L 2375 4384 
L 1825 4384 
Q 1516 4384 1395 4259 
Q 1275 4134 1275 3809 
L 1275 3500 
L 2222 3500 
L 2222 3053 
L 1275 3053 
L 1275 0 
L 697 0 
L 697 3053 
L 147 3053 
L 147 3500 
L 697 3500 
L 697 3744 
Q 697 4328 969 4595 
Q 1241 4863 1831 4863 
L 2375 4863 
z
" transform="scale(0.015625)"/>
       <path id="DejaVuSans-64" d="M 2906 2969 
L 2906 4863 
L 3481 4863 
L 3481 0 
L 2906 0 
L 2906 525 
Q 2725 213 2448 61 
Q 2172 -91 1784 -91 
Q 1150 -91 751 415 
Q 353 922 353 1747 
Q 353 2572 751 3078 
Q 1150 3584 1784 3584 
Q 2172 3584 2448 3432 
Q 2725 3281 2906 2969 
z
M 947 1747 
Q 947 1113 1208 752 
Q 1469 391 1925 391 
Q 2381 391 2643 752 
Q 2906 1113 2906 1747 
Q 2906 2381 2643 2742 
Q 2381 3103 1925 3103 
Q 1469 3103 1208 2742 
Q 947 2381 947 1747 
z
" transform="scale(0.015625)"/>
       <path id="DejaVuSans-28" d="M 1984 4856 
Q 1566 4138 1362 3434 
Q 1159 2731 1159 2009 
Q 1159 1288 1364 580 
Q 1569 -128 1984 -844 
L 1484 -844 
Q 1016 -109 783 600 
Q 550 1309 550 2009 
Q 550 2706 781 3412 
Q 1013 4119 1484 4856 
L 1984 4856 
z
" transform="scale(0.015625)"/>
       <path id="DejaVuSans-41" d="M 2188 4044 
L 1331 1722 
L 3047 1722 
L 2188 4044 
z
M 1831 4666 
L 2547 4666 
L 4325 0 
L 3669 0 
L 3244 1197 
L 1141 1197 
L 716 0 
L 50 0 
L 1831 4666 
z
" transform="scale(0.015625)"/>
       <path id="DejaVuSans-55" d="M 556 4666 
L 1191 4666 
L 1191 1831 
Q 1191 1081 1462 751 
Q 1734 422 2344 422 
Q 2950 422 3222 751 
Q 3494 1081 3494 1831 
L 3494 4666 
L 4128 4666 
L 4128 1753 
Q 4128 841 3676 375 
Q 3225 -91 2344 -91 
Q 1459 -91 1007 375 
Q 556 841 556 1753 
L 556 4666 
z
" transform="scale(0.015625)"/>
       <path id="DejaVuSans-3d" d="M 678 2906 
L 4684 2906 
L 4684 2381 
L 678 2381 
L 678 2906 
z
M 678 1631 
L 4684 1631 
L 4684 1100 
L 678 1100 
L 678 1631 
z
" transform="scale(0.015625)"/>
       <path id="DejaVuSans-39" d="M 703 97 
L 703 672 
Q 941 559 1184 500 
Q 1428 441 1663 441 
Q 2288 441 2617 861 
Q 2947 1281 2994 2138 
Q 2813 1869 2534 1725 
Q 2256 1581 1919 1581 
Q 1219 1581 811 2004 
Q 403 2428 403 3163 
Q 403 3881 828 4315 
Q 1253 4750 1959 4750 
Q 2769 4750 3195 4129 
Q 3622 3509 3622 2328 
Q 3622 1225 3098 567 
Q 2575 -91 1691 -91 
Q 1453 -91 1209 -44 
Q 966 3 703 97 
z
M 1959 2075 
Q 2384 2075 2632 2365 
Q 2881 2656 2881 3163 
Q 2881 3666 2632 3958 
Q 2384 4250 1959 4250 
Q 1534 4250 1286 3958 
Q 1038 3666 1038 3163 
Q 1038 2656 1286 2365 
Q 1534 2075 1959 2075 
z
" transform="scale(0.015625)"/>
       <path id="DejaVuSans-29" d="M 513 4856 
L 1013 4856 
Q 1481 4119 1714 3412 
Q 1947 2706 1947 2009 
Q 1947 1309 1714 600 
Q 1481 -109 1013 -844 
L 513 -844 
Q 928 -128 1133 580 
Q 1338 1288 1338 2009 
Q 1338 2731 1133 3434 
Q 928 4138 513 4856 
z
" transform="scale(0.015625)"/>
      </defs>
      <use xlink:href="#DejaVuSans-52"/>
      <use xlink:href="#DejaVuSans-4f" x="69.482422"/>
      <use xlink:href="#DejaVuSans-43" x="148.193359"/>
      <use xlink:href="#DejaVuSans-20" x="218.017578"/>
      <use xlink:href="#DejaVuSans-66" x="249.804688"/>
      <use xlink:href="#DejaVuSans-6f" x="285.009766"/>
      <use xlink:href="#DejaVuSans-6c" x="346.191406"/>
      <use xlink:href="#DejaVuSans-64" x="373.974609"/>
      <use xlink:href="#DejaVuSans-20" x="437.451172"/>
      <use xlink:href="#DejaVuSans-30" x="469.238281"/>
      <use xlink:href="#DejaVuSans-20" x="532.861328"/>
      <use xlink:href="#DejaVuSans-28" x="564.648438"/>
      <use xlink:href="#DejaVuSans-41" x="603.662109"/>
      <use xlink:href="#DejaVuSans-55" x="672.070312"/>
      <use xlink:href="#DejaVuSans-43" x="745.263672"/>
      <use xlink:href="#DejaVuSans-20" x="815.087891"/>
      <use xlink:href="#DejaVuSans-3d" x="846.875"/>
      <use xlink:href="#DejaVuSans-20" x="930.664062"/>
      <use xlink:href="#DejaVuSans-30" x="962.451172"/>
      <use xlink:href="#DejaVuSans-2e" x="1026.074219"/>
      <use xlink:href="#DejaVuSans-39" x="1057.861328"/>
      <use xlink:href="#DejaVuSans-38" x="1121.484375"/>
      <use xlink:href="#DejaVuSans-29" x="1185.107422"/>
     </g>
    </g>
    <g id="line2d_20">
     <path d="M 192.32 296.509688 
L 202.32 296.509688 
L 212.32 296.509688 
" style="fill: none; stroke: #ff7f0e; stroke-opacity: 0.3; stroke-linecap: square"/>
    </g>
    <g id="text_17">
     <!-- ROC fold 1 (AUC = 0.98) -->
     <g transform="translate(220.32 300.009688) scale(0.1 -0.1)">
      <use xlink:href="#DejaVuSans-52"/>
      <use xlink:href="#DejaVuSans-4f" x="69.482422"/>
      <use xlink:href="#DejaVuSans-43" x="148.193359"/>
      <use xlink:href="#DejaVuSans-20" x="218.017578"/>
      <use xlink:href="#DejaVuSans-66" x="249.804688"/>
      <use xlink:href="#DejaVuSans-6f" x="285.009766"/>
      <use xlink:href="#DejaVuSans-6c" x="346.191406"/>
      <use xlink:href="#DejaVuSans-64" x="373.974609"/>
      <use xlink:href="#DejaVuSans-20" x="437.451172"/>
      <use xlink:href="#DejaVuSans-31" x="469.238281"/>
      <use xlink:href="#DejaVuSans-20" x="532.861328"/>
      <use xlink:href="#DejaVuSans-28" x="564.648438"/>
      <use xlink:href="#DejaVuSans-41" x="603.662109"/>
      <use xlink:href="#DejaVuSans-55" x="672.070312"/>
      <use xlink:href="#DejaVuSans-43" x="745.263672"/>
      <use xlink:href="#DejaVuSans-20" x="815.087891"/>
      <use xlink:href="#DejaVuSans-3d" x="846.875"/>
      <use xlink:href="#DejaVuSans-20" x="930.664062"/>
      <use xlink:href="#DejaVuSans-30" x="962.451172"/>
      <use xlink:href="#DejaVuSans-2e" x="1026.074219"/>
      <use xlink:href="#DejaVuSans-39" x="1057.861328"/>
      <use xlink:href="#DejaVuSans-38" x="1121.484375"/>
      <use xlink:href="#DejaVuSans-29" x="1185.107422"/>
     </g>
    </g>
    <g id="line2d_21">
     <path d="M 192.32 311.187813 
L 202.32 311.187813 
L 212.32 311.187813 
" style="fill: none; stroke: #2ca02c; stroke-opacity: 0.3; stroke-linecap: square"/>
    </g>
    <g id="text_18">
     <!-- ROC fold 2 (AUC = 0.98) -->
     <g transform="translate(220.32 314.687813) scale(0.1 -0.1)">
      <use xlink:href="#DejaVuSans-52"/>
      <use xlink:href="#DejaVuSans-4f" x="69.482422"/>
      <use xlink:href="#DejaVuSans-43" x="148.193359"/>
      <use xlink:href="#DejaVuSans-20" x="218.017578"/>
      <use xlink:href="#DejaVuSans-66" x="249.804688"/>
      <use xlink:href="#DejaVuSans-6f" x="285.009766"/>
      <use xlink:href="#DejaVuSans-6c" x="346.191406"/>
      <use xlink:href="#DejaVuSans-64" x="373.974609"/>
      <use xlink:href="#DejaVuSans-20" x="437.451172"/>
      <use xlink:href="#DejaVuSans-32" x="469.238281"/>
      <use xlink:href="#DejaVuSans-20" x="532.861328"/>
      <use xlink:href="#DejaVuSans-28" x="564.648438"/>
      <use xlink:href="#DejaVuSans-41" x="603.662109"/>
      <use xlink:href="#DejaVuSans-55" x="672.070312"/>
      <use xlink:href="#DejaVuSans-43" x="745.263672"/>
      <use xlink:href="#DejaVuSans-20" x="815.087891"/>
      <use xlink:href="#DejaVuSans-3d" x="846.875"/>
      <use xlink:href="#DejaVuSans-20" x="930.664062"/>
      <use xlink:href="#DejaVuSans-30" x="962.451172"/>
      <use xlink:href="#DejaVuSans-2e" x="1026.074219"/>
      <use xlink:href="#DejaVuSans-39" x="1057.861328"/>
      <use xlink:href="#DejaVuSans-38" x="1121.484375"/>
      <use xlink:href="#DejaVuSans-29" x="1185.107422"/>
     </g>
    </g>
    <g id="line2d_22">
     <path d="M 192.32 325.865938 
L 202.32 325.865938 
L 212.32 325.865938 
" style="fill: none; stroke: #d62728; stroke-opacity: 0.3; stroke-linecap: square"/>
    </g>
    <g id="text_19">
     <!-- ROC fold 3 (AUC = 0.98) -->
     <g transform="translate(220.32 329.365938) scale(0.1 -0.1)">
      <defs>
       <path id="DejaVuSans-33" d="M 2597 2516 
Q 3050 2419 3304 2112 
Q 3559 1806 3559 1356 
Q 3559 666 3084 287 
Q 2609 -91 1734 -91 
Q 1441 -91 1130 -33 
Q 819 25 488 141 
L 488 750 
Q 750 597 1062 519 
Q 1375 441 1716 441 
Q 2309 441 2620 675 
Q 2931 909 2931 1356 
Q 2931 1769 2642 2001 
Q 2353 2234 1838 2234 
L 1294 2234 
L 1294 2753 
L 1863 2753 
Q 2328 2753 2575 2939 
Q 2822 3125 2822 3475 
Q 2822 3834 2567 4026 
Q 2313 4219 1838 4219 
Q 1578 4219 1281 4162 
Q 984 4106 628 3988 
L 628 4550 
Q 988 4650 1302 4700 
Q 1616 4750 1894 4750 
Q 2613 4750 3031 4423 
Q 3450 4097 3450 3541 
Q 3450 3153 3228 2886 
Q 3006 2619 2597 2516 
z
" transform="scale(0.015625)"/>
      </defs>
      <use xlink:href="#DejaVuSans-52"/>
      <use xlink:href="#DejaVuSans-4f" x="69.482422"/>
      <use xlink:href="#DejaVuSans-43" x="148.193359"/>
      <use xlink:href="#DejaVuSans-20" x="218.017578"/>
      <use xlink:href="#DejaVuSans-66" x="249.804688"/>
      <use xlink:href="#DejaVuSans-6f" x="285.009766"/>
      <use xlink:href="#DejaVuSans-6c" x="346.191406"/>
      <use xlink:href="#DejaVuSans-64" x="373.974609"/>
      <use xlink:href="#DejaVuSans-20" x="437.451172"/>
      <use xlink:href="#DejaVuSans-33" x="469.238281"/>
      <use xlink:href="#DejaVuSans-20" x="532.861328"/>
      <use xlink:href="#DejaVuSans-28" x="564.648438"/>
      <use xlink:href="#DejaVuSans-41" x="603.662109"/>
      <use xlink:href="#DejaVuSans-55" x="672.070312"/>
      <use xlink:href="#DejaVuSans-43" x="745.263672"/>
      <use xlink:href="#DejaVuSans-20" x="815.087891"/>
      <use xlink:href="#DejaVuSans-3d" x="846.875"/>
      <use xlink:href="#DejaVuSans-20" x="930.664062"/>
      <use xlink:href="#DejaVuSans-30" x="962.451172"/>
      <use xlink:href="#DejaVuSans-2e" x="1026.074219"/>
      <use xlink:href="#DejaVuSans-39" x="1057.861328"/>
      <use xlink:href="#DejaVuSans-38" x="1121.484375"/>
      <use xlink:href="#DejaVuSans-29" x="1185.107422"/>
     </g>
    </g>
    <g id="line2d_23">
     <path d="M 192.32 340.544062 
L 202.32 340.544062 
L 212.32 340.544062 
" style="fill: none; stroke: #9467bd; stroke-opacity: 0.3; stroke-linecap: square"/>
    </g>
    <g id="text_20">
     <!-- ROC fold 4 (AUC = 0.98) -->
     <g transform="translate(220.32 344.044062) scale(0.1 -0.1)">
      <use xlink:href="#DejaVuSans-52"/>
      <use xlink:href="#DejaVuSans-4f" x="69.482422"/>
      <use xlink:href="#DejaVuSans-43" x="148.193359"/>
      <use xlink:href="#DejaVuSans-20" x="218.017578"/>
      <use xlink:href="#DejaVuSans-66" x="249.804688"/>
      <use xlink:href="#DejaVuSans-6f" x="285.009766"/>
      <use xlink:href="#DejaVuSans-6c" x="346.191406"/>
      <use xlink:href="#DejaVuSans-64" x="373.974609"/>
      <use xlink:href="#DejaVuSans-20" x="437.451172"/>
      <use xlink:href="#DejaVuSans-34" x="469.238281"/>
      <use xlink:href="#DejaVuSans-20" x="532.861328"/>
      <use xlink:href="#DejaVuSans-28" x="564.648438"/>
      <use xlink:href="#DejaVuSans-41" x="603.662109"/>
      <use xlink:href="#DejaVuSans-55" x="672.070312"/>
      <use xlink:href="#DejaVuSans-43" x="745.263672"/>
      <use xlink:href="#DejaVuSans-20" x="815.087891"/>
      <use xlink:href="#DejaVuSans-3d" x="846.875"/>
      <use xlink:href="#DejaVuSans-20" x="930.664062"/>
      <use xlink:href="#DejaVuSans-30" x="962.451172"/>
      <use xlink:href="#DejaVuSans-2e" x="1026.074219"/>
      <use xlink:href="#DejaVuSans-39" x="1057.861328"/>
      <use xlink:href="#DejaVuSans-38" x="1121.484375"/>
      <use xlink:href="#DejaVuSans-29" x="1185.107422"/>
     </g>
    </g>
    <g id="line2d_24">
     <path d="M 192.32 355.222188 
L 202.32 355.222188 
L 212.32 355.222188 
" style="fill: none; stroke: #0000ff; stroke-opacity: 0.8; stroke-width: 2; stroke-linecap: square"/>
    </g>
    <g id="text_21">
     <!-- Mean ROC (AUC = 0.98 $\pm$ 0.00) -->
     <g transform="translate(220.32 358.722188) scale(0.1 -0.1)">
      <defs>
       <path id="DejaVuSans-b1" d="M 2944 4013 
L 2944 2803 
L 4684 2803 
L 4684 2272 
L 2944 2272 
L 2944 1063 
L 2419 1063 
L 2419 2272 
L 678 2272 
L 678 2803 
L 2419 2803 
L 2419 4013 
L 2944 4013 
z
M 678 531 
L 4684 531 
L 4684 0 
L 678 0 
L 678 531 
z
" transform="scale(0.015625)"/>
      </defs>
      <use xlink:href="#DejaVuSans-4d" transform="translate(0 0.125)"/>
      <use xlink:href="#DejaVuSans-65" transform="translate(86.279297 0.125)"/>
      <use xlink:href="#DejaVuSans-61" transform="translate(147.802734 0.125)"/>
      <use xlink:href="#DejaVuSans-6e" transform="translate(209.082031 0.125)"/>
      <use xlink:href="#DejaVuSans-20" transform="translate(272.460938 0.125)"/>
      <use xlink:href="#DejaVuSans-52" transform="translate(304.248047 0.125)"/>
      <use xlink:href="#DejaVuSans-4f" transform="translate(373.730469 0.125)"/>
      <use xlink:href="#DejaVuSans-43" transform="translate(452.441406 0.125)"/>
      <use xlink:href="#DejaVuSans-20" transform="translate(522.265625 0.125)"/>
      <use xlink:href="#DejaVuSans-28" transform="translate(554.052734 0.125)"/>
      <use xlink:href="#DejaVuSans-41" transform="translate(593.066406 0.125)"/>
      <use xlink:href="#DejaVuSans-55" transform="translate(661.474609 0.125)"/>
      <use xlink:href="#DejaVuSans-43" transform="translate(734.667969 0.125)"/>
      <use xlink:href="#DejaVuSans-20" transform="translate(804.492188 0.125)"/>
      <use xlink:href="#DejaVuSans-3d" transform="translate(836.279297 0.125)"/>
      <use xlink:href="#DejaVuSans-20" transform="translate(920.068359 0.125)"/>
      <use xlink:href="#DejaVuSans-30" transform="translate(951.855469 0.125)"/>
      <use xlink:href="#DejaVuSans-2e" transform="translate(1015.478516 0.125)"/>
      <use xlink:href="#DejaVuSans-39" transform="translate(1047.265625 0.125)"/>
      <use xlink:href="#DejaVuSans-38" transform="translate(1110.888672 0.125)"/>
      <use xlink:href="#DejaVuSans-20" transform="translate(1174.511719 0.125)"/>
      <use xlink:href="#DejaVuSans-b1" transform="translate(1206.298828 0.125)"/>
      <use xlink:href="#DejaVuSans-20" transform="translate(1290.087891 0.125)"/>
      <use xlink:href="#DejaVuSans-30" transform="translate(1321.875 0.125)"/>
      <use xlink:href="#DejaVuSans-2e" transform="translate(1385.498047 0.125)"/>
      <use xlink:href="#DejaVuSans-30" transform="translate(1417.285156 0.125)"/>
      <use xlink:href="#DejaVuSans-30" transform="translate(1480.908203 0.125)"/>
      <use xlink:href="#DejaVuSans-29" transform="translate(1544.53125 0.125)"/>
     </g>
    </g>
    <g id="patch_8">
     <path d="M 192.32 373.400313 
L 212.32 373.400313 
L 212.32 366.400313 
L 192.32 366.400313 
z
" style="fill: #808080; fill-opacity: 0.2; stroke: #808080; stroke-opacity: 0.2; stroke-linejoin: miter"/>
    </g>
    <g id="text_22">
     <!-- $\pm$ 1 std. dev. -->
     <g transform="translate(220.32 373.400313) scale(0.1 -0.1)">
      <use xlink:href="#DejaVuSans-b1" transform="translate(0 0.015625)"/>
      <use xlink:href="#DejaVuSans-20" transform="translate(83.789062 0.015625)"/>
      <use xlink:href="#DejaVuSans-31" transform="translate(115.576172 0.015625)"/>
      <use xlink:href="#DejaVuSans-20" transform="translate(179.199219 0.015625)"/>
      <use xlink:href="#DejaVuSans-73" transform="translate(210.986328 0.015625)"/>
      <use xlink:href="#DejaVuSans-74" transform="translate(263.085938 0.015625)"/>
      <use xlink:href="#DejaVuSans-64" transform="translate(302.294922 0.015625)"/>
      <use xlink:href="#DejaVuSans-2e" transform="translate(365.771484 0.015625)"/>
      <use xlink:href="#DejaVuSans-20" transform="translate(397.558594 0.015625)"/>
      <use xlink:href="#DejaVuSans-64" transform="translate(429.345703 0.015625)"/>
      <use xlink:href="#DejaVuSans-65" transform="translate(492.822266 0.015625)"/>
      <use xlink:href="#DejaVuSans-76" transform="translate(554.345703 0.015625)"/>
      <use xlink:href="#DejaVuSans-2e" transform="translate(613.525391 0.015625)"/>
     </g>
    </g>
   </g>
  </g>
 </g>
 <defs>
  <clipPath id="p4768369363">
   <rect x="55.08" y="51.84" width="332.64" height="332.64"/>
  </clipPath>
 </defs>
</svg>
