<?xml version="1.0" encoding="utf-8" standalone="no"?>
<!DOCTYPE svg PUBLIC "-//W3C//DTD SVG 1.1//EN"
  "http://www.w3.org/Graphics/SVG/1.1/DTD/svg11.dtd">
<svg xmlns:xlink="http://www.w3.org/1999/xlink" width="432pt" height="432pt" viewBox="0 0 432 432" xmlns="http://www.w3.org/2000/svg" version="1.1">
 <metadata>
  <rdf:RDF xmlns:dc="http://purl.org/dc/elements/1.1/" xmlns:cc="http://creativecommons.org/ns#" xmlns:rdf="http://www.w3.org/1999/02/22-rdf-syntax-ns#">
   <cc:Work>
    <dc:type rdf:resource="http://purl.org/dc/dcmitype/StillImage"/>
    <dc:date>2024-01-24T12:36:51.263284</dc:date>
    <dc:format>image/svg+xml</dc:format>
    <dc:creator>
     <cc:Agent>
      <dc:title>Matplotlib v3.6.3, https://matplotlib.org/</dc:title>
     </cc:Agent>
    </dc:creator>
   </cc:Work>
  </rdf:RDF>
 </metadata>
 <defs>
  <style type="text/css">*{stroke-linejoin: round; stroke-linecap: butt}</style>
 </defs>
 <g id="figure_1">
  <g id="patch_1">
   <path d="M 0 432 
L 432 432 
L 432 0 
L 0 0 
z
" style="fill: #ffffff"/>
  </g>
  <g id="axes_1">
   <g id="patch_2">
    <path d="M 55.08 384.48 
L 387.72 384.48 
L 387.72 51.84 
L 55.08 51.84 
z
" style="fill: #ffffff"/>
   </g>
   <g id="PolyCollection_1">
    <defs>
     <path id="m68e53e1611" d="M 70.2 -62.64 
L 70.2 -62.64 
L 73.254545 -127.620093 
L 76.309091 -192.600186 
L 79.363636 -257.580279 
L 82.418182 -321.316824 
L 85.472727 -330.644932 
L 88.527273 -336.977088 
L 91.581818 -343.26413 
L 94.636364 -348.862216 
L 97.690909 -350.711118 
L 100.745455 -351.729221 
L 103.8 -352.745209 
L 106.854545 -353.758821 
L 109.909091 -354.769767 
L 112.963636 -355.777723 
L 116.018182 -356.782332 
L 119.072727 -357.710769 
L 122.127273 -358.204859 
L 125.181818 -358.295528 
L 128.236364 -358.378793 
L 131.290909 -358.462058 
L 134.345455 -358.545323 
L 137.4 -358.628589 
L 140.454545 -358.711854 
L 143.509091 -358.795119 
L 146.563636 -358.878384 
L 149.618182 -358.961649 
L 152.672727 -359.044914 
L 155.727273 -359.128179 
L 158.781818 -359.211444 
L 161.836364 -359.294709 
L 164.890909 -359.377974 
L 167.945455 -359.461239 
L 171 -359.544504 
L 174.054545 -359.62777 
L 177.109091 -359.711035 
L 180.163636 -359.7943 
L 183.218182 -359.877565 
L 186.272727 -359.96083 
L 189.327273 -360.044095 
L 192.381818 -360.12736 
L 195.436364 -360.210625 
L 198.490909 -360.29389 
L 201.545455 -360.377155 
L 204.6 -360.46042 
L 207.654545 -360.543685 
L 210.709091 -360.626951 
L 213.763636 -360.710216 
L 216.818182 -360.793481 
L 219.872727 -360.876746 
L 222.927273 -360.960011 
L 225.981818 -361.043276 
L 229.036364 -361.126541 
L 232.090909 -361.209806 
L 235.145455 -361.293071 
L 238.2 -361.376336 
L 241.254545 -361.459601 
L 244.309091 -361.542866 
L 247.363636 -361.626132 
L 250.418182 -361.709397 
L 253.472727 -361.792662 
L 256.527273 -361.875927 
L 259.581818 -361.959192 
L 262.636364 -362.042457 
L 265.690909 -362.125722 
L 268.745455 -362.208987 
L 271.8 -362.292252 
L 274.854545 -362.375517 
L 277.909091 -362.458782 
L 280.963636 -362.542047 
L 284.018182 -362.625313 
L 287.072727 -362.708578 
L 290.127273 -362.791843 
L 293.181818 -362.875108 
L 296.236364 -362.958373 
L 299.290909 -363.041638 
L 302.345455 -363.124903 
L 305.4 -363.208168 
L 308.454545 -363.291433 
L 311.509091 -363.374698 
L 314.563636 -363.457963 
L 317.618182 -363.541228 
L 320.672727 -363.624494 
L 323.727273 -363.707759 
L 326.781818 -363.791024 
L 329.836364 -363.874289 
L 332.890909 -363.957554 
L 335.945455 -364.040819 
L 339 -364.124084 
L 342.054545 -364.207349 
L 345.109091 -364.290614 
L 348.163636 -364.373879 
L 351.218182 -364.457144 
L 354.272727 -364.540409 
L 357.327273 -364.623675 
L 360.381818 -364.70694 
L 363.436364 -364.790205 
L 366.490909 -364.87347 
L 369.545455 -364.956735 
L 372.6 -365.04 
L 372.6 -365.04 
L 372.6 -365.04 
L 369.545455 -364.986638 
L 366.490909 -364.933276 
L 363.436364 -364.879914 
L 360.381818 -364.826552 
L 357.327273 -364.77319 
L 354.272727 -364.719828 
L 351.218182 -364.666466 
L 348.163636 -364.613104 
L 345.109091 -364.559741 
L 342.054545 -364.506379 
L 339 -364.453017 
L 335.945455 -364.399655 
L 332.890909 -364.346293 
L 329.836364 -364.292931 
L 326.781818 -364.239569 
L 323.727273 -364.186207 
L 320.672727 -364.132845 
L 317.618182 -364.079483 
L 314.563636 -364.026121 
L 311.509091 -363.972759 
L 308.454545 -363.919397 
L 305.4 -363.866035 
L 302.345455 -363.812673 
L 299.290909 -363.759311 
L 296.236364 -363.705949 
L 293.181818 -363.652586 
L 290.127273 -363.599224 
L 287.072727 -363.545862 
L 284.018182 -363.4925 
L 280.963636 -363.439138 
L 277.909091 -363.385776 
L 274.854545 -363.332414 
L 271.8 -363.279052 
L 268.745455 -363.22569 
L 265.690909 -363.172328 
L 262.636364 -363.118966 
L 259.581818 -363.065604 
L 256.527273 -363.012242 
L 253.472727 -362.95888 
L 250.418182 -362.905518 
L 247.363636 -362.852156 
L 244.309091 -362.798794 
L 241.254545 -362.745431 
L 238.2 -362.692069 
L 235.145455 -362.638707 
L 232.090909 -362.585345 
L 229.036364 -362.531983 
L 225.981818 -362.478621 
L 222.927273 -362.425259 
L 219.872727 -362.371897 
L 216.818182 -362.318535 
L 213.763636 -362.265173 
L 210.709091 -362.211811 
L 207.654545 -362.158449 
L 204.6 -362.105087 
L 201.545455 -362.051725 
L 198.490909 -361.998363 
L 195.436364 -361.945001 
L 192.381818 -361.891639 
L 189.327273 -361.838276 
L 186.272727 -361.784914 
L 183.218182 -361.731552 
L 180.163636 -361.67819 
L 177.109091 -361.624828 
L 174.054545 -361.571466 
L 171 -361.518104 
L 167.945455 -361.464742 
L 164.890909 -361.41138 
L 161.836364 -361.358018 
L 158.781818 -361.304656 
L 155.727273 -361.251294 
L 152.672727 -361.197932 
L 149.618182 -361.14457 
L 146.563636 -361.091208 
L 143.509091 -361.037846 
L 140.454545 -360.984484 
L 137.4 -360.931121 
L 134.345455 -360.877759 
L 131.290909 -360.824397 
L 128.236364 -360.771035 
L 125.181818 -360.717673 
L 122.127273 -360.62601 
L 119.072727 -360.140384 
L 116.018182 -359.384543 
L 112.963636 -358.476487 
L 109.909091 -357.571776 
L 106.854545 -356.670056 
L 103.8 -355.771002 
L 100.745455 -354.874323 
L 97.690909 -353.97976 
L 94.636364 -352.5071 
L 91.581818 -348.826828 
L 88.527273 -342.257718 
L 85.472727 -335.733722 
L 82.418182 -329.142057 
L 79.363636 -293.570738 
L 76.309091 -216.593826 
L 73.254545 -139.616913 
L 70.2 -62.64 
z
" style="stroke: #808080; stroke-opacity: 0.2"/>
    </defs>
    <g clip-path="url(#p9910c6dfe0)">
     <use xlink:href="#m68e53e1611" x="0" y="432" style="fill: #808080; fill-opacity: 0.2; stroke: #808080; stroke-opacity: 0.2"/>
    </g>
   </g>
   <g id="matplotlib.axis_1">
    <g id="xtick_1">
     <g id="line2d_1">
      <defs>
       <path id="m4a26c045b4" d="M 0 0 
L 0 3.5 
" style="stroke: #000000; stroke-width: 0.8"/>
      </defs>
      <g>
       <use xlink:href="#m4a26c045b4" x="70.2" y="384.48" style="stroke: #000000; stroke-width: 0.8"/>
      </g>
     </g>
     <g id="text_1">
      <!-- 0.0 -->
      <g transform="translate(62.248438 399.078438) scale(0.1 -0.1)">
       <defs>
        <path id="DejaVuSans-30" d="M 2034 4250 
Q 1547 4250 1301 3770 
Q 1056 3291 1056 2328 
Q 1056 1369 1301 889 
Q 1547 409 2034 409 
Q 2525 409 2770 889 
Q 3016 1369 3016 2328 
Q 3016 3291 2770 3770 
Q 2525 4250 2034 4250 
z
M 2034 4750 
Q 2819 4750 3233 4129 
Q 3647 3509 3647 2328 
Q 3647 1150 3233 529 
Q 2819 -91 2034 -91 
Q 1250 -91 836 529 
Q 422 1150 422 2328 
Q 422 3509 836 4129 
Q 1250 4750 2034 4750 
z
" transform="scale(0.015625)"/>
        <path id="DejaVuSans-2e" d="M 684 794 
L 1344 794 
L 1344 0 
L 684 0 
L 684 794 
z
" transform="scale(0.015625)"/>
       </defs>
       <use xlink:href="#DejaVuSans-30"/>
       <use xlink:href="#DejaVuSans-2e" x="63.623047"/>
       <use xlink:href="#DejaVuSans-30" x="95.410156"/>
      </g>
     </g>
    </g>
    <g id="xtick_2">
     <g id="line2d_2">
      <g>
       <use xlink:href="#m4a26c045b4" x="130.68" y="384.48" style="stroke: #000000; stroke-width: 0.8"/>
      </g>
     </g>
     <g id="text_2">
      <!-- 0.2 -->
      <g transform="translate(122.728438 399.078438) scale(0.1 -0.1)">
       <defs>
        <path id="DejaVuSans-32" d="M 1228 531 
L 3431 531 
L 3431 0 
L 469 0 
L 469 531 
Q 828 903 1448 1529 
Q 2069 2156 2228 2338 
Q 2531 2678 2651 2914 
Q 2772 3150 2772 3378 
Q 2772 3750 2511 3984 
Q 2250 4219 1831 4219 
Q 1534 4219 1204 4116 
Q 875 4013 500 3803 
L 500 4441 
Q 881 4594 1212 4672 
Q 1544 4750 1819 4750 
Q 2544 4750 2975 4387 
Q 3406 4025 3406 3419 
Q 3406 3131 3298 2873 
Q 3191 2616 2906 2266 
Q 2828 2175 2409 1742 
Q 1991 1309 1228 531 
z
" transform="scale(0.015625)"/>
       </defs>
       <use xlink:href="#DejaVuSans-30"/>
       <use xlink:href="#DejaVuSans-2e" x="63.623047"/>
       <use xlink:href="#DejaVuSans-32" x="95.410156"/>
      </g>
     </g>
    </g>
    <g id="xtick_3">
     <g id="line2d_3">
      <g>
       <use xlink:href="#m4a26c045b4" x="191.16" y="384.48" style="stroke: #000000; stroke-width: 0.8"/>
      </g>
     </g>
     <g id="text_3">
      <!-- 0.4 -->
      <g transform="translate(183.208438 399.078438) scale(0.1 -0.1)">
       <defs>
        <path id="DejaVuSans-34" d="M 2419 4116 
L 825 1625 
L 2419 1625 
L 2419 4116 
z
M 2253 4666 
L 3047 4666 
L 3047 1625 
L 3713 1625 
L 3713 1100 
L 3047 1100 
L 3047 0 
L 2419 0 
L 2419 1100 
L 313 1100 
L 313 1709 
L 2253 4666 
z
" transform="scale(0.015625)"/>
       </defs>
       <use xlink:href="#DejaVuSans-30"/>
       <use xlink:href="#DejaVuSans-2e" x="63.623047"/>
       <use xlink:href="#DejaVuSans-34" x="95.410156"/>
      </g>
     </g>
    </g>
    <g id="xtick_4">
     <g id="line2d_4">
      <g>
       <use xlink:href="#m4a26c045b4" x="251.64" y="384.48" style="stroke: #000000; stroke-width: 0.8"/>
      </g>
     </g>
     <g id="text_4">
      <!-- 0.6 -->
      <g transform="translate(243.688438 399.078438) scale(0.1 -0.1)">
       <defs>
        <path id="DejaVuSans-36" d="M 2113 2584 
Q 1688 2584 1439 2293 
Q 1191 2003 1191 1497 
Q 1191 994 1439 701 
Q 1688 409 2113 409 
Q 2538 409 2786 701 
Q 3034 994 3034 1497 
Q 3034 2003 2786 2293 
Q 2538 2584 2113 2584 
z
M 3366 4563 
L 3366 3988 
Q 3128 4100 2886 4159 
Q 2644 4219 2406 4219 
Q 1781 4219 1451 3797 
Q 1122 3375 1075 2522 
Q 1259 2794 1537 2939 
Q 1816 3084 2150 3084 
Q 2853 3084 3261 2657 
Q 3669 2231 3669 1497 
Q 3669 778 3244 343 
Q 2819 -91 2113 -91 
Q 1303 -91 875 529 
Q 447 1150 447 2328 
Q 447 3434 972 4092 
Q 1497 4750 2381 4750 
Q 2619 4750 2861 4703 
Q 3103 4656 3366 4563 
z
" transform="scale(0.015625)"/>
       </defs>
       <use xlink:href="#DejaVuSans-30"/>
       <use xlink:href="#DejaVuSans-2e" x="63.623047"/>
       <use xlink:href="#DejaVuSans-36" x="95.410156"/>
      </g>
     </g>
    </g>
    <g id="xtick_5">
     <g id="line2d_5">
      <g>
       <use xlink:href="#m4a26c045b4" x="312.12" y="384.48" style="stroke: #000000; stroke-width: 0.8"/>
      </g>
     </g>
     <g id="text_5">
      <!-- 0.8 -->
      <g transform="translate(304.168437 399.078438) scale(0.1 -0.1)">
       <defs>
        <path id="DejaVuSans-38" d="M 2034 2216 
Q 1584 2216 1326 1975 
Q 1069 1734 1069 1313 
Q 1069 891 1326 650 
Q 1584 409 2034 409 
Q 2484 409 2743 651 
Q 3003 894 3003 1313 
Q 3003 1734 2745 1975 
Q 2488 2216 2034 2216 
z
M 1403 2484 
Q 997 2584 770 2862 
Q 544 3141 544 3541 
Q 544 4100 942 4425 
Q 1341 4750 2034 4750 
Q 2731 4750 3128 4425 
Q 3525 4100 3525 3541 
Q 3525 3141 3298 2862 
Q 3072 2584 2669 2484 
Q 3125 2378 3379 2068 
Q 3634 1759 3634 1313 
Q 3634 634 3220 271 
Q 2806 -91 2034 -91 
Q 1263 -91 848 271 
Q 434 634 434 1313 
Q 434 1759 690 2068 
Q 947 2378 1403 2484 
z
M 1172 3481 
Q 1172 3119 1398 2916 
Q 1625 2713 2034 2713 
Q 2441 2713 2670 2916 
Q 2900 3119 2900 3481 
Q 2900 3844 2670 4047 
Q 2441 4250 2034 4250 
Q 1625 4250 1398 4047 
Q 1172 3844 1172 3481 
z
" transform="scale(0.015625)"/>
       </defs>
       <use xlink:href="#DejaVuSans-30"/>
       <use xlink:href="#DejaVuSans-2e" x="63.623047"/>
       <use xlink:href="#DejaVuSans-38" x="95.410156"/>
      </g>
     </g>
    </g>
    <g id="xtick_6">
     <g id="line2d_6">
      <g>
       <use xlink:href="#m4a26c045b4" x="372.6" y="384.48" style="stroke: #000000; stroke-width: 0.8"/>
      </g>
     </g>
     <g id="text_6">
      <!-- 1.0 -->
      <g transform="translate(364.648438 399.078438) scale(0.1 -0.1)">
       <defs>
        <path id="DejaVuSans-31" d="M 794 531 
L 1825 531 
L 1825 4091 
L 703 3866 
L 703 4441 
L 1819 4666 
L 2450 4666 
L 2450 531 
L 3481 531 
L 3481 0 
L 794 0 
L 794 531 
z
" transform="scale(0.015625)"/>
       </defs>
       <use xlink:href="#DejaVuSans-31"/>
       <use xlink:href="#DejaVuSans-2e" x="63.623047"/>
       <use xlink:href="#DejaVuSans-30" x="95.410156"/>
      </g>
     </g>
    </g>
    <g id="text_7">
     <!-- False Positive Rate -->
     <g transform="translate(174.933594 412.756563) scale(0.1 -0.1)">
      <defs>
       <path id="DejaVuSans-46" d="M 628 4666 
L 3309 4666 
L 3309 4134 
L 1259 4134 
L 1259 2759 
L 3109 2759 
L 3109 2228 
L 1259 2228 
L 1259 0 
L 628 0 
L 628 4666 
z
" transform="scale(0.015625)"/>
       <path id="DejaVuSans-61" d="M 2194 1759 
Q 1497 1759 1228 1600 
Q 959 1441 959 1056 
Q 959 750 1161 570 
Q 1363 391 1709 391 
Q 2188 391 2477 730 
Q 2766 1069 2766 1631 
L 2766 1759 
L 2194 1759 
z
M 3341 1997 
L 3341 0 
L 2766 0 
L 2766 531 
Q 2569 213 2275 61 
Q 1981 -91 1556 -91 
Q 1019 -91 701 211 
Q 384 513 384 1019 
Q 384 1609 779 1909 
Q 1175 2209 1959 2209 
L 2766 2209 
L 2766 2266 
Q 2766 2663 2505 2880 
Q 2244 3097 1772 3097 
Q 1472 3097 1187 3025 
Q 903 2953 641 2809 
L 641 3341 
Q 956 3463 1253 3523 
Q 1550 3584 1831 3584 
Q 2591 3584 2966 3190 
Q 3341 2797 3341 1997 
z
" transform="scale(0.015625)"/>
       <path id="DejaVuSans-6c" d="M 603 4863 
L 1178 4863 
L 1178 0 
L 603 0 
L 603 4863 
z
" transform="scale(0.015625)"/>
       <path id="DejaVuSans-73" d="M 2834 3397 
L 2834 2853 
Q 2591 2978 2328 3040 
Q 2066 3103 1784 3103 
Q 1356 3103 1142 2972 
Q 928 2841 928 2578 
Q 928 2378 1081 2264 
Q 1234 2150 1697 2047 
L 1894 2003 
Q 2506 1872 2764 1633 
Q 3022 1394 3022 966 
Q 3022 478 2636 193 
Q 2250 -91 1575 -91 
Q 1294 -91 989 -36 
Q 684 19 347 128 
L 347 722 
Q 666 556 975 473 
Q 1284 391 1588 391 
Q 1994 391 2212 530 
Q 2431 669 2431 922 
Q 2431 1156 2273 1281 
Q 2116 1406 1581 1522 
L 1381 1569 
Q 847 1681 609 1914 
Q 372 2147 372 2553 
Q 372 3047 722 3315 
Q 1072 3584 1716 3584 
Q 2034 3584 2315 3537 
Q 2597 3491 2834 3397 
z
" transform="scale(0.015625)"/>
       <path id="DejaVuSans-65" d="M 3597 1894 
L 3597 1613 
L 953 1613 
Q 991 1019 1311 708 
Q 1631 397 2203 397 
Q 2534 397 2845 478 
Q 3156 559 3463 722 
L 3463 178 
Q 3153 47 2828 -22 
Q 2503 -91 2169 -91 
Q 1331 -91 842 396 
Q 353 884 353 1716 
Q 353 2575 817 3079 
Q 1281 3584 2069 3584 
Q 2775 3584 3186 3129 
Q 3597 2675 3597 1894 
z
M 3022 2063 
Q 3016 2534 2758 2815 
Q 2500 3097 2075 3097 
Q 1594 3097 1305 2825 
Q 1016 2553 972 2059 
L 3022 2063 
z
" transform="scale(0.015625)"/>
       <path id="DejaVuSans-20" transform="scale(0.015625)"/>
       <path id="DejaVuSans-50" d="M 1259 4147 
L 1259 2394 
L 2053 2394 
Q 2494 2394 2734 2622 
Q 2975 2850 2975 3272 
Q 2975 3691 2734 3919 
Q 2494 4147 2053 4147 
L 1259 4147 
z
M 628 4666 
L 2053 4666 
Q 2838 4666 3239 4311 
Q 3641 3956 3641 3272 
Q 3641 2581 3239 2228 
Q 2838 1875 2053 1875 
L 1259 1875 
L 1259 0 
L 628 0 
L 628 4666 
z
" transform="scale(0.015625)"/>
       <path id="DejaVuSans-6f" d="M 1959 3097 
Q 1497 3097 1228 2736 
Q 959 2375 959 1747 
Q 959 1119 1226 758 
Q 1494 397 1959 397 
Q 2419 397 2687 759 
Q 2956 1122 2956 1747 
Q 2956 2369 2687 2733 
Q 2419 3097 1959 3097 
z
M 1959 3584 
Q 2709 3584 3137 3096 
Q 3566 2609 3566 1747 
Q 3566 888 3137 398 
Q 2709 -91 1959 -91 
Q 1206 -91 779 398 
Q 353 888 353 1747 
Q 353 2609 779 3096 
Q 1206 3584 1959 3584 
z
" transform="scale(0.015625)"/>
       <path id="DejaVuSans-69" d="M 603 3500 
L 1178 3500 
L 1178 0 
L 603 0 
L 603 3500 
z
M 603 4863 
L 1178 4863 
L 1178 4134 
L 603 4134 
L 603 4863 
z
" transform="scale(0.015625)"/>
       <path id="DejaVuSans-74" d="M 1172 4494 
L 1172 3500 
L 2356 3500 
L 2356 3053 
L 1172 3053 
L 1172 1153 
Q 1172 725 1289 603 
Q 1406 481 1766 481 
L 2356 481 
L 2356 0 
L 1766 0 
Q 1100 0 847 248 
Q 594 497 594 1153 
L 594 3053 
L 172 3053 
L 172 3500 
L 594 3500 
L 594 4494 
L 1172 4494 
z
" transform="scale(0.015625)"/>
       <path id="DejaVuSans-76" d="M 191 3500 
L 800 3500 
L 1894 563 
L 2988 3500 
L 3597 3500 
L 2284 0 
L 1503 0 
L 191 3500 
z
" transform="scale(0.015625)"/>
       <path id="DejaVuSans-52" d="M 2841 2188 
Q 3044 2119 3236 1894 
Q 3428 1669 3622 1275 
L 4263 0 
L 3584 0 
L 2988 1197 
Q 2756 1666 2539 1819 
Q 2322 1972 1947 1972 
L 1259 1972 
L 1259 0 
L 628 0 
L 628 4666 
L 2053 4666 
Q 2853 4666 3247 4331 
Q 3641 3997 3641 3322 
Q 3641 2881 3436 2590 
Q 3231 2300 2841 2188 
z
M 1259 4147 
L 1259 2491 
L 2053 2491 
Q 2509 2491 2742 2702 
Q 2975 2913 2975 3322 
Q 2975 3731 2742 3939 
Q 2509 4147 2053 4147 
L 1259 4147 
z
" transform="scale(0.015625)"/>
      </defs>
      <use xlink:href="#DejaVuSans-46"/>
      <use xlink:href="#DejaVuSans-61" x="48.394531"/>
      <use xlink:href="#DejaVuSans-6c" x="109.673828"/>
      <use xlink:href="#DejaVuSans-73" x="137.457031"/>
      <use xlink:href="#DejaVuSans-65" x="189.556641"/>
      <use xlink:href="#DejaVuSans-20" x="251.080078"/>
      <use xlink:href="#DejaVuSans-50" x="282.867188"/>
      <use xlink:href="#DejaVuSans-6f" x="339.544922"/>
      <use xlink:href="#DejaVuSans-73" x="400.726562"/>
      <use xlink:href="#DejaVuSans-69" x="452.826172"/>
      <use xlink:href="#DejaVuSans-74" x="480.609375"/>
      <use xlink:href="#DejaVuSans-69" x="519.818359"/>
      <use xlink:href="#DejaVuSans-76" x="547.601562"/>
      <use xlink:href="#DejaVuSans-65" x="606.78125"/>
      <use xlink:href="#DejaVuSans-20" x="668.304688"/>
      <use xlink:href="#DejaVuSans-52" x="700.091797"/>
      <use xlink:href="#DejaVuSans-61" x="767.324219"/>
      <use xlink:href="#DejaVuSans-74" x="828.603516"/>
      <use xlink:href="#DejaVuSans-65" x="867.8125"/>
     </g>
    </g>
   </g>
   <g id="matplotlib.axis_2">
    <g id="ytick_1">
     <g id="line2d_7">
      <defs>
       <path id="m9eef504acc" d="M 0 0 
L -3.5 0 
" style="stroke: #000000; stroke-width: 0.8"/>
      </defs>
      <g>
       <use xlink:href="#m9eef504acc" x="55.08" y="369.36" style="stroke: #000000; stroke-width: 0.8"/>
      </g>
     </g>
     <g id="text_8">
      <!-- 0.0 -->
      <g transform="translate(32.176875 373.159219) scale(0.1 -0.1)">
       <use xlink:href="#DejaVuSans-30"/>
       <use xlink:href="#DejaVuSans-2e" x="63.623047"/>
       <use xlink:href="#DejaVuSans-30" x="95.410156"/>
      </g>
     </g>
    </g>
    <g id="ytick_2">
     <g id="line2d_8">
      <g>
       <use xlink:href="#m9eef504acc" x="55.08" y="308.88" style="stroke: #000000; stroke-width: 0.8"/>
      </g>
     </g>
     <g id="text_9">
      <!-- 0.2 -->
      <g transform="translate(32.176875 312.679219) scale(0.1 -0.1)">
       <use xlink:href="#DejaVuSans-30"/>
       <use xlink:href="#DejaVuSans-2e" x="63.623047"/>
       <use xlink:href="#DejaVuSans-32" x="95.410156"/>
      </g>
     </g>
    </g>
    <g id="ytick_3">
     <g id="line2d_9">
      <g>
       <use xlink:href="#m9eef504acc" x="55.08" y="248.4" style="stroke: #000000; stroke-width: 0.8"/>
      </g>
     </g>
     <g id="text_10">
      <!-- 0.4 -->
      <g transform="translate(32.176875 252.199219) scale(0.1 -0.1)">
       <use xlink:href="#DejaVuSans-30"/>
       <use xlink:href="#DejaVuSans-2e" x="63.623047"/>
       <use xlink:href="#DejaVuSans-34" x="95.410156"/>
      </g>
     </g>
    </g>
    <g id="ytick_4">
     <g id="line2d_10">
      <g>
       <use xlink:href="#m9eef504acc" x="55.08" y="187.92" style="stroke: #000000; stroke-width: 0.8"/>
      </g>
     </g>
     <g id="text_11">
      <!-- 0.6 -->
      <g transform="translate(32.176875 191.719219) scale(0.1 -0.1)">
       <use xlink:href="#DejaVuSans-30"/>
       <use xlink:href="#DejaVuSans-2e" x="63.623047"/>
       <use xlink:href="#DejaVuSans-36" x="95.410156"/>
      </g>
     </g>
    </g>
    <g id="ytick_5">
     <g id="line2d_11">
      <g>
       <use xlink:href="#m9eef504acc" x="55.08" y="127.44" style="stroke: #000000; stroke-width: 0.8"/>
      </g>
     </g>
     <g id="text_12">
      <!-- 0.8 -->
      <g transform="translate(32.176875 131.239219) scale(0.1 -0.1)">
       <use xlink:href="#DejaVuSans-30"/>
       <use xlink:href="#DejaVuSans-2e" x="63.623047"/>
       <use xlink:href="#DejaVuSans-38" x="95.410156"/>
      </g>
     </g>
    </g>
    <g id="ytick_6">
     <g id="line2d_12">
      <g>
       <use xlink:href="#m9eef504acc" x="55.08" y="66.96" style="stroke: #000000; stroke-width: 0.8"/>
      </g>
     </g>
     <g id="text_13">
      <!-- 1.0 -->
      <g transform="translate(32.176875 70.759219) scale(0.1 -0.1)">
       <use xlink:href="#DejaVuSans-31"/>
       <use xlink:href="#DejaVuSans-2e" x="63.623047"/>
       <use xlink:href="#DejaVuSans-30" x="95.410156"/>
      </g>
     </g>
    </g>
    <g id="text_14">
     <!-- True Positive Rate -->
     <g transform="translate(26.097187 262.689687) rotate(-90) scale(0.1 -0.1)">
      <defs>
       <path id="DejaVuSans-54" d="M -19 4666 
L 3928 4666 
L 3928 4134 
L 2272 4134 
L 2272 0 
L 1638 0 
L 1638 4134 
L -19 4134 
L -19 4666 
z
" transform="scale(0.015625)"/>
       <path id="DejaVuSans-72" d="M 2631 2963 
Q 2534 3019 2420 3045 
Q 2306 3072 2169 3072 
Q 1681 3072 1420 2755 
Q 1159 2438 1159 1844 
L 1159 0 
L 581 0 
L 581 3500 
L 1159 3500 
L 1159 2956 
Q 1341 3275 1631 3429 
Q 1922 3584 2338 3584 
Q 2397 3584 2469 3576 
Q 2541 3569 2628 3553 
L 2631 2963 
z
" transform="scale(0.015625)"/>
       <path id="DejaVuSans-75" d="M 544 1381 
L 544 3500 
L 1119 3500 
L 1119 1403 
Q 1119 906 1312 657 
Q 1506 409 1894 409 
Q 2359 409 2629 706 
Q 2900 1003 2900 1516 
L 2900 3500 
L 3475 3500 
L 3475 0 
L 2900 0 
L 2900 538 
Q 2691 219 2414 64 
Q 2138 -91 1772 -91 
Q 1169 -91 856 284 
Q 544 659 544 1381 
z
M 1991 3584 
L 1991 3584 
z
" transform="scale(0.015625)"/>
      </defs>
      <use xlink:href="#DejaVuSans-54"/>
      <use xlink:href="#DejaVuSans-72" x="46.333984"/>
      <use xlink:href="#DejaVuSans-75" x="87.447266"/>
      <use xlink:href="#DejaVuSans-65" x="150.826172"/>
      <use xlink:href="#DejaVuSans-20" x="212.349609"/>
      <use xlink:href="#DejaVuSans-50" x="244.136719"/>
      <use xlink:href="#DejaVuSans-6f" x="300.814453"/>
      <use xlink:href="#DejaVuSans-73" x="361.996094"/>
      <use xlink:href="#DejaVuSans-69" x="414.095703"/>
      <use xlink:href="#DejaVuSans-74" x="441.878906"/>
      <use xlink:href="#DejaVuSans-69" x="481.087891"/>
      <use xlink:href="#DejaVuSans-76" x="508.871094"/>
      <use xlink:href="#DejaVuSans-65" x="568.050781"/>
      <use xlink:href="#DejaVuSans-20" x="629.574219"/>
      <use xlink:href="#DejaVuSans-52" x="661.361328"/>
      <use xlink:href="#DejaVuSans-61" x="728.59375"/>
      <use xlink:href="#DejaVuSans-74" x="789.873047"/>
      <use xlink:href="#DejaVuSans-65" x="829.082031"/>
     </g>
    </g>
   </g>
   <g id="line2d_13">
    <path d="M 70.2 369.36 
L 81.248017 107.195737 
L 92.71691 81.390094 
L 117.338205 72.858433 
L 372.6 66.96 
" clip-path="url(#p9910c6dfe0)" style="fill: none; stroke: #1f77b4; stroke-opacity: 0.3; stroke-linecap: square"/>
   </g>
   <g id="line2d_14">
    <path d="M 70.2 369.36 
L 80.195825 105.299812 
L 93.137787 78.862194 
L 120.494781 70.962508 
L 372.6 66.96 
" clip-path="url(#p9910c6dfe0)" style="fill: none; stroke: #ff7f0e; stroke-opacity: 0.3; stroke-linecap: square"/>
   </g>
   <g id="line2d_15">
    <path d="M 70.2 369.36 
L 82.615866 107.617053 
L 95.34739 82.654044 
L 122.178288 73.701066 
L 372.6 66.96 
" clip-path="url(#p9910c6dfe0)" style="fill: none; stroke: #2ca02c; stroke-opacity: 0.3; stroke-linecap: square"/>
   </g>
   <g id="line2d_16">
    <path d="M 70.2 369.36 
L 82.620188 105.707632 
L 95.987678 78.647465 
L 122.512148 71.382284 
L 372.6 66.96 
" clip-path="url(#p9910c6dfe0)" style="fill: none; stroke: #d62728; stroke-opacity: 0.3; stroke-linecap: square"/>
   </g>
   <g id="line2d_17">
    <path d="M 70.2 369.36 
L 81.146606 109.603454 
L 93.251027 82.437994 
L 119.038705 74.119889 
L 372.6 66.96 
" clip-path="url(#p9910c6dfe0)" style="fill: none; stroke: #9467bd; stroke-opacity: 0.3; stroke-linecap: square"/>
   </g>
   <g id="line2d_18">
    <path d="M 70.2 369.36 
L 73.254545 298.381497 
L 76.309091 227.402994 
L 79.363636 156.424492 
L 82.418182 106.77056 
L 85.472727 98.810673 
L 88.527273 92.382597 
L 91.581818 85.954521 
L 94.636364 81.315342 
L 97.690909 79.654561 
L 100.745455 78.698228 
L 103.8 77.741895 
L 106.854545 76.785561 
L 109.909091 75.829228 
L 112.963636 74.872895 
L 116.018182 73.916562 
L 119.072727 73.074423 
L 122.127273 72.584565 
L 125.181818 72.493399 
L 128.236364 72.425086 
L 131.290909 72.356772 
L 134.345455 72.288459 
L 137.4 72.220145 
L 140.454545 72.151831 
L 143.509091 72.083518 
L 146.563636 72.015204 
L 149.618182 71.946891 
L 152.672727 71.878577 
L 155.727273 71.810264 
L 158.781818 71.74195 
L 161.836364 71.673636 
L 164.890909 71.605323 
L 167.945455 71.537009 
L 171 71.468696 
L 174.054545 71.400382 
L 177.109091 71.332069 
L 180.163636 71.263755 
L 183.218182 71.195441 
L 186.272727 71.127128 
L 189.327273 71.058814 
L 192.381818 70.990501 
L 195.436364 70.922187 
L 198.490909 70.853874 
L 201.545455 70.78556 
L 204.6 70.717246 
L 207.654545 70.648933 
L 210.709091 70.580619 
L 213.763636 70.512306 
L 216.818182 70.443992 
L 219.872727 70.375679 
L 222.927273 70.307365 
L 225.981818 70.239051 
L 229.036364 70.170738 
L 232.090909 70.102424 
L 235.145455 70.034111 
L 238.2 69.965797 
L 241.254545 69.897484 
L 244.309091 69.82917 
L 247.363636 69.760856 
L 250.418182 69.692543 
L 253.472727 69.624229 
L 256.527273 69.555916 
L 259.581818 69.487602 
L 262.636364 69.419289 
L 265.690909 69.350975 
L 268.745455 69.282661 
L 271.8 69.214348 
L 274.854545 69.146034 
L 277.909091 69.077721 
L 280.963636 69.009407 
L 284.018182 68.941094 
L 287.072727 68.87278 
L 290.127273 68.804466 
L 293.181818 68.736153 
L 296.236364 68.667839 
L 299.290909 68.599526 
L 302.345455 68.531212 
L 305.4 68.462899 
L 308.454545 68.394585 
L 311.509091 68.326271 
L 314.563636 68.257958 
L 317.618182 68.189644 
L 320.672727 68.121331 
L 323.727273 68.053017 
L 326.781818 67.984704 
L 329.836364 67.91639 
L 332.890909 67.848076 
L 335.945455 67.779763 
L 339 67.711449 
L 342.054545 67.643136 
L 345.109091 67.574822 
L 348.163636 67.506509 
L 351.218182 67.438195 
L 354.272727 67.369881 
L 357.327273 67.301568 
L 360.381818 67.233254 
L 363.436364 67.164941 
L 366.490909 67.096627 
L 369.545455 67.028314 
L 372.6 66.96 
" clip-path="url(#p9910c6dfe0)" style="fill: none; stroke: #0000ff; stroke-opacity: 0.8; stroke-width: 2; stroke-linecap: square"/>
   </g>
   <g id="patch_3">
    <path d="M 55.08 384.48 
L 55.08 51.84 
" style="fill: none; stroke: #000000; stroke-width: 0.8; stroke-linejoin: miter; stroke-linecap: square"/>
   </g>
   <g id="patch_4">
    <path d="M 387.72 384.48 
L 387.72 51.84 
" style="fill: none; stroke: #000000; stroke-width: 0.8; stroke-linejoin: miter; stroke-linecap: square"/>
   </g>
   <g id="patch_5">
    <path d="M 55.08 384.48 
L 387.72 384.48 
" style="fill: none; stroke: #000000; stroke-width: 0.8; stroke-linejoin: miter; stroke-linecap: square"/>
   </g>
   <g id="patch_6">
    <path d="M 55.08 51.84 
L 387.72 51.84 
" style="fill: none; stroke: #000000; stroke-width: 0.8; stroke-linejoin: miter; stroke-linecap: square"/>
   </g>
   <g id="text_15">
    <!-- Mean ROC curve with variability -->
    <g transform="translate(125.05125 45.84) scale(0.12 -0.12)">
     <defs>
      <path id="DejaVuSans-4d" d="M 628 4666 
L 1569 4666 
L 2759 1491 
L 3956 4666 
L 4897 4666 
L 4897 0 
L 4281 0 
L 4281 4097 
L 3078 897 
L 2444 897 
L 1241 4097 
L 1241 0 
L 628 0 
L 628 4666 
z
" transform="scale(0.015625)"/>
      <path id="DejaVuSans-6e" d="M 3513 2113 
L 3513 0 
L 2938 0 
L 2938 2094 
Q 2938 2591 2744 2837 
Q 2550 3084 2163 3084 
Q 1697 3084 1428 2787 
Q 1159 2491 1159 1978 
L 1159 0 
L 581 0 
L 581 3500 
L 1159 3500 
L 1159 2956 
Q 1366 3272 1645 3428 
Q 1925 3584 2291 3584 
Q 2894 3584 3203 3211 
Q 3513 2838 3513 2113 
z
" transform="scale(0.015625)"/>
      <path id="DejaVuSans-4f" d="M 2522 4238 
Q 1834 4238 1429 3725 
Q 1025 3213 1025 2328 
Q 1025 1447 1429 934 
Q 1834 422 2522 422 
Q 3209 422 3611 934 
Q 4013 1447 4013 2328 
Q 4013 3213 3611 3725 
Q 3209 4238 2522 4238 
z
M 2522 4750 
Q 3503 4750 4090 4092 
Q 4678 3434 4678 2328 
Q 4678 1225 4090 567 
Q 3503 -91 2522 -91 
Q 1538 -91 948 565 
Q 359 1222 359 2328 
Q 359 3434 948 4092 
Q 1538 4750 2522 4750 
z
" transform="scale(0.015625)"/>
      <path id="DejaVuSans-43" d="M 4122 4306 
L 4122 3641 
Q 3803 3938 3442 4084 
Q 3081 4231 2675 4231 
Q 1875 4231 1450 3742 
Q 1025 3253 1025 2328 
Q 1025 1406 1450 917 
Q 1875 428 2675 428 
Q 3081 428 3442 575 
Q 3803 722 4122 1019 
L 4122 359 
Q 3791 134 3420 21 
Q 3050 -91 2638 -91 
Q 1578 -91 968 557 
Q 359 1206 359 2328 
Q 359 3453 968 4101 
Q 1578 4750 2638 4750 
Q 3056 4750 3426 4639 
Q 3797 4528 4122 4306 
z
" transform="scale(0.015625)"/>
      <path id="DejaVuSans-63" d="M 3122 3366 
L 3122 2828 
Q 2878 2963 2633 3030 
Q 2388 3097 2138 3097 
Q 1578 3097 1268 2742 
Q 959 2388 959 1747 
Q 959 1106 1268 751 
Q 1578 397 2138 397 
Q 2388 397 2633 464 
Q 2878 531 3122 666 
L 3122 134 
Q 2881 22 2623 -34 
Q 2366 -91 2075 -91 
Q 1284 -91 818 406 
Q 353 903 353 1747 
Q 353 2603 823 3093 
Q 1294 3584 2113 3584 
Q 2378 3584 2631 3529 
Q 2884 3475 3122 3366 
z
" transform="scale(0.015625)"/>
      <path id="DejaVuSans-77" d="M 269 3500 
L 844 3500 
L 1563 769 
L 2278 3500 
L 2956 3500 
L 3675 769 
L 4391 3500 
L 4966 3500 
L 4050 0 
L 3372 0 
L 2619 2869 
L 1863 0 
L 1184 0 
L 269 3500 
z
" transform="scale(0.015625)"/>
      <path id="DejaVuSans-68" d="M 3513 2113 
L 3513 0 
L 2938 0 
L 2938 2094 
Q 2938 2591 2744 2837 
Q 2550 3084 2163 3084 
Q 1697 3084 1428 2787 
Q 1159 2491 1159 1978 
L 1159 0 
L 581 0 
L 581 4863 
L 1159 4863 
L 1159 2956 
Q 1366 3272 1645 3428 
Q 1925 3584 2291 3584 
Q 2894 3584 3203 3211 
Q 3513 2838 3513 2113 
z
" transform="scale(0.015625)"/>
      <path id="DejaVuSans-62" d="M 3116 1747 
Q 3116 2381 2855 2742 
Q 2594 3103 2138 3103 
Q 1681 3103 1420 2742 
Q 1159 2381 1159 1747 
Q 1159 1113 1420 752 
Q 1681 391 2138 391 
Q 2594 391 2855 752 
Q 3116 1113 3116 1747 
z
M 1159 2969 
Q 1341 3281 1617 3432 
Q 1894 3584 2278 3584 
Q 2916 3584 3314 3078 
Q 3713 2572 3713 1747 
Q 3713 922 3314 415 
Q 2916 -91 2278 -91 
Q 1894 -91 1617 61 
Q 1341 213 1159 525 
L 1159 0 
L 581 0 
L 581 4863 
L 1159 4863 
L 1159 2969 
z
" transform="scale(0.015625)"/>
      <path id="DejaVuSans-79" d="M 2059 -325 
Q 1816 -950 1584 -1140 
Q 1353 -1331 966 -1331 
L 506 -1331 
L 506 -850 
L 844 -850 
Q 1081 -850 1212 -737 
Q 1344 -625 1503 -206 
L 1606 56 
L 191 3500 
L 800 3500 
L 1894 763 
L 2988 3500 
L 3597 3500 
L 2059 -325 
z
" transform="scale(0.015625)"/>
     </defs>
     <use xlink:href="#DejaVuSans-4d"/>
     <use xlink:href="#DejaVuSans-65" x="86.279297"/>
     <use xlink:href="#DejaVuSans-61" x="147.802734"/>
     <use xlink:href="#DejaVuSans-6e" x="209.082031"/>
     <use xlink:href="#DejaVuSans-20" x="272.460938"/>
     <use xlink:href="#DejaVuSans-52" x="304.248047"/>
     <use xlink:href="#DejaVuSans-4f" x="373.730469"/>
     <use xlink:href="#DejaVuSans-43" x="452.441406"/>
     <use xlink:href="#DejaVuSans-20" x="522.265625"/>
     <use xlink:href="#DejaVuSans-63" x="554.052734"/>
     <use xlink:href="#DejaVuSans-75" x="609.033203"/>
     <use xlink:href="#DejaVuSans-72" x="672.412109"/>
     <use xlink:href="#DejaVuSans-76" x="713.525391"/>
     <use xlink:href="#DejaVuSans-65" x="772.705078"/>
     <use xlink:href="#DejaVuSans-20" x="834.228516"/>
     <use xlink:href="#DejaVuSans-77" x="866.015625"/>
     <use xlink:href="#DejaVuSans-69" x="947.802734"/>
     <use xlink:href="#DejaVuSans-74" x="975.585938"/>
     <use xlink:href="#DejaVuSans-68" x="1014.794922"/>
     <use xlink:href="#DejaVuSans-20" x="1078.173828"/>
     <use xlink:href="#DejaVuSans-76" x="1109.960938"/>
     <use xlink:href="#DejaVuSans-61" x="1169.140625"/>
     <use xlink:href="#DejaVuSans-72" x="1230.419922"/>
     <use xlink:href="#DejaVuSans-69" x="1271.533203"/>
     <use xlink:href="#DejaVuSans-61" x="1299.316406"/>
     <use xlink:href="#DejaVuSans-62" x="1360.595703"/>
     <use xlink:href="#DejaVuSans-69" x="1424.072266"/>
     <use xlink:href="#DejaVuSans-6c" x="1451.855469"/>
     <use xlink:href="#DejaVuSans-69" x="1479.638672"/>
     <use xlink:href="#DejaVuSans-74" x="1507.421875"/>
     <use xlink:href="#DejaVuSans-79" x="1546.630859"/>
    </g>
   </g>
   <g id="legend_1">
    <g id="patch_7">
     <path d="M 190.32 379.48 
L 380.72 379.48 
Q 382.72 379.48 382.72 377.48 
L 382.72 275.733125 
Q 382.72 273.733125 380.72 273.733125 
L 190.32 273.733125 
Q 188.32 273.733125 188.32 275.733125 
L 188.32 377.48 
Q 188.32 379.48 190.32 379.48 
z
" style="fill: #ffffff; opacity: 0.8; stroke: #cccccc; stroke-linejoin: miter"/>
    </g>
    <g id="line2d_19">
     <path d="M 192.32 281.831563 
L 202.32 281.831563 
L 212.32 281.831563 
" style="fill: none; stroke: #1f77b4; stroke-opacity: 0.3; stroke-linecap: square"/>
    </g>
    <g id="text_16">
     <!-- ROC fold 0 (AUC = 0.96) -->
     <g transform="translate(220.32 285.331563) scale(0.1 -0.1)">
      <defs>
       <path id="DejaVuSans-66" d="M 2375 4863 
L 2375 4384 
L 1825 4384 
Q 1516 4384 1395 4259 
Q 1275 4134 1275 3809 
L 1275 3500 
L 2222 3500 
L 2222 3053 
L 1275 3053 
L 1275 0 
L 697 0 
L 697 3053 
L 147 3053 
L 147 3500 
L 697 3500 
L 697 3744 
Q 697 4328 969 4595 
Q 1241 4863 1831 4863 
L 2375 4863 
z
" transform="scale(0.015625)"/>
       <path id="DejaVuSans-64" d="M 2906 2969 
L 2906 4863 
L 3481 4863 
L 3481 0 
L 2906 0 
L 2906 525 
Q 2725 213 2448 61 
Q 2172 -91 1784 -91 
Q 1150 -91 751 415 
Q 353 922 353 1747 
Q 353 2572 751 3078 
Q 1150 3584 1784 3584 
Q 2172 3584 2448 3432 
Q 2725 3281 2906 2969 
z
M 947 1747 
Q 947 1113 1208 752 
Q 1469 391 1925 391 
Q 2381 391 2643 752 
Q 2906 1113 2906 1747 
Q 2906 2381 2643 2742 
Q 2381 3103 1925 3103 
Q 1469 3103 1208 2742 
Q 947 2381 947 1747 
z
" transform="scale(0.015625)"/>
       <path id="DejaVuSans-28" d="M 1984 4856 
Q 1566 4138 1362 3434 
Q 1159 2731 1159 2009 
Q 1159 1288 1364 580 
Q 1569 -128 1984 -844 
L 1484 -844 
Q 1016 -109 783 600 
Q 550 1309 550 2009 
Q 550 2706 781 3412 
Q 1013 4119 1484 4856 
L 1984 4856 
z
" transform="scale(0.015625)"/>
       <path id="DejaVuSans-41" d="M 2188 4044 
L 1331 1722 
L 3047 1722 
L 2188 4044 
z
M 1831 4666 
L 2547 4666 
L 4325 0 
L 3669 0 
L 3244 1197 
L 1141 1197 
L 716 0 
L 50 0 
L 1831 4666 
z
" transform="scale(0.015625)"/>
       <path id="DejaVuSans-55" d="M 556 4666 
L 1191 4666 
L 1191 1831 
Q 1191 1081 1462 751 
Q 1734 422 2344 422 
Q 2950 422 3222 751 
Q 3494 1081 3494 1831 
L 3494 4666 
L 4128 4666 
L 4128 1753 
Q 4128 841 3676 375 
Q 3225 -91 2344 -91 
Q 1459 -91 1007 375 
Q 556 841 556 1753 
L 556 4666 
z
" transform="scale(0.015625)"/>
       <path id="DejaVuSans-3d" d="M 678 2906 
L 4684 2906 
L 4684 2381 
L 678 2381 
L 678 2906 
z
M 678 1631 
L 4684 1631 
L 4684 1100 
L 678 1100 
L 678 1631 
z
" transform="scale(0.015625)"/>
       <path id="DejaVuSans-39" d="M 703 97 
L 703 672 
Q 941 559 1184 500 
Q 1428 441 1663 441 
Q 2288 441 2617 861 
Q 2947 1281 2994 2138 
Q 2813 1869 2534 1725 
Q 2256 1581 1919 1581 
Q 1219 1581 811 2004 
Q 403 2428 403 3163 
Q 403 3881 828 4315 
Q 1253 4750 1959 4750 
Q 2769 4750 3195 4129 
Q 3622 3509 3622 2328 
Q 3622 1225 3098 567 
Q 2575 -91 1691 -91 
Q 1453 -91 1209 -44 
Q 966 3 703 97 
z
M 1959 2075 
Q 2384 2075 2632 2365 
Q 2881 2656 2881 3163 
Q 2881 3666 2632 3958 
Q 2384 4250 1959 4250 
Q 1534 4250 1286 3958 
Q 1038 3666 1038 3163 
Q 1038 2656 1286 2365 
Q 1534 2075 1959 2075 
z
" transform="scale(0.015625)"/>
       <path id="DejaVuSans-29" d="M 513 4856 
L 1013 4856 
Q 1481 4119 1714 3412 
Q 1947 2706 1947 2009 
Q 1947 1309 1714 600 
Q 1481 -109 1013 -844 
L 513 -844 
Q 928 -128 1133 580 
Q 1338 1288 1338 2009 
Q 1338 2731 1133 3434 
Q 928 4138 513 4856 
z
" transform="scale(0.015625)"/>
      </defs>
      <use xlink:href="#DejaVuSans-52"/>
      <use xlink:href="#DejaVuSans-4f" x="69.482422"/>
      <use xlink:href="#DejaVuSans-43" x="148.193359"/>
      <use xlink:href="#DejaVuSans-20" x="218.017578"/>
      <use xlink:href="#DejaVuSans-66" x="249.804688"/>
      <use xlink:href="#DejaVuSans-6f" x="285.009766"/>
      <use xlink:href="#DejaVuSans-6c" x="346.191406"/>
      <use xlink:href="#DejaVuSans-64" x="373.974609"/>
      <use xlink:href="#DejaVuSans-20" x="437.451172"/>
      <use xlink:href="#DejaVuSans-30" x="469.238281"/>
      <use xlink:href="#DejaVuSans-20" x="532.861328"/>
      <use xlink:href="#DejaVuSans-28" x="564.648438"/>
      <use xlink:href="#DejaVuSans-41" x="603.662109"/>
      <use xlink:href="#DejaVuSans-55" x="672.070312"/>
      <use xlink:href="#DejaVuSans-43" x="745.263672"/>
      <use xlink:href="#DejaVuSans-20" x="815.087891"/>
      <use xlink:href="#DejaVuSans-3d" x="846.875"/>
      <use xlink:href="#DejaVuSans-20" x="930.664062"/>
      <use xlink:href="#DejaVuSans-30" x="962.451172"/>
      <use xlink:href="#DejaVuSans-2e" x="1026.074219"/>
      <use xlink:href="#DejaVuSans-39" x="1057.861328"/>
      <use xlink:href="#DejaVuSans-36" x="1121.484375"/>
      <use xlink:href="#DejaVuSans-29" x="1185.107422"/>
     </g>
    </g>
    <g id="line2d_20">
     <path d="M 192.32 296.509688 
L 202.32 296.509688 
L 212.32 296.509688 
" style="fill: none; stroke: #ff7f0e; stroke-opacity: 0.3; stroke-linecap: square"/>
    </g>
    <g id="text_17">
     <!-- ROC fold 1 (AUC = 0.97) -->
     <g transform="translate(220.32 300.009688) scale(0.1 -0.1)">
      <defs>
       <path id="DejaVuSans-37" d="M 525 4666 
L 3525 4666 
L 3525 4397 
L 1831 0 
L 1172 0 
L 2766 4134 
L 525 4134 
L 525 4666 
z
" transform="scale(0.015625)"/>
      </defs>
      <use xlink:href="#DejaVuSans-52"/>
      <use xlink:href="#DejaVuSans-4f" x="69.482422"/>
      <use xlink:href="#DejaVuSans-43" x="148.193359"/>
      <use xlink:href="#DejaVuSans-20" x="218.017578"/>
      <use xlink:href="#DejaVuSans-66" x="249.804688"/>
      <use xlink:href="#DejaVuSans-6f" x="285.009766"/>
      <use xlink:href="#DejaVuSans-6c" x="346.191406"/>
      <use xlink:href="#DejaVuSans-64" x="373.974609"/>
      <use xlink:href="#DejaVuSans-20" x="437.451172"/>
      <use xlink:href="#DejaVuSans-31" x="469.238281"/>
      <use xlink:href="#DejaVuSans-20" x="532.861328"/>
      <use xlink:href="#DejaVuSans-28" x="564.648438"/>
      <use xlink:href="#DejaVuSans-41" x="603.662109"/>
      <use xlink:href="#DejaVuSans-55" x="672.070312"/>
      <use xlink:href="#DejaVuSans-43" x="745.263672"/>
      <use xlink:href="#DejaVuSans-20" x="815.087891"/>
      <use xlink:href="#DejaVuSans-3d" x="846.875"/>
      <use xlink:href="#DejaVuSans-20" x="930.664062"/>
      <use xlink:href="#DejaVuSans-30" x="962.451172"/>
      <use xlink:href="#DejaVuSans-2e" x="1026.074219"/>
      <use xlink:href="#DejaVuSans-39" x="1057.861328"/>
      <use xlink:href="#DejaVuSans-37" x="1121.484375"/>
      <use xlink:href="#DejaVuSans-29" x="1185.107422"/>
     </g>
    </g>
    <g id="line2d_21">
     <path d="M 192.32 311.187813 
L 202.32 311.187813 
L 212.32 311.187813 
" style="fill: none; stroke: #2ca02c; stroke-opacity: 0.3; stroke-linecap: square"/>
    </g>
    <g id="text_18">
     <!-- ROC fold 2 (AUC = 0.96) -->
     <g transform="translate(220.32 314.687813) scale(0.1 -0.1)">
      <use xlink:href="#DejaVuSans-52"/>
      <use xlink:href="#DejaVuSans-4f" x="69.482422"/>
      <use xlink:href="#DejaVuSans-43" x="148.193359"/>
      <use xlink:href="#DejaVuSans-20" x="218.017578"/>
      <use xlink:href="#DejaVuSans-66" x="249.804688"/>
      <use xlink:href="#DejaVuSans-6f" x="285.009766"/>
      <use xlink:href="#DejaVuSans-6c" x="346.191406"/>
      <use xlink:href="#DejaVuSans-64" x="373.974609"/>
      <use xlink:href="#DejaVuSans-20" x="437.451172"/>
      <use xlink:href="#DejaVuSans-32" x="469.238281"/>
      <use xlink:href="#DejaVuSans-20" x="532.861328"/>
      <use xlink:href="#DejaVuSans-28" x="564.648438"/>
      <use xlink:href="#DejaVuSans-41" x="603.662109"/>
      <use xlink:href="#DejaVuSans-55" x="672.070312"/>
      <use xlink:href="#DejaVuSans-43" x="745.263672"/>
      <use xlink:href="#DejaVuSans-20" x="815.087891"/>
      <use xlink:href="#DejaVuSans-3d" x="846.875"/>
      <use xlink:href="#DejaVuSans-20" x="930.664062"/>
      <use xlink:href="#DejaVuSans-30" x="962.451172"/>
      <use xlink:href="#DejaVuSans-2e" x="1026.074219"/>
      <use xlink:href="#DejaVuSans-39" x="1057.861328"/>
      <use xlink:href="#DejaVuSans-36" x="1121.484375"/>
      <use xlink:href="#DejaVuSans-29" x="1185.107422"/>
     </g>
    </g>
    <g id="line2d_22">
     <path d="M 192.32 325.865938 
L 202.32 325.865938 
L 212.32 325.865938 
" style="fill: none; stroke: #d62728; stroke-opacity: 0.3; stroke-linecap: square"/>
    </g>
    <g id="text_19">
     <!-- ROC fold 3 (AUC = 0.96) -->
     <g transform="translate(220.32 329.365938) scale(0.1 -0.1)">
      <defs>
       <path id="DejaVuSans-33" d="M 2597 2516 
Q 3050 2419 3304 2112 
Q 3559 1806 3559 1356 
Q 3559 666 3084 287 
Q 2609 -91 1734 -91 
Q 1441 -91 1130 -33 
Q 819 25 488 141 
L 488 750 
Q 750 597 1062 519 
Q 1375 441 1716 441 
Q 2309 441 2620 675 
Q 2931 909 2931 1356 
Q 2931 1769 2642 2001 
Q 2353 2234 1838 2234 
L 1294 2234 
L 1294 2753 
L 1863 2753 
Q 2328 2753 2575 2939 
Q 2822 3125 2822 3475 
Q 2822 3834 2567 4026 
Q 2313 4219 1838 4219 
Q 1578 4219 1281 4162 
Q 984 4106 628 3988 
L 628 4550 
Q 988 4650 1302 4700 
Q 1616 4750 1894 4750 
Q 2613 4750 3031 4423 
Q 3450 4097 3450 3541 
Q 3450 3153 3228 2886 
Q 3006 2619 2597 2516 
z
" transform="scale(0.015625)"/>
      </defs>
      <use xlink:href="#DejaVuSans-52"/>
      <use xlink:href="#DejaVuSans-4f" x="69.482422"/>
      <use xlink:href="#DejaVuSans-43" x="148.193359"/>
      <use xlink:href="#DejaVuSans-20" x="218.017578"/>
      <use xlink:href="#DejaVuSans-66" x="249.804688"/>
      <use xlink:href="#DejaVuSans-6f" x="285.009766"/>
      <use xlink:href="#DejaVuSans-6c" x="346.191406"/>
      <use xlink:href="#DejaVuSans-64" x="373.974609"/>
      <use xlink:href="#DejaVuSans-20" x="437.451172"/>
      <use xlink:href="#DejaVuSans-33" x="469.238281"/>
      <use xlink:href="#DejaVuSans-20" x="532.861328"/>
      <use xlink:href="#DejaVuSans-28" x="564.648438"/>
      <use xlink:href="#DejaVuSans-41" x="603.662109"/>
      <use xlink:href="#DejaVuSans-55" x="672.070312"/>
      <use xlink:href="#DejaVuSans-43" x="745.263672"/>
      <use xlink:href="#DejaVuSans-20" x="815.087891"/>
      <use xlink:href="#DejaVuSans-3d" x="846.875"/>
      <use xlink:href="#DejaVuSans-20" x="930.664062"/>
      <use xlink:href="#DejaVuSans-30" x="962.451172"/>
      <use xlink:href="#DejaVuSans-2e" x="1026.074219"/>
      <use xlink:href="#DejaVuSans-39" x="1057.861328"/>
      <use xlink:href="#DejaVuSans-36" x="1121.484375"/>
      <use xlink:href="#DejaVuSans-29" x="1185.107422"/>
     </g>
    </g>
    <g id="line2d_23">
     <path d="M 192.32 340.544062 
L 202.32 340.544062 
L 212.32 340.544062 
" style="fill: none; stroke: #9467bd; stroke-opacity: 0.3; stroke-linecap: square"/>
    </g>
    <g id="text_20">
     <!-- ROC fold 4 (AUC = 0.96) -->
     <g transform="translate(220.32 344.044062) scale(0.1 -0.1)">
      <use xlink:href="#DejaVuSans-52"/>
      <use xlink:href="#DejaVuSans-4f" x="69.482422"/>
      <use xlink:href="#DejaVuSans-43" x="148.193359"/>
      <use xlink:href="#DejaVuSans-20" x="218.017578"/>
      <use xlink:href="#DejaVuSans-66" x="249.804688"/>
      <use xlink:href="#DejaVuSans-6f" x="285.009766"/>
      <use xlink:href="#DejaVuSans-6c" x="346.191406"/>
      <use xlink:href="#DejaVuSans-64" x="373.974609"/>
      <use xlink:href="#DejaVuSans-20" x="437.451172"/>
      <use xlink:href="#DejaVuSans-34" x="469.238281"/>
      <use xlink:href="#DejaVuSans-20" x="532.861328"/>
      <use xlink:href="#DejaVuSans-28" x="564.648438"/>
      <use xlink:href="#DejaVuSans-41" x="603.662109"/>
      <use xlink:href="#DejaVuSans-55" x="672.070312"/>
      <use xlink:href="#DejaVuSans-43" x="745.263672"/>
      <use xlink:href="#DejaVuSans-20" x="815.087891"/>
      <use xlink:href="#DejaVuSans-3d" x="846.875"/>
      <use xlink:href="#DejaVuSans-20" x="930.664062"/>
      <use xlink:href="#DejaVuSans-30" x="962.451172"/>
      <use xlink:href="#DejaVuSans-2e" x="1026.074219"/>
      <use xlink:href="#DejaVuSans-39" x="1057.861328"/>
      <use xlink:href="#DejaVuSans-36" x="1121.484375"/>
      <use xlink:href="#DejaVuSans-29" x="1185.107422"/>
     </g>
    </g>
    <g id="line2d_24">
     <path d="M 192.32 355.222188 
L 202.32 355.222188 
L 212.32 355.222188 
" style="fill: none; stroke: #0000ff; stroke-opacity: 0.8; stroke-width: 2; stroke-linecap: square"/>
    </g>
    <g id="text_21">
     <!-- Mean ROC (AUC = 0.96 $\pm$ 0.00) -->
     <g transform="translate(220.32 358.722188) scale(0.1 -0.1)">
      <defs>
       <path id="DejaVuSans-b1" d="M 2944 4013 
L 2944 2803 
L 4684 2803 
L 4684 2272 
L 2944 2272 
L 2944 1063 
L 2419 1063 
L 2419 2272 
L 678 2272 
L 678 2803 
L 2419 2803 
L 2419 4013 
L 2944 4013 
z
M 678 531 
L 4684 531 
L 4684 0 
L 678 0 
L 678 531 
z
" transform="scale(0.015625)"/>
      </defs>
      <use xlink:href="#DejaVuSans-4d" transform="translate(0 0.125)"/>
      <use xlink:href="#DejaVuSans-65" transform="translate(86.279297 0.125)"/>
      <use xlink:href="#DejaVuSans-61" transform="translate(147.802734 0.125)"/>
      <use xlink:href="#DejaVuSans-6e" transform="translate(209.082031 0.125)"/>
      <use xlink:href="#DejaVuSans-20" transform="translate(272.460938 0.125)"/>
      <use xlink:href="#DejaVuSans-52" transform="translate(304.248047 0.125)"/>
      <use xlink:href="#DejaVuSans-4f" transform="translate(373.730469 0.125)"/>
      <use xlink:href="#DejaVuSans-43" transform="translate(452.441406 0.125)"/>
      <use xlink:href="#DejaVuSans-20" transform="translate(522.265625 0.125)"/>
      <use xlink:href="#DejaVuSans-28" transform="translate(554.052734 0.125)"/>
      <use xlink:href="#DejaVuSans-41" transform="translate(593.066406 0.125)"/>
      <use xlink:href="#DejaVuSans-55" transform="translate(661.474609 0.125)"/>
      <use xlink:href="#DejaVuSans-43" transform="translate(734.667969 0.125)"/>
      <use xlink:href="#DejaVuSans-20" transform="translate(804.492188 0.125)"/>
      <use xlink:href="#DejaVuSans-3d" transform="translate(836.279297 0.125)"/>
      <use xlink:href="#DejaVuSans-20" transform="translate(920.068359 0.125)"/>
      <use xlink:href="#DejaVuSans-30" transform="translate(951.855469 0.125)"/>
      <use xlink:href="#DejaVuSans-2e" transform="translate(1015.478516 0.125)"/>
      <use xlink:href="#DejaVuSans-39" transform="translate(1047.265625 0.125)"/>
      <use xlink:href="#DejaVuSans-36" transform="translate(1110.888672 0.125)"/>
      <use xlink:href="#DejaVuSans-20" transform="translate(1174.511719 0.125)"/>
      <use xlink:href="#DejaVuSans-b1" transform="translate(1206.298828 0.125)"/>
      <use xlink:href="#DejaVuSans-20" transform="translate(1290.087891 0.125)"/>
      <use xlink:href="#DejaVuSans-30" transform="translate(1321.875 0.125)"/>
      <use xlink:href="#DejaVuSans-2e" transform="translate(1385.498047 0.125)"/>
      <use xlink:href="#DejaVuSans-30" transform="translate(1417.285156 0.125)"/>
      <use xlink:href="#DejaVuSans-30" transform="translate(1480.908203 0.125)"/>
      <use xlink:href="#DejaVuSans-29" transform="translate(1544.53125 0.125)"/>
     </g>
    </g>
    <g id="patch_8">
     <path d="M 192.32 373.400313 
L 212.32 373.400313 
L 212.32 366.400313 
L 192.32 366.400313 
z
" style="fill: #808080; fill-opacity: 0.2; stroke: #808080; stroke-opacity: 0.2; stroke-linejoin: miter"/>
    </g>
    <g id="text_22">
     <!-- $\pm$ 1 std. dev. -->
     <g transform="translate(220.32 373.400313) scale(0.1 -0.1)">
      <use xlink:href="#DejaVuSans-b1" transform="translate(0 0.015625)"/>
      <use xlink:href="#DejaVuSans-20" transform="translate(83.789062 0.015625)"/>
      <use xlink:href="#DejaVuSans-31" transform="translate(115.576172 0.015625)"/>
      <use xlink:href="#DejaVuSans-20" transform="translate(179.199219 0.015625)"/>
      <use xlink:href="#DejaVuSans-73" transform="translate(210.986328 0.015625)"/>
      <use xlink:href="#DejaVuSans-74" transform="translate(263.085938 0.015625)"/>
      <use xlink:href="#DejaVuSans-64" transform="translate(302.294922 0.015625)"/>
      <use xlink:href="#DejaVuSans-2e" transform="translate(365.771484 0.015625)"/>
      <use xlink:href="#DejaVuSans-20" transform="translate(397.558594 0.015625)"/>
      <use xlink:href="#DejaVuSans-64" transform="translate(429.345703 0.015625)"/>
      <use xlink:href="#DejaVuSans-65" transform="translate(492.822266 0.015625)"/>
      <use xlink:href="#DejaVuSans-76" transform="translate(554.345703 0.015625)"/>
      <use xlink:href="#DejaVuSans-2e" transform="translate(613.525391 0.015625)"/>
     </g>
    </g>
   </g>
  </g>
 </g>
 <defs>
  <clipPath id="p9910c6dfe0">
   <rect x="55.08" y="51.84" width="332.64" height="332.64"/>
  </clipPath>
 </defs>
</svg>
