<?xml version="1.0" encoding="utf-8" standalone="no"?>
<!DOCTYPE svg PUBLIC "-//W3C//DTD SVG 1.1//EN"
  "http://www.w3.org/Graphics/SVG/1.1/DTD/svg11.dtd">
<svg xmlns:xlink="http://www.w3.org/1999/xlink" width="432pt" height="432pt" viewBox="0 0 432 432" xmlns="http://www.w3.org/2000/svg" version="1.1">
 <metadata>
  <rdf:RDF xmlns:dc="http://purl.org/dc/elements/1.1/" xmlns:cc="http://creativecommons.org/ns#" xmlns:rdf="http://www.w3.org/1999/02/22-rdf-syntax-ns#">
   <cc:Work>
    <dc:type rdf:resource="http://purl.org/dc/dcmitype/StillImage"/>
    <dc:date>2024-01-24T12:43:21.876741</dc:date>
    <dc:format>image/svg+xml</dc:format>
    <dc:creator>
     <cc:Agent>
      <dc:title>Matplotlib v3.6.3, https://matplotlib.org/</dc:title>
     </cc:Agent>
    </dc:creator>
   </cc:Work>
  </rdf:RDF>
 </metadata>
 <defs>
  <style type="text/css">*{stroke-linejoin: round; stroke-linecap: butt}</style>
 </defs>
 <g id="figure_1">
  <g id="patch_1">
   <path d="M 0 432 
L 432 432 
L 432 0 
L 0 0 
z
" style="fill: #ffffff"/>
  </g>
  <g id="axes_1">
   <g id="patch_2">
    <path d="M 55.08 384.48 
L 387.72 384.48 
L 387.72 51.84 
L 55.08 51.84 
z
" style="fill: #ffffff"/>
   </g>
   <g id="PolyCollection_1">
    <defs>
     <path id="mb6abd2e7b1" d="M 70.2 -62.64 
L 70.2 -62.64 
L 73.254545 -248.351854 
L 76.309091 -297.216286 
L 79.363636 -323.945012 
L 82.418182 -333.887098 
L 85.472727 -339.414152 
L 88.527273 -343.720787 
L 91.581818 -346.480038 
L 94.636364 -348.392084 
L 97.690909 -350.055285 
L 100.745455 -351.555013 
L 103.8 -353.094745 
L 106.854545 -353.627884 
L 109.909091 -354.618841 
L 112.963636 -355.480897 
L 116.018182 -356.393503 
L 119.072727 -357.002999 
L 122.127273 -357.649383 
L 125.181818 -358.334978 
L 128.236364 -358.789928 
L 131.290909 -359.264507 
L 134.345455 -359.607988 
L 137.4 -359.826319 
L 140.454545 -360.31693 
L 143.509091 -360.710357 
L 146.563636 -360.866258 
L 149.618182 -361.192023 
L 152.672727 -361.295478 
L 155.727273 -361.543784 
L 158.781818 -361.768489 
L 161.836364 -361.989175 
L 164.890909 -362.119556 
L 167.945455 -362.312256 
L 171 -362.527529 
L 174.054545 -362.904034 
L 177.109091 -363.117307 
L 180.163636 -363.246558 
L 183.218182 -363.371041 
L 186.272727 -363.388235 
L 189.327273 -363.49598 
L 192.381818 -363.622388 
L 195.436364 -363.706624 
L 198.490909 -363.763922 
L 201.545455 -363.856134 
L 204.6 -363.851843 
L 207.654545 -363.918766 
L 210.709091 -363.972048 
L 213.763636 -364.076911 
L 216.818182 -364.079922 
L 219.872727 -364.125548 
L 222.927273 -364.185251 
L 225.981818 -364.213711 
L 229.036364 -364.222543 
L 232.090909 -364.29058 
L 235.145455 -364.349669 
L 238.2 -364.349669 
L 241.254545 -364.349669 
L 244.309091 -364.510754 
L 247.363636 -364.510754 
L 250.418182 -364.510754 
L 253.472727 -364.524186 
L 256.527273 -364.552031 
L 259.581818 -364.580839 
L 262.636364 -364.580839 
L 265.690909 -364.604051 
L 268.745455 -364.666184 
L 271.8 -364.785152 
L 274.854545 -364.83482 
L 277.909091 -364.8681 
L 280.963636 -364.8681 
L 284.018182 -364.913627 
L 287.072727 -364.913627 
L 290.127273 -364.913627 
L 293.181818 -364.925215 
L 296.236364 -364.946284 
L 299.290909 -364.946284 
L 302.345455 -364.976803 
L 305.4 -365.04 
L 308.454545 -365.04 
L 311.509091 -365.04 
L 314.563636 -365.04 
L 317.618182 -365.04 
L 320.672727 -365.04 
L 323.727273 -365.04 
L 326.781818 -365.04 
L 329.836364 -365.04 
L 332.890909 -365.04 
L 335.945455 -365.04 
L 339 -365.04 
L 342.054545 -365.04 
L 345.109091 -365.04 
L 348.163636 -365.04 
L 351.218182 -365.04 
L 354.272727 -365.04 
L 357.327273 -365.04 
L 360.381818 -365.04 
L 363.436364 -365.04 
L 366.490909 -365.04 
L 369.545455 -365.04 
L 372.6 -365.04 
L 372.6 -365.04 
L 372.6 -365.04 
L 369.545455 -365.04 
L 366.490909 -365.04 
L 363.436364 -365.04 
L 360.381818 -365.04 
L 357.327273 -365.04 
L 354.272727 -365.04 
L 351.218182 -365.04 
L 348.163636 -365.04 
L 345.109091 -365.04 
L 342.054545 -365.04 
L 339 -365.04 
L 335.945455 -365.04 
L 332.890909 -365.04 
L 329.836364 -365.04 
L 326.781818 -365.04 
L 323.727273 -365.04 
L 320.672727 -365.04 
L 317.618182 -365.04 
L 314.563636 -365.04 
L 311.509091 -365.04 
L 308.454545 -365.04 
L 305.4 -365.04 
L 302.345455 -365.04 
L 299.290909 -365.04 
L 296.236364 -365.04 
L 293.181818 -365.028404 
L 290.127273 -364.997876 
L 287.072727 -364.997876 
L 284.018182 -364.997876 
L 280.963636 -365.001286 
L 277.909091 -365.001286 
L 274.854545 -364.992434 
L 271.8 -364.999971 
L 268.745455 -364.992544 
L 265.690909 -365.012545 
L 262.636364 -364.99364 
L 259.581818 -364.99364 
L 256.527273 -364.938184 
L 253.472727 -364.923898 
L 250.418182 -364.853066 
L 247.363636 -364.853066 
L 244.309091 -364.853066 
L 241.254545 -364.803493 
L 238.2 -364.803493 
L 235.145455 -364.803493 
L 232.090909 -364.778334 
L 229.036364 -364.762122 
L 225.981818 -364.686705 
L 222.927273 -364.673034 
L 219.872727 -364.648473 
L 216.818182 -364.567734 
L 213.763636 -364.444378 
L 210.709091 -364.38073 
L 207.654545 -364.391881 
L 204.6 -364.332423 
L 201.545455 -364.286015 
L 198.490909 -364.251847 
L 195.436364 -364.140647 
L 192.381818 -364.056386 
L 189.327273 -363.930034 
L 186.272727 -363.911384 
L 183.218182 -363.844329 
L 180.163636 -363.716066 
L 177.109091 -363.508337 
L 174.054545 -363.384615 
L 171 -363.297716 
L 167.945455 -363.133848 
L 164.890909 -362.989524 
L 161.836364 -362.867174 
L 158.781818 -362.666587 
L 155.727273 -362.427917 
L 152.672727 -362.212878 
L 149.618182 -361.852957 
L 146.563636 -361.715334 
L 143.509091 -361.407859 
L 140.454545 -361.127282 
L 137.4 -360.817538 
L 134.345455 -360.361807 
L 131.290909 -359.82064 
L 128.236364 -359.49485 
L 125.181818 -359.14943 
L 122.127273 -358.739749 
L 119.072727 -358.459412 
L 116.018182 -357.678666 
L 112.963636 -357.327469 
L 109.909091 -356.588785 
L 106.854545 -355.599819 
L 103.8 -354.953448 
L 100.745455 -354.00766 
L 97.690909 -352.642876 
L 94.636364 -351.146584 
L 91.581818 -349.056796 
L 88.527273 -346.550529 
L 85.472727 -343.316711 
L 82.418182 -337.975351 
L 79.363636 -331.067164 
L 76.309091 -316.470803 
L 73.254545 -276.744351 
L 70.2 -62.64 
z
" style="stroke: #808080; stroke-opacity: 0.2"/>
    </defs>
    <g clip-path="url(#p940a294d18)">
     <use xlink:href="#mb6abd2e7b1" x="0" y="432" style="fill: #808080; fill-opacity: 0.2; stroke: #808080; stroke-opacity: 0.2"/>
    </g>
   </g>
   <g id="matplotlib.axis_1">
    <g id="xtick_1">
     <g id="line2d_1">
      <defs>
       <path id="m944868f2c5" d="M 0 0 
L 0 3.5 
" style="stroke: #000000; stroke-width: 0.8"/>
      </defs>
      <g>
       <use xlink:href="#m944868f2c5" x="70.2" y="384.48" style="stroke: #000000; stroke-width: 0.8"/>
      </g>
     </g>
     <g id="text_1">
      <!-- 0.0 -->
      <g transform="translate(62.248438 399.078438) scale(0.1 -0.1)">
       <defs>
        <path id="DejaVuSans-30" d="M 2034 4250 
Q 1547 4250 1301 3770 
Q 1056 3291 1056 2328 
Q 1056 1369 1301 889 
Q 1547 409 2034 409 
Q 2525 409 2770 889 
Q 3016 1369 3016 2328 
Q 3016 3291 2770 3770 
Q 2525 4250 2034 4250 
z
M 2034 4750 
Q 2819 4750 3233 4129 
Q 3647 3509 3647 2328 
Q 3647 1150 3233 529 
Q 2819 -91 2034 -91 
Q 1250 -91 836 529 
Q 422 1150 422 2328 
Q 422 3509 836 4129 
Q 1250 4750 2034 4750 
z
" transform="scale(0.015625)"/>
        <path id="DejaVuSans-2e" d="M 684 794 
L 1344 794 
L 1344 0 
L 684 0 
L 684 794 
z
" transform="scale(0.015625)"/>
       </defs>
       <use xlink:href="#DejaVuSans-30"/>
       <use xlink:href="#DejaVuSans-2e" x="63.623047"/>
       <use xlink:href="#DejaVuSans-30" x="95.410156"/>
      </g>
     </g>
    </g>
    <g id="xtick_2">
     <g id="line2d_2">
      <g>
       <use xlink:href="#m944868f2c5" x="130.68" y="384.48" style="stroke: #000000; stroke-width: 0.8"/>
      </g>
     </g>
     <g id="text_2">
      <!-- 0.2 -->
      <g transform="translate(122.728438 399.078438) scale(0.1 -0.1)">
       <defs>
        <path id="DejaVuSans-32" d="M 1228 531 
L 3431 531 
L 3431 0 
L 469 0 
L 469 531 
Q 828 903 1448 1529 
Q 2069 2156 2228 2338 
Q 2531 2678 2651 2914 
Q 2772 3150 2772 3378 
Q 2772 3750 2511 3984 
Q 2250 4219 1831 4219 
Q 1534 4219 1204 4116 
Q 875 4013 500 3803 
L 500 4441 
Q 881 4594 1212 4672 
Q 1544 4750 1819 4750 
Q 2544 4750 2975 4387 
Q 3406 4025 3406 3419 
Q 3406 3131 3298 2873 
Q 3191 2616 2906 2266 
Q 2828 2175 2409 1742 
Q 1991 1309 1228 531 
z
" transform="scale(0.015625)"/>
       </defs>
       <use xlink:href="#DejaVuSans-30"/>
       <use xlink:href="#DejaVuSans-2e" x="63.623047"/>
       <use xlink:href="#DejaVuSans-32" x="95.410156"/>
      </g>
     </g>
    </g>
    <g id="xtick_3">
     <g id="line2d_3">
      <g>
       <use xlink:href="#m944868f2c5" x="191.16" y="384.48" style="stroke: #000000; stroke-width: 0.8"/>
      </g>
     </g>
     <g id="text_3">
      <!-- 0.4 -->
      <g transform="translate(183.208438 399.078438) scale(0.1 -0.1)">
       <defs>
        <path id="DejaVuSans-34" d="M 2419 4116 
L 825 1625 
L 2419 1625 
L 2419 4116 
z
M 2253 4666 
L 3047 4666 
L 3047 1625 
L 3713 1625 
L 3713 1100 
L 3047 1100 
L 3047 0 
L 2419 0 
L 2419 1100 
L 313 1100 
L 313 1709 
L 2253 4666 
z
" transform="scale(0.015625)"/>
       </defs>
       <use xlink:href="#DejaVuSans-30"/>
       <use xlink:href="#DejaVuSans-2e" x="63.623047"/>
       <use xlink:href="#DejaVuSans-34" x="95.410156"/>
      </g>
     </g>
    </g>
    <g id="xtick_4">
     <g id="line2d_4">
      <g>
       <use xlink:href="#m944868f2c5" x="251.64" y="384.48" style="stroke: #000000; stroke-width: 0.8"/>
      </g>
     </g>
     <g id="text_4">
      <!-- 0.6 -->
      <g transform="translate(243.688438 399.078438) scale(0.1 -0.1)">
       <defs>
        <path id="DejaVuSans-36" d="M 2113 2584 
Q 1688 2584 1439 2293 
Q 1191 2003 1191 1497 
Q 1191 994 1439 701 
Q 1688 409 2113 409 
Q 2538 409 2786 701 
Q 3034 994 3034 1497 
Q 3034 2003 2786 2293 
Q 2538 2584 2113 2584 
z
M 3366 4563 
L 3366 3988 
Q 3128 4100 2886 4159 
Q 2644 4219 2406 4219 
Q 1781 4219 1451 3797 
Q 1122 3375 1075 2522 
Q 1259 2794 1537 2939 
Q 1816 3084 2150 3084 
Q 2853 3084 3261 2657 
Q 3669 2231 3669 1497 
Q 3669 778 3244 343 
Q 2819 -91 2113 -91 
Q 1303 -91 875 529 
Q 447 1150 447 2328 
Q 447 3434 972 4092 
Q 1497 4750 2381 4750 
Q 2619 4750 2861 4703 
Q 3103 4656 3366 4563 
z
" transform="scale(0.015625)"/>
       </defs>
       <use xlink:href="#DejaVuSans-30"/>
       <use xlink:href="#DejaVuSans-2e" x="63.623047"/>
       <use xlink:href="#DejaVuSans-36" x="95.410156"/>
      </g>
     </g>
    </g>
    <g id="xtick_5">
     <g id="line2d_5">
      <g>
       <use xlink:href="#m944868f2c5" x="312.12" y="384.48" style="stroke: #000000; stroke-width: 0.8"/>
      </g>
     </g>
     <g id="text_5">
      <!-- 0.8 -->
      <g transform="translate(304.168437 399.078438) scale(0.1 -0.1)">
       <defs>
        <path id="DejaVuSans-38" d="M 2034 2216 
Q 1584 2216 1326 1975 
Q 1069 1734 1069 1313 
Q 1069 891 1326 650 
Q 1584 409 2034 409 
Q 2484 409 2743 651 
Q 3003 894 3003 1313 
Q 3003 1734 2745 1975 
Q 2488 2216 2034 2216 
z
M 1403 2484 
Q 997 2584 770 2862 
Q 544 3141 544 3541 
Q 544 4100 942 4425 
Q 1341 4750 2034 4750 
Q 2731 4750 3128 4425 
Q 3525 4100 3525 3541 
Q 3525 3141 3298 2862 
Q 3072 2584 2669 2484 
Q 3125 2378 3379 2068 
Q 3634 1759 3634 1313 
Q 3634 634 3220 271 
Q 2806 -91 2034 -91 
Q 1263 -91 848 271 
Q 434 634 434 1313 
Q 434 1759 690 2068 
Q 947 2378 1403 2484 
z
M 1172 3481 
Q 1172 3119 1398 2916 
Q 1625 2713 2034 2713 
Q 2441 2713 2670 2916 
Q 2900 3119 2900 3481 
Q 2900 3844 2670 4047 
Q 2441 4250 2034 4250 
Q 1625 4250 1398 4047 
Q 1172 3844 1172 3481 
z
" transform="scale(0.015625)"/>
       </defs>
       <use xlink:href="#DejaVuSans-30"/>
       <use xlink:href="#DejaVuSans-2e" x="63.623047"/>
       <use xlink:href="#DejaVuSans-38" x="95.410156"/>
      </g>
     </g>
    </g>
    <g id="xtick_6">
     <g id="line2d_6">
      <g>
       <use xlink:href="#m944868f2c5" x="372.6" y="384.48" style="stroke: #000000; stroke-width: 0.8"/>
      </g>
     </g>
     <g id="text_6">
      <!-- 1.0 -->
      <g transform="translate(364.648438 399.078438) scale(0.1 -0.1)">
       <defs>
        <path id="DejaVuSans-31" d="M 794 531 
L 1825 531 
L 1825 4091 
L 703 3866 
L 703 4441 
L 1819 4666 
L 2450 4666 
L 2450 531 
L 3481 531 
L 3481 0 
L 794 0 
L 794 531 
z
" transform="scale(0.015625)"/>
       </defs>
       <use xlink:href="#DejaVuSans-31"/>
       <use xlink:href="#DejaVuSans-2e" x="63.623047"/>
       <use xlink:href="#DejaVuSans-30" x="95.410156"/>
      </g>
     </g>
    </g>
    <g id="text_7">
     <!-- False Positive Rate -->
     <g transform="translate(174.933594 412.756563) scale(0.1 -0.1)">
      <defs>
       <path id="DejaVuSans-46" d="M 628 4666 
L 3309 4666 
L 3309 4134 
L 1259 4134 
L 1259 2759 
L 3109 2759 
L 3109 2228 
L 1259 2228 
L 1259 0 
L 628 0 
L 628 4666 
z
" transform="scale(0.015625)"/>
       <path id="DejaVuSans-61" d="M 2194 1759 
Q 1497 1759 1228 1600 
Q 959 1441 959 1056 
Q 959 750 1161 570 
Q 1363 391 1709 391 
Q 2188 391 2477 730 
Q 2766 1069 2766 1631 
L 2766 1759 
L 2194 1759 
z
M 3341 1997 
L 3341 0 
L 2766 0 
L 2766 531 
Q 2569 213 2275 61 
Q 1981 -91 1556 -91 
Q 1019 -91 701 211 
Q 384 513 384 1019 
Q 384 1609 779 1909 
Q 1175 2209 1959 2209 
L 2766 2209 
L 2766 2266 
Q 2766 2663 2505 2880 
Q 2244 3097 1772 3097 
Q 1472 3097 1187 3025 
Q 903 2953 641 2809 
L 641 3341 
Q 956 3463 1253 3523 
Q 1550 3584 1831 3584 
Q 2591 3584 2966 3190 
Q 3341 2797 3341 1997 
z
" transform="scale(0.015625)"/>
       <path id="DejaVuSans-6c" d="M 603 4863 
L 1178 4863 
L 1178 0 
L 603 0 
L 603 4863 
z
" transform="scale(0.015625)"/>
       <path id="DejaVuSans-73" d="M 2834 3397 
L 2834 2853 
Q 2591 2978 2328 3040 
Q 2066 3103 1784 3103 
Q 1356 3103 1142 2972 
Q 928 2841 928 2578 
Q 928 2378 1081 2264 
Q 1234 2150 1697 2047 
L 1894 2003 
Q 2506 1872 2764 1633 
Q 3022 1394 3022 966 
Q 3022 478 2636 193 
Q 2250 -91 1575 -91 
Q 1294 -91 989 -36 
Q 684 19 347 128 
L 347 722 
Q 666 556 975 473 
Q 1284 391 1588 391 
Q 1994 391 2212 530 
Q 2431 669 2431 922 
Q 2431 1156 2273 1281 
Q 2116 1406 1581 1522 
L 1381 1569 
Q 847 1681 609 1914 
Q 372 2147 372 2553 
Q 372 3047 722 3315 
Q 1072 3584 1716 3584 
Q 2034 3584 2315 3537 
Q 2597 3491 2834 3397 
z
" transform="scale(0.015625)"/>
       <path id="DejaVuSans-65" d="M 3597 1894 
L 3597 1613 
L 953 1613 
Q 991 1019 1311 708 
Q 1631 397 2203 397 
Q 2534 397 2845 478 
Q 3156 559 3463 722 
L 3463 178 
Q 3153 47 2828 -22 
Q 2503 -91 2169 -91 
Q 1331 -91 842 396 
Q 353 884 353 1716 
Q 353 2575 817 3079 
Q 1281 3584 2069 3584 
Q 2775 3584 3186 3129 
Q 3597 2675 3597 1894 
z
M 3022 2063 
Q 3016 2534 2758 2815 
Q 2500 3097 2075 3097 
Q 1594 3097 1305 2825 
Q 1016 2553 972 2059 
L 3022 2063 
z
" transform="scale(0.015625)"/>
       <path id="DejaVuSans-20" transform="scale(0.015625)"/>
       <path id="DejaVuSans-50" d="M 1259 4147 
L 1259 2394 
L 2053 2394 
Q 2494 2394 2734 2622 
Q 2975 2850 2975 3272 
Q 2975 3691 2734 3919 
Q 2494 4147 2053 4147 
L 1259 4147 
z
M 628 4666 
L 2053 4666 
Q 2838 4666 3239 4311 
Q 3641 3956 3641 3272 
Q 3641 2581 3239 2228 
Q 2838 1875 2053 1875 
L 1259 1875 
L 1259 0 
L 628 0 
L 628 4666 
z
" transform="scale(0.015625)"/>
       <path id="DejaVuSans-6f" d="M 1959 3097 
Q 1497 3097 1228 2736 
Q 959 2375 959 1747 
Q 959 1119 1226 758 
Q 1494 397 1959 397 
Q 2419 397 2687 759 
Q 2956 1122 2956 1747 
Q 2956 2369 2687 2733 
Q 2419 3097 1959 3097 
z
M 1959 3584 
Q 2709 3584 3137 3096 
Q 3566 2609 3566 1747 
Q 3566 888 3137 398 
Q 2709 -91 1959 -91 
Q 1206 -91 779 398 
Q 353 888 353 1747 
Q 353 2609 779 3096 
Q 1206 3584 1959 3584 
z
" transform="scale(0.015625)"/>
       <path id="DejaVuSans-69" d="M 603 3500 
L 1178 3500 
L 1178 0 
L 603 0 
L 603 3500 
z
M 603 4863 
L 1178 4863 
L 1178 4134 
L 603 4134 
L 603 4863 
z
" transform="scale(0.015625)"/>
       <path id="DejaVuSans-74" d="M 1172 4494 
L 1172 3500 
L 2356 3500 
L 2356 3053 
L 1172 3053 
L 1172 1153 
Q 1172 725 1289 603 
Q 1406 481 1766 481 
L 2356 481 
L 2356 0 
L 1766 0 
Q 1100 0 847 248 
Q 594 497 594 1153 
L 594 3053 
L 172 3053 
L 172 3500 
L 594 3500 
L 594 4494 
L 1172 4494 
z
" transform="scale(0.015625)"/>
       <path id="DejaVuSans-76" d="M 191 3500 
L 800 3500 
L 1894 563 
L 2988 3500 
L 3597 3500 
L 2284 0 
L 1503 0 
L 191 3500 
z
" transform="scale(0.015625)"/>
       <path id="DejaVuSans-52" d="M 2841 2188 
Q 3044 2119 3236 1894 
Q 3428 1669 3622 1275 
L 4263 0 
L 3584 0 
L 2988 1197 
Q 2756 1666 2539 1819 
Q 2322 1972 1947 1972 
L 1259 1972 
L 1259 0 
L 628 0 
L 628 4666 
L 2053 4666 
Q 2853 4666 3247 4331 
Q 3641 3997 3641 3322 
Q 3641 2881 3436 2590 
Q 3231 2300 2841 2188 
z
M 1259 4147 
L 1259 2491 
L 2053 2491 
Q 2509 2491 2742 2702 
Q 2975 2913 2975 3322 
Q 2975 3731 2742 3939 
Q 2509 4147 2053 4147 
L 1259 4147 
z
" transform="scale(0.015625)"/>
      </defs>
      <use xlink:href="#DejaVuSans-46"/>
      <use xlink:href="#DejaVuSans-61" x="48.394531"/>
      <use xlink:href="#DejaVuSans-6c" x="109.673828"/>
      <use xlink:href="#DejaVuSans-73" x="137.457031"/>
      <use xlink:href="#DejaVuSans-65" x="189.556641"/>
      <use xlink:href="#DejaVuSans-20" x="251.080078"/>
      <use xlink:href="#DejaVuSans-50" x="282.867188"/>
      <use xlink:href="#DejaVuSans-6f" x="339.544922"/>
      <use xlink:href="#DejaVuSans-73" x="400.726562"/>
      <use xlink:href="#DejaVuSans-69" x="452.826172"/>
      <use xlink:href="#DejaVuSans-74" x="480.609375"/>
      <use xlink:href="#DejaVuSans-69" x="519.818359"/>
      <use xlink:href="#DejaVuSans-76" x="547.601562"/>
      <use xlink:href="#DejaVuSans-65" x="606.78125"/>
      <use xlink:href="#DejaVuSans-20" x="668.304688"/>
      <use xlink:href="#DejaVuSans-52" x="700.091797"/>
      <use xlink:href="#DejaVuSans-61" x="767.324219"/>
      <use xlink:href="#DejaVuSans-74" x="828.603516"/>
      <use xlink:href="#DejaVuSans-65" x="867.8125"/>
     </g>
    </g>
   </g>
   <g id="matplotlib.axis_2">
    <g id="ytick_1">
     <g id="line2d_7">
      <defs>
       <path id="m304e20fdbb" d="M 0 0 
L -3.5 0 
" style="stroke: #000000; stroke-width: 0.8"/>
      </defs>
      <g>
       <use xlink:href="#m304e20fdbb" x="55.08" y="369.36" style="stroke: #000000; stroke-width: 0.8"/>
      </g>
     </g>
     <g id="text_8">
      <!-- 0.0 -->
      <g transform="translate(32.176875 373.159219) scale(0.1 -0.1)">
       <use xlink:href="#DejaVuSans-30"/>
       <use xlink:href="#DejaVuSans-2e" x="63.623047"/>
       <use xlink:href="#DejaVuSans-30" x="95.410156"/>
      </g>
     </g>
    </g>
    <g id="ytick_2">
     <g id="line2d_8">
      <g>
       <use xlink:href="#m304e20fdbb" x="55.08" y="308.88" style="stroke: #000000; stroke-width: 0.8"/>
      </g>
     </g>
     <g id="text_9">
      <!-- 0.2 -->
      <g transform="translate(32.176875 312.679219) scale(0.1 -0.1)">
       <use xlink:href="#DejaVuSans-30"/>
       <use xlink:href="#DejaVuSans-2e" x="63.623047"/>
       <use xlink:href="#DejaVuSans-32" x="95.410156"/>
      </g>
     </g>
    </g>
    <g id="ytick_3">
     <g id="line2d_9">
      <g>
       <use xlink:href="#m304e20fdbb" x="55.08" y="248.4" style="stroke: #000000; stroke-width: 0.8"/>
      </g>
     </g>
     <g id="text_10">
      <!-- 0.4 -->
      <g transform="translate(32.176875 252.199219) scale(0.1 -0.1)">
       <use xlink:href="#DejaVuSans-30"/>
       <use xlink:href="#DejaVuSans-2e" x="63.623047"/>
       <use xlink:href="#DejaVuSans-34" x="95.410156"/>
      </g>
     </g>
    </g>
    <g id="ytick_4">
     <g id="line2d_10">
      <g>
       <use xlink:href="#m304e20fdbb" x="55.08" y="187.92" style="stroke: #000000; stroke-width: 0.8"/>
      </g>
     </g>
     <g id="text_11">
      <!-- 0.6 -->
      <g transform="translate(32.176875 191.719219) scale(0.1 -0.1)">
       <use xlink:href="#DejaVuSans-30"/>
       <use xlink:href="#DejaVuSans-2e" x="63.623047"/>
       <use xlink:href="#DejaVuSans-36" x="95.410156"/>
      </g>
     </g>
    </g>
    <g id="ytick_5">
     <g id="line2d_11">
      <g>
       <use xlink:href="#m304e20fdbb" x="55.08" y="127.44" style="stroke: #000000; stroke-width: 0.8"/>
      </g>
     </g>
     <g id="text_12">
      <!-- 0.8 -->
      <g transform="translate(32.176875 131.239219) scale(0.1 -0.1)">
       <use xlink:href="#DejaVuSans-30"/>
       <use xlink:href="#DejaVuSans-2e" x="63.623047"/>
       <use xlink:href="#DejaVuSans-38" x="95.410156"/>
      </g>
     </g>
    </g>
    <g id="ytick_6">
     <g id="line2d_12">
      <g>
       <use xlink:href="#m304e20fdbb" x="55.08" y="66.96" style="stroke: #000000; stroke-width: 0.8"/>
      </g>
     </g>
     <g id="text_13">
      <!-- 1.0 -->
      <g transform="translate(32.176875 70.759219) scale(0.1 -0.1)">
       <use xlink:href="#DejaVuSans-31"/>
       <use xlink:href="#DejaVuSans-2e" x="63.623047"/>
       <use xlink:href="#DejaVuSans-30" x="95.410156"/>
      </g>
     </g>
    </g>
    <g id="text_14">
     <!-- True Positive Rate -->
     <g transform="translate(26.097187 262.689687) rotate(-90) scale(0.1 -0.1)">
      <defs>
       <path id="DejaVuSans-54" d="M -19 4666 
L 3928 4666 
L 3928 4134 
L 2272 4134 
L 2272 0 
L 1638 0 
L 1638 4134 
L -19 4134 
L -19 4666 
z
" transform="scale(0.015625)"/>
       <path id="DejaVuSans-72" d="M 2631 2963 
Q 2534 3019 2420 3045 
Q 2306 3072 2169 3072 
Q 1681 3072 1420 2755 
Q 1159 2438 1159 1844 
L 1159 0 
L 581 0 
L 581 3500 
L 1159 3500 
L 1159 2956 
Q 1341 3275 1631 3429 
Q 1922 3584 2338 3584 
Q 2397 3584 2469 3576 
Q 2541 3569 2628 3553 
L 2631 2963 
z
" transform="scale(0.015625)"/>
       <path id="DejaVuSans-75" d="M 544 1381 
L 544 3500 
L 1119 3500 
L 1119 1403 
Q 1119 906 1312 657 
Q 1506 409 1894 409 
Q 2359 409 2629 706 
Q 2900 1003 2900 1516 
L 2900 3500 
L 3475 3500 
L 3475 0 
L 2900 0 
L 2900 538 
Q 2691 219 2414 64 
Q 2138 -91 1772 -91 
Q 1169 -91 856 284 
Q 544 659 544 1381 
z
M 1991 3584 
L 1991 3584 
z
" transform="scale(0.015625)"/>
      </defs>
      <use xlink:href="#DejaVuSans-54"/>
      <use xlink:href="#DejaVuSans-72" x="46.333984"/>
      <use xlink:href="#DejaVuSans-75" x="87.447266"/>
      <use xlink:href="#DejaVuSans-65" x="150.826172"/>
      <use xlink:href="#DejaVuSans-20" x="212.349609"/>
      <use xlink:href="#DejaVuSans-50" x="244.136719"/>
      <use xlink:href="#DejaVuSans-6f" x="300.814453"/>
      <use xlink:href="#DejaVuSans-73" x="361.996094"/>
      <use xlink:href="#DejaVuSans-69" x="414.095703"/>
      <use xlink:href="#DejaVuSans-74" x="441.878906"/>
      <use xlink:href="#DejaVuSans-69" x="481.087891"/>
      <use xlink:href="#DejaVuSans-76" x="508.871094"/>
      <use xlink:href="#DejaVuSans-65" x="568.050781"/>
      <use xlink:href="#DejaVuSans-20" x="629.574219"/>
      <use xlink:href="#DejaVuSans-52" x="661.361328"/>
      <use xlink:href="#DejaVuSans-61" x="728.59375"/>
      <use xlink:href="#DejaVuSans-74" x="789.873047"/>
      <use xlink:href="#DejaVuSans-65" x="829.082031"/>
     </g>
    </g>
   </g>
   <g id="line2d_13">
    <path d="M 70.2 369.36 
L 70.305219 347.346207 
L 70.410438 347.346207 
L 70.515658 335.865329 
L 70.620877 335.865329 
L 70.726096 322.804514 
L 70.831315 322.804514 
L 70.936534 310.796991 
L 71.041754 310.796991 
L 71.146973 263.60953 
L 71.252192 263.60953 
L 71.357411 251.075361 
L 71.46263 251.075361 
L 71.56785 240.015799 
L 71.673069 240.015799 
L 71.778288 197.041505 
L 71.883507 197.041505 
L 71.988727 195.356238 
L 72.093946 195.356238 
L 72.199165 188.615172 
L 72.304384 188.615172 
L 72.409603 187.035235 
L 72.514823 187.035235 
L 72.620042 177.976928 
L 72.725261 177.976928 
L 72.83048 169.234608 
L 72.935699 169.234608 
L 73.040919 166.917367 
L 73.146138 166.917367 
L 73.251357 163.125517 
L 73.461795 163.020188 
L 73.567015 155.120502 
L 73.672234 155.120502 
L 73.777453 149.538056 
L 73.882672 149.538056 
L 73.987891 148.590094 
L 74.093111 148.590094 
L 74.19833 144.692915 
L 74.303549 144.692915 
L 74.408768 144.06094 
L 74.513987 144.06094 
L 74.619207 138.689154 
L 74.724426 138.689154 
L 74.829645 130.36815 
L 74.934864 130.36815 
L 75.040084 128.156238 
L 75.145303 128.156238 
L 75.250522 127.102947 
L 75.355741 127.102947 
L 75.46096 123.837743 
L 75.56618 123.837743 
L 75.671399 120.46721 
L 75.776618 120.46721 
L 75.881837 118.149969 
L 75.987056 118.149969 
L 76.092276 116.78069 
L 76.197495 116.78069 
L 76.302714 114.25279 
L 76.407933 114.25279 
L 76.513152 112.146207 
L 76.618372 112.146207 
L 76.723591 110.039624 
L 76.82881 110.039624 
L 76.934029 108.565016 
L 77.039248 108.565016 
L 77.039248 108.143699 
L 77.249687 108.143699 
L 77.354906 107.195737 
L 77.670564 107.195737 
L 77.775783 104.457179 
L 77.881002 104.457179 
L 77.881002 104.035862 
L 78.091441 104.035862 
L 78.19666 102.455925 
L 78.512317 102.350596 
L 78.617537 101.613292 
L 78.722756 101.613292 
L 78.827975 100.665329 
L 78.933194 100.665329 
L 79.038413 99.506708 
L 79.248852 99.506708 
L 79.248852 99.085392 
L 79.669729 98.980063 
L 79.774948 98.137429 
L 79.880167 98.137429 
L 79.985386 97.505455 
L 80.090605 97.505455 
L 80.195825 97.084138 
L 80.301044 97.084138 
L 80.406263 96.452163 
L 80.511482 96.452163 
L 80.511482 96.241505 
L 80.721921 96.241505 
L 80.82714 95.820188 
L 80.932359 95.820188 
L 80.932359 95.504201 
L 81.142797 95.504201 
L 81.248017 95.188213 
L 81.353236 95.188213 
L 81.458455 94.766897 
L 81.563674 94.766897 
L 81.668894 94.450909 
L 81.774113 94.450909 
L 81.879332 93.818934 
L 81.984551 93.818934 
L 82.08977 93.397618 
L 82.19499 93.397618 
L 82.19499 93.186959 
L 82.615866 93.186959 
L 82.721086 92.870972 
L 82.826305 92.870972 
L 82.931524 92.238997 
L 83.247182 92.133668 
L 83.352401 91.81768 
L 83.562839 91.81768 
L 83.668058 91.185705 
L 84.088935 91.080376 
L 84.088935 90.869718 
L 84.404593 90.869718 
L 84.404593 90.65906 
L 84.82547 90.55373 
L 84.82547 89.605768 
L 85.035908 89.605768 
L 85.035908 89.39511 
L 85.246347 89.39511 
L 85.351566 88.763135 
L 85.982881 88.657806 
L 85.982881 88.552476 
L 86.298539 88.447147 
L 86.403758 87.815172 
L 86.508977 87.815172 
L 86.508977 87.604514 
L 86.824635 87.604514 
L 86.824635 87.393856 
L 87.666388 87.288527 
L 87.771608 86.551223 
L 88.087265 86.445893 
L 88.087265 86.340564 
L 88.71858 86.340564 
L 88.71858 86.129906 
L 89.244676 86.024577 
L 89.244676 85.60326 
L 89.560334 85.497931 
L 89.665553 84.971285 
L 90.402088 84.865956 
L 90.507307 84.655298 
L 90.717745 84.549969 
L 90.717745 84.33931 
L 92.190814 84.33931 
L 92.296033 83.917994 
L 92.822129 83.917994 
L 92.822129 83.602006 
L 93.137787 83.602006 
L 93.137787 83.18069 
L 93.663883 83.075361 
L 93.663883 82.970031 
L 94.505637 82.864702 
L 94.610856 82.443386 
L 95.136952 82.338056 
L 95.136952 82.127398 
L 95.45261 82.127398 
L 95.45261 81.91674 
L 96.820459 81.811411 
L 96.820459 81.706082 
L 97.556994 81.600752 
L 97.556994 81.495423 
L 98.398747 81.390094 
L 98.398747 81.179436 
L 98.819624 81.074107 
L 98.819624 80.968777 
L 99.030063 80.968777 
L 99.135282 80.65279 
L 100.082255 80.547461 
L 100.082255 80.442132 
L 100.397912 80.336803 
L 100.397912 80.231473 
L 100.924008 80.126144 
L 100.924008 79.915486 
L 101.660543 79.810157 
L 101.765762 79.494169 
L 102.08142 79.38884 
L 102.08142 79.283511 
L 103.133612 79.283511 
L 103.133612 79.072853 
L 103.449269 79.072853 
L 103.449269 78.756865 
L 104.501461 78.651536 
L 104.501461 78.546207 
L 106.079749 78.440878 
L 106.079749 78.335549 
L 107.131942 78.230219 
L 107.237161 78.019561 
L 107.34238 78.019561 
L 107.34238 77.808903 
L 107.763257 77.808903 
L 107.763257 77.492915 
L 109.341545 77.387586 
L 109.341545 77.282257 
L 109.97286 77.176928 
L 110.078079 76.96627 
L 110.709395 76.86094 
L 110.709395 76.650282 
L 111.866806 76.544953 
L 111.866806 76.439624 
L 112.60334 76.439624 
L 112.60334 76.228966 
L 114.286848 76.123636 
L 114.286848 76.018307 
L 115.023382 76.018307 
L 115.128601 75.596991 
L 115.23382 75.596991 
L 115.23382 75.175674 
L 116.812109 75.070345 
L 116.917328 74.859687 
L 117.127766 74.754357 
L 117.127766 74.649028 
L 118.285177 74.543699 
L 118.285177 74.43837 
L 118.600835 74.43837 
L 118.706054 74.122382 
L 119.021712 74.017053 
L 119.021712 73.701066 
L 121.231315 73.595737 
L 121.231315 73.490408 
L 123.440919 73.385078 
L 123.440919 73.279749 
L 124.59833 73.17442 
L 124.59833 72.963762 
L 125.124426 72.858433 
L 125.124426 72.753103 
L 127.018372 72.647774 
L 127.018372 72.542445 
L 130.911482 72.437116 
L 130.911482 72.331787 
L 133.015866 72.226458 
L 133.015866 72.121129 
L 137.224635 72.015799 
L 137.224635 71.91047 
L 138.066388 71.805141 
L 138.066388 71.699812 
L 139.11858 71.699812 
L 139.11858 71.489154 
L 143.011691 71.383824 
L 143.011691 71.278495 
L 145.010856 71.173166 
L 145.010856 71.067837 
L 149.324843 70.962508 
L 149.430063 70.75185 
L 157.111065 70.64652 
L 157.111065 70.541191 
L 159.636326 70.435862 
L 159.636326 70.330533 
L 161.214614 70.225204 
L 161.214614 70.119875 
L 165.002505 70.014545 
L 165.002505 69.909216 
L 169.316493 69.803887 
L 169.316493 69.698558 
L 171.105219 69.593229 
L 171.210438 69.382571 
L 171.841754 69.277241 
L 171.841754 69.171912 
L 176.997495 69.066583 
L 176.997495 68.961254 
L 179.838413 68.855925 
L 179.838413 68.750596 
L 187.729854 68.645266 
L 187.729854 68.539937 
L 189.939457 68.434608 
L 189.939457 68.329279 
L 198.567432 68.22395 
L 198.567432 68.118621 
L 207.511065 68.013292 
L 207.511065 67.907962 
L 215.612944 67.802633 
L 215.612944 67.697304 
L 241.391649 67.591975 
L 241.391649 67.486646 
L 243.496033 67.381317 
L 243.496033 67.275987 
L 253.386639 67.170658 
L 253.386639 67.065329 
L 372.6 66.96 
L 372.6 66.96 
" clip-path="url(#p940a294d18)" style="fill: none; stroke: #1f77b4; stroke-opacity: 0.3; stroke-linecap: square"/>
   </g>
   <g id="line2d_14">
    <path d="M 70.2 369.36 
L 70.305219 342.185078 
L 70.410438 342.185078 
L 70.515658 296.050909 
L 70.620877 296.050909 
L 70.726096 268.244013 
L 70.831315 268.244013 
L 70.936534 237.803887 
L 71.041754 237.803887 
L 71.146973 228.74558 
L 71.252192 228.74558 
L 71.357411 227.586959 
L 71.46263 227.586959 
L 71.56785 214.631473 
L 71.673069 214.631473 
L 71.778288 203.045266 
L 71.883507 203.045266 
L 71.988727 190.721755 
L 72.093946 190.721755 
L 72.199165 185.033981 
L 72.304384 185.033981 
L 72.409603 172.499812 
L 72.514823 172.499812 
L 72.620042 167.022696 
L 72.725261 167.022696 
L 72.83048 159.228339 
L 72.935699 159.228339 
L 73.040919 152.276614 
L 73.251357 152.171285 
L 73.356576 149.222069 
L 73.461795 149.222069 
L 73.567015 146.272853 
L 73.672234 146.272853 
L 73.777453 142.586332 
L 73.987891 142.586332 
L 74.093111 140.269091 
L 74.19833 140.269091 
L 74.303549 137.109216 
L 74.408768 137.109216 
L 74.513987 135.845266 
L 74.619207 135.845266 
L 74.724426 133.633354 
L 74.829645 133.633354 
L 74.934864 130.262821 
L 75.040084 130.262821 
L 75.145303 126.576301 
L 75.250522 126.576301 
L 75.355741 123.100439 
L 75.46096 123.100439 
L 75.56618 120.783197 
L 75.671399 120.783197 
L 75.776618 117.93931 
L 76.092276 117.93931 
L 76.197495 116.886019 
L 76.302714 116.886019 
L 76.407933 115.095423 
L 76.513152 115.095423 
L 76.618372 113.831473 
L 76.82881 113.831473 
L 76.934029 112.672853 
L 77.039248 112.672853 
L 77.144468 110.56627 
L 77.249687 110.56627 
L 77.249687 109.934295 
L 77.460125 109.934295 
L 77.565344 108.881003 
L 77.775783 108.775674 
L 77.881002 108.354357 
L 77.986221 108.354357 
L 78.091441 107.617053 
L 78.19666 107.617053 
L 78.19666 107.090408 
L 78.407098 107.090408 
L 78.512317 106.142445 
L 78.617537 106.142445 
L 78.722756 105.405141 
L 78.827975 105.405141 
L 78.933194 104.667837 
L 79.038413 104.667837 
L 79.143633 102.982571 
L 79.248852 102.982571 
L 79.354071 102.350596 
L 79.45929 102.350596 
L 79.564509 101.929279 
L 79.669729 101.929279 
L 79.774948 101.402633 
L 79.985386 101.402633 
L 79.985386 100.56 
L 80.301044 100.56 
L 80.406263 98.664075 
L 80.721921 98.558746 
L 80.721921 98.242759 
L 80.932359 98.242759 
L 81.037578 97.294796 
L 81.248017 97.294796 
L 81.353236 96.241505 
L 81.458455 96.241505 
L 81.563674 95.60953 
L 81.984551 95.504201 
L 82.08977 94.661567 
L 82.19499 94.661567 
L 82.19499 94.240251 
L 82.510647 94.240251 
L 82.510647 93.713605 
L 82.721086 93.713605 
L 82.721086 93.502947 
L 83.036743 93.502947 
L 83.036743 93.186959 
L 83.352401 93.186959 
L 83.45762 92.554984 
L 83.668058 92.554984 
L 83.773278 91.712351 
L 84.088935 91.607022 
L 84.194154 90.55373 
L 84.299374 90.55373 
L 84.404593 90.237743 
L 84.509812 90.237743 
L 84.615031 89.500439 
L 84.930689 89.39511 
L 85.035908 88.763135 
L 85.141127 88.763135 
L 85.246347 88.341818 
L 85.456785 88.236489 
L 85.562004 87.709843 
L 85.877662 87.709843 
L 85.982881 86.761881 
L 86.929854 86.656552 
L 86.929854 86.551223 
L 87.245511 86.551223 
L 87.245511 86.235235 
L 87.561169 86.129906 
L 87.561169 86.024577 
L 87.876827 85.919248 
L 87.982046 85.287273 
L 88.508142 85.181944 
L 88.508142 84.444639 
L 88.8238 84.444639 
L 88.8238 84.128652 
L 89.139457 84.023323 
L 89.244676 83.602006 
L 89.455115 83.496677 
L 89.455115 83.286019 
L 89.981211 83.18069 
L 90.08643 82.759373 
L 90.822965 82.654044 
L 90.822965 82.548715 
L 91.559499 82.443386 
L 91.559499 82.232727 
L 92.401253 82.127398 
L 92.401253 81.811411 
L 92.927349 81.706082 
L 92.927349 81.600752 
L 93.137787 81.600752 
L 93.243006 81.284765 
L 93.663883 81.179436 
L 93.769102 80.968777 
L 93.979541 80.968777 
L 93.979541 80.65279 
L 94.926514 80.547461 
L 94.926514 80.442132 
L 95.45261 80.336803 
L 95.45261 80.231473 
L 95.873486 80.231473 
L 95.978706 79.915486 
L 96.083925 79.915486 
L 96.083925 79.38884 
L 96.820459 79.38884 
L 96.925678 79.072853 
L 97.346555 78.967524 
L 97.451775 78.756865 
L 97.872651 78.651536 
L 97.872651 78.546207 
L 99.030063 78.440878 
L 99.135282 78.230219 
L 99.240501 78.230219 
L 99.240501 78.019561 
L 99.871816 77.914232 
L 99.871816 77.808903 
L 100.608351 77.703574 
L 100.608351 77.492915 
L 101.765762 77.387586 
L 101.765762 77.282257 
L 102.08142 77.176928 
L 102.08142 77.071599 
L 102.291858 77.071599 
L 102.291858 76.86094 
L 102.712735 76.755611 
L 102.712735 76.650282 
L 103.34405 76.544953 
L 103.34405 76.439624 
L 103.975365 76.439624 
L 103.975365 76.228966 
L 104.606681 76.123636 
L 104.606681 76.018307 
L 105.764092 75.912978 
L 105.764092 75.807649 
L 106.921503 75.70232 
L 106.921503 75.596991 
L 108.394572 75.491661 
L 108.394572 75.175674 
L 109.025887 75.070345 
L 109.025887 74.965016 
L 109.867641 74.859687 
L 109.97286 74.649028 
L 111.235491 74.543699 
L 111.235491 74.43837 
L 112.60334 74.333041 
L 112.60334 74.227712 
L 114.707724 74.122382 
L 114.707724 74.017053 
L 116.286013 73.911724 
L 116.286013 73.806395 
L 117.232985 73.701066 
L 117.232985 73.595737 
L 118.600835 73.490408 
L 118.600835 73.279749 
L 123.125261 73.17442 
L 123.125261 73.069091 
L 125.334864 72.963762 
L 125.334864 72.858433 
L 126.702714 72.753103 
L 126.702714 72.647774 
L 130.490605 72.542445 
L 130.490605 72.437116 
L 130.911482 72.331787 
L 130.911482 72.226458 
L 132.068894 72.121129 
L 132.174113 71.91047 
L 133.015866 71.805141 
L 133.121086 71.594483 
L 134.594154 71.489154 
L 134.594154 71.278495 
L 135.22547 71.173166 
L 135.22547 70.962508 
L 139.960334 70.857179 
L 140.065553 70.64652 
L 141.643841 70.541191 
L 141.643841 70.435862 
L 144.589979 70.330533 
L 144.589979 70.225204 
L 145.221294 70.119875 
L 145.221294 70.014545 
L 151.534447 69.909216 
L 151.534447 69.803887 
L 152.165762 69.698558 
L 152.165762 69.593229 
L 157.111065 69.4879 
L 157.111065 69.382571 
L 159.636326 69.277241 
L 159.741545 69.066583 
L 166.896451 68.961254 
L 166.896451 68.855925 
L 168.790397 68.750596 
L 168.790397 68.645266 
L 184.25762 68.539937 
L 184.25762 68.434608 
L 200.14572 68.329279 
L 200.14572 68.22395 
L 211.930271 68.118621 
L 211.930271 68.013292 
L 231.816701 67.907962 
L 231.816701 67.802633 
L 241.28643 67.697304 
L 241.28643 67.591975 
L 269.695616 67.486646 
L 269.695616 67.381317 
L 274.746138 67.275987 
L 274.746138 67.170658 
L 295.68476 67.065329 
L 295.68476 66.96 
L 372.6 66.96 
L 372.6 66.96 
" clip-path="url(#p940a294d18)" style="fill: none; stroke: #ff7f0e; stroke-opacity: 0.3; stroke-linecap: square"/>
   </g>
   <g id="line2d_15">
    <path d="M 70.2 369.36 
L 70.305219 360.723009 
L 70.410438 360.723009 
L 70.515658 347.135549 
L 70.620877 347.135549 
L 70.726096 344.818307 
L 70.831315 344.818307 
L 70.936534 339.44652 
L 71.041754 339.44652 
L 71.146973 288.256552 
L 71.252192 288.256552 
L 71.357411 278.039624 
L 71.46263 278.039624 
L 71.56785 276.354357 
L 71.673069 276.354357 
L 71.778288 267.29605 
L 71.883507 267.29605 
L 71.988727 240.015799 
L 72.093946 240.015799 
L 72.199165 231.694796 
L 72.304384 231.694796 
L 72.409603 224.95373 
L 72.514823 224.95373 
L 72.620042 219.265956 
L 72.725261 219.265956 
L 72.83048 202.202633 
L 72.935699 202.202633 
L 73.040919 197.146834 
L 73.146138 197.146834 
L 73.251357 193.354984 
L 73.356576 193.354984 
L 73.461795 190.511097 
L 73.567015 190.511097 
L 73.672234 186.087273 
L 73.777453 186.087273 
L 73.882672 180.18884 
L 73.987891 180.18884 
L 74.093111 173.658433 
L 74.19833 173.658433 
L 74.303549 168.391975 
L 74.408768 168.391975 
L 74.513987 161.756238 
L 74.619207 161.756238 
L 74.724426 160.702947 
L 74.829645 160.702947 
L 74.934864 155.541818 
L 75.040084 155.541818 
L 75.145303 153.645893 
L 75.250522 153.645893 
L 75.355741 151.223323 
L 75.56618 151.117994 
L 75.671399 150.802006 
L 75.776618 150.802006 
L 75.881837 147.747461 
L 75.987056 147.747461 
L 76.092276 142.270345 
L 76.197495 142.270345 
L 76.302714 140.795737 
L 76.407933 140.795737 
L 76.513152 137.425204 
L 76.618372 137.425204 
L 76.723591 134.581317 
L 76.934029 134.475987 
L 77.039248 128.472226 
L 77.144468 128.472226 
L 77.249687 128.156238 
L 77.460125 128.156238 
L 77.565344 122.99511 
L 77.670564 122.99511 
L 77.775783 122.152476 
L 77.881002 122.152476 
L 77.986221 121.836489 
L 78.091441 121.836489 
L 78.19666 120.993856 
L 78.512317 120.888527 
L 78.617537 119.097931 
L 78.722756 119.097931 
L 78.722756 118.571285 
L 78.933194 118.571285 
L 79.038413 115.727398 
L 79.143633 115.727398 
L 79.248852 115.306082 
L 79.354071 115.306082 
L 79.45929 109.091661 
L 79.564509 109.091661 
L 79.564509 108.670345 
L 79.774948 108.670345 
L 79.880167 106.879749 
L 80.090605 106.879749 
L 80.195825 104.878495 
L 80.301044 104.878495 
L 80.406263 103.0879 
L 80.616701 103.0879 
L 80.616701 102.561254 
L 80.932359 102.561254 
L 80.932359 102.034608 
L 81.248017 101.929279 
L 81.353236 101.086646 
L 81.458455 101.086646 
L 81.458455 100.770658 
L 81.668894 100.770658 
L 81.774113 100.138683 
L 82.19499 100.138683 
L 82.300209 98.874734 
L 82.405428 98.874734 
L 82.510647 98.558746 
L 82.721086 98.558746 
L 82.826305 98.242759 
L 83.036743 98.137429 
L 83.141962 97.821442 
L 83.247182 97.821442 
L 83.352401 97.189467 
L 83.562839 97.084138 
L 83.668058 96.557492 
L 83.773278 96.557492 
L 83.878497 95.60953 
L 84.088935 95.60953 
L 84.194154 95.293542 
L 84.404593 95.188213 
L 84.509812 94.556238 
L 84.720251 94.450909 
L 84.720251 94.029592 
L 84.930689 94.029592 
L 84.930689 93.713605 
L 85.246347 93.713605 
L 85.351566 93.292288 
L 85.562004 93.292288 
L 85.562004 93.08163 
L 85.772443 93.08163 
L 85.877662 92.765643 
L 86.0881 92.660313 
L 86.0881 92.554984 
L 86.403758 92.449655 
L 86.508977 91.81768 
L 86.824635 91.81768 
L 86.824635 91.501693 
L 87.035073 91.501693 
L 87.140292 90.65906 
L 87.245511 90.65906 
L 87.350731 90.132414 
L 87.45595 90.132414 
L 87.561169 89.711097 
L 87.982046 89.605768 
L 88.087265 88.868464 
L 88.297704 88.868464 
L 88.402923 88.447147 
L 88.8238 88.341818 
L 88.8238 87.709843 
L 89.770772 87.604514 
L 89.770772 87.499185 
L 89.981211 87.499185 
L 89.981211 87.183197 
L 90.612526 87.183197 
L 90.717745 86.86721 
L 91.243841 86.761881 
L 91.243841 86.656552 
L 91.45428 86.656552 
L 91.559499 86.235235 
L 91.769937 86.235235 
L 91.769937 86.024577 
L 92.085595 86.024577 
L 92.190814 85.60326 
L 92.506472 85.497931 
L 92.506472 85.392602 
L 92.927349 85.287273 
L 92.927349 85.076614 
L 93.348225 84.971285 
L 93.453445 84.760627 
L 94.716075 84.655298 
L 94.716075 84.444639 
L 94.926514 84.444639 
L 95.031733 84.023323 
L 95.242171 84.023323 
L 95.242171 83.812665 
L 95.768267 83.707335 
L 95.768267 83.602006 
L 96.189144 83.602006 
L 96.294363 82.970031 
L 97.030898 82.864702 
L 97.030898 82.548715 
L 97.556994 82.548715 
L 97.556994 82.338056 
L 98.293528 82.232727 
L 98.293528 82.022069 
L 99.135282 81.91674 
L 99.240501 81.706082 
L 99.556159 81.706082 
L 99.556159 81.390094 
L 99.977035 81.284765 
L 100.082255 81.074107 
L 100.71357 81.074107 
L 100.818789 80.442132 
L 101.344885 80.336803 
L 101.344885 80.231473 
L 101.660543 80.126144 
L 101.660543 79.915486 
L 102.291858 79.810157 
L 102.397077 79.38884 
L 102.502296 79.38884 
L 102.502296 79.178182 
L 103.133612 79.178182 
L 103.133612 78.967524 
L 104.080585 78.862194 
L 104.080585 78.756865 
L 105.553653 78.651536 
L 105.553653 78.546207 
L 106.500626 78.546207 
L 106.500626 78.335549 
L 107.868476 78.230219 
L 107.868476 78.019561 
L 108.71023 77.914232 
L 108.815449 77.492915 
L 110.919833 77.387586 
L 111.025052 77.071599 
L 111.551148 76.96627 
L 111.551148 76.86094 
L 113.129436 76.755611 
L 113.234656 76.544953 
L 113.655532 76.439624 
L 113.655532 76.334295 
L 115.654697 76.228966 
L 115.759916 75.912978 
L 116.917328 75.807649 
L 116.917328 75.70232 
L 118.285177 75.70232 
L 118.285177 75.386332 
L 119.653027 75.281003 
L 119.653027 75.175674 
L 121.441754 75.070345 
L 121.441754 74.859687 
L 122.493946 74.754357 
L 122.493946 74.649028 
L 123.23048 74.543699 
L 123.23048 74.43837 
L 123.861795 74.333041 
L 123.967015 74.017053 
L 125.334864 73.911724 
L 125.334864 73.806395 
L 126.702714 73.701066 
L 126.702714 73.595737 
L 127.649687 73.490408 
L 127.649687 73.385078 
L 128.491441 73.279749 
L 128.491441 73.17442 
L 130.174948 73.069091 
L 130.174948 72.963762 
L 132.068894 72.858433 
L 132.068894 72.753103 
L 133.647182 72.647774 
L 133.647182 72.542445 
L 134.699374 72.542445 
L 134.699374 72.331787 
L 136.593319 72.226458 
L 136.593319 72.121129 
L 137.961169 72.015799 
L 137.961169 71.91047 
L 139.539457 71.805141 
L 139.539457 71.699812 
L 140.907307 71.594483 
L 140.907307 71.489154 
L 142.590814 71.383824 
L 142.590814 71.278495 
L 148.377871 71.173166 
L 148.377871 71.067837 
L 149.219624 70.962508 
L 149.219624 70.857179 
L 152.586639 70.75185 
L 152.691858 70.541191 
L 154.796242 70.435862 
L 154.796242 70.330533 
L 157.005846 70.225204 
L 157.005846 70.119875 
L 164.055532 70.014545 
L 164.055532 69.909216 
L 165.318163 69.909216 
L 165.318163 69.698558 
L 169.947808 69.593229 
L 170.053027 69.382571 
L 174.051357 69.277241 
L 174.051357 69.171912 
L 176.050522 69.066583 
L 176.050522 68.961254 
L 177.839248 68.855925 
L 177.839248 68.750596 
L 182.88977 68.645266 
L 182.88977 68.539937 
L 188.361169 68.434608 
L 188.361169 68.329279 
L 191.622965 68.22395 
L 191.622965 68.118621 
L 196.568267 68.013292 
L 196.568267 67.907962 
L 220.453027 67.802633 
L 220.453027 67.697304 
L 227.502714 67.591975 
L 227.502714 67.486646 
L 255.701461 67.381317 
L 255.701461 67.275987 
L 257.069311 67.170658 
L 257.069311 67.065329 
L 372.6 66.96 
L 372.6 66.96 
" clip-path="url(#p940a294d18)" style="fill: none; stroke: #2ca02c; stroke-opacity: 0.3; stroke-linecap: square"/>
   </g>
   <g id="line2d_16">
    <path d="M 70.2 369.36 
L 70.305256 323.031309 
L 70.410512 323.031309 
L 70.410512 298.287577 
L 70.621023 298.287577 
L 70.726279 286.178942 
L 70.831535 286.178942 
L 70.936791 267.01571 
L 71.042047 267.01571 
L 71.147302 259.118774 
L 71.252558 259.118774 
L 71.357814 246.167799 
L 71.46307 246.167799 
L 71.568326 231.32156 
L 71.673582 231.32156 
L 71.778837 216.580613 
L 71.884093 216.580613 
L 71.989349 200.681448 
L 72.094605 200.681448 
L 72.199861 193.837437 
L 72.305117 193.837437 
L 72.410372 190.257493 
L 72.515628 190.257493 
L 72.620884 183.518774 
L 72.72614 183.518774 
L 72.72614 178.25415 
L 72.936652 178.25415 
L 73.041907 172.568357 
L 73.147163 172.568357 
L 73.147163 169.72546 
L 73.357675 169.72546 
L 73.462931 166.250808 
L 73.568187 166.250808 
L 73.673442 159.090919 
L 73.778698 159.090919 
L 73.778698 156.879777 
L 73.98921 156.879777 
L 74.094466 151.931031 
L 74.199722 151.931031 
L 74.304977 144.455265 
L 74.515489 144.349972 
L 74.620745 142.349415 
L 74.726001 142.349415 
L 74.831257 140.45415 
L 74.936512 140.45415 
L 75.041768 138.243008 
L 75.147024 138.243008 
L 75.25228 136.558329 
L 75.357536 136.558329 
L 75.462792 133.188969 
L 75.568047 133.188969 
L 75.673303 131.50429 
L 75.778559 131.50429 
L 75.883815 130.977827 
L 75.989071 130.977827 
L 76.094326 129.293148 
L 76.199582 129.293148 
L 76.304838 127.608468 
L 76.410094 127.608468 
L 76.51535 125.502618 
L 76.620606 125.502618 
L 76.725861 124.976156 
L 76.831117 124.976156 
L 76.936373 120.764457 
L 77.041629 120.764457 
L 77.146885 118.132145 
L 77.252141 118.132145 
L 77.357396 116.973928 
L 77.462652 116.973928 
L 77.567908 114.762786 
L 77.673164 114.762786 
L 77.77842 114.131031 
L 77.988931 114.131031 
L 78.094187 113.078106 
L 78.199443 113.078106 
L 78.199443 112.130474 
L 78.409955 112.130474 
L 78.515211 110.866964 
L 78.620466 110.866964 
L 78.725722 109.392869 
L 78.830978 109.392869 
L 78.830978 108.866407 
L 79.04149 108.866407 
L 79.146746 107.602897 
L 79.252001 107.602897 
L 79.357257 105.286462 
L 79.462513 105.286462 
L 79.567769 102.022396 
L 79.778281 102.022396 
L 79.883536 101.390641 
L 79.988792 101.390641 
L 80.094048 100.758886 
L 80.30456 100.653593 
L 80.409816 100.127131 
L 80.515071 100.127131 
L 80.620327 99.284791 
L 80.936095 99.284791 
L 80.936095 98.653036 
L 81.146606 98.653036 
L 81.251862 98.231866 
L 81.357118 98.231866 
L 81.357118 97.810696 
L 81.883397 97.810696 
L 81.988653 97.284234 
L 82.30442 97.178942 
L 82.409676 96.757772 
L 82.514932 96.757772 
L 82.620188 96.231309 
L 82.935955 96.126017 
L 82.935955 96.020724 
L 83.146467 96.020724 
L 83.251723 95.494262 
L 83.356979 95.494262 
L 83.462235 94.651922 
L 83.56749 94.651922 
L 83.56749 94.020167 
L 83.778002 94.020167 
L 83.883258 93.388412 
L 84.09377 93.28312 
L 84.09377 92.967242 
L 84.304281 92.967242 
L 84.304281 92.756657 
L 84.725305 92.756657 
L 84.83056 92.230195 
L 85.041072 92.124903 
L 85.041072 92.01961 
L 85.35684 91.914318 
L 85.462095 91.493148 
L 85.567351 91.493148 
L 85.567351 91.282563 
L 85.777863 91.282563 
L 85.777863 90.650808 
L 86.198886 90.545515 
L 86.304142 90.124345 
L 86.409398 90.124345 
L 86.514654 89.492591 
L 86.61991 89.492591 
L 86.61991 89.282006 
L 87.146189 89.176713 
L 87.251444 88.334373 
L 87.461956 88.229081 
L 87.461956 87.913203 
L 88.198747 87.807911 
L 88.304003 87.492033 
L 88.409259 87.492033 
L 88.514514 87.070864 
L 88.935538 86.965571 
L 88.935538 86.544401 
L 89.146049 86.544401 
L 89.251305 85.070306 
L 89.461817 84.965014 
L 89.567073 84.754429 
L 89.988096 84.649136 
L 89.988096 84.543844 
L 90.619631 84.438552 
L 90.724887 84.227967 
L 90.935399 84.122674 
L 91.040654 83.912089 
L 91.777445 83.806797 
L 91.882701 83.596212 
L 92.198468 83.596212 
L 92.198468 82.859164 
L 92.724748 82.753872 
L 92.830003 82.543287 
L 93.356283 82.437994 
L 93.356283 82.332702 
L 93.777306 82.332702 
L 93.777306 81.911532 
L 94.093073 81.911532 
L 94.093073 81.700947 
L 94.408841 81.700947 
L 94.408841 81.490362 
L 94.724608 81.38507 
L 94.829864 81.174485 
L 95.566655 81.174485 
L 95.671911 80.54273 
L 96.092934 80.54273 
L 96.19819 80.226852 
L 96.513958 80.12156 
L 96.513958 80.016267 
L 97.040237 80.016267 
L 97.040237 79.805682 
L 98.198051 79.70039 
L 98.303307 79.173928 
L 99.250609 79.173928 
L 99.250609 78.85805 
L 99.566377 78.752758 
L 99.671632 78.542173 
L 100.197912 78.43688 
L 100.197912 78.331588 
L 100.829447 78.226295 
L 100.829447 78.121003 
L 101.460982 78.01571 
L 101.460982 77.910418 
L 102.408284 77.805125 
L 102.408284 77.699833 
L 103.77661 77.59454 
L 103.881866 77.278663 
L 105.986982 77.17337 
L 105.986982 77.068078 
L 107.144796 76.962786 
L 107.144796 76.857493 
L 107.460564 76.857493 
L 107.460564 76.646908 
L 107.776331 76.541616 
L 107.776331 76.436323 
L 108.092099 76.331031 
L 108.092099 76.225738 
L 109.039401 76.120446 
L 109.039401 76.015153 
L 109.776192 75.909861 
L 109.776192 75.804568 
L 110.934006 75.699276 
L 110.934006 75.593983 
L 111.670797 75.593983 
L 111.670797 75.383398 
L 111.986565 75.383398 
L 111.986565 75.067521 
L 112.933867 74.962228 
L 112.933867 74.856936 
L 114.61796 74.751643 
L 114.61796 74.541058 
L 120.301775 74.435766 
L 120.301775 74.225181 
L 120.617543 74.119889 
L 120.617543 74.014596 
L 121.354333 73.909304 
L 121.354333 73.804011 
L 123.45945 73.698719 
L 123.45945 73.593426 
L 123.880473 73.488134 
L 123.880473 73.382841 
L 124.196241 73.382841 
L 124.196241 73.172256 
L 125.459311 73.066964 
L 125.459311 72.961671 
L 125.880334 72.961671 
L 125.98559 72.645794 
L 129.353777 72.540501 
L 129.353777 72.435209 
L 130.616847 72.329916 
L 130.616847 72.224624 
L 131.879916 72.119331 
L 131.879916 72.014039 
L 133.037731 71.908747 
L 133.037731 71.803454 
L 134.406056 71.698162 
L 134.406056 71.592869 
L 137.037452 71.592869 
L 137.037452 71.382284 
L 138.721545 71.276992 
L 138.721545 71.171699 
L 139.774104 71.066407 
L 139.774104 70.961114 
L 144.40536 70.855822 
L 144.40536 70.750529 
L 145.352663 70.645237 
L 145.352663 70.539944 
L 150.825966 70.434652 
L 150.825966 70.329359 
L 153.878385 70.224067 
L 153.878385 70.118774 
L 155.036199 70.013482 
L 155.036199 69.908189 
L 156.299269 69.802897 
L 156.299269 69.697604 
L 158.930665 69.592312 
L 158.930665 69.487019 
L 164.403968 69.381727 
L 164.403968 69.276435 
L 171.350853 69.171142 
L 171.350853 69.06585 
L 173.245458 68.960557 
L 173.245458 68.855265 
L 177.034668 68.749972 
L 177.034668 68.64468 
L 179.139784 68.539387 
L 179.139784 68.434095 
L 182.823738 68.328802 
L 182.823738 68.22351 
L 194.086112 68.118217 
L 194.086112 68.012925 
L 197.770066 67.907632 
L 197.770066 67.80234 
L 205.980021 67.697047 
L 205.980021 67.591755 
L 230.504629 67.486462 
L 230.504629 67.38117 
L 263.133937 67.275877 
L 263.133937 67.170585 
L 290.710964 67.065292 
L 290.710964 66.96 
L 372.6 66.96 
L 372.6 66.96 
" clip-path="url(#p940a294d18)" style="fill: none; stroke: #d62728; stroke-opacity: 0.3; stroke-linecap: square"/>
   </g>
   <g id="line2d_17">
    <path d="M 70.2 369.36 
L 70.305256 363.358329 
L 70.410512 363.358329 
L 70.515767 347.037994 
L 70.621023 347.037994 
L 70.726279 329.45415 
L 70.831535 329.45415 
L 70.936791 305.23688 
L 71.147302 305.131588 
L 71.252558 275.965571 
L 71.357814 275.965571 
L 71.46307 256.486462 
L 71.568326 256.486462 
L 71.673582 239.955543 
L 71.778837 239.955543 
L 71.884093 221.739944 
L 71.989349 221.739944 
L 72.094605 208.894262 
L 72.305117 208.788969 
L 72.410372 198.259721 
L 72.515628 198.259721 
L 72.620884 185.624624 
L 72.831396 185.624624 
L 72.936652 177.938273 
L 73.041907 177.938273 
L 73.147163 174.463621 
L 73.252419 174.463621 
L 73.357675 169.198997 
L 73.462931 169.198997 
L 73.568187 159.512089 
L 73.673442 159.512089 
L 73.778698 158.669749 
L 73.883954 158.669749 
L 73.98921 154.668635 
L 74.094466 154.668635 
L 74.199722 151.404568 
L 74.304977 151.404568 
L 74.410233 148.666964 
L 74.515489 148.666964 
L 74.620745 147.087577 
L 74.726001 147.087577 
L 74.831257 146.245237 
L 74.936512 146.245237 
L 75.041768 144.66585 
L 75.147024 144.66585 
L 75.25228 139.190641 
L 75.357536 139.190641 
L 75.462792 134.663064 
L 75.568047 134.663064 
L 75.673303 131.50429 
L 75.778559 131.50429 
L 75.883815 128.661393 
L 76.094326 128.5561 
L 76.199582 127.608468 
L 76.304838 127.608468 
L 76.304838 127.397883 
L 76.51535 127.397883 
L 76.620606 122.027967 
L 76.725861 122.027967 
L 76.831117 116.973928 
L 76.936373 116.973928 
L 77.041629 116.026295 
L 77.252141 116.026295 
L 77.357396 114.762786 
L 77.462652 114.762786 
L 77.567908 114.131031 
L 77.673164 114.131031 
L 77.77842 113.604568 
L 77.883676 113.604568 
L 77.988931 110.551086 
L 78.094187 110.551086 
L 78.094187 110.129916 
L 78.304699 110.129916 
L 78.409955 109.287577 
L 78.515211 109.287577 
L 78.620466 107.392312 
L 78.725722 107.392312 
L 78.830978 106.44468 
L 79.357257 106.339387 
L 79.462513 105.918217 
L 79.567769 105.918217 
L 79.567769 104.76 
L 79.883536 104.654708 
L 79.988792 104.444123 
L 80.094048 104.444123 
L 80.094048 103.49649 
L 80.30456 103.49649 
L 80.30456 103.285905 
L 80.620327 103.285905 
L 80.725583 102.759443 
L 80.830839 102.759443 
L 80.936095 101.706518 
L 81.041351 101.706518 
L 81.041351 101.495933 
L 81.357118 101.495933 
L 81.357118 100.758886 
L 81.672885 100.653593 
L 81.778141 99.600669 
L 82.093909 99.600669 
L 82.199165 97.705404 
L 82.409676 97.600111 
L 82.409676 97.494819 
L 82.620188 97.494819 
L 82.725444 96.547187 
L 82.935955 96.441894 
L 83.041211 96.020724 
L 83.251723 96.020724 
L 83.356979 95.599554 
L 83.462235 95.599554 
L 83.56749 94.862507 
L 83.672746 94.862507 
L 83.778002 94.441337 
L 83.883258 94.441337 
L 83.988514 93.809582 
L 84.304281 93.809582 
L 84.409537 93.388412 
L 84.514793 93.388412 
L 84.620049 92.335487 
L 84.83056 92.335487 
L 84.935816 91.914318 
L 85.462095 91.809025 
L 85.462095 91.59844 
L 85.672607 91.59844 
L 85.672607 91.071978 
L 85.883119 91.071978 
L 85.988375 90.7561 
L 86.09363 90.7561 
L 86.09363 90.545515 
L 86.61991 90.440223 
L 86.61991 90.124345 
L 87.146189 90.019053 
L 87.251444 89.703175 
L 87.461956 89.703175 
L 87.567212 88.966128 
L 87.672468 88.966128 
L 87.777724 88.439666 
L 88.198747 88.334373 
L 88.304003 88.018496 
L 88.61977 88.018496 
L 88.61977 87.807911 
L 89.461817 87.702618 
L 89.461817 86.965571 
L 89.88284 86.860279 
L 89.88284 86.544401 
L 90.093352 86.544401 
L 90.198608 86.123231 
L 90.409119 86.017939 
L 90.514375 85.175599 
L 90.724887 85.175599 
L 90.724887 84.754429 
L 91.566934 84.649136 
L 91.566934 84.543844 
L 91.777445 84.543844 
L 91.882701 84.122674 
L 92.303724 84.017382 
L 92.40898 83.596212 
L 92.514236 83.596212 
L 92.514236 83.385627 
L 93.566794 83.280334 
L 93.566794 83.175042 
L 93.987818 83.069749 
L 93.987818 82.859164 
L 94.408841 82.753872 
L 94.514097 82.227409 
L 94.724608 82.122117 
L 94.724608 82.016825 
L 95.040376 81.911532 
L 95.040376 81.595655 
L 95.566655 81.490362 
L 95.566655 81.38507 
L 96.19819 81.279777 
L 96.19819 81.174485 
L 97.356004 81.069192 
L 97.356004 80.9639 
L 97.987539 80.858607 
L 98.092795 80.54273 
L 98.829586 80.437437 
L 98.829586 80.332145 
L 99.355865 80.226852 
L 99.355865 80.12156 
L 99.566377 80.12156 
L 99.566377 79.805682 
L 100.092656 79.70039 
L 100.092656 79.595097 
L 100.303167 79.595097 
L 100.303167 79.384513 
L 100.829447 79.384513 
L 100.829447 79.173928 
L 101.460982 79.068635 
L 101.460982 78.963343 
L 101.882005 78.85805 
L 101.882005 78.752758 
L 103.355586 78.647465 
L 103.355586 78.542173 
L 104.302889 78.43688 
L 104.302889 78.331588 
L 105.03968 78.226295 
L 105.144936 78.01571 
L 106.30275 77.910418 
L 106.30275 77.805125 
L 106.618517 77.805125 
L 106.618517 77.59454 
L 109.249913 77.489248 
L 109.355169 77.278663 
L 109.776192 77.17337 
L 109.776192 76.857493 
L 110.82875 76.752201 
L 110.82875 76.436323 
L 111.670797 76.331031 
L 111.670797 76.225738 
L 112.09182 76.120446 
L 112.197076 75.909861 
L 113.144379 75.804568 
L 113.144379 75.699276 
L 113.986425 75.593983 
L 113.986425 75.488691 
L 115.565263 75.488691 
L 115.565263 75.278106 
L 116.407309 75.172813 
L 116.407309 75.067521 
L 117.1441 74.962228 
L 117.1441 74.856936 
L 118.40717 74.751643 
L 118.40717 74.646351 
L 119.67024 74.541058 
L 119.67024 74.435766 
L 120.196519 74.330474 
L 120.301775 74.119889 
L 121.985868 74.014596 
L 121.985868 73.909304 
L 124.512008 73.804011 
L 124.512008 73.698719 
L 125.038288 73.593426 
L 125.038288 73.488134 
L 127.24866 73.382841 
L 127.24866 73.277549 
L 128.406474 73.172256 
L 128.406474 73.066964 
L 129.038009 73.066964 
L 129.143265 72.645794 
L 133.248242 72.540501 
L 133.353498 72.329916 
L 138.09001 72.224624 
L 138.09001 72.119331 
L 139.247825 72.014039 
L 139.247825 71.803454 
L 140.300383 71.698162 
L 140.300383 71.592869 
L 141.037174 71.487577 
L 141.037174 71.276992 
L 142.826523 71.171699 
L 142.826523 70.961114 
L 146.089454 70.855822 
L 146.089454 70.750529 
L 147.668291 70.645237 
L 147.668291 70.539944 
L 149.773408 70.434652 
L 149.773408 70.329359 
L 151.668013 70.224067 
L 151.668013 70.118774 
L 152.825827 70.013482 
L 152.825827 69.908189 
L 155.457222 69.802897 
L 155.457222 69.697604 
L 157.457083 69.592312 
L 157.457083 69.487019 
L 161.667316 69.381727 
L 161.667316 69.276435 
L 163.561921 69.171142 
L 163.561921 69.06585 
L 169.666759 68.960557 
L 169.666759 68.749972 
L 174.824295 68.64468 
L 174.929551 68.434095 
L 178.192482 68.328802 
L 178.192482 68.22351 
L 180.50811 68.118217 
L 180.50811 68.012925 
L 190.928437 67.907632 
L 190.928437 67.80234 
L 203.664393 67.697047 
L 203.664393 67.591755 
L 214.189976 67.486462 
L 214.189976 67.38117 
L 219.663279 67.275877 
L 219.663279 67.170585 
L 301.762826 67.065292 
L 301.762826 66.96 
L 372.6 66.96 
L 372.6 66.96 
" clip-path="url(#p940a294d18)" style="fill: none; stroke: #9467bd; stroke-opacity: 0.3; stroke-linecap: square"/>
   </g>
   <g id="line2d_18">
    <path d="M 70.2 369.36 
L 73.254545 169.451897 
L 76.309091 125.156455 
L 79.363636 104.493912 
L 82.418182 96.068775 
L 85.472727 90.634568 
L 88.527273 86.864342 
L 91.581818 84.231583 
L 94.636364 82.230666 
L 97.690909 80.65092 
L 100.745455 79.218663 
L 103.8 77.975904 
L 106.854545 77.386149 
L 109.909091 76.396187 
L 112.963636 75.595817 
L 116.018182 74.963915 
L 119.072727 74.268794 
L 122.127273 73.805434 
L 125.181818 73.257796 
L 128.236364 72.857611 
L 131.290909 72.457426 
L 134.345455 72.015103 
L 137.4 71.678071 
L 140.454545 71.277894 
L 143.509091 70.940892 
L 146.563636 70.709204 
L 149.618182 70.47751 
L 152.672727 70.245822 
L 155.727273 70.014149 
L 158.781818 69.782462 
L 161.836364 69.571826 
L 164.890909 69.44546 
L 167.945455 69.276948 
L 171 69.087378 
L 174.054545 68.855675 
L 177.109091 68.687178 
L 180.163636 68.518688 
L 183.218182 68.392315 
L 186.272727 68.350191 
L 189.327273 68.286993 
L 192.381818 68.160613 
L 195.436364 68.076364 
L 198.490909 67.992116 
L 201.545455 67.928926 
L 204.6 67.907867 
L 207.654545 67.844677 
L 210.709091 67.823611 
L 213.763636 67.739355 
L 216.818182 67.676172 
L 219.872727 67.612989 
L 222.927273 67.570858 
L 225.981818 67.549792 
L 229.036364 67.507668 
L 232.090909 67.465543 
L 235.145455 67.423419 
L 238.2 67.423419 
L 241.254545 67.423419 
L 244.309091 67.31809 
L 247.363636 67.31809 
L 250.418182 67.31809 
L 253.472727 67.275958 
L 256.527273 67.254892 
L 259.581818 67.212761 
L 262.636364 67.212761 
L 265.690909 67.191702 
L 268.745455 67.170636 
L 271.8 67.107439 
L 274.854545 67.086373 
L 277.909091 67.065307 
L 280.963636 67.065307 
L 284.018182 67.044249 
L 287.072727 67.044249 
L 290.127273 67.044249 
L 293.181818 67.02319 
L 296.236364 67.002124 
L 299.290909 67.002124 
L 302.345455 66.981066 
L 305.4 66.96 
L 308.454545 66.96 
L 311.509091 66.96 
L 314.563636 66.96 
L 317.618182 66.96 
L 320.672727 66.96 
L 323.727273 66.96 
L 326.781818 66.96 
L 329.836364 66.96 
L 332.890909 66.96 
L 335.945455 66.96 
L 339 66.96 
L 342.054545 66.96 
L 345.109091 66.96 
L 348.163636 66.96 
L 351.218182 66.96 
L 354.272727 66.96 
L 357.327273 66.96 
L 360.381818 66.96 
L 363.436364 66.96 
L 366.490909 66.96 
L 369.545455 66.96 
L 372.6 66.96 
" clip-path="url(#p940a294d18)" style="fill: none; stroke: #0000ff; stroke-opacity: 0.8; stroke-width: 2; stroke-linecap: square"/>
   </g>
   <g id="patch_3">
    <path d="M 55.08 384.48 
L 55.08 51.84 
" style="fill: none; stroke: #000000; stroke-width: 0.8; stroke-linejoin: miter; stroke-linecap: square"/>
   </g>
   <g id="patch_4">
    <path d="M 387.72 384.48 
L 387.72 51.84 
" style="fill: none; stroke: #000000; stroke-width: 0.8; stroke-linejoin: miter; stroke-linecap: square"/>
   </g>
   <g id="patch_5">
    <path d="M 55.08 384.48 
L 387.72 384.48 
" style="fill: none; stroke: #000000; stroke-width: 0.8; stroke-linejoin: miter; stroke-linecap: square"/>
   </g>
   <g id="patch_6">
    <path d="M 55.08 51.84 
L 387.72 51.84 
" style="fill: none; stroke: #000000; stroke-width: 0.8; stroke-linejoin: miter; stroke-linecap: square"/>
   </g>
   <g id="text_15">
    <!-- Mean ROC curve with variability -->
    <g transform="translate(125.05125 45.84) scale(0.12 -0.12)">
     <defs>
      <path id="DejaVuSans-4d" d="M 628 4666 
L 1569 4666 
L 2759 1491 
L 3956 4666 
L 4897 4666 
L 4897 0 
L 4281 0 
L 4281 4097 
L 3078 897 
L 2444 897 
L 1241 4097 
L 1241 0 
L 628 0 
L 628 4666 
z
" transform="scale(0.015625)"/>
      <path id="DejaVuSans-6e" d="M 3513 2113 
L 3513 0 
L 2938 0 
L 2938 2094 
Q 2938 2591 2744 2837 
Q 2550 3084 2163 3084 
Q 1697 3084 1428 2787 
Q 1159 2491 1159 1978 
L 1159 0 
L 581 0 
L 581 3500 
L 1159 3500 
L 1159 2956 
Q 1366 3272 1645 3428 
Q 1925 3584 2291 3584 
Q 2894 3584 3203 3211 
Q 3513 2838 3513 2113 
z
" transform="scale(0.015625)"/>
      <path id="DejaVuSans-4f" d="M 2522 4238 
Q 1834 4238 1429 3725 
Q 1025 3213 1025 2328 
Q 1025 1447 1429 934 
Q 1834 422 2522 422 
Q 3209 422 3611 934 
Q 4013 1447 4013 2328 
Q 4013 3213 3611 3725 
Q 3209 4238 2522 4238 
z
M 2522 4750 
Q 3503 4750 4090 4092 
Q 4678 3434 4678 2328 
Q 4678 1225 4090 567 
Q 3503 -91 2522 -91 
Q 1538 -91 948 565 
Q 359 1222 359 2328 
Q 359 3434 948 4092 
Q 1538 4750 2522 4750 
z
" transform="scale(0.015625)"/>
      <path id="DejaVuSans-43" d="M 4122 4306 
L 4122 3641 
Q 3803 3938 3442 4084 
Q 3081 4231 2675 4231 
Q 1875 4231 1450 3742 
Q 1025 3253 1025 2328 
Q 1025 1406 1450 917 
Q 1875 428 2675 428 
Q 3081 428 3442 575 
Q 3803 722 4122 1019 
L 4122 359 
Q 3791 134 3420 21 
Q 3050 -91 2638 -91 
Q 1578 -91 968 557 
Q 359 1206 359 2328 
Q 359 3453 968 4101 
Q 1578 4750 2638 4750 
Q 3056 4750 3426 4639 
Q 3797 4528 4122 4306 
z
" transform="scale(0.015625)"/>
      <path id="DejaVuSans-63" d="M 3122 3366 
L 3122 2828 
Q 2878 2963 2633 3030 
Q 2388 3097 2138 3097 
Q 1578 3097 1268 2742 
Q 959 2388 959 1747 
Q 959 1106 1268 751 
Q 1578 397 2138 397 
Q 2388 397 2633 464 
Q 2878 531 3122 666 
L 3122 134 
Q 2881 22 2623 -34 
Q 2366 -91 2075 -91 
Q 1284 -91 818 406 
Q 353 903 353 1747 
Q 353 2603 823 3093 
Q 1294 3584 2113 3584 
Q 2378 3584 2631 3529 
Q 2884 3475 3122 3366 
z
" transform="scale(0.015625)"/>
      <path id="DejaVuSans-77" d="M 269 3500 
L 844 3500 
L 1563 769 
L 2278 3500 
L 2956 3500 
L 3675 769 
L 4391 3500 
L 4966 3500 
L 4050 0 
L 3372 0 
L 2619 2869 
L 1863 0 
L 1184 0 
L 269 3500 
z
" transform="scale(0.015625)"/>
      <path id="DejaVuSans-68" d="M 3513 2113 
L 3513 0 
L 2938 0 
L 2938 2094 
Q 2938 2591 2744 2837 
Q 2550 3084 2163 3084 
Q 1697 3084 1428 2787 
Q 1159 2491 1159 1978 
L 1159 0 
L 581 0 
L 581 4863 
L 1159 4863 
L 1159 2956 
Q 1366 3272 1645 3428 
Q 1925 3584 2291 3584 
Q 2894 3584 3203 3211 
Q 3513 2838 3513 2113 
z
" transform="scale(0.015625)"/>
      <path id="DejaVuSans-62" d="M 3116 1747 
Q 3116 2381 2855 2742 
Q 2594 3103 2138 3103 
Q 1681 3103 1420 2742 
Q 1159 2381 1159 1747 
Q 1159 1113 1420 752 
Q 1681 391 2138 391 
Q 2594 391 2855 752 
Q 3116 1113 3116 1747 
z
M 1159 2969 
Q 1341 3281 1617 3432 
Q 1894 3584 2278 3584 
Q 2916 3584 3314 3078 
Q 3713 2572 3713 1747 
Q 3713 922 3314 415 
Q 2916 -91 2278 -91 
Q 1894 -91 1617 61 
Q 1341 213 1159 525 
L 1159 0 
L 581 0 
L 581 4863 
L 1159 4863 
L 1159 2969 
z
" transform="scale(0.015625)"/>
      <path id="DejaVuSans-79" d="M 2059 -325 
Q 1816 -950 1584 -1140 
Q 1353 -1331 966 -1331 
L 506 -1331 
L 506 -850 
L 844 -850 
Q 1081 -850 1212 -737 
Q 1344 -625 1503 -206 
L 1606 56 
L 191 3500 
L 800 3500 
L 1894 763 
L 2988 3500 
L 3597 3500 
L 2059 -325 
z
" transform="scale(0.015625)"/>
     </defs>
     <use xlink:href="#DejaVuSans-4d"/>
     <use xlink:href="#DejaVuSans-65" x="86.279297"/>
     <use xlink:href="#DejaVuSans-61" x="147.802734"/>
     <use xlink:href="#DejaVuSans-6e" x="209.082031"/>
     <use xlink:href="#DejaVuSans-20" x="272.460938"/>
     <use xlink:href="#DejaVuSans-52" x="304.248047"/>
     <use xlink:href="#DejaVuSans-4f" x="373.730469"/>
     <use xlink:href="#DejaVuSans-43" x="452.441406"/>
     <use xlink:href="#DejaVuSans-20" x="522.265625"/>
     <use xlink:href="#DejaVuSans-63" x="554.052734"/>
     <use xlink:href="#DejaVuSans-75" x="609.033203"/>
     <use xlink:href="#DejaVuSans-72" x="672.412109"/>
     <use xlink:href="#DejaVuSans-76" x="713.525391"/>
     <use xlink:href="#DejaVuSans-65" x="772.705078"/>
     <use xlink:href="#DejaVuSans-20" x="834.228516"/>
     <use xlink:href="#DejaVuSans-77" x="866.015625"/>
     <use xlink:href="#DejaVuSans-69" x="947.802734"/>
     <use xlink:href="#DejaVuSans-74" x="975.585938"/>
     <use xlink:href="#DejaVuSans-68" x="1014.794922"/>
     <use xlink:href="#DejaVuSans-20" x="1078.173828"/>
     <use xlink:href="#DejaVuSans-76" x="1109.960938"/>
     <use xlink:href="#DejaVuSans-61" x="1169.140625"/>
     <use xlink:href="#DejaVuSans-72" x="1230.419922"/>
     <use xlink:href="#DejaVuSans-69" x="1271.533203"/>
     <use xlink:href="#DejaVuSans-61" x="1299.316406"/>
     <use xlink:href="#DejaVuSans-62" x="1360.595703"/>
     <use xlink:href="#DejaVuSans-69" x="1424.072266"/>
     <use xlink:href="#DejaVuSans-6c" x="1451.855469"/>
     <use xlink:href="#DejaVuSans-69" x="1479.638672"/>
     <use xlink:href="#DejaVuSans-74" x="1507.421875"/>
     <use xlink:href="#DejaVuSans-79" x="1546.630859"/>
    </g>
   </g>
   <g id="legend_1">
    <g id="patch_7">
     <path d="M 190.32 379.48 
L 380.72 379.48 
Q 382.72 379.48 382.72 377.48 
L 382.72 275.733125 
Q 382.72 273.733125 380.72 273.733125 
L 190.32 273.733125 
Q 188.32 273.733125 188.32 275.733125 
L 188.32 377.48 
Q 188.32 379.48 190.32 379.48 
z
" style="fill: #ffffff; opacity: 0.8; stroke: #cccccc; stroke-linejoin: miter"/>
    </g>
    <g id="line2d_19">
     <path d="M 192.32 281.831563 
L 202.32 281.831563 
L 212.32 281.831563 
" style="fill: none; stroke: #1f77b4; stroke-opacity: 0.3; stroke-linecap: square"/>
    </g>
    <g id="text_16">
     <!-- ROC fold 0 (AUC = 0.98) -->
     <g transform="translate(220.32 285.331563) scale(0.1 -0.1)">
      <defs>
       <path id="DejaVuSans-66" d="M 2375 4863 
L 2375 4384 
L 1825 4384 
Q 1516 4384 1395 4259 
Q 1275 4134 1275 3809 
L 1275 3500 
L 2222 3500 
L 2222 3053 
L 1275 3053 
L 1275 0 
L 697 0 
L 697 3053 
L 147 3053 
L 147 3500 
L 697 3500 
L 697 3744 
Q 697 4328 969 4595 
Q 1241 4863 1831 4863 
L 2375 4863 
z
" transform="scale(0.015625)"/>
       <path id="DejaVuSans-64" d="M 2906 2969 
L 2906 4863 
L 3481 4863 
L 3481 0 
L 2906 0 
L 2906 525 
Q 2725 213 2448 61 
Q 2172 -91 1784 -91 
Q 1150 -91 751 415 
Q 353 922 353 1747 
Q 353 2572 751 3078 
Q 1150 3584 1784 3584 
Q 2172 3584 2448 3432 
Q 2725 3281 2906 2969 
z
M 947 1747 
Q 947 1113 1208 752 
Q 1469 391 1925 391 
Q 2381 391 2643 752 
Q 2906 1113 2906 1747 
Q 2906 2381 2643 2742 
Q 2381 3103 1925 3103 
Q 1469 3103 1208 2742 
Q 947 2381 947 1747 
z
" transform="scale(0.015625)"/>
       <path id="DejaVuSans-28" d="M 1984 4856 
Q 1566 4138 1362 3434 
Q 1159 2731 1159 2009 
Q 1159 1288 1364 580 
Q 1569 -128 1984 -844 
L 1484 -844 
Q 1016 -109 783 600 
Q 550 1309 550 2009 
Q 550 2706 781 3412 
Q 1013 4119 1484 4856 
L 1984 4856 
z
" transform="scale(0.015625)"/>
       <path id="DejaVuSans-41" d="M 2188 4044 
L 1331 1722 
L 3047 1722 
L 2188 4044 
z
M 1831 4666 
L 2547 4666 
L 4325 0 
L 3669 0 
L 3244 1197 
L 1141 1197 
L 716 0 
L 50 0 
L 1831 4666 
z
" transform="scale(0.015625)"/>
       <path id="DejaVuSans-55" d="M 556 4666 
L 1191 4666 
L 1191 1831 
Q 1191 1081 1462 751 
Q 1734 422 2344 422 
Q 2950 422 3222 751 
Q 3494 1081 3494 1831 
L 3494 4666 
L 4128 4666 
L 4128 1753 
Q 4128 841 3676 375 
Q 3225 -91 2344 -91 
Q 1459 -91 1007 375 
Q 556 841 556 1753 
L 556 4666 
z
" transform="scale(0.015625)"/>
       <path id="DejaVuSans-3d" d="M 678 2906 
L 4684 2906 
L 4684 2381 
L 678 2381 
L 678 2906 
z
M 678 1631 
L 4684 1631 
L 4684 1100 
L 678 1100 
L 678 1631 
z
" transform="scale(0.015625)"/>
       <path id="DejaVuSans-39" d="M 703 97 
L 703 672 
Q 941 559 1184 500 
Q 1428 441 1663 441 
Q 2288 441 2617 861 
Q 2947 1281 2994 2138 
Q 2813 1869 2534 1725 
Q 2256 1581 1919 1581 
Q 1219 1581 811 2004 
Q 403 2428 403 3163 
Q 403 3881 828 4315 
Q 1253 4750 1959 4750 
Q 2769 4750 3195 4129 
Q 3622 3509 3622 2328 
Q 3622 1225 3098 567 
Q 2575 -91 1691 -91 
Q 1453 -91 1209 -44 
Q 966 3 703 97 
z
M 1959 2075 
Q 2384 2075 2632 2365 
Q 2881 2656 2881 3163 
Q 2881 3666 2632 3958 
Q 2384 4250 1959 4250 
Q 1534 4250 1286 3958 
Q 1038 3666 1038 3163 
Q 1038 2656 1286 2365 
Q 1534 2075 1959 2075 
z
" transform="scale(0.015625)"/>
       <path id="DejaVuSans-29" d="M 513 4856 
L 1013 4856 
Q 1481 4119 1714 3412 
Q 1947 2706 1947 2009 
Q 1947 1309 1714 600 
Q 1481 -109 1013 -844 
L 513 -844 
Q 928 -128 1133 580 
Q 1338 1288 1338 2009 
Q 1338 2731 1133 3434 
Q 928 4138 513 4856 
z
" transform="scale(0.015625)"/>
      </defs>
      <use xlink:href="#DejaVuSans-52"/>
      <use xlink:href="#DejaVuSans-4f" x="69.482422"/>
      <use xlink:href="#DejaVuSans-43" x="148.193359"/>
      <use xlink:href="#DejaVuSans-20" x="218.017578"/>
      <use xlink:href="#DejaVuSans-66" x="249.804688"/>
      <use xlink:href="#DejaVuSans-6f" x="285.009766"/>
      <use xlink:href="#DejaVuSans-6c" x="346.191406"/>
      <use xlink:href="#DejaVuSans-64" x="373.974609"/>
      <use xlink:href="#DejaVuSans-20" x="437.451172"/>
      <use xlink:href="#DejaVuSans-30" x="469.238281"/>
      <use xlink:href="#DejaVuSans-20" x="532.861328"/>
      <use xlink:href="#DejaVuSans-28" x="564.648438"/>
      <use xlink:href="#DejaVuSans-41" x="603.662109"/>
      <use xlink:href="#DejaVuSans-55" x="672.070312"/>
      <use xlink:href="#DejaVuSans-43" x="745.263672"/>
      <use xlink:href="#DejaVuSans-20" x="815.087891"/>
      <use xlink:href="#DejaVuSans-3d" x="846.875"/>
      <use xlink:href="#DejaVuSans-20" x="930.664062"/>
      <use xlink:href="#DejaVuSans-30" x="962.451172"/>
      <use xlink:href="#DejaVuSans-2e" x="1026.074219"/>
      <use xlink:href="#DejaVuSans-39" x="1057.861328"/>
      <use xlink:href="#DejaVuSans-38" x="1121.484375"/>
      <use xlink:href="#DejaVuSans-29" x="1185.107422"/>
     </g>
    </g>
    <g id="line2d_20">
     <path d="M 192.32 296.509688 
L 202.32 296.509688 
L 212.32 296.509688 
" style="fill: none; stroke: #ff7f0e; stroke-opacity: 0.3; stroke-linecap: square"/>
    </g>
    <g id="text_17">
     <!-- ROC fold 1 (AUC = 0.98) -->
     <g transform="translate(220.32 300.009688) scale(0.1 -0.1)">
      <use xlink:href="#DejaVuSans-52"/>
      <use xlink:href="#DejaVuSans-4f" x="69.482422"/>
      <use xlink:href="#DejaVuSans-43" x="148.193359"/>
      <use xlink:href="#DejaVuSans-20" x="218.017578"/>
      <use xlink:href="#DejaVuSans-66" x="249.804688"/>
      <use xlink:href="#DejaVuSans-6f" x="285.009766"/>
      <use xlink:href="#DejaVuSans-6c" x="346.191406"/>
      <use xlink:href="#DejaVuSans-64" x="373.974609"/>
      <use xlink:href="#DejaVuSans-20" x="437.451172"/>
      <use xlink:href="#DejaVuSans-31" x="469.238281"/>
      <use xlink:href="#DejaVuSans-20" x="532.861328"/>
      <use xlink:href="#DejaVuSans-28" x="564.648438"/>
      <use xlink:href="#DejaVuSans-41" x="603.662109"/>
      <use xlink:href="#DejaVuSans-55" x="672.070312"/>
      <use xlink:href="#DejaVuSans-43" x="745.263672"/>
      <use xlink:href="#DejaVuSans-20" x="815.087891"/>
      <use xlink:href="#DejaVuSans-3d" x="846.875"/>
      <use xlink:href="#DejaVuSans-20" x="930.664062"/>
      <use xlink:href="#DejaVuSans-30" x="962.451172"/>
      <use xlink:href="#DejaVuSans-2e" x="1026.074219"/>
      <use xlink:href="#DejaVuSans-39" x="1057.861328"/>
      <use xlink:href="#DejaVuSans-38" x="1121.484375"/>
      <use xlink:href="#DejaVuSans-29" x="1185.107422"/>
     </g>
    </g>
    <g id="line2d_21">
     <path d="M 192.32 311.187813 
L 202.32 311.187813 
L 212.32 311.187813 
" style="fill: none; stroke: #2ca02c; stroke-opacity: 0.3; stroke-linecap: square"/>
    </g>
    <g id="text_18">
     <!-- ROC fold 2 (AUC = 0.98) -->
     <g transform="translate(220.32 314.687813) scale(0.1 -0.1)">
      <use xlink:href="#DejaVuSans-52"/>
      <use xlink:href="#DejaVuSans-4f" x="69.482422"/>
      <use xlink:href="#DejaVuSans-43" x="148.193359"/>
      <use xlink:href="#DejaVuSans-20" x="218.017578"/>
      <use xlink:href="#DejaVuSans-66" x="249.804688"/>
      <use xlink:href="#DejaVuSans-6f" x="285.009766"/>
      <use xlink:href="#DejaVuSans-6c" x="346.191406"/>
      <use xlink:href="#DejaVuSans-64" x="373.974609"/>
      <use xlink:href="#DejaVuSans-20" x="437.451172"/>
      <use xlink:href="#DejaVuSans-32" x="469.238281"/>
      <use xlink:href="#DejaVuSans-20" x="532.861328"/>
      <use xlink:href="#DejaVuSans-28" x="564.648438"/>
      <use xlink:href="#DejaVuSans-41" x="603.662109"/>
      <use xlink:href="#DejaVuSans-55" x="672.070312"/>
      <use xlink:href="#DejaVuSans-43" x="745.263672"/>
      <use xlink:href="#DejaVuSans-20" x="815.087891"/>
      <use xlink:href="#DejaVuSans-3d" x="846.875"/>
      <use xlink:href="#DejaVuSans-20" x="930.664062"/>
      <use xlink:href="#DejaVuSans-30" x="962.451172"/>
      <use xlink:href="#DejaVuSans-2e" x="1026.074219"/>
      <use xlink:href="#DejaVuSans-39" x="1057.861328"/>
      <use xlink:href="#DejaVuSans-38" x="1121.484375"/>
      <use xlink:href="#DejaVuSans-29" x="1185.107422"/>
     </g>
    </g>
    <g id="line2d_22">
     <path d="M 192.32 325.865938 
L 202.32 325.865938 
L 212.32 325.865938 
" style="fill: none; stroke: #d62728; stroke-opacity: 0.3; stroke-linecap: square"/>
    </g>
    <g id="text_19">
     <!-- ROC fold 3 (AUC = 0.98) -->
     <g transform="translate(220.32 329.365938) scale(0.1 -0.1)">
      <defs>
       <path id="DejaVuSans-33" d="M 2597 2516 
Q 3050 2419 3304 2112 
Q 3559 1806 3559 1356 
Q 3559 666 3084 287 
Q 2609 -91 1734 -91 
Q 1441 -91 1130 -33 
Q 819 25 488 141 
L 488 750 
Q 750 597 1062 519 
Q 1375 441 1716 441 
Q 2309 441 2620 675 
Q 2931 909 2931 1356 
Q 2931 1769 2642 2001 
Q 2353 2234 1838 2234 
L 1294 2234 
L 1294 2753 
L 1863 2753 
Q 2328 2753 2575 2939 
Q 2822 3125 2822 3475 
Q 2822 3834 2567 4026 
Q 2313 4219 1838 4219 
Q 1578 4219 1281 4162 
Q 984 4106 628 3988 
L 628 4550 
Q 988 4650 1302 4700 
Q 1616 4750 1894 4750 
Q 2613 4750 3031 4423 
Q 3450 4097 3450 3541 
Q 3450 3153 3228 2886 
Q 3006 2619 2597 2516 
z
" transform="scale(0.015625)"/>
      </defs>
      <use xlink:href="#DejaVuSans-52"/>
      <use xlink:href="#DejaVuSans-4f" x="69.482422"/>
      <use xlink:href="#DejaVuSans-43" x="148.193359"/>
      <use xlink:href="#DejaVuSans-20" x="218.017578"/>
      <use xlink:href="#DejaVuSans-66" x="249.804688"/>
      <use xlink:href="#DejaVuSans-6f" x="285.009766"/>
      <use xlink:href="#DejaVuSans-6c" x="346.191406"/>
      <use xlink:href="#DejaVuSans-64" x="373.974609"/>
      <use xlink:href="#DejaVuSans-20" x="437.451172"/>
      <use xlink:href="#DejaVuSans-33" x="469.238281"/>
      <use xlink:href="#DejaVuSans-20" x="532.861328"/>
      <use xlink:href="#DejaVuSans-28" x="564.648438"/>
      <use xlink:href="#DejaVuSans-41" x="603.662109"/>
      <use xlink:href="#DejaVuSans-55" x="672.070312"/>
      <use xlink:href="#DejaVuSans-43" x="745.263672"/>
      <use xlink:href="#DejaVuSans-20" x="815.087891"/>
      <use xlink:href="#DejaVuSans-3d" x="846.875"/>
      <use xlink:href="#DejaVuSans-20" x="930.664062"/>
      <use xlink:href="#DejaVuSans-30" x="962.451172"/>
      <use xlink:href="#DejaVuSans-2e" x="1026.074219"/>
      <use xlink:href="#DejaVuSans-39" x="1057.861328"/>
      <use xlink:href="#DejaVuSans-38" x="1121.484375"/>
      <use xlink:href="#DejaVuSans-29" x="1185.107422"/>
     </g>
    </g>
    <g id="line2d_23">
     <path d="M 192.32 340.544062 
L 202.32 340.544062 
L 212.32 340.544062 
" style="fill: none; stroke: #9467bd; stroke-opacity: 0.3; stroke-linecap: square"/>
    </g>
    <g id="text_20">
     <!-- ROC fold 4 (AUC = 0.98) -->
     <g transform="translate(220.32 344.044062) scale(0.1 -0.1)">
      <use xlink:href="#DejaVuSans-52"/>
      <use xlink:href="#DejaVuSans-4f" x="69.482422"/>
      <use xlink:href="#DejaVuSans-43" x="148.193359"/>
      <use xlink:href="#DejaVuSans-20" x="218.017578"/>
      <use xlink:href="#DejaVuSans-66" x="249.804688"/>
      <use xlink:href="#DejaVuSans-6f" x="285.009766"/>
      <use xlink:href="#DejaVuSans-6c" x="346.191406"/>
      <use xlink:href="#DejaVuSans-64" x="373.974609"/>
      <use xlink:href="#DejaVuSans-20" x="437.451172"/>
      <use xlink:href="#DejaVuSans-34" x="469.238281"/>
      <use xlink:href="#DejaVuSans-20" x="532.861328"/>
      <use xlink:href="#DejaVuSans-28" x="564.648438"/>
      <use xlink:href="#DejaVuSans-41" x="603.662109"/>
      <use xlink:href="#DejaVuSans-55" x="672.070312"/>
      <use xlink:href="#DejaVuSans-43" x="745.263672"/>
      <use xlink:href="#DejaVuSans-20" x="815.087891"/>
      <use xlink:href="#DejaVuSans-3d" x="846.875"/>
      <use xlink:href="#DejaVuSans-20" x="930.664062"/>
      <use xlink:href="#DejaVuSans-30" x="962.451172"/>
      <use xlink:href="#DejaVuSans-2e" x="1026.074219"/>
      <use xlink:href="#DejaVuSans-39" x="1057.861328"/>
      <use xlink:href="#DejaVuSans-38" x="1121.484375"/>
      <use xlink:href="#DejaVuSans-29" x="1185.107422"/>
     </g>
    </g>
    <g id="line2d_24">
     <path d="M 192.32 355.222188 
L 202.32 355.222188 
L 212.32 355.222188 
" style="fill: none; stroke: #0000ff; stroke-opacity: 0.8; stroke-width: 2; stroke-linecap: square"/>
    </g>
    <g id="text_21">
     <!-- Mean ROC (AUC = 0.98 $\pm$ 0.00) -->
     <g transform="translate(220.32 358.722188) scale(0.1 -0.1)">
      <defs>
       <path id="DejaVuSans-b1" d="M 2944 4013 
L 2944 2803 
L 4684 2803 
L 4684 2272 
L 2944 2272 
L 2944 1063 
L 2419 1063 
L 2419 2272 
L 678 2272 
L 678 2803 
L 2419 2803 
L 2419 4013 
L 2944 4013 
z
M 678 531 
L 4684 531 
L 4684 0 
L 678 0 
L 678 531 
z
" transform="scale(0.015625)"/>
      </defs>
      <use xlink:href="#DejaVuSans-4d" transform="translate(0 0.125)"/>
      <use xlink:href="#DejaVuSans-65" transform="translate(86.279297 0.125)"/>
      <use xlink:href="#DejaVuSans-61" transform="translate(147.802734 0.125)"/>
      <use xlink:href="#DejaVuSans-6e" transform="translate(209.082031 0.125)"/>
      <use xlink:href="#DejaVuSans-20" transform="translate(272.460938 0.125)"/>
      <use xlink:href="#DejaVuSans-52" transform="translate(304.248047 0.125)"/>
      <use xlink:href="#DejaVuSans-4f" transform="translate(373.730469 0.125)"/>
      <use xlink:href="#DejaVuSans-43" transform="translate(452.441406 0.125)"/>
      <use xlink:href="#DejaVuSans-20" transform="translate(522.265625 0.125)"/>
      <use xlink:href="#DejaVuSans-28" transform="translate(554.052734 0.125)"/>
      <use xlink:href="#DejaVuSans-41" transform="translate(593.066406 0.125)"/>
      <use xlink:href="#DejaVuSans-55" transform="translate(661.474609 0.125)"/>
      <use xlink:href="#DejaVuSans-43" transform="translate(734.667969 0.125)"/>
      <use xlink:href="#DejaVuSans-20" transform="translate(804.492188 0.125)"/>
      <use xlink:href="#DejaVuSans-3d" transform="translate(836.279297 0.125)"/>
      <use xlink:href="#DejaVuSans-20" transform="translate(920.068359 0.125)"/>
      <use xlink:href="#DejaVuSans-30" transform="translate(951.855469 0.125)"/>
      <use xlink:href="#DejaVuSans-2e" transform="translate(1015.478516 0.125)"/>
      <use xlink:href="#DejaVuSans-39" transform="translate(1047.265625 0.125)"/>
      <use xlink:href="#DejaVuSans-38" transform="translate(1110.888672 0.125)"/>
      <use xlink:href="#DejaVuSans-20" transform="translate(1174.511719 0.125)"/>
      <use xlink:href="#DejaVuSans-b1" transform="translate(1206.298828 0.125)"/>
      <use xlink:href="#DejaVuSans-20" transform="translate(1290.087891 0.125)"/>
      <use xlink:href="#DejaVuSans-30" transform="translate(1321.875 0.125)"/>
      <use xlink:href="#DejaVuSans-2e" transform="translate(1385.498047 0.125)"/>
      <use xlink:href="#DejaVuSans-30" transform="translate(1417.285156 0.125)"/>
      <use xlink:href="#DejaVuSans-30" transform="translate(1480.908203 0.125)"/>
      <use xlink:href="#DejaVuSans-29" transform="translate(1544.53125 0.125)"/>
     </g>
    </g>
    <g id="patch_8">
     <path d="M 192.32 373.400313 
L 212.32 373.400313 
L 212.32 366.400313 
L 192.32 366.400313 
z
" style="fill: #808080; fill-opacity: 0.2; stroke: #808080; stroke-opacity: 0.2; stroke-linejoin: miter"/>
    </g>
    <g id="text_22">
     <!-- $\pm$ 1 std. dev. -->
     <g transform="translate(220.32 373.400313) scale(0.1 -0.1)">
      <use xlink:href="#DejaVuSans-b1" transform="translate(0 0.015625)"/>
      <use xlink:href="#DejaVuSans-20" transform="translate(83.789062 0.015625)"/>
      <use xlink:href="#DejaVuSans-31" transform="translate(115.576172 0.015625)"/>
      <use xlink:href="#DejaVuSans-20" transform="translate(179.199219 0.015625)"/>
      <use xlink:href="#DejaVuSans-73" transform="translate(210.986328 0.015625)"/>
      <use xlink:href="#DejaVuSans-74" transform="translate(263.085938 0.015625)"/>
      <use xlink:href="#DejaVuSans-64" transform="translate(302.294922 0.015625)"/>
      <use xlink:href="#DejaVuSans-2e" transform="translate(365.771484 0.015625)"/>
      <use xlink:href="#DejaVuSans-20" transform="translate(397.558594 0.015625)"/>
      <use xlink:href="#DejaVuSans-64" transform="translate(429.345703 0.015625)"/>
      <use xlink:href="#DejaVuSans-65" transform="translate(492.822266 0.015625)"/>
      <use xlink:href="#DejaVuSans-76" transform="translate(554.345703 0.015625)"/>
      <use xlink:href="#DejaVuSans-2e" transform="translate(613.525391 0.015625)"/>
     </g>
    </g>
   </g>
  </g>
 </g>
 <defs>
  <clipPath id="p940a294d18">
   <rect x="55.08" y="51.84" width="332.64" height="332.64"/>
  </clipPath>
 </defs>
</svg>
